<svg id="Layer_1" data-name="Layer 1" xmlns="http://www.w3.org/2000/svg" width="37" height="29" viewBox="0 0 37 29">
  <defs>
    <style>
      .cls-1 {
        fill: #010201;
      }

      .cls-2 {
        fill: #ffc100;
      }
    </style>
  </defs>
  <g>
    <path class="cls-1" d="M32.05,0H5A5,5,0,0,0,0,4.91V24.09A5,5,0,0,0,5,29h27.1a5,5,0,0,0,5-4.91V4.91A5,5,0,0,0,32.05,0ZM7.59,24.32H3.47V20.24H7.59Zm6.18,0H9.65V16.15h4.12Zm6.18,0H15.83V12.06H20Zm6.19,0H22V8h4.13Zm6.18,0H28.2V3.88h4.12Z"/>
    <g>
      <rect class="cls-2" x="3.47" y="20.24" width="4.12" height="4.09"/>
      <rect class="cls-2" x="9.65" y="16.15" width="4.12" height="8.18"/>
      <rect class="cls-2" x="15.83" y="12.06" width="4.12" height="12.27"/>
    </g>
    <rect class="cls-1" x="22.01" y="7.97" width="4.12" height="16.36"/>
    <rect class="cls-1" x="28.2" y="3.88" width="4.12" height="20.45"/>
  </g>
</svg>
