<?xml version="1.0" encoding="utf-8"?>
<!-- Generator: Adobe Illustrator 24.0.3, SVG Export Plug-In . SVG Version: 6.00 Build 0)  -->
<svg version="1.1" id="Layer_1" xmlns="http://www.w3.org/2000/svg" xmlns:xlink="http://www.w3.org/1999/xlink" x="0px" y="0px"
	 viewBox="0 0 526.34 137.65" enable-background="new 0 0 526.34 137.65" xml:space="preserve">
<g>
	<path fill="#231F20" d="M469.66,137.65H57.78c-2.93,0-5.32-2.4-5.32-5.32V89.17c0-2.93,2.4-5.32,5.32-5.32h411.88
		c2.93,0,5.32,2.4,5.32,5.32v43.15C474.99,135.25,472.59,137.65,469.66,137.65z"/>
	<g>
		<g>
			<path fill="#231F20" stroke="#231F20" stroke-width="0.6853" stroke-miterlimit="10" d="M61.58,15.06V41.3H57.2v4.38h-4.37v4.37
				H30.96v13.12h-4.37v4.37H4.72v-4.37H0.34V10.69h4.37v8.75h4.37v-4.37h4.37v-4.37H4.72V6.31h48.11v4.37h4.37v4.37H61.58z
				 M30.96,36.93h8.75V19.43h-8.75V36.93z"/>
			<path fill="#231F20" stroke="#231F20" stroke-width="0.6853" stroke-miterlimit="10" d="M124.82,10.69h4.37v52.49h-4.37v4.37
				h-21.87v-4.37h-4.37V10.69h4.37v8.75h4.37v-4.37h4.37v-4.37h-8.75V6.31h21.87V10.69z"/>
			<path fill="#231F20" stroke="#231F20" stroke-width="0.6853" stroke-miterlimit="10" d="M223.05,10.69h4.38v4.37h-4.38v4.37
				h-26.24v30.62h13.12V41.3h-4.37v-4.37h-4.37v-4.37h4.37v-4.37h17.49v4.37h4.38V58.8h-4.38v4.37h-4.37v4.37h-43.74v-4.37h-4.37
				V58.8h-4.37V15.06h4.37v4.37h4.37v-4.37h4.37v-4.37h-4.37V6.31h48.11V10.69z"/>
			<path fill="#231F20" stroke="#231F20" stroke-width="0.6853" stroke-miterlimit="10" d="M321.29,10.69h4.38v4.37h-4.38v4.37
				h-26.24v8.75h26.24v4.37h4.38v4.37h-4.38v4.37h-26.24v8.75h26.24v4.37h4.38v8.75h-4.38v4.37H268.8v-4.37h-4.37V10.69h4.37v8.75
				h4.37v-4.37h4.37v-4.37h-8.75V6.31h52.49V10.69z"/>
			<path fill="#231F20" stroke="#231F20" stroke-width="0.6853" stroke-miterlimit="10" d="M419.52,15.06h4.38V58.8h-4.38v4.37
				h-4.37v4.37h-43.74v-4.37h-4.37V58.8h-4.37V15.06h4.37v4.37h4.37v-4.37h4.37v-4.37h-4.37V6.31h43.74v4.37h4.37V15.06z
				 M406.4,50.05V19.43h-13.12v30.62H406.4z"/>
			<path fill="#231F20" stroke="#231F20" stroke-width="0.6853" stroke-miterlimit="10" d="M517.76,10.69h4.38v52.49h-4.38v4.37
				h-13.12v-4.37h-4.37V50.05h-4.37v-4.37h-4.37v17.49h-4.37v4.37h-21.87v-4.37h-4.37V10.69h4.37v8.75h4.37v-4.37h4.37v-4.37h-8.75
				V6.31h21.87v4.37h4.37v17.49h4.37v4.37h4.37V10.69h4.37V6.31h13.12V10.69z"/>
		</g>
		<g>
			<path fill="#6ABF4B" d="M65.79,8.75v26.24h-4.38v4.38h-4.37v4.37H35.17v13.12H30.8v4.37H8.92v-4.37H4.55V4.37h4.37v8.75h4.37
				V8.75h4.37V4.37H8.92V0h48.11v4.37h4.37v4.37H65.79z M35.17,30.61h8.75V13.12h-8.75V30.61z"/>
			<path fill="#6ABF4B" d="M129.03,4.37h4.37v52.49h-4.37v4.37h-21.87v-4.37h-4.37V4.37h4.37v8.75h4.37V8.75h4.37V4.37h-8.75V0
				h21.87V4.37z"/>
			<path fill="#6ABF4B" d="M227.26,4.37h4.38v4.37h-4.38v4.37h-26.24v30.62h13.12v-8.75h-4.37v-4.37h-4.37v-4.37h4.37v-4.37h17.49
				v4.37h4.38v26.24h-4.38v4.37h-4.37v4.37h-43.74v-4.37h-4.37v-4.37h-4.37V8.75h4.37v4.37h4.37V8.75h4.37V4.37h-4.37V0h48.11V4.37z
				"/>
			<path fill="#6ABF4B" d="M325.5,4.37h4.38v4.37h-4.38v4.37h-26.24v8.75h26.24v4.37h4.38v4.37h-4.38v4.37h-26.24v8.75h26.24v4.37
				h4.38v8.75h-4.38v4.37h-52.49v-4.37h-4.37V4.37h4.37v8.75h4.37V8.75h4.37V4.37h-8.75V0h52.49V4.37z"/>
			<path fill="#6ABF4B" d="M423.73,8.75h4.38v43.74h-4.38v4.37h-4.37v4.37h-43.74v-4.37h-4.37v-4.37h-4.37V8.75h4.37v4.37h4.37V8.75
				h4.37V4.37h-4.37V0h43.74v4.37h4.37V8.75z M410.61,43.74V13.12h-13.12v30.62H410.61z"/>
			<path fill="#6ABF4B" d="M521.97,4.37h4.38v52.49h-4.38v4.37h-13.12v-4.37h-4.37V43.74h-4.37v-4.37h-4.37v17.49h-4.37v4.37h-21.87
				v-4.37h-4.37V4.37h4.37v8.75h4.37V8.75h4.37V4.37h-8.75V0h21.87v4.37h4.37v17.49h4.37v4.37h4.37V4.37h4.37V0h13.12V4.37z"/>
		</g>
	</g>
	<g>
		<path fill="#A32035" d="M118.22,111.84c0,2.21,0,4.04,0,5.49s0,3.29,0,5.49h-3.46V95.06h10.6c2.68,0,4.83,0.75,6.44,2.26
			c1.61,1.51,2.41,3.51,2.41,6.01c0,1.94-0.49,3.61-1.48,5.02c-0.99,1.41-2.35,2.39-4.1,2.94l6.43,11.52H131l-5.95-10.99H118.22z
			 M118.22,98.14c0,1.44,0,2.68,0,3.73s0,2.1,0,3.16s0,2.3,0,3.73h6.83c1.78,0,3.16-0.46,4.13-1.38c0.97-0.92,1.45-2.23,1.45-3.93
			c0-1.67-0.51-2.97-1.52-3.91c-1.01-0.94-2.42-1.4-4.21-1.4H118.22z"/>
		<path fill="#A32035" d="M163.76,95.06c0,2.42,0,4.53,0,6.31c0,1.78,0,3.57,0,5.36s0,3.9,0,6.32c0,2.09,0.66,3.82,1.98,5.19
			s3.18,2.05,5.58,2.05c2.41,0,4.27-0.68,5.59-2.05s1.97-3.09,1.97-5.19V95.06h3.46v18.22c0,2.96-0.97,5.4-2.92,7.32
			s-4.65,2.88-8.1,2.88c-3.44,0-6.13-0.96-8.09-2.88c-1.96-1.92-2.93-4.36-2.93-7.32V95.06H163.76z"/>
		<path fill="#A32035" d="M220.06,122.82c-1.46,0-2.73,0-3.8,0c-1.07,0-2.15,0-3.22,0c-1.08,0-2.35,0-3.81,0V95.06h10.62
			c2.55,0,4.56,0.62,6.02,1.87c1.46,1.24,2.19,2.93,2.19,5.06c0,1.44-0.46,2.73-1.39,3.89c-0.93,1.15-2.06,1.85-3.4,2.1v0.31
			c1.9,0.24,3.41,0.97,4.52,2.18c1.12,1.21,1.67,2.74,1.67,4.57c0,2.44-0.83,4.34-2.49,5.72
			C225.31,122.13,223.01,122.82,220.06,122.82z M212.69,98.12c0,1.8,0,3.28,0,4.45s0,2.66,0,4.45h5.54c2.1,0,3.68-0.37,4.74-1.12
			c1.06-0.74,1.59-1.85,1.59-3.33c0-1.41-0.48-2.51-1.43-3.29s-2.29-1.17-4.01-1.17H212.69z M212.69,119.76c1.39,0,2.53,0,3.42,0
			c0.9,0,2.04,0,3.42,0c2.09,0,3.67-0.42,4.75-1.25c1.08-0.83,1.62-2.05,1.62-3.66s-0.56-2.81-1.68-3.63
			c-1.12-0.81-2.79-1.22-5.01-1.22h-6.52V119.76z"/>
		<path fill="#A32035" d="M265.66,122.82c-1.46,0-2.73,0-3.8,0s-2.15,0-3.22,0s-2.35,0-3.81,0V95.06h10.62
			c2.55,0,4.56,0.62,6.02,1.87c1.46,1.24,2.19,2.93,2.19,5.06c0,1.44-0.46,2.73-1.39,3.89c-0.93,1.15-2.06,1.85-3.4,2.1v0.31
			c1.9,0.24,3.41,0.97,4.52,2.18s1.67,2.74,1.67,4.57c0,2.44-0.83,4.34-2.49,5.72S268.61,122.82,265.66,122.82z M258.29,98.12
			c0,1.8,0,3.28,0,4.45s0,2.66,0,4.45h5.54c2.1,0,3.68-0.37,4.74-1.12c1.06-0.74,1.59-1.85,1.59-3.33c0-1.41-0.48-2.51-1.43-3.29
			s-2.29-1.17-4.01-1.17H258.29z M258.29,119.76c1.39,0,2.53,0,3.42,0c0.9,0,2.04,0,3.42,0c2.09,0,3.67-0.42,4.75-1.25
			s1.62-2.05,1.62-3.66s-0.56-2.81-1.68-3.63s-2.79-1.22-5.01-1.22h-6.52V119.76z"/>
		<path fill="#A32035" d="M303.89,122.82c-0.69,0-1.27,0-1.73,0s-1.04,0-1.73,0V95.06h3.46V122.82z"/>
		<path fill="#A32035" d="M329.34,115.57c0.71,0,1.29,0,1.75,0c0.46,0,1.05,0,1.75,0c0.22,1.45,0.97,2.6,2.25,3.46
			c1.28,0.86,2.91,1.29,4.89,1.29c1.87,0,3.42-0.45,4.65-1.36c1.22-0.9,1.84-2.04,1.84-3.42c0-1.18-0.45-2.16-1.35-2.94
			c-0.9-0.78-2.3-1.41-4.21-1.89l-3.56-0.92c-2.51-0.64-4.34-1.56-5.48-2.74c-1.14-1.19-1.71-2.77-1.71-4.74
			c0-2.36,0.9-4.27,2.7-5.72c1.8-1.46,4.17-2.18,7.11-2.18c2.68,0,4.93,0.72,6.73,2.15c1.81,1.44,2.78,3.28,2.92,5.52h-3.48
			c-0.24-1.42-0.92-2.54-2.03-3.34c-1.11-0.8-2.53-1.2-4.26-1.2c-1.85,0-3.33,0.42-4.45,1.27c-1.12,0.85-1.68,1.98-1.68,3.39
			c0,1.09,0.41,1.98,1.24,2.66c0.83,0.68,2.2,1.26,4.11,1.75l2.91,0.77c2.87,0.72,4.93,1.68,6.19,2.89
			c1.25,1.21,1.88,2.83,1.88,4.87c0,2.55-0.93,4.58-2.8,6.09s-4.39,2.26-7.57,2.26c-2.94,0-5.35-0.72-7.22-2.15
			C330.55,119.88,329.52,117.97,329.34,115.57z"/>
		<path fill="#A32035" d="M397.64,122.82c-0.69,0-1.27,0-1.73,0c-0.46,0-1.04,0-1.73,0v-12.64h-15.24v12.64h-3.46V95.06h3.46v12.01
			h15.24V95.06h3.46V122.82z"/>
	</g>
</g>
</svg>
