<svg id="Icons" xmlns="http://www.w3.org/2000/svg" width="109.98739" height="110" viewBox="0 0 109.98739 110">
  <defs>
    <style>
      .cls-1 {
        fill: #fff;
      }

      #black, #e-center, #b-center-bottom, #b-center-top
      {
        fill: transparent;
      }

      #b-body, #e-body, #e-mark
      {
        transform-origin: center center;
        transform: scale(1.4);
      }
    </style>
  </defs>
  <g id="behance">
    <g id="behance-background">
      <path id="black" d="M110,16.11c0-.126-.016-.248-.01886-.37342v0A15.73655,15.73655,0,0,0,94.24456,0H15.71768A15.73657,15.73657,0,0,0-.01889,15.73657V94.26343A15.73657,15.73657,0,0,0,15.71768,110H94.24454a15.73657,15.73657,0,0,0,15.73657-15.73657v-.23981c.00293-.11877.0185-.23425.01886-.35364Z"/>
      <path id="e-center" d="M74.4,51.78a9.69,9.69,0,0,0-9.12,6.44H83.52A9.69,9.69,0,0,0,74.4,51.78Z"/>
      <path id="b-center-bottom" d="M38.76,58.22H26V71.11H38.89a6.45,6.45,0,0,0,6.43863-6.46135q-.00042-.2396-.01863-.47865A6.52,6.52,0,0,0,38.76,58.22Z"/>
      <path id="b-center-top" d="M38.76,38.89H26V51.78H38.89a6.47077,6.47077,0,0,0,6.3643-8.34337A5.85857,5.85857,0,0,0,44.01617,41.154,6.56184,6.56184,0,0,0,38.76,38.89Z"/>
    </g>
    <path id="b-body" class="cls-1" d="M51.73,44.17a13,13,0,0,0-13-11.73H19.55V77.56H38.69a13,13,0,0,0,13-11.73A12.8,12.8,0,0,0,47.32,55,12.8,12.8,0,0,0,51.73,44.17ZM38.89,71.11H26V58.22H38.76a6.52,6.52,0,0,1,6.55,6,6.45,6.45,0,0,1-5.995,6.875Q39.10284,71.10951,38.89,71.11Zm0-19.33H26V38.89H38.76a6.47064,6.47064,0,0,1,6.53244,8.20881,5.85944,5.85944,0,0,1-1.19122,2.30881A6.56173,6.56173,0,0,1,38.89,51.78Z"/>
    <path id="e-body" class="cls-1" d="M73.46,45.36A16.11378,16.11378,0,1,0,88.29,69.51l-5.58-3.23a9.67,9.67,0,0,1-17.49-1.61H90.45V61.45A16.13,16.13,0,0,0,74.303,45.33707Q73.88124,45.3375,73.46,45.36ZM65.28,58.22a9.68,9.68,0,0,1,18.24,0Z"/>
    <rect id="e-mark" class="cls-1" x="61.45" y="32.44" width="25.78" height="6.45"/>
  </g>
</svg>
