<?xml version="1.0" encoding="utf-8"?>
<svg viewBox="0 0 32 32" xmlns="http://www.w3.org/2000/svg">
  <g id="github" transform="matrix(0.288288, 0, 0, 0.288288, 0.145892, 0.144162)">
    <rect id="github-background" x="-0.0063" width="110" height="110" rx="24" style="fill: rgba(0, 0, 0, 0);"/>
    <path d="M 23.994 -0.5 L 85.994 -0.5 C 92.723 -0.478 98.912 2.27 103.318 6.676 C 107.724 11.082 110.472 17.27 110.494 24 L 110.494 86 C 110.472 92.73 107.724 98.918 103.318 103.324 C 98.912 107.73 92.723 110.478 85.994 110.5 L 23.994 110.5 C 17.264 110.478 11.076 107.73 6.67 103.324 C 2.263 98.918 -0.484 92.73 -0.506 86 L -0.506 24 C -0.484 17.27 2.263 11.082 6.67 6.676 C 11.076 2.27 17.264 -0.478 23.994 -0.5 Z M 7.377 7.383 C 3.097 11.663 0.472 17.475 0.494 24 L 0.494 86 C 0.472 92.525 3.097 98.337 7.377 102.617 C 11.657 106.897 17.468 109.522 23.994 109.5 L 85.994 109.5 C 92.519 109.522 98.331 106.897 102.611 102.617 C 106.891 98.337 109.516 92.525 109.494 86 L 109.494 24 C 109.516 17.475 106.891 11.663 102.611 7.383 C 98.331 3.103 92.519 0.478 85.994 0.5 L 23.994 0.5 C 17.468 0.478 11.657 3.103 7.377 7.383 Z" style="fill: none;"/>
    <path id="github-circle" class="cls-1" d="M54.9937,8.8a47.3,47.3,0,0,0-14.96,92.18c2.376.44,3.234-1.012,3.234-2.2v-8.8c-13.2,2.882-15.928-5.566-15.928-5.566a12.54,12.54,0,0,0-5.346-6.952c-4.29-2.926.33-2.86.33-2.86a9.944,9.944,0,0,1,7.26,4.862c4.202,7.238,11,5.148,13.75,3.938A10.032,10.032,0,0,1,46.3697,77c-10.516-1.188-21.56-5.236-21.56-23.364a18.238,18.238,0,0,1,4.884-12.694,16.96193,16.96193,0,0,1,.44-12.342s3.982-1.276,13.024,4.84a45.1,45.1,0,0,1,23.694,0c9.02-6.116,12.98-4.84,12.98-4.84a16.89607,16.89607,0,0,1,.462,12.518,18.238,18.238,0,0,1,4.884,12.694c0,18.172-11,22.154-21.604,23.342a11.264,11.264,0,0,1,3.212,8.8v12.98c0,1.562.858,2.728,3.256,2.2A47.3,47.3,0,0,0,54.9937,8.8Z" style="fill-rule: evenodd;"/>
    <path d="M 87.702 20.69 C 101.29 33.014 105.7 50.526 102.308 66.204 C 98.916 81.882 87.603 95.977 70.149 101.622 C 68.848 101.887 67.804 101.7 67.198 101.205 C 66.577 100.697 66.297 99.79 66.286 98.934 L 66.287 85.915 C 66.559 82.759 65.458 79.743 63.218 77.505 L 62.484 76.773 L 63.518 76.657 C 68.79 76.068 74.041 74.813 78.031 71.469 C 82.03 68.118 84.704 62.779 84.678 53.805 C 84.764 49.195 83.081 44.821 79.928 41.459 L 79.719 41.236 L 79.823 40.95 C 81.264 36.965 81.111 32.835 79.473 29.026 C 78.582 28.858 75.935 27.769 67.132 33.854 L 66.944 33.984 L 66.72 33.922 C 59.029 31.819 50.98 31.819 43.289 33.922 L 43.065 33.984 L 42.878 33.854 C 34.052 27.769 31.394 28.858 30.495 29.026 C 28.915 32.788 28.77 36.845 30.166 40.777 L 30.267 41.062 L 30.06 41.283 C 26.906 44.645 25.223 49.027 25.31 53.636 C 25.283 62.589 27.969 67.925 31.968 71.288 C 35.958 74.643 41.199 75.915 46.426 76.503 L 47.492 76.623 L 46.717 77.36 C 45.012 78.981 44.008 81.097 43.832 83.443 L 43.81 83.739 L 43.535 83.86 C 42.141 84.472 39.629 85.339 36.958 85.099 C 34.305 84.86 31.362 83.435 29.151 79.715 C 27.688 77.143 25.206 75.481 22.282 75.101 C 22.099 75.096 21.305 75.083 20.796 75.37 C 20.689 75.43 20.691 75.427 20.67 75.473 C 20.649 75.521 20.649 75.475 20.696 75.587 C 20.832 75.911 21.241 76.35 22.267 77.043 C 24.889 78.702 26.888 81.296 27.816 84.26 C 27.816 84.26 28.437 86.213 30.654 87.878 C 32.925 89.584 36.697 90.941 43.161 89.492 L 43.768 89.356 L 43.768 98.78 C 43.755 99.451 43.48 100.323 42.875 100.864 C 42.286 101.389 41.251 101.684 39.943 101.472 L 39.913 101.467 L 39.876 101.454 C 28.808 97.754 19.391 90.088 13.561 79.979 C 4.397 64.087 5.558 46.066 13.586 32.179 C 21.613 18.291 36.648 8.334 54.99 8.3 C 67.034 8.166 78.78 12.598 87.702 20.69 Z M 55 9.3 C 36.933 9.249 22.368 18.983 14.451 32.679 C 6.535 46.375 5.402 63.828 14.427 79.479 C 20.168 89.435 29.267 96.88 40.165 100.497 C 41.207 100.71 41.774 100.505 42.209 100.117 C 42.626 99.745 42.78 99.297 42.768 98.78 L 42.768 90.591 C 36.386 91.814 32.446 90.475 30.053 88.678 C 27.606 86.839 26.864 84.568 26.864 84.568 C 26.017 81.761 24.224 79.425 21.729 77.886 C 20.616 77.12 19.979 76.461 19.774 75.974 C 19.651 75.681 19.654 75.299 19.755 75.07 C 19.857 74.838 20.101 74.614 20.304 74.499 C 21.033 74.088 22.331 74.102 22.331 74.102 L 22.358 74.102 L 22.391 74.107 C 25.537 74.56 28.399 76.477 30.016 79.213 C 32.007 82.731 34.564 83.88 37.048 84.103 C 39.514 84.325 41.49 83.639 42.866 83.059 C 43.129 80.698 43.923 79.055 45.337 77.378 C 40.35 76.724 35.485 75.551 31.324 72.053 C 27.173 68.563 24.336 62.815 24.31 53.639 C 24.258 48.845 25.999 44.322 29.126 40.823 C 27.807 36.782 27.962 32.404 29.675 28.402 L 29.766 28.188 L 29.981 28.124 C 29.981 28.124 34.121 26.896 43.246 32.899 C 51.001 30.837 59.005 30.837 66.764 32.899 C 75.866 26.896 79.985 28.124 79.985 28.124 L 80.197 28.187 L 80.289 28.398 C 82.062 32.449 82.226 36.903 80.862 41.001 C 83.989 44.499 85.731 49.019 85.678 53.815 C 85.651 63.011 82.826 68.755 78.673 72.235 C 74.512 75.722 69.617 76.883 64.585 77.535 C 66.511 79.88 67.522 82.613 67.286 85.972 L 67.286 98.934 C 67.274 99.64 67.423 100.097 67.831 100.431 C 68.254 100.777 68.827 100.907 69.907 100.652 C 87.112 95.168 97.985 81.454 101.33 65.993 C 104.675 50.531 100.413 33.569 87.03 21.431 C 78.244 13.462 66.861 9.133 55 9.3 Z" style="fill: none;"/>
    <g id="dots">
      <path id="dot1" class="cls-2" d="M25.6017,76.78c0,.242-.462.308-.814.154s-.528-.484-.418-.726a.594.594,0,0,1,.814-.132C25.5357,76.23,25.7337,76.538,25.6017,76.78Z" style=""/>
      <path d="M 26.083 76.861 C 26.033 77.032 25.953 77.228 25.83 77.323 C 25.724 77.406 25.539 77.476 25.412 77.498 C 25.184 77.537 24.832 77.499 24.587 77.392 C 24.337 77.283 24.082 77.049 23.97 76.849 C 23.848 76.633 23.839 76.254 23.915 76.001 L 23.928 75.955 L 23.969 75.908 C 24.142 75.713 24.437 75.522 24.67 75.484 C 24.903 75.446 25.244 75.534 25.469 75.665 L 25.407 75.629 C 25.637 75.746 25.886 75.946 26.001 76.135 C 26.132 76.35 26.13 76.61 26.083 76.861 Z M 24.781 76.473 C 24.779 76.477 24.777 76.486 24.77 76.508 Z" style=""/>
      <path id="dot2" class="cls-2" d="M27.5157,78.914c-.22.22-.66.11-.946-.22s-.374-.77-.154-.968a.73465.73465,0,0,1,.968.198C27.69169,78.254,27.7577,78.716,27.5157,78.914Z" style=""/>
      <path d="M 27.849 79.282 C 27.602 79.452 27.219 79.56 26.952 79.497 C 26.704 79.438 26.385 79.244 26.192 79.021 C 26.006 78.808 25.852 78.49 25.81 78.245 C 25.764 77.979 25.894 77.589 26.081 77.354 L 26.106 77.324 L 26.16 77.296 C 26.415 77.167 26.782 77.096 27.038 77.148 C 27.294 77.201 27.603 77.41 27.787 77.628 C 27.966 77.854 28.116 78.145 28.151 78.401 C 28.189 78.678 28.045 79.052 27.849 79.282 Z M 27.158 78.517 C 27.144 78.421 27.122 78.36 27.018 78.265 L 26.989 78.239 L 26.98 78.219 C 26.94 78.132 26.928 78.146 26.838 78.128 C 26.825 78.125 26.814 78.123 26.805 78.12 C 26.825 78.204 26.862 78.267 26.948 78.367 C 27.032 78.464 27.076 78.495 27.158 78.517 Z" style=""/>
      <path id="dot3" class="cls-2" d="M29.3857,81.642c-.286.198-.77,0-1.056-.418s-.286-.924,0-1.122a.836.836,0,0,1,1.056.396C29.6937,80.938,29.6937,81.444,29.3857,81.642Z" style=""/>
      <path d="M 29.663 82.057 C 29.378 82.2 28.951 82.24 28.672 82.128 C 28.412 82.024 28.101 81.776 27.917 81.506 C 27.732 81.236 27.615 80.858 27.615 80.581 C 27.615 80.283 27.813 79.901 28.045 79.691 L 28.08 79.659 L 28.144 79.638 C 28.44 79.539 28.841 79.526 29.11 79.627 C 29.379 79.728 29.672 80.001 29.831 80.271 L 29.803 80.223 C 29.986 80.507 30.117 80.881 30.117 81.161 C 30.117 81.467 29.908 81.846 29.663 82.057 Z M 29.117 81.161 C 29.117 81.032 29.097 80.939 28.976 80.785 L 28.948 80.749 L 28.94 80.725 C 28.903 80.609 28.869 80.604 28.759 80.563 C 28.654 80.524 28.654 80.514 28.614 80.522 C 28.615 80.531 28.615 80.548 28.615 80.58 C 28.615 80.71 28.641 80.794 28.742 80.942 C 28.844 81.09 28.918 81.15 29.043 81.2 C 29.074 81.212 29.091 81.224 29.101 81.234 C 29.101 81.233 29.101 81.232 29.101 81.231 C 29.161 81.242 29.117 81.267 29.117 81.161 Z" style=""/>
      <path id="dot4" class="cls-2" d="M31.9377,84.282c-.242.286-.814.198-1.21-.198a.902.902,0,0,1-.264-1.21c.264-.286.814-.198,1.232.198S32.2237,83.996,31.9377,84.282Z" style=""/>
      <path d="M 32.306 84.617 C 32.051 84.834 31.63 84.984 31.311 84.932 C 31.025 84.887 30.664 84.697 30.403 84.464 L 30.446 84.497 C 30.422 84.479 30.399 84.46 30.376 84.44 C 30.376 84.439 30.375 84.438 30.374 84.438 L 30.376 84.44 C 30.137 84.229 29.927 83.914 29.867 83.638 C 29.801 83.336 29.879 82.915 30.035 82.616 L 30.063 82.563 L 30.096 82.535 C 30.353 82.319 30.783 82.172 31.101 82.224 C 31.398 82.271 31.778 82.461 32.04 82.709 C 32.301 82.957 32.511 83.325 32.571 83.619 C 32.635 83.935 32.508 84.349 32.306 84.617 Z M 31.591 83.818 C 31.562 83.677 31.508 83.583 31.352 83.435 C 31.196 83.287 31.091 83.235 30.943 83.211 C 30.816 83.191 30.874 83.185 30.858 83.178 C 30.806 83.259 30.815 83.292 30.844 83.425 C 30.873 83.558 30.882 83.608 31.01 83.671 L 31.044 83.688 L 31.081 83.73 C 31.214 83.882 31.321 83.921 31.47 83.945 C 31.526 83.954 31.552 83.97 31.562 83.98 C 31.56 83.975 31.558 83.969 31.556 83.959 C 31.631 83.94 31.615 83.936 31.591 83.818 Z" style=""/>
      <path id="dot5" class="cls-2" d="M35.47969,85.8a.924.924,0,0,1-1.188.374c-.55-.154-.88-.594-.792-.968a.924.924,0,0,1,1.188-.374C35.2377,84.986,35.5897,85.426,35.47969,85.8Z" style=""/>
      <path d="M 35.912 86.051 C 35.727 86.331 35.402 86.602 35.108 86.694 C 34.815 86.787 34.393 86.751 34.081 86.628 L 34.127 86.646 C 33.789 86.532 33.447 86.312 33.265 86.084 C 33.067 85.835 32.973 85.407 33.013 85.091 L 33.022 85.024 L 33.067 84.955 C 33.252 84.675 33.577 84.404 33.871 84.312 C 34.165 84.219 34.587 84.255 34.898 84.378 L 34.851 84.36 C 35.187 84.472 35.534 84.69 35.719 84.918 C 35.923 85.169 36.014 85.612 35.959 85.941 L 35.951 85.992 Z M 34.943 85.549 C 34.848 85.431 34.758 85.359 34.553 85.313 L 34.504 85.303 L 34.477 85.286 C 34.356 85.208 34.303 85.224 34.171 85.266 C 34.039 85.307 34.015 85.309 33.972 85.378 C 33.984 85.393 33.966 85.358 34.047 85.461 C 34.141 85.578 34.224 85.649 34.427 85.693 L 34.475 85.703 L 34.502 85.72 C 34.624 85.798 34.676 85.782 34.808 85.74 C 34.94 85.699 34.959 85.751 35.014 85.618 C 35 85.607 35.026 85.65 34.943 85.549 Z" style=""/>
      <path id="dot6" class="cls-2" d="M39.32969,86.086c0,.396-.44.704-.99.726s-1.034-.308-1.034-.704.44-.704,1.012-.704S39.32969,85.69,39.32969,86.086Z" style=""/>
      <path d="M 39.83 86.086 C 39.83 86.417 39.589 86.81 39.334 86.994 C 39.094 87.168 38.704 87.298 38.36 87.312 C 38.004 87.326 37.587 87.202 37.335 87.03 C 37.068 86.848 36.806 86.445 36.806 86.108 C 36.806 85.778 37.049 85.38 37.311 85.197 C 37.556 85.027 37.959 84.904 38.318 84.904 C 38.672 84.904 39.07 85.017 39.316 85.18 C 39.58 85.357 39.83 85.752 39.83 86.086 Z M 38.761 86.013 C 38.643 85.934 38.536 85.904 38.318 85.904 C 38.104 85.904 38.001 85.935 37.883 86.018 C 37.782 86.088 37.806 86.042 37.806 86.108 C 37.806 86.167 37.786 86.127 37.898 86.204 C 38.025 86.29 38.126 86.32 38.32 86.312 C 38.525 86.304 38.63 86.269 38.748 86.184 C 38.85 86.11 38.83 86.152 38.83 86.086 C 38.83 86.024 38.859 86.078 38.761 86.013 Z" style=""/>
      <path id="dot7" class="cls-2" d="M42.9377,85.47a.97258.97258,0,0,1-.88.88c-.572.11-1.056-.132-1.122-.506s.33-.792.88-.88S42.8717,85.074,42.9377,85.47Z" style=""/>
      <path d="M 43.436 85.516 C 43.39 85.837 43.224 86.21 43.01 86.423 C 42.797 86.636 42.474 86.795 42.152 86.841 C 41.788 86.899 41.366 86.858 41.096 86.732 C 40.806 86.597 40.499 86.247 40.443 85.931 C 40.387 85.611 40.563 85.175 40.788 84.946 C 41 84.731 41.381 84.527 41.737 84.47 C 42.076 84.416 42.484 84.459 42.757 84.577 C 43.049 84.703 43.331 85.057 43.431 85.388 L 43.446 85.44 Z M 42.434 85.523 C 42.432 85.524 42.416 85.519 42.36 85.494 C 42.225 85.436 42.106 85.424 41.895 85.458 C 41.7 85.489 41.609 85.538 41.501 85.647 C 41.407 85.743 41.419 85.703 41.428 85.757 C 41.438 85.815 41.407 85.773 41.518 85.825 C 41.649 85.886 41.755 85.911 41.963 85.859 C 42.109 85.862 42.204 85.815 42.303 85.716 C 42.4 85.619 42.422 85.6 42.434 85.523 Z" style=""/>
    </g>
  </g>
</svg>