<svg id="Icons" xmlns="http://www.w3.org/2000/svg" width="109.98739" height="110" viewBox="0 0 109.98739 110">
  <defs>
    <style>
      .cls-1, .cls-2 {
        fill: #fff;
      }

      .cls-1 {
        fill-rule: evenodd;
      }
    </style>
  </defs>
  <g id="github">
    <rect id="github-background" x="-0.0063" width="110" height="110" rx="24"/>
    <path id="github-circle" class="cls-1" d="M54.9937,8.8a47.3,47.3,0,0,0-14.96,92.18c2.376.44,3.234-1.012,3.234-2.2v-8.8c-13.2,2.882-15.928-5.566-15.928-5.566a12.54,12.54,0,0,0-5.346-6.952c-4.29-2.926.33-2.86.33-2.86a9.944,9.944,0,0,1,7.26,4.862c4.202,7.238,11,5.148,13.75,3.938A10.032,10.032,0,0,1,46.3697,77c-10.516-1.188-21.56-5.236-21.56-23.364a18.238,18.238,0,0,1,4.884-12.694,16.96193,16.96193,0,0,1,.44-12.342s3.982-1.276,13.024,4.84a45.1,45.1,0,0,1,23.694,0c9.02-6.116,12.98-4.84,12.98-4.84a16.89607,16.89607,0,0,1,.462,12.518,18.238,18.238,0,0,1,4.884,12.694c0,18.172-11,22.154-21.604,23.342a11.264,11.264,0,0,1,3.212,8.8v12.98c0,1.562.858,2.728,3.256,2.2A47.3,47.3,0,0,0,54.9937,8.8Z"/>
    <g id="dots">
      <path id="dot1" class="cls-2" d="M25.6017,76.78c0,.242-.462.308-.814.154s-.528-.484-.418-.726a.594.594,0,0,1,.814-.132C25.5357,76.23,25.7337,76.538,25.6017,76.78Z"/>
      <path id="dot2" class="cls-2" d="M27.5157,78.914c-.22.22-.66.11-.946-.22s-.374-.77-.154-.968a.73465.73465,0,0,1,.968.198C27.69169,78.254,27.7577,78.716,27.5157,78.914Z"/>
      <path id="dot3" class="cls-2" d="M29.3857,81.642c-.286.198-.77,0-1.056-.418s-.286-.924,0-1.122a.836.836,0,0,1,1.056.396C29.6937,80.938,29.6937,81.444,29.3857,81.642Z"/>
      <path id="dot4" class="cls-2" d="M31.9377,84.282c-.242.286-.814.198-1.21-.198a.902.902,0,0,1-.264-1.21c.264-.286.814-.198,1.232.198S32.2237,83.996,31.9377,84.282Z"/>
      <path id="dot5" class="cls-2" d="M35.47969,85.8a.924.924,0,0,1-1.188.374c-.55-.154-.88-.594-.792-.968a.924.924,0,0,1,1.188-.374C35.2377,84.986,35.5897,85.426,35.47969,85.8Z"/>
      <path id="dot6" class="cls-2" d="M39.32969,86.086c0,.396-.44.704-.99.726s-1.034-.308-1.034-.704.44-.704,1.012-.704S39.32969,85.69,39.32969,86.086Z"/>
      <path id="dot7" class="cls-2" d="M42.9377,85.47a.97258.97258,0,0,1-.88.88c-.572.11-1.056-.132-1.122-.506s.33-.792.88-.88S42.8717,85.074,42.9377,85.47Z"/>
    </g>
  </g>
</svg>
