<svg id="Icons" xmlns="http://www.w3.org/2000/svg" width="109.98739" height="110" viewBox="0 0 109.98739 110">
  <defs>
    <style>
      .cls-1 {
        fill: #fff;
      }
    </style>
  </defs>
  <g id="instagram">
    <g>
      <path id="black-outer" d="M109.97736,55.05086c0-10.08619.01709-20.17243-.01776-30.25855a29.94434,29.94434,0,0,0-.39624-4.74249A24.25823,24.25823,0,0,0,86.06152.02736Q55.07-.04625,24.07825.02919A24.35261,24.35261,0,0,0,.024,24.0301Q-.03967,54.9232.02728,85.81654A24.73139,24.73139,0,0,0,.41522,89.951a24.25458,24.25458,0,0,0,23.561,20.0196q30.99143.08,61.98321-.00135a23.70728,23.70728,0,0,0,3.98206-.385A24.30247,24.30247,0,0,0,109.96515,85.969c.044-10.30591.00922-20.61206.00922-30.91815Zm-13.50708-.09327c0,5.05994-.06086,10.12037-.11628,15.17969a35.24467,35.24467,0,0,1-1.27282,9.882c-2.57611,8.52679-8.319,13.61218-16.94312,15.54565a38.67848,38.67848,0,0,1-8.116.8053q-10.45716.10089-20.91523.09882c-3.9248-.00464-7.85174-.06409-11.77356-.21143a26.49762,26.49762,0,0,1-12.58068-3.30145,21.358,21.358,0,0,1-10.23023-13.957,36.6894,36.6894,0,0,1-.98352-8.55139q-.10428-14.18931-.08929-28.37927a53.62614,53.62614,0,0,1,.67126-9.25428c1.24658-7.01886,4.69153-12.54388,11.00342-16.07916a24.33507,24.33507,0,0,1,9.04687-2.81036,102.4493,102.4493,0,0,1,12.21344-.53437c6.7688-.01593,13.53791-.01764,20.3064.03717a67.36148,67.36148,0,0,1,9.76935.5976c7.048,1.08936,12.70056,4.37115,16.41485,10.60284a22.61646,22.61646,0,0,1,3.06079,9.4845c.302,3.1283.4441,6.27789.51417,9.4212C96.535,47.33992,96.47028,51.14949,96.47028,54.95759Z"/>
      <path id="black-mid" d="M88.44238,34.21022a15.61639,15.61639,0,0,0-2.90277-7.217,14.59518,14.59518,0,0,0-10.5216-5.6261c-3.08905-.332-6.209-.47345-9.31733-.509-6.68335-.07636-13.36822-.05756-20.05224-.02234a75.28487,75.28487,0,0,0-11.44269.60968,15.688,15.688,0,0,0-7.17529,2.87366A14.63466,14.63466,0,0,0,21.36212,34.8716a81.76908,81.76908,0,0,0-.49713,8.70892c-.03644,8.61334.01209,17.22736.082,25.84064a32.45165,32.45165,0,0,0,.89051,8.15173A13.8025,13.8025,0,0,0,30.40326,87.431a22.74655,22.74655,0,0,0,7.84583,1.424c3.9743.11077,7.95025.21368,11.92565.21771,6.42975.00647,12.86042-.02289,19.28894-.13721a42.19645,42.19645,0,0,0,6.76008-.60754c6.23278-1.13105,10.27215-4.75757,11.877-10.9596a35.12521,35.12521,0,0,0,.84589-8.15881c.09509-4.75409.059-9.51007.11633-14.26495,0-3.04627.02923-6.0929-.00733-9.13874A80.42682,80.42682,0,0,0,88.44238,34.21022ZM54.95111,76.28749A21.33881,21.33881,0,1,1,76.27747,54.953,21.31507,21.31507,0,0,1,54.95111,76.28749Zm22.1452-38.51672a4.97995,4.97995,0,1,1,.04377-9.95972,4.98,4.98,0,0,1-.04377,9.95972Z"/>
      <path id="black-center" d="M54.87714,41.04408A13.90535,13.90535,0,1,0,68.84631,54.84529,13.925,13.925,0,0,0,54.87714,41.04408Z"/>
    </g>
    <g id="white-body">
      <path id="white-outer" class="cls-1" d="M95.936,34.11244a22.61646,22.61646,0,0,0-3.06079-9.4845c-3.71429-6.23169-9.36682-9.51348-16.41485-10.60284a67.36148,67.36148,0,0,0-9.76935-.5976c-6.76849-.05481-13.5376-.0531-20.3064-.03717a102.4493,102.4493,0,0,0-12.21344.53437,24.33507,24.33507,0,0,0-9.04687,2.81036c-6.31189,3.53528-9.75684,9.0603-11.00342,16.07916a53.62614,53.62614,0,0,0-.67126,9.25428q-.03873,14.18947.08929,28.37927a36.6894,36.6894,0,0,0,.98352,8.55139,21.358,21.358,0,0,0,10.23023,13.957,26.49762,26.49762,0,0,0,12.58068,3.30145c3.92182.14734,7.84876.20679,11.77356.21143q10.45761.01236,20.91523-.09882a38.67848,38.67848,0,0,0,8.116-.8053c8.62409-1.93347,14.367-7.01886,16.94312-15.54565a35.24467,35.24467,0,0,0,1.27282-9.882c.05542-5.05932.11628-10.11975.11628-15.17969,0-3.8081.06475-7.61767-.02014-11.424C96.38007,40.39033,96.238,37.24074,95.936,34.11244ZM89.063,54.94466c-.05737,4.75488-.02124,9.51086-.11633,14.265a35.12521,35.12521,0,0,1-.84589,8.15881c-1.60486,6.202-5.64423,9.82855-11.877,10.9596a42.19645,42.19645,0,0,1-6.76008.60754c-6.42852.11432-12.85919.14368-19.28894.13721-3.9754-.004-7.95135-.10694-11.92565-.21771a22.74655,22.74655,0,0,1-7.84583-1.424,13.8025,13.8025,0,0,1-8.56573-9.85815,32.45165,32.45165,0,0,1-.89051-8.15173c-.06994-8.61328-.11847-17.2273-.082-25.84064a81.76908,81.76908,0,0,1,.49713-8.70892,14.63466,14.63466,0,0,1,5.66834-10.55249,15.688,15.688,0,0,1,7.17529-2.87366,75.28487,75.28487,0,0,1,11.44269-.60968c6.684-.03522,13.36889-.054,20.05224.02234,3.10834.03552,6.22828.177,9.31733.509a14.59518,14.59518,0,0,1,10.5216,5.6261,15.61639,15.61639,0,0,1,2.90277,7.217,80.42682,80.42682,0,0,1,.61328,11.5957C89.09222,48.85176,89.063,51.89839,89.063,54.94466Z"/>
      <path id="white-center" class="cls-1" d="M54.9596,33.60988A21.33881,21.33881,0,1,0,76.27747,54.953,21.31756,21.31756,0,0,0,54.9596,33.60988Zm.02288,35.24469A13.90535,13.90535,0,1,1,68.84631,54.84529,13.9155,13.9155,0,0,1,54.98248,68.85457Z"/>
      <path id="white-dot" class="cls-1" d="M77.14008,27.81105a4.98,4.98,0,1,0,4.93554,4.99481A4.97754,4.97754,0,0,0,77.14008,27.81105Z"/>
    </g>
  </g>
</svg>
