<svg id="Icons" xmlns="http://www.w3.org/2000/svg" width="110" height="110" viewBox="0 0 110 110">
  <defs>
    <style>
      .cls-1 {
        fill: #fff;
      }
    </style>
  </defs>
  <g id="itch.io">
    <rect id="itch-background" width="110" height="110" rx="24"/>
    <path id="itch-logo" class="cls-1" d="M24.3624,18.17854C20.74687,20.3253,13.62356,28.50864,13.556,30.65471v3.55237c0,4.50294,4.20906,8.46067,8.03065,8.46067A8.45437,8.45437,0,0,0,29.999,34.351a8.34027,8.34027,0,0,0,8.2813,8.31677A8.23929,8.23929,0,0,0,46.44339,34.351a8.5444,8.5444,0,0,0,8.51506,8.31677h.0831A8.54447,8.54447,0,0,0,63.557,34.351a8.23944,8.23944,0,0,0,8.16273,8.31677A8.34027,8.34027,0,0,0,80.001,34.351a8.45437,8.45437,0,0,0,8.41237,8.31677c3.82159,0,8.03065-3.957,8.03065-8.46067V30.65471c-.06756-2.14641-7.19087-10.33009-10.80573-12.47616-11.23743-.39456-19.0279-.4628-30.63861-.46111-11.61037.001-27.43926.18242-30.63794.4611ZM46.38529,40.547a9.46719,9.46719,0,0,1-1.61471,2.07919,9.60232,9.60232,0,0,1-12.53146.79561,8.79131,8.79131,0,0,1-2.47285-2.8346l-.002.00135a9.52051,9.52051,0,0,1-1.67349,2.03933,9.62745,9.62745,0,0,1-6.73854,2.743,2.90458,2.90458,0,0,1-.90938-.17836c-.36888,3.84152-.52461,7.51279-.57967,10.18956l-.00068.01521c-.00675,1.35932-.01351,2.47712-.02026,4.03.07093,8.06-.79824,26.12385,3.55371,30.56228,6.744,1.57248,19.15357,2.28863,31.60339,2.293h.002c12.44949-.00439,24.8591-.72054,31.603-2.293,4.352-4.43877,3.48278-22.50257,3.55372-30.56261-.00743-1.55255-.01351-2.67035-.02027-4.03l-.001-.0152c-.05473-2.67745-.21046-6.34838-.57934-10.1899a2.90287,2.90287,0,0,1-.90937.17836,9.62743,9.62743,0,0,1-6.73854-2.743,9.52355,9.52355,0,0,1-1.67383-2.03933l-.002-.00135a8.77347,8.77347,0,0,1-2.49842,2.85262,9.6004,9.6004,0,0,1-12.50555-.81431,9.46719,9.46719,0,0,1-1.61471-2.07919,9.45483,9.45483,0,0,1-1.59984,2.07919A9.6241,9.6241,0,0,1,55.276,45.36918c-.09121,0-.18242-.004-.27362-.00675H55c-.0912.0027-.18241.00675-.27463.00675a9.624,9.624,0,0,1-6.73922-2.744A9.456,9.456,0,0,1,46.3863,40.546ZM39.465,49.49547l-.00067.00338h.00507c2.74061.00574,5.17517,0,8.19178,3.29225a69.82883,69.82883,0,0,1,7.33781-.36955h.002a69.932,69.932,0,0,1,7.33815.36955c3.0166-3.29259,5.45116-3.28684,8.19178-3.29225h.00473l-.00067-.00338c1.2948,0,6.47438,0,10.08349,10.13653l3.87666,13.90576c2.87269,10.345-.91985,10.598-5.65048,10.60709-7.01554-.26112-10.9-5.3559-10.9-10.45a82.37026,82.37026,0,0,1-12.944.955h-.002a82.32335,82.32335,0,0,1-12.944-.955c0,5.09411-3.88476,10.18889-10.9,10.45-4.73062-.00912-8.52283-.26179-5.65013-10.60709l3.87767-13.90542c3.60911-10.13653,8.78868-10.13653,10.08349-10.13653ZM54.999,57.4616v.002c-.00676.00675-7.38544,6.78313-8.712,9.19337l4.832-.19356v4.21379c0,.19727,1.939.11687,3.88.027h.002c1.94036.08986,3.8797.17025,3.8797-.027V66.46344l4.832.19356c-1.3269-2.41024-8.712-9.19337-8.712-9.19337v-.002l-.001.00068Z"/>
  </g>
</svg>
