<svg id="Icons" xmlns="http://www.w3.org/2000/svg" width="109.98739" height="110" viewBox="0 0 109.98739 110">
  <defs>
    <style>
      .cls-1 {
        fill: #fefefe;
      }
    </style>
  </defs>
  <g id="linkedin">
    <rect id="linkedin-background" width="110" height="110" rx="24"/>
    <path id="n-body" class="cls-1" d="M58.57012,48.37113c.25576-.007.32585-.17328.41652-.31067A17.0263,17.0263,0,0,1,74.40413,39.9702a27.43792,27.43792,0,0,1,7.19985.9413c5.721,1.655,9.06476,5.59254,10.6696,11.17105A46.91212,46.91212,0,0,1,93.72,65.0824c.01643,9.17074-.02621,18.34157-.00366,27.51226.00214.87216-.25337,1.06779-1.088,1.06081q-7.08782-.0593-14.17628.00127c-.82772.00737-1.00823-.23983-1.00577-1.02781q.0409-13.08927.00859-26.17873a25.78025,25.78025,0,0,0-.52569-5.532A8.51862,8.51862,0,0,0,67.636,54.31367c-4.89928.56372-7.55428,3.38216-8.21557,8.688a33.615,33.615,0,0,0-.24814,4.195c.007,8.41828-.00884,16.83661.02166,25.25478.00321.88559-.15025,1.224-1.14786,1.21135-4.69054-.05943-9.38241-.04548-14.07341-.00836-.81414.00645-1.1073-.14881-1.10578-1.04487q.04253-25.15212.0061-50.30432c-.00119-1.03027.28731-1.1952,2.09615-.95286a41.46111,41.46111,0,0,0,11.31444.01c1.9181-.27164,2.24422-.07606,2.20783,1.00528-.05637,1.67492-.02113,3.35308-.01337,5.02985A1.93619,1.93619,0,0,0,58.57012,48.37113Z"/>
    <g id="i-body">
      <path id="i-base" class="cls-1" d="M32.58444,67.52882c0,8.34869-.01267,16.69743.01937,25.046.00324.84587-.20286,1.09048-1.06936,1.08248q-7.13808-.06588-14.27707-.00353c-.75711.00547-.98015-.17471-.979-.95976q.0357-25.25133.00423-50.50273c-.00075-.70651.1638-.94477.93138-.9331,4.728.07191,9.463.3609,14.17831.00873,1.08828-.08127,1.20649.23784,1.20471,1.01055Q32.56785,54.9031,32.58444,67.52882Z"/>
      <path id="i-dot" class="cls-1" d="M24.51368,15.19619a9.4316,9.4316,0,1,1-9.32944,11.144A9.46768,9.46768,0,0,1,24.51368,15.19619Z"/>
    </g>
  </g>
</svg>
