<svg id="Layer_1" data-name="Layer 1" xmlns="http://www.w3.org/2000/svg" xmlns:xlink="http://www.w3.org/1999/xlink" width="910.13" height="127.37" viewBox="0 0 910.13 127.37">
  <defs>
    <style>
      .cls-1 {
        fill: none;
      }

      .cls-2 {
        fill: #1c1c1c;
      }

      .cls-3 {
        isolation: isolate;
      }

      .cls-4 {
        fill: #313131;
      }

      .cls-5 {
        clip-path: url(#clip-path);
      }

      .cls-6 {
        fill: #262626;
      }

      .cls-7 {
        fill: #252525;
      }

      .cls-8 {
        fill: #242424;
      }

      .cls-9 {
        fill: #272727;
      }

      .cls-10 {
        fill: #282828;
      }

      .cls-11 {
        fill: #292929;
      }

      .cls-12 {
        fill: #2a2a2a;
      }

      .cls-13 {
        fill: #2b2b2b;
      }

      .cls-14 {
        fill: #2d2d2d;
      }

      .cls-15 {
        fill: #2e2e2e;
      }

      .cls-16 {
        fill: #2f2f2f;
      }

      .cls-17 {
        fill: #303030;
      }

      .cls-18 {
        fill: #323232;
      }

      .cls-19 {
        fill: #333;
      }

      .cls-20 {
        fill: #343434;
      }

      .cls-21 {
        fill: #353535;
      }

      .cls-22 {
        fill: #4d4d4d;
      }

      .cls-23 {
        fill: #575757;
      }

      .cls-24 {
        clip-path: url(#clip-path-2);
      }

      .cls-25 {
        fill: #5f5f5f;
      }

      .cls-26 {
        fill: #656565;
      }

      .cls-27 {
        fill: #6b6b6b;
      }

      .cls-28 {
        fill: #707070;
      }

      .cls-29 {
        fill: #757575;
      }

      .cls-30 {
        fill: #7a7a7a;
      }

      .cls-31 {
        fill: #7e7e7e;
      }

      .cls-32 {
        fill: #828282;
      }

      .cls-33 {
        fill: #858585;
      }

      .cls-34 {
        fill: #898989;
      }

      .cls-35 {
        fill: #8c8c8c;
      }

      .cls-36 {
        fill: #909090;
      }

      .cls-37 {
        fill: #939393;
      }

      .cls-38 {
        fill: #969696;
      }

      .cls-39 {
        fill: #999;
      }

      .cls-40 {
        fill: #9c9c9c;
      }

      .cls-41 {
        clip-path: url(#clip-path-3);
      }

      .cls-42 {
        clip-path: url(#clip-path-4);
      }

      .cls-43 {
        fill: url(#linear-gradient);
      }

      .cls-44 {
        fill: url(#linear-gradient-2);
      }

      .cls-45 {
        fill: url(#linear-gradient-3);
      }

      .cls-46 {
        fill: url(#linear-gradient-4);
      }

      .cls-47 {
        fill: url(#linear-gradient-5);
      }

      .cls-48 {
        fill: url(#linear-gradient-6);
      }

      .cls-49 {
        fill: url(#linear-gradient-7);
      }

      .cls-50 {
        fill: url(#linear-gradient-8);
      }

      .cls-51 {
        fill: url(#linear-gradient-9);
      }

      .cls-52 {
        fill: url(#linear-gradient-10);
      }

      .cls-53 {
        fill: url(#linear-gradient-11);
      }

      .cls-54 {
        fill: url(#linear-gradient-12);
      }

      .cls-55 {
        fill: url(#linear-gradient-13);
      }

      .cls-56 {
        fill: url(#linear-gradient-14);
      }
    </style>
    <clipPath id="clip-path">
      <path class="cls-1" d="M826.68,102.45v-1a2.5,2.5,0,0,1,0,5v-1a1.5,1.5,0,0,0,0-3Z"/>
    </clipPath>
    <clipPath id="clip-path-2">
      <path class="cls-1" d="M85.35,105.45v1a2.5,2.5,0,0,1,0-5v1a1.5,1.5,0,0,0,0,3Z"/>
    </clipPath>
    <clipPath id="clip-path-3">
      <path class="cls-1" d="M826.68,115.49v-1a2.5,2.5,0,0,1,0,5v-1a1.5,1.5,0,0,0,0-3Z"/>
    </clipPath>
    <clipPath id="clip-path-4">
      <path class="cls-1" d="M85.35,118.49v1a2.5,2.5,0,0,1,0-5v1a1.5,1.5,0,0,0,0,3Z"/>
    </clipPath>
    <linearGradient id="linear-gradient" x1="55.07" y1="55.03" x2="115.64" y2="55.03" gradientUnits="userSpaceOnUse">
      <stop offset="0" stop-color="#fff"/>
      <stop offset="0.11" stop-color="#fbfbfb" stop-opacity="0.98"/>
      <stop offset="0.24" stop-color="#ededed" stop-opacity="0.93"/>
      <stop offset="0.37" stop-color="#d7d7d7" stop-opacity="0.84"/>
      <stop offset="0.5" stop-color="#b9b9b9" stop-opacity="0.72"/>
      <stop offset="0.64" stop-color="#919191" stop-opacity="0.57"/>
      <stop offset="0.77" stop-color="#606060" stop-opacity="0.38"/>
      <stop offset="0.91" stop-color="#282828" stop-opacity="0.16"/>
      <stop offset="1" stop-opacity="0"/>
    </linearGradient>
    <linearGradient id="linear-gradient-2" x1="121.68" y1="55.03" x2="185.21" y2="55.03" xlink:href="#linear-gradient"/>
    <linearGradient id="linear-gradient-3" x1="186.99" y1="54.65" x2="216.69" y2="54.65" xlink:href="#linear-gradient"/>
    <linearGradient id="linear-gradient-4" x1="218.33" y1="55.03" x2="273.34" y2="55.03" xlink:href="#linear-gradient"/>
    <linearGradient id="linear-gradient-5" x1="274.39" y1="55.03" x2="300.68" y2="55.03" xlink:href="#linear-gradient"/>
    <linearGradient id="linear-gradient-6" x1="334.45" y1="55.03" x2="392.08" y2="55.03" xlink:href="#linear-gradient"/>
    <linearGradient id="linear-gradient-7" x1="398.97" y1="55.03" x2="447.42" y2="55.03" xlink:href="#linear-gradient"/>
    <linearGradient id="linear-gradient-8" x1="446.12" y1="54.47" x2="520.92" y2="54.47" xlink:href="#linear-gradient"/>
    <linearGradient id="linear-gradient-9" x1="517.53" y1="55.03" x2="575.74" y2="55.03" xlink:href="#linear-gradient"/>
    <linearGradient id="linear-gradient-10" x1="580.6" y1="55.03" x2="637.05" y2="55.03" xlink:href="#linear-gradient"/>
    <linearGradient id="linear-gradient-11" x1="641.52" y1="55.03" x2="699.14" y2="55.03" xlink:href="#linear-gradient"/>
    <linearGradient id="linear-gradient-12" x1="706.23" y1="55.03" x2="721.38" y2="55.03" xlink:href="#linear-gradient"/>
    <linearGradient id="linear-gradient-13" x1="729.77" y1="55.03" x2="793.3" y2="55.03" xlink:href="#linear-gradient"/>
    <linearGradient id="linear-gradient-14" x1="798.29" y1="55.03" x2="855.07" y2="55.03" xlink:href="#linear-gradient"/>
  </defs>
  <path class="cls-2" d="M897,0H0V72.15c0,4.46,3.09,8.67,8.38,11.43l44.29,23.09c5.3,2.75,8.38,7,8.38,11.43v.54c0,4.8,5.93,8.73,13.16,8.73H835.92c7.24,0,13.16-3.93,13.16-8.73v-.54c0-4.46,3.09-8.68,8.38-11.43l44.29-23.09c5.29-2.76,8.38-7,8.38-11.43V0Z"/>
  <g class="cls-3">
    <rect class="cls-4" x="85.35" y="105.45" width="741.33" height="1"/>
    <g class="cls-3">
      <g class="cls-5">
        <g class="cls-3">
          <path class="cls-6" d="M826.68,102.45v-1h.2l-.08,1h-.12"/>
          <path class="cls-7" d="M826.8,102.45l.08-1a2.21,2.21,0,0,1,.59.12l-.31,1a1.55,1.55,0,0,0-.36-.08"/>
          <path class="cls-8" d="M827.16,102.53l.31-1a2.51,2.51,0,0,1,1.68,2l-1,.16a1.48,1.48,0,0,0-1-1.19"/>
          <path class="cls-7" d="M828.16,103.72l1-.16a2.56,2.56,0,0,1,0,.39,1.62,1.62,0,0,1,0,.22l-1-.09V104a.86.86,0,0,0,0-.23"/>
          <path class="cls-6" d="M828.18,104.08l1,.09a2.36,2.36,0,0,1-.08.45l-1-.27a2.56,2.56,0,0,0,0-.27"/>
          <path class="cls-9" d="M828.13,104.35l1,.27a2.6,2.6,0,0,1-.13.36l-.91-.41a2,2,0,0,0,.08-.22"/>
          <path class="cls-10" d="M828.05,104.57l.91.41a2.69,2.69,0,0,1-.16.29l-.85-.53a1,1,0,0,0,.1-.17"/>
          <path class="cls-11" d="M828,104.74l.85.53a2.2,2.2,0,0,1-.17.25l-.78-.63a.56.56,0,0,0,.1-.15"/>
          <path class="cls-12" d="M827.85,104.89l.78.63-.19.21-.7-.71.11-.13"/>
          <path class="cls-13" d="M827.74,105l.7.71-.18.16-.64-.77.12-.1"/>
          <path class="cls-14" d="M827.62,105.12l.64.77a1.33,1.33,0,0,1-.19.14l-.55-.83.1-.08"/>
          <path class="cls-15" d="M827.52,105.2l.55.83-.17.11-.49-.88.11-.06"/>
          <path class="cls-16" d="M827.41,105.26l.49.88-.17.08-.42-.91.1,0"/>
          <path class="cls-17" d="M827.31,105.31l.42.91-.16.07-.36-.94.1,0"/>
          <path class="cls-4" d="M827.21,105.35l.36.94-.15,0-.3-1,.09,0"/>
          <path class="cls-18" d="M827.12,105.39l.3,1-.14,0-.24-1,.08,0"/>
          <path class="cls-19" d="M827,105.41l.24,1-.14,0-.18-1,.08,0"/>
          <path class="cls-20" d="M827,105.43l.18,1-.13,0-.13-1H827"/>
          <path class="cls-21" d="M826.88,105.44l.13,1h-.12l-.08-1h.07"/>
          <path class="cls-22" d="M826.81,105.45l.08,1h-.12l0-1h.07"/>
          <path class="cls-23" d="M826.74,105.45l0,1h-.09v-1h.06"/>
        </g>
      </g>
    </g>
    <g class="cls-3">
      <g class="cls-24">
        <g class="cls-3">
          <path class="cls-23" d="M85.35,105.45v1h0v-1h0"/>
          <path class="cls-25" d="M85.33,105.45v1h-.11l.06-1h.06"/>
          <path class="cls-26" d="M85.27,105.45l-.06,1h-.1l.1-1h.06"/>
          <path class="cls-27" d="M85.21,105.45l-.1,1H85l.14-1h.07"/>
          <path class="cls-28" d="M85.14,105.44l-.14,1-.1,0,.18-1h.06"/>
          <path class="cls-29" d="M85.08,105.43l-.18,1-.09,0,.22-1h0"/>
          <path class="cls-30" d="M85,105.42l-.22,1-.1,0,.26-1,.06,0"/>
          <path class="cls-31" d="M85,105.4l-.26,1-.1,0,.3-1H85"/>
          <path class="cls-32" d="M84.91,105.39l-.3,1-.1,0,.34-.94.06,0"/>
          <path class="cls-33" d="M84.85,105.37l-.34.94-.09,0,.37-.93.06,0"/>
          <path class="cls-34" d="M84.79,105.34l-.37.93-.1,0,.41-.91.06,0"/>
          <path class="cls-35" d="M84.73,105.32l-.41.91-.1,0,.45-.89.06,0"/>
          <path class="cls-36" d="M84.67,105.29l-.45.89-.12-.06.51-.87.06,0"/>
          <path class="cls-37" d="M84.61,105.25l-.51.87-.11-.07.55-.84.07,0"/>
          <path class="cls-38" d="M84.54,105.21l-.55.84-.13-.1.6-.8.08.06"/>
          <path class="cls-39" d="M84.46,105.15l-.6.8-.18-.14.67-.74.11.08"/>
          <path class="cls-40" d="M84.35,105.07l-.67.74a2.92,2.92,0,0,1-.43-.5l.85-.55a1.26,1.26,0,0,0,.25.31"/>
          <path class="cls-39" d="M84.1,104.76l-.85.55-.11-.2.89-.46a.41.41,0,0,0,.07.11"/>
          <path class="cls-38" d="M84,104.65l-.89.46a1,1,0,0,1-.07-.15l.92-.4a.36.36,0,0,0,0,.09"/>
          <path class="cls-37" d="M84,104.56l-.92.4a.5.5,0,0,1,0-.13l.93-.35a.3.3,0,0,0,0,.08"/>
          <path class="cls-36" d="M84,104.48l-.93.35a.34.34,0,0,1,0-.12l1-.3s0,0,0,.07"/>
          <path class="cls-35" d="M83.93,104.41l-1,.3a.42.42,0,0,1,0-.1l1-.27a.64.64,0,0,0,0,.07"/>
          <path class="cls-34" d="M83.91,104.34l-1,.27s0-.07,0-.11l1-.22s0,0,0,.06"/>
          <path class="cls-33" d="M83.89,104.28l-1,.22a.36.36,0,0,1,0-.1l1-.18s0,0,0,.06"/>
          <path class="cls-32" d="M83.88,104.22l-1,.18s0-.07,0-.11l1-.13s0,0,0,.06"/>
          <path class="cls-31" d="M83.87,104.16l-1,.13s0-.06,0-.1l1-.09a.13.13,0,0,1,0,.06"/>
          <path class="cls-30" d="M83.86,104.1l-1,.09s0-.06,0-.1l1,0v.06"/>
          <path class="cls-29" d="M83.86,104l-1,0V104l1,0V104"/>
          <path class="cls-28" d="M83.86,104l-1,0v-.11l1,0V104"/>
          <path class="cls-27" d="M83.86,103.91l-1,0v-.1l1,.07v.06"/>
          <path class="cls-26" d="M83.86,103.85l-1-.07a.45.45,0,0,0,0-.11l1,.11a.15.15,0,0,0,0,.07"/>
          <path class="cls-25" d="M83.87,103.78l-1-.11s0-.08,0-.11l1,.16a.13.13,0,0,0,0,.06"/>
          <path class="cls-23" d="M83.88,103.72l-1-.16a.36.36,0,0,1,0-.11l1,.2a.15.15,0,0,0,0,.07"/>
          <path class="cls-22" d="M83.89,103.65l-1-.2a.5.5,0,0,0,0-.12l1,.25s0,0,0,.07"/>
          <path class="cls-21" d="M83.9,103.58l-1-.25a.56.56,0,0,0,0-.12l1,.3a.19.19,0,0,1,0,.07"/>
          <path class="cls-20" d="M83.92,103.51l-1-.3,0-.12.94.34,0,.08"/>
          <path class="cls-19" d="M84,103.43l-.94-.34s0-.09,0-.13l.92.4,0,.07"/>
          <path class="cls-18" d="M84,103.36l-.92-.4a.91.91,0,0,1,.07-.14l.89.45,0,.09"/>
          <path class="cls-4" d="M84,103.27l-.89-.45s.05-.09.07-.14l.87.51,0,.08"/>
          <path class="cls-17" d="M84.07,103.19l-.87-.51.1-.15.82.57a.41.41,0,0,0-.05.09"/>
          <path class="cls-16" d="M84.12,103.1l-.82-.57.11-.15.78.63-.07.09"/>
          <path class="cls-15" d="M84.19,103l-.78-.63.14-.15.72.69-.08.09"/>
          <path class="cls-14" d="M84.27,102.92l-.72-.69a1.21,1.21,0,0,1,.16-.16l.66.75a.94.94,0,0,0-.1.1"/>
          <path class="cls-13" d="M84.37,102.82l-.66-.75.19-.16.59.82-.12.09"/>
          <path class="cls-12" d="M84.49,102.73l-.59-.82.23-.14.49.87-.13.09"/>
          <path class="cls-11" d="M84.62,102.64l-.49-.87.27-.13.38.92-.16.08"/>
          <path class="cls-10" d="M84.78,102.56l-.38-.92.31-.11.26,1-.19.06"/>
          <path class="cls-9" d="M85,102.5l-.26-1,.38-.07.1,1-.22,0"/>
          <path class="cls-6" d="M85.19,102.46l-.1-1h.26v1h-.16"/>
        </g>
      </g>
    </g>
    <rect class="cls-10" x="85.35" y="101.45" width="741.33" height="1"/>
    <path class="cls-15" d="M826.68,102.45a1.5,1.5,0,0,1,0,3H85.35a1.5,1.5,0,0,1,0-3Z"/>
  </g>
  <g class="cls-3">
    <rect class="cls-4" x="85.35" y="118.49" width="741.33" height="1"/>
    <g class="cls-3">
      <g class="cls-41">
        <g class="cls-3">
          <path class="cls-6" d="M826.68,115.49v-1h.2l-.08,1h-.12"/>
          <path class="cls-7" d="M826.8,115.49l.08-1a2.21,2.21,0,0,1,.59.13l-.31.94a2.29,2.29,0,0,0-.36-.07"/>
          <path class="cls-8" d="M827.16,115.56l.31-.94a2.52,2.52,0,0,1,1.68,2l-1,.16a1.51,1.51,0,0,0-1-1.19"/>
          <path class="cls-7" d="M828.16,116.75l1-.16a2.6,2.6,0,0,1,0,.4,1.7,1.7,0,0,1,0,.22l-1-.09V117a1,1,0,0,0,0-.24"/>
          <path class="cls-6" d="M828.18,117.12l1,.09a2.14,2.14,0,0,1-.08.44l-1-.26a2.56,2.56,0,0,0,0-.27"/>
          <path class="cls-9" d="M828.13,117.39l1,.26a1.91,1.91,0,0,1-.13.36l-.91-.41a1.8,1.8,0,0,0,.08-.21"/>
          <path class="cls-10" d="M828.05,117.6l.91.41a2.11,2.11,0,0,1-.16.3l-.85-.53a1.62,1.62,0,0,0,.1-.18"/>
          <path class="cls-11" d="M828,117.78l.85.53a2.2,2.2,0,0,1-.17.25l-.78-.63.1-.15"/>
          <path class="cls-12" d="M827.85,117.93l.78.63a1.8,1.8,0,0,1-.19.2l-.7-.71.11-.12"/>
          <path class="cls-13" d="M827.74,118.05l.7.71-.18.17-.64-.78.12-.1"/>
          <path class="cls-14" d="M827.62,118.15l.64.78-.19.13-.55-.83.1-.08"/>
          <path class="cls-15" d="M827.52,118.23l.55.83-.17.11-.49-.87.11-.07"/>
          <path class="cls-16" d="M827.41,118.3l.49.87-.17.09-.42-.91.1,0"/>
          <path class="cls-17" d="M827.31,118.35l.42.91-.16.07-.36-.94.1,0"/>
          <path class="cls-4" d="M827.21,118.39l.36.94-.15,0-.3-1,.09,0"/>
          <path class="cls-18" d="M827.12,118.42l.3,1-.14,0-.24-1,.08,0"/>
          <path class="cls-19" d="M827,118.45l.24,1-.14,0-.18-1H827"/>
          <path class="cls-20" d="M827,118.46l.18,1-.13,0-.13-1,.08,0"/>
          <path class="cls-21" d="M826.88,118.48l.13,1h-.12l-.08-1h.07"/>
          <path class="cls-22" d="M826.81,118.49l.08,1h-.12l0-1h.07"/>
          <path class="cls-23" d="M826.74,118.49l0,1h-.09v-1h.06"/>
        </g>
      </g>
    </g>
    <g class="cls-3">
      <g class="cls-42">
        <g class="cls-3">
          <path class="cls-23" d="M85.35,118.49v1h0v-1h0"/>
          <path class="cls-25" d="M85.33,118.49v1h-.11l.06-1h.06"/>
          <path class="cls-26" d="M85.27,118.49l-.06,1h-.1l.1-1h.06"/>
          <path class="cls-27" d="M85.21,118.48l-.1,1H85l.14-1h.07"/>
          <path class="cls-28" d="M85.14,118.48l-.14,1-.1,0,.18-1h.06"/>
          <path class="cls-29" d="M85.08,118.47l-.18,1-.09,0,.22-1h0"/>
          <path class="cls-30" d="M85,118.46l-.22,1-.1,0,.26-1,.06,0"/>
          <path class="cls-31" d="M85,118.44l-.26,1-.1,0,.3-1,.06,0"/>
          <path class="cls-32" d="M84.91,118.42l-.3,1-.1,0,.34-.95.06,0"/>
          <path class="cls-33" d="M84.85,118.4l-.34.95-.09,0,.37-.93.06,0"/>
          <path class="cls-34" d="M84.79,118.38l-.37.93-.1,0,.41-.91.06,0"/>
          <path class="cls-35" d="M84.73,118.36l-.41.91-.1,0,.45-.89.06,0"/>
          <path class="cls-36" d="M84.67,118.33l-.45.89-.12-.07.51-.86.06,0"/>
          <path class="cls-37" d="M84.61,118.29l-.51.86a.41.41,0,0,1-.11-.07l.55-.83.07,0"/>
          <path class="cls-38" d="M84.54,118.25l-.55.83-.13-.09.6-.8.08.06"/>
          <path class="cls-39" d="M84.46,118.19l-.6.8c-.06,0-.12-.09-.18-.15l.67-.74.11.09"/>
          <path class="cls-40" d="M84.35,118.1l-.67.74a2.32,2.32,0,0,1-.43-.5l.85-.54a1.42,1.42,0,0,0,.25.3"/>
          <path class="cls-39" d="M84.1,117.8l-.85.54c0-.06-.07-.13-.11-.2l.89-.46a.75.75,0,0,0,.07.12"/>
          <path class="cls-38" d="M84,117.68l-.89.46a.61.61,0,0,1-.07-.14l.92-.4,0,.08"/>
          <path class="cls-37" d="M84,117.6l-.92.4a.69.69,0,0,1,0-.13l.93-.35,0,.08"/>
          <path class="cls-36" d="M84,117.52l-.93.35a.56.56,0,0,1,0-.12l1-.3a.64.64,0,0,1,0,.07"/>
          <path class="cls-35" d="M83.93,117.45l-1,.3a.36.36,0,0,1,0-.11l1-.26s0,.05,0,.07"/>
          <path class="cls-34" d="M83.91,117.38l-1,.26s0-.07,0-.1l1-.22s0,0,0,.06"/>
          <path class="cls-33" d="M83.89,117.32l-1,.22a.43.43,0,0,1,0-.11l1-.17s0,0,0,.06"/>
          <path class="cls-32" d="M83.88,117.26l-1,.17s0-.06,0-.1l1-.14s0,0,0,.07"/>
          <path class="cls-31" d="M83.87,117.19l-1,.14s0-.07,0-.1l1-.1a.13.13,0,0,1,0,.06"/>
          <path class="cls-30" d="M83.86,117.13l-1,.1s0-.07,0-.1l1-.06v.06"/>
          <path class="cls-29" d="M83.86,117.07l-1,.06V117h1v.06"/>
          <path class="cls-28" d="M83.86,117h-1v-.1l1,0V117"/>
          <path class="cls-27" d="M83.86,117l-1,0v-.11l1,.07V117"/>
          <path class="cls-26" d="M83.86,116.88l-1-.07a.37.37,0,0,0,0-.11l1,.12a.13.13,0,0,0,0,.06"/>
          <path class="cls-25" d="M83.87,116.82l-1-.12s0-.07,0-.1l1,.15a.17.17,0,0,0,0,.07"/>
          <path class="cls-23" d="M83.88,116.75l-1-.15a.5.5,0,0,1,0-.12l1,.2a.2.2,0,0,0,0,.07"/>
          <path class="cls-22" d="M83.89,116.68l-1-.2a.43.43,0,0,0,0-.11l1,.25s0,0,0,.06"/>
          <path class="cls-21" d="M83.9,116.62l-1-.25a.56.56,0,0,0,0-.12l1,.29a.24.24,0,0,1,0,.08"/>
          <path class="cls-20" d="M83.92,116.54l-1-.29,0-.13.94.35,0,.07"/>
          <path class="cls-19" d="M84,116.47l-.94-.35,0-.12.92.39,0,.08"/>
          <path class="cls-18" d="M84,116.39l-.92-.39a.61.61,0,0,1,.07-.14l.89.45s0,0,0,.08"/>
          <path class="cls-4" d="M84,116.31l-.89-.45.07-.14.87.51a.22.22,0,0,0,0,.08"/>
          <path class="cls-17" d="M84.07,116.23l-.87-.51.1-.15.82.57a.41.41,0,0,0-.05.09"/>
          <path class="cls-16" d="M84.12,116.14l-.82-.57.11-.15.78.63-.07.09"/>
          <path class="cls-15" d="M84.19,116.05l-.78-.63.14-.16.72.69-.08.1"/>
          <path class="cls-14" d="M84.27,116l-.72-.69.16-.15.66.75-.1.09"/>
          <path class="cls-13" d="M84.37,115.86l-.66-.75.19-.16.59.82-.12.09"/>
          <path class="cls-12" d="M84.49,115.77,83.9,115l.23-.14.49.87a.51.51,0,0,0-.13.09"/>
          <path class="cls-11" d="M84.62,115.68l-.49-.87a1.66,1.66,0,0,1,.27-.13l.38.92-.16.08"/>
          <path class="cls-10" d="M84.78,115.6l-.38-.92a1.92,1.92,0,0,1,.31-.11l.26,1a.7.7,0,0,0-.19.06"/>
          <path class="cls-9" d="M85,115.54l-.26-1a2.53,2.53,0,0,1,.38-.07l.1,1-.22.05"/>
          <path class="cls-6" d="M85.19,115.49l-.1-1h.26v1h-.16"/>
        </g>
      </g>
    </g>
    <rect class="cls-10" x="85.35" y="114.49" width="741.33" height="1"/>
    <path class="cls-15" d="M826.68,115.49a1.5,1.5,0,0,1,0,3H85.35a1.5,1.5,0,0,1,0-3Z"/>
  </g>
  <g>
    <path class="cls-43" d="M55.07,86.22l9.76-17.9H97.94c2,0,3.08-1,3.08-3.27s-1.11-3.26-3.21-3.26H73c-11.34,0-16.52-7.55-16.52-18.09,0-12.59,5.51-19.87,19.21-19.87H114.4L104.63,42H74.27c-2,0-3.08.74-3.08,3s1,3.08,3.08,3.08H99.19c10.62,0,16.45,5.88,16.45,17.25,0,12.87-4.32,20.89-17.89,20.89Z"/>
    <path class="cls-44" d="M165,86.22l-8.32-15.48h-19.8V86.22H121.68V53.58h39.67c3.6,0,5.57-1.77,5.57-5.87S165,42,161.35,42h-39.6l9.9-18.19h27.8c9.9,0,23.2,4.2,23.2,22.66,0,9.33-3.86,17.54-10.68,19.87,1.18,1.12,4.13,4.85,10.09,14.74l3.15,5.12Z"/>
    <path class="cls-45" d="M187,61.42l7.48-13.53h22.22l-7.47,13.53Z"/>
    <path class="cls-46" d="M224.3,86.22l21.63-34c4.79-7.55,6.3-9.6,7.54-10.72-1.77.28-4.19.56-11.47.56H218.33L228,23.83h37.11c5.5,0,8.26,4.2,8.26,9.23a14.26,14.26,0,0,1-2.1,7.56l-27.73,45.6Z"/>
    <path class="cls-47" d="M285.47,86.22V42H274.39L283,23.83h17.7V86.22Z"/>
    <path class="cls-48" d="M334.52,86.22V47.52h39.27c1.38,0,2.95-.37,2.95-3,0-2.24-1.57-2.52-2.75-2.52H334.45l10.3-18.19H373.4c10.75,0,17.76,5.78,17.76,17.35,0,7.37-2.75,11.28-5.83,13,3.87,1.68,6.75,6.44,6.75,13.71,0,10.54-4,18.37-18.36,18.37Zm15.21-23.87v6h24.06c2.16,0,3.15-.84,3.15-3.08,0-2-1-2.89-3.41-2.89Z"/>
    <path class="cls-49" d="M399,86.22V23.83h15.15V68.32h33.3l-9.77,17.9Z"/>
    <path class="cls-50" d="M469.07,86.22l9.17-17.9h9.84a58.23,58.23,0,0,1,6,.18c-.65-1-2.09-3.91-3-5.87l-7.34-15.2L464.08,86.22h-18l28.06-55.58c2.1-4.2,5.05-7.93,9.77-7.93s7.54,3.45,9.7,7.93l27.27,55.58Z"/>
    <path class="cls-51" d="M544.27,86.22c-15.4,0-26.74-13.71-26.74-31.8,0-18.28,11.34-30.59,26.74-30.59h31.47L566,42H544.27c-7,0-11.54,3.17-11.54,12.4s4.53,13.9,11.54,13.9h31.47L566,86.22Z"/>
    <path class="cls-52" d="M614.17,86.22l-11.74-16c-4.45-6.15-6-8.3-6.88-10,.07,2.62.26,5.69.26,8.68V86.22H580.6V23.83h15.21V37.36c0,4-.19,8.11-.33,11.47,1.19-1.87,3.22-4.95,7-10.08l11.21-14.92h21.9L619,42.58c-5.83,6.62-7.8,8.76-9.83,10.63,1.57,1.59,4.32,4.57,9.83,11.28l18,21.73Z"/>
    <path class="cls-53" d="M641.58,86.22V47.52h39.27c1.38,0,2.95-.37,2.95-3,0-2.24-1.57-2.52-2.75-2.52H641.52l10.29-18.19h28.65c10.75,0,17.77,5.78,17.77,17.35,0,7.37-2.76,11.28-5.84,13,3.87,1.68,6.75,6.44,6.75,13.71,0,10.54-4,18.37-18.35,18.37Zm15.21-23.87v6h24.06c2.17,0,3.15-.84,3.15-3.08,0-2-1-2.89-3.41-2.89Z"/>
    <path class="cls-54" d="M706.23,86.22V23.83h15.15V86.22Z"/>
    <path class="cls-55" d="M773,86.22l-8.32-15.48h-19.8V86.22H729.77V53.58h39.67c3.6,0,5.57-1.77,5.57-5.87S773,42,769.44,42h-39.6l9.9-18.19h27.79c9.9,0,23.21,4.2,23.21,22.66,0,9.33-3.87,17.54-10.68,19.87,1.18,1.12,4.13,4.85,10.09,14.74l3.15,5.12Z"/>
    <path class="cls-56" d="M798.29,86.22V47.33H813.5v21h14.69c6.88,0,11.8-3.64,11.8-13.9,0-8.49-5.18-12.4-11.8-12.4h-29.9l9.64-18.19h20.26c15.6,0,26.88,12.59,26.88,30.59s-11.41,31.8-26.88,31.8Z"/>
  </g>
</svg>
