<svg id="play" xmlns="http://www.w3.org/2000/svg" width="2048" height="2048" viewBox="0 0 2048 2048">
  <defs>
    <style>
      .cls-1 {
        fill: white;
      }
    </style>
  </defs>
  <path id="play-2" data-name="play" class="cls-1" d="M772.16481,1686.50783q-23.663-11.44591-49.60441-36.63128L397.46374,1341.5694q-7.63711-6.86756-19.0787-6.86864H159.36474q-77.08869,0-118.28644-41.97163Q-.13027,1250.76725-.13135,1167.57406V883.687q0-82.41874,41.20965-124.773,41.21019-42.35316,118.28644-42.3537H378.385q11.44754,0,19.0787-6.86863L722.5604,404.4368q28.9931-28.22354,50.36747-40.44658,21.356-12.19763,48.07721-12.21007,38.921,0,63.3406,26.32833,24.41472,26.32887,24.42121,63.72158V1612.48329q0,36.6302-24.03914,61.05141-24.03969,24.41472-62.19655,24.42013A114.08283,114.08283,0,0,1,772.16481,1686.50783Zm382.33169-378.5153q-3.05874-25.18428,14.49925-49.60441,32.80515-46.54026,51.13054-107.22042a437.24574,437.24574,0,0,0,18.31564-127.06327,450.1283,450.1283,0,0,0-17.93465-127.44426q-17.94008-61.04491-51.51153-106.83943-18.31347-23.64516-14.88024-49.22234,3.43216-25.55931,26.32725-41.59064a55.14521,55.14521,0,0,1,43.49992-9.15782q23.64516,4.57838,38.91938,26.7104,44.25106,58.004,69.06518,138.89018,24.78813,80.89914,24.80112,168.65391,0,87.76668-24.80112,168.65391-24.81085,80.8975-69.06518,138.89018-15.27421,22.145-38.91938,26.32941-23.66466,4.20171-43.49992-8.77575Q1157.55092,1333.17463,1154.4965,1307.99253Zm286.17729,201.84871q-3.05874-24.03807,12.97312-47.69514,61.81448-89.28794,96.53757-202.61285,34.71443-113.326,34.722-235.42882,0-122.08985-34.341-235.80981-34.341-113.701-96.91856-202.23078-16.79383-23.6468-13.35411-47.69621,3.43215-24.03969,24.037-38.5384,21.356-14.48843,45.026-9.92088,23.64516,4.57837,38.91938,26.70932,74.01372,99.21423,114.47221,232.75756a942.83368,942.83368,0,0,1,40.44551,274.7292,927.15665,927.15665,0,0,1-40.82866,273.96722q-40.83191,132.78569-114.08906,233.51846-15.27421,22.145-38.91938,26.32941-23.66466,4.20171-45.026-9.53989Q1443.72712,1533.89121,1440.67379,1509.84124Zm285.41314,201.46988q-3.05874-24.81087,12.97312-47.6973,58.75573-86.99876,101.88008-188.87558,43.10486-101.88007,66.77275-215.205,23.64516-113.326,23.65815-235.42882,0-122.85939-23.65815-236.1908-23.66141-113.326-66.77275-214.44193A1148.44669,1148.44669,0,0,0,1739.06005,384.595q-16.02429-23.64516-12.97312-48.0772,3.03926-24.41472,24.42013-38.92047,19.83635-14.48843,44.2619-9.53881,24.41472,4.97127,39.68352,28.61751,65.62329,96.92343,113.70807,209.48149,48.07612,112.5743,74.02454,237.71692,25.93436,125.16645,25.94626,260.23,0,135.0765-25.56527,260.22995-25.57718,125.16805-73.2604,237.718a1164.84511,1164.84511,0,0,1-114.8532,209.48149q-15.27421,22.89185-39.68352,28.23652-24.431,5.32845-44.2619-9.1589Q1729.13485,1736.10682,1726.08693,1711.31112Z"/>
</svg>