<svg id="stop" xmlns="http://www.w3.org/2000/svg" width="2048" height="2048" viewBox="0 0 2048 2048">
  <defs>
    <style>
      .cls-1 {
        fill: white;
      }
    </style>
  </defs>
  <path id="stop-2" data-name="stop" class="cls-1" d="M328.34606,421.83832q-16.79709-16.77783-16.792-41.59463,0-24.79113,16.792-41.59464,17.54449-17.54449,41.97732-17.17208a60.1339,60.1339,0,0,1,41.97219,17.17208L1718.8937,1645.242q17.5445,17.5522,17.5522,41.59721,0,24.03987-17.5522,41.59721-16.02659,17.54448-40.83183,17.54705-24.81039,0-41.59721-17.54705Zm174.00659,823.10895q-38.9184-40.06645-38.921-122.49293V830.149q0-76.30736,33.57877-114.47964l870.04835,869.283q-9.16134,32.80057-30.52756,48.08489-21.38162,15.25608-51.1361,15.26122a112.45965,112.45965,0,0,1-49.60537-11.44977q-23.67-11.44976-50.37587-36.63512L855.71316,1291.88667q-7.63575-6.87294-19.0778-6.87294H619.12584Q541.27362,1285.01373,502.35265,1244.94727ZM842.74292,645.45541h22.89439q6.86523,0,12.97537-6.105L1185.4139,354.6782q29.76477-27.47634,51.13611-40.069,21.3585-12.594,48.07975-12.59268,38.92611,0,63.34611,26.33086,24.41742,26.32828,24.42513,63.72622v781.51431Z"/>
</svg>