<svg xmlns="http://www.w3.org/2000/svg" xmlns:xlink="http://www.w3.org/1999/xlink" width="522.3277" height="1265.67393" viewBox="0 0 522.3277 1265.67393">
  <defs>
    <style>
      .b4b65dbe-4130-402c-91e9-690aa364e3df, .b5e21b90-f6a3-4161-a52b-089e24e45d7d, .b6a52be8-695a-4861-9376-3193a729426a, .e2ab4490-95b1-4452-9972-84c48a2f24c3 {
        fill: none;
      }

      .a3de7ffb-8381-4f23-a6a1-9b9234a89a3d, .af171f9c-fc9b-4292-895d-d3331464b808, .bad37c0f-8e12-49e3-9195-6a3be51cbe13, .f65233f0-7fba-43db-bf24-a5239dfd39c7 {
        fill: #ffb600;
      }

      .a3de7ffb-8381-4f23-a6a1-9b9234a89a3d, .bad37c0f-8e12-49e3-9195-6a3be51cbe13 {
        stroke: #f4c037;
      }

      .a3de7ffb-8381-4f23-a6a1-9b9234a89a3d, .aab54312-f0e7-4de4-8450-f125fa5f6a97, .ac4bad04-ae71-41f4-83a4-8f1d192f50e3, .ad881c77-da3b-4651-92aa-4ea0d684ee0c, .af171f9c-fc9b-4292-895d-d3331464b808, .b6a52be8-695a-4861-9376-3193a729426a, .bad37c0f-8e12-49e3-9195-6a3be51cbe13, .bedf3baa-21dd-48a4-a68c-1898e73a236c, .e2ab4490-95b1-4452-9972-84c48a2f24c3, .f26bb9fd-6a2b-4003-8f9b-0f5d5c36d6b6, .f65233f0-7fba-43db-bf24-a5239dfd39c7 {
        stroke-linecap: round;
      }

      .a3de7ffb-8381-4f23-a6a1-9b9234a89a3d, .aab54312-f0e7-4de4-8450-f125fa5f6a97, .ac4bad04-ae71-41f4-83a4-8f1d192f50e3, .ad881c77-da3b-4651-92aa-4ea0d684ee0c, .af171f9c-fc9b-4292-895d-d3331464b808, .b4b65dbe-4130-402c-91e9-690aa364e3df, .b6a52be8-695a-4861-9376-3193a729426a, .bad37c0f-8e12-49e3-9195-6a3be51cbe13, .bedf3baa-21dd-48a4-a68c-1898e73a236c, .e2ab4490-95b1-4452-9972-84c48a2f24c3, .f26bb9fd-6a2b-4003-8f9b-0f5d5c36d6b6, .f65233f0-7fba-43db-bf24-a5239dfd39c7 {
        stroke-miterlimit: 10;
      }

      .b6a52be8-695a-4861-9376-3193a729426a, .bad37c0f-8e12-49e3-9195-6a3be51cbe13 {
        stroke-width: 0.7545px;
      }

      .b6a52be8-695a-4861-9376-3193a729426a, .e2ab4490-95b1-4452-9972-84c48a2f24c3 {
        stroke: #c99e2d;
      }

      .a3de7ffb-8381-4f23-a6a1-9b9234a89a3d, .e2ab4490-95b1-4452-9972-84c48a2f24c3 {
        stroke-width: 0.7545px;
      }

      .f26bb9fd-6a2b-4003-8f9b-0f5d5c36d6b6 {
        fill: #d80000;
      }

      .bedf3baa-21dd-48a4-a68c-1898e73a236c, .f26bb9fd-6a2b-4003-8f9b-0f5d5c36d6b6 {
        stroke: #d80000;
      }

      .bedf3baa-21dd-48a4-a68c-1898e73a236c {
        fill: #feecc5;
      }

      .ad881c77-da3b-4651-92aa-4ea0d684ee0c {
        fill: #b50000;
        stroke: #b50000;
      }

      .b232bd57-c23e-4995-9b8f-2b9222c223cd {
        clip-path: url(#fc96da20-0f11-428e-97e5-23468219d089);
      }

      .ac4bad04-ae71-41f4-83a4-8f1d192f50e3 {
        fill: #b20000;
        stroke: #b20000;
      }

      .a4677684-c630-4df6-8a46-aef4e323fa9c, .aab54312-f0e7-4de4-8450-f125fa5f6a97 {
        fill: #fff;
      }

      .af171f9c-fc9b-4292-895d-d3331464b808, .f65233f0-7fba-43db-bf24-a5239dfd39c7 {
        stroke: #ffb600;
      }

      .bf6ca50d-e2ca-435f-a26b-34d82bdd64b2 {
        clip-path: url(#bd8c01d6-8f9d-4213-95a1-27cd64548839);
      }

      .aab54312-f0e7-4de4-8450-f125fa5f6a97 {
        stroke: #fff;
        stroke-width: 3.78022px;
      }

      .f65233f0-7fba-43db-bf24-a5239dfd39c7 {
        stroke-width: 0.75px;
      }

      .b4b65dbe-4130-402c-91e9-690aa364e3df {
        stroke: #ff0;
      }
    </style>
    <clipPath id="fc96da20-0f11-428e-97e5-23468219d089" transform="translate(-246.63924 -72.5883)">
      <path id="ac797aed-6819-416f-8719-2b94f6c198a1" data-name="details-body-outline" class="b5e21b90-f6a3-4161-a52b-089e24e45d7d" d="M698.53027,723.82617l-.00488.01074c-.06055.13379-6.01269,13.60254-4.63574,26.90723.40234,3.8916,1.60254,6.19531,3.5664,6.84473,2.98536.99023,6.71583-2.22657,8.17286-3.63672.876,2.959,4.06738,12.71191,8.44726,14.28223a3.72374,3.72374,0,0,0,3.57617-.59278c2.25-1.6084,4.20313-2.23633,5.64649-1.82422a2.99878,2.99878,0,0,1,1.87012,1.60254l.22168.55664,26.28906-16.48047a10.22871,10.22871,0,0,0,4.77929-9.48925l-2.75585-35.42676V651.42041l-3.2168-84.54834-.00195-.05664L711.15723,421.22119c-.78907-13.61426-13.20606-73.85058-13.34474-74.50683-10.67089-33.93409-22.789-42.05079-27.5039-43.96534a50.80057,50.80057,0,0,1-6.54882-3.292c-8.90137-5.1914-25.67188-13.68506-38.01172-12.21045-15.65723,1.87647-48.23438-21.73144-51.06348-23.80762l-1.24708-46.93359a312.09482,312.09482,0,0,0,15.01759-62.55615c5.60058-40.86035-10.03516-57.05029-11.03711-58.03613-14.55859-22.20557-44.64649-23.31592-44.97754-23.32471-.30225.00879-30.38916,1.12256-44.94873,23.32422-.998.98242-16.63818,17.17138-11.03711,58.03662a312.266,312.266,0,0,0,15.00781,62.53223L490.21484,263.439c-2.82861,2.07667-35.40088,25.66993-51.064,23.80762C426.813,285.77393,410.04,294.26514,401.14063,299.457a50.86108,50.86108,0,0,1-6.54834,3.292c-4.71485,1.91455-16.833,10.03125-27.51758,44.01416-.12549.60743-12.54395,60.84375-13.33155,74.458l-39.3125,145.53955-.01464.05469-3.21875,84.624.00146,55.10157-2.75879,35.46582a10.231,10.231,0,0,0,4.77979,9.48925L337.668,766.82227a4.2473,4.2473,0,0,0,2.90918.58984,21.984,21.984,0,0,1,6.87793.31543c7.14551,1.2168,10.90576-10.416,11.83252-13.75977,1.46728,1.41993,5.19092,4.6084,8.15576,3.6211,1.96435-.64942,3.165-2.95215,3.56738-6.84473,1.37647-13.30469-4.57568-26.77344-4.64111-26.918l-16.89111-35.43066a10.89111,10.89111,0,0,1-.54493-8.03223l30.78662-96.31836.13477-.4209-6-2.769,26.832-108.417,13.436-20.14551,7.64258-21.60791,11.65722,83.8418-1.82861,29.30371-8.73682,50.13769c-.04931.72266-5.01562,72.43457-10.46728,86.97266-5.48828,14.63477-18.96729,71.51562-19.10547,72.10059-.13574.64746-13.439,65.31054-2.46094,114.10156,10.91113,48.49512,4.39014,69.0957,4.30957,69.34668L368.666,1054.66992l-6.57764,24.85742h-2.32959l-.08252.39844a113.45716,113.45716,0,0,0-.00244,38.2168c3.41553,19.21875-1.104,86.19922-1.58252,93.10254a2.18607,2.18607,0,0,0-.81934.1709c-2.17187.88964-5.5498,5.58886-9.30615,22.92675-5.45068,25.15723-15.58008,38.46582-15.63525,38.5459l-17.90674,17.48047-.08545.083-.03858.1123c-.04443.12989-4.34228,13.04,2.49952,23.0459,4.93408,7.21582,14.28662,11.16016,27.79736,11.72363.80273.03321,1.58984.04981,2.37109.04883,38.97168-.00293,51.30176-40.918,51.43067-41.36426l1.46582-6.23046a39.131,39.131,0,0,0-1.18653-21.57227c-1.6333-4.80176-1.46435-14.13477,8.61817-31.32129l.05664-.09668,5.11914-56.31055,34.84521-81.16308c1.45313-.57422,9.44483-4.29,8.65088-16.20215l-.01562-.22949-8.53027-6.39746c-.26465-3.31836-3.10108-43.05567,8.58056-82.30371,12.17432-40.90039,24.55957-97.10743,24.6709-97.624l34.10791-106.16211c.16357-.50781,4.15918-12.44336,17.66895-12.44336,13.69531,0,17.51074,11.92969,17.66894,12.44434l34.0957,106.11523c.124.5625,12.50879,56.76954,24.68164,97.66993,11.68067,39.24023,8.84571,78.98535,8.582,82.30371l-8.53028,6.39746-.01562.22949c-.79492,11.91211,7.19726,15.62793,8.65039,16.20215l34.84472,81.16308,5.10938,56.19922.06641.208c10.084,17.1875,10.25293,26.51953,8.61816,31.32129a39.14176,39.14176,0,0,0-1.18555,21.57227l1.47168,6.25586c.12207.42089,12.44629,41.34082,51.42481,41.33886.77832,0,1.57031-.01562,2.37011-.04883,13.51075-.56347,22.86329-4.50781,27.79786-11.72363,6.84179-10.00586,2.54394-22.916,2.499-23.0459l-.03809-.1123-17.94531-17.51172c-.10156-.13184-10.23047-13.44043-15.68262-38.59766-3.75683-17.33886-7.13379-22.03808-9.30566-22.92675a1.9368,1.9368,0,0,0-.81836-.1709c-.47949-6.90332-4.999-73.88379-1.583-93.10254a113.43439,113.43439,0,0,0-.00293-38.2168l-.082-.39844h-2.33008l-6.57226-24.83886L669.75391,936.44043c-.06739-.20215-6.58985-20.80273,4.32226-69.29785,10.97852-48.791-2.32519-113.4541-2.46387-114.11426-.13574-.57227-13.61425-57.45312-19.10253-72.08789-5.45215-14.53809-10.417-86.25-10.47364-87.02441l-8.72364-50.03125-1.83593-29.35743,11.65723-83.84326,7.58789,21.49756L664.21289,472.438l26.832,108.417-5.999,2.769,30.91992,96.73926a10.89121,10.89121,0,0,1-.54394,8.03223Z"/>
    </clipPath>
    <clipPath id="bd8c01d6-8f9d-4213-95a1-27cd64548839" transform="translate(-246.63924 -72.5883)">
      <path id="b6354cb7-8dbf-43aa-a470-aa6d7765dd27" data-name="yellow-body-outline" class="b5e21b90-f6a3-4161-a52b-089e24e45d7d" d="M698.53027,723.82617l-.00488.01074c-.06055.13379-6.01269,13.60254-4.63574,26.90723.40234,3.8916,1.60254,6.19531,3.5664,6.84473,2.98536.99023,6.71583-2.22657,8.17286-3.63672.876,2.959,4.06738,12.71191,8.44726,14.28223a3.72374,3.72374,0,0,0,3.57617-.59278c2.25-1.6084,4.20313-2.23633,5.64649-1.82422a2.99878,2.99878,0,0,1,1.87012,1.60254l.22168.55664,26.28906-16.48047a10.22871,10.22871,0,0,0,4.77929-9.48925l-2.75585-35.42676V651.42041l-3.2168-84.54834-.00195-.05664L711.15723,421.22119c-.78907-13.61426-13.20606-73.85058-13.34474-74.50683-10.67089-33.93409-22.789-42.05079-27.5039-43.96534a50.80057,50.80057,0,0,1-6.54882-3.292c-8.90137-5.1914-25.67188-13.68506-38.01172-12.21045-15.65723,1.87647-48.23438-21.73144-51.06348-23.80762l-1.24708-46.93359a312.09482,312.09482,0,0,0,15.01759-62.55615c5.60058-40.86035-10.03516-57.05029-11.03711-58.03613-14.55859-22.20557-44.64649-23.31592-44.97754-23.32471-.30225.00879-30.38916,1.12256-44.94873,23.32422-.998.98242-16.63818,17.17138-11.03711,58.03662a312.266,312.266,0,0,0,15.00781,62.53223L490.21484,263.439c-2.82861,2.07667-35.40088,25.66993-51.064,23.80762C426.813,285.77393,410.04,294.26514,401.14063,299.457a50.86108,50.86108,0,0,1-6.54834,3.292c-4.71485,1.91455-16.833,10.03125-27.51758,44.01416-.12549.60743-12.54395,60.84375-13.33155,74.458l-39.3125,145.53955-.01464.05469-3.21875,84.624.00146,55.10157-2.75879,35.46582a10.231,10.231,0,0,0,4.77979,9.48925L337.668,766.82227a4.2473,4.2473,0,0,0,2.90918.58984,21.984,21.984,0,0,1,6.87793.31543c7.14551,1.2168,10.90576-10.416,11.83252-13.75977,1.46728,1.41993,5.19092,4.6084,8.15576,3.6211,1.96435-.64942,3.165-2.95215,3.56738-6.84473,1.37647-13.30469-4.57568-26.77344-4.64111-26.918l-16.89111-35.43066a10.89111,10.89111,0,0,1-.54493-8.03223l21.13421-86.3616,2.53408-10.37766,1.2531-2.769,26.832-108.417,13.436-20.14551,7.64258-21.60791,11.65722,83.8418-1.82861,29.30371-8.73682,50.13769c-.04931.72266-5.01562,72.43457-10.46728,86.97266-5.48828,14.63477-18.96729,71.51562-19.10547,72.10059-.13574.64746-13.439,65.31054-2.46094,114.10156,10.91113,48.49512,4.39014,69.0957,4.30957,69.34668L368.666,1054.66992l-6.57764,24.85742h-2.32959l-.08252.39844a113.45716,113.45716,0,0,0-.00244,38.2168c3.41553,19.21875-1.104,86.19922-1.58252,93.10254a2.18607,2.18607,0,0,0-.81934.1709c-2.17187.88964-5.5498,5.58886-9.30615,22.92675-5.45068,25.15723-15.58008,38.46582-15.63525,38.5459l-17.90674,17.48047-.08545.083-.03858.1123c-.04443.12989-4.34228,13.04,2.49952,23.0459,4.93408,7.21582,14.28662,11.16016,27.79736,11.72363.80273.03321,1.58984.04981,2.37109.04883,38.97168-.00293,51.30176-40.918,51.43067-41.36426l1.46582-6.23046a39.131,39.131,0,0,0-1.18653-21.57227c-1.6333-4.80176-1.46435-14.13477,8.61817-31.32129l.05664-.09668,5.11914-56.31055,34.84521-81.16308c1.45313-.57422,9.44483-4.29,8.65088-16.20215l-.01562-.22949-8.53027-6.39746c-.26465-3.31836-3.10108-43.05567,8.58056-82.30371,12.17432-40.90039,24.55957-97.10743,24.6709-97.624l34.10791-106.16211c.16357-.50781,4.15918-12.44336,17.66895-12.44336,13.69531,0,17.51074,11.92969,17.66894,12.44434l34.0957,106.11523c.124.5625,12.50879,56.76954,24.68164,97.66993,11.68067,39.24023,8.84571,78.98535,8.582,82.30371l-8.53028,6.39746-.01562.22949c-.79492,11.91211,7.19726,15.62793,8.65039,16.20215l34.84472,81.16308,5.10938,56.19922.06641.208c10.084,17.1875,10.25293,26.51953,8.61816,31.32129a39.14176,39.14176,0,0,0-1.18555,21.57227l1.47168,6.25586c.12207.42089,12.44629,41.34082,51.42481,41.33886.77832,0,1.57031-.01562,2.37011-.04883,13.51075-.56347,22.86329-4.50781,27.79786-11.72363,6.84179-10.00586,2.54394-22.916,2.499-23.0459l-.03809-.1123-17.94531-17.51172c-.10156-.13184-10.23047-13.44043-15.68262-38.59766-3.75683-17.33886-7.13379-22.03808-9.30566-22.92675a1.9368,1.9368,0,0,0-.81836-.1709c-.47949-6.90332-4.999-73.88379-1.583-93.10254a113.43439,113.43439,0,0,0-.00293-38.2168l-.082-.39844h-2.33008l-6.57226-24.83886L669.75391,936.44043c-.06739-.20215-6.58985-20.80273,4.32226-69.29785,10.97852-48.791-2.32519-113.4541-2.46387-114.11426-.13574-.57227-13.61425-57.45312-19.10253-72.08789-5.45215-14.53809-10.417-86.25-10.47364-87.02441l-8.72364-50.03125-1.83593-29.35743,11.65723-83.84326,7.58789,21.49756L664.21289,472.438l26.832,108.417,3.81719,13.1467,21.10371,86.3616a10.89121,10.89121,0,0,1-.54394,8.03223Z"/>
    </clipPath>
  </defs>
  <g class="drop-shadow" id="aaf0d791-0cc4-405e-9998-b3b0a5a37d00" data-name="jla-97">
    <g id="fe9ae83a-8405-49eb-a8a9-80377d674056" data-name="body-background">
      <g id="b6289b67-35bc-43b5-94ba-8451d43664cd" data-name="ears-gold">
        <g id="b72c7d41-c902-493d-903b-21554d068289" data-name="right-ear">
          <path id="a129c689-1cbe-4d2b-8e4c-75a604cc27dd" data-name="right-ear-main" class="bad37c0f-8e12-49e3-9195-6a3be51cbe13" d="M470.96344,121.851s4,34.97553,7.32621,37.26192,4.82522,32.51756,4.82522,32.51756-2.36671,5.589-6.27139-12.44813S468.9388,121.851,468.9388,121.851,468.51773,112.25934,470.96344,121.851Z" transform="translate(-246.63924 -72.5883)"/>
          <path id="a28cf7d4-d066-493d-a85d-4a4ce576a0cc" data-name="right-ear-shadow" class="b6a52be8-695a-4861-9376-3193a729426a" d="M476.12048,155.89351s-.14659,8.8544,1.15275,11.40542,1.22291,9.3985,1.22291,9.3985" transform="translate(-246.63924 -72.5883)"/>
        </g>
        <g id="a2dfe1a5-5153-4cab-88c8-a091ab88c4e4" data-name="left-ear">
          <path id="a63df5fc-b8e2-4832-88dd-abb33b279d98" data-name="left-ear-main" class="a3de7ffb-8381-4f23-a6a1-9b9234a89a3d" d="M593.94594,121.851s-4,34.97553-7.32622,37.26192-4.82524,32.51756-4.82524,32.51756,2.36673,5.589,6.27142-12.44813,7.90469-57.33135,7.90469-57.33135S596.39166,112.25934,593.94594,121.851Z" transform="translate(-246.63924 -72.5883)"/>
          <path id="b9917588-3ba1-44d7-a55b-5c97b1e2bb5c" data-name="left-ear-shadow" class="e2ab4490-95b1-4452-9972-84c48a2f24c3" d="M588.78889,155.89351s.1466,8.8544-1.15275,11.40542-1.22291,9.3985-1.22291,9.3985" transform="translate(-246.63924 -72.5883)"/>
        </g>
      </g>
      <path id="a8fb8a40-664d-4751-beed-a614785e8247" data-name="legs" class="f26bb9fd-6a2b-4003-8f9b-0f5d5c36d6b6" d="M532.45,765.46227c-14.051,0-18.14483,12.79052-18.14483,12.79052l-34.108,106.16132S467.833,940.6924,455.52358,982.04842s-8.58182,82.712-8.58182,82.712l8.527,6.39526c.8527,12.79053-14.44411,15.53288-14.44411,15.53288l-34.96075,81.433-5.11621,56.27829c-9.97947,17.01046-10.42726,26.54036-8.66039,31.73473a38.61687,38.61687,0,0,1,1.17313,21.29705l-1.46611,6.231s-6.2489,29.44126-47.17856,27.73586-21.35531-20.15153-21.35531-20.15153l17.90673-17.48037s10.23242-13.21688,15.775-38.79792,10.09479-22.59658,10.09479-22.59658,5.25383-73.33232,1.61656-93.79716a111.8764,111.8764,0,0,1,0-38.02675l-6.38042-.52063,6.67618-25.2301L395.621,936.59835s6.77182-20.31547-4.30934-69.56509,2.46248-113.88973,2.46248-113.88973,13.54364-57.25268,19.08423-72.02757,10.49809-87.11428,10.49809-87.11428H641.54358s4.95751,72.3394,10.49809,87.11428,19.08423,72.02757,19.08423,72.02757,13.54365,64.64012,2.46248,113.88973-4.30934,69.56509-4.30934,69.56509l26.47167,118.19908,6.67618,25.2301h2.307s-9.5959,18.43133-13.23317,38.89616,1.61657,93.79716,1.61657,93.79716,4.55223-2.98446,10.09479,22.59658,15.775,38.79792,15.775,38.79792l17.90673,17.48037s17.1085,14.35873-23.82117,16.06413-42.21932-22.30114-42.21932-22.30114l-1.46611-6.231a38.617,38.617,0,0,1,1.17314-21.297c1.76686-5.19437,1.31908-14.72427-8.66039-31.73473l-5.11621-56.27829-34.96076-81.433s-9.37971-2.98446-8.527-15.775l4.66228-7.84926s3.72754-41.356-8.58182-82.712-24.67354-97.63431-24.67354-97.63431L550.59483,778.25279s-3.899-12.79052-18.14483-12.79052" transform="translate(-246.63924 -72.5883)"/>
      <path id="f400200f-2198-4c0a-a50a-43e5c6eb28b5" data-name="torso" class="f26bb9fd-6a2b-4003-8f9b-0f5d5c36d6b6" d="M532.45,619.27436l61.30525-16.54212-3.21652,11.48758,51.00485-20.21814L632.813,543.91583l-1.838-29.40821,11.94708-85.9271,8.27106,23.43466,13.48409,20.21814,26.9522,108.90227.7021,2.757,24.11111,96.31856a11.431,11.431,0,0,1-.56994,8.39955l-16.89122,35.43037s-5.97354,13.3256-4.595,26.65119S705.874,752.9898,705.874,752.9898s5.05453,18.83963,11.48758,14.2446,8.27106,0,8.27106,0l25.78176-16.1617a9.76038,9.76038,0,0,0,4.5469-9.02669l-2.75847-35.466V651.43958L749.98635,566.891,710.66073,421.30178c-.76581-13.63158-13.32524-74.43759-13.32524-74.43759-10.56447-33.59265-22.41686-41.70295-27.21561-43.652a52.03463,52.03463,0,0,1-6.61258-3.32317c-8.01761-4.677-25.27573-13.62779-37.69929-12.14609-16.69485,1.99113-51.61619-24.04671-51.61619-24.04671l-1.25674-47.29664-2.76274,7.13094s-24.25594,26.5028-35.36031,25.17093h-4.71471s-8.63059,3.316-35.36031-25.17093l-2.77209-7.13094-1.25674,47.29664S455.78684,289.7341,439.092,287.743c-12.42356-1.4817-29.68168,7.46908-37.69929,12.14609a52.03463,52.03463,0,0,1-6.61258,3.32317c-4.79875,1.949-16.65114,10.05931-27.21561,43.652,0,0-12.55943,60.806-13.32524,74.43759L314.91365,566.891l-3.21652,84.54859V706.58l-2.75847,35.466a9.76038,9.76038,0,0,0,4.5469,9.02669l24.44809,15.32566a3.72986,3.72986,0,0,0,2.56653.52,22.45976,22.45976,0,0,1,7.0382.316c7.79475,1.31918,11.48758-14.2446,11.48758-14.2446s10.10907,11.02807,11.48758-2.29752-4.595-26.65119-4.595-26.65119l-16.89122-35.43037a11.431,11.431,0,0,1-.56994-8.39955l24.14453-96.31856.66868-2.757,26.9522-108.90227,13.48409-20.21814,8.27106-23.43466,11.94708,85.9271-1.838,29.40821-8.73056,50.08585,51.00485,20.21814-3.21652-11.48758L532.45,619.27436" transform="translate(-246.63924 -72.5883)"/>
      <g id="b7d8820c-7058-4ea6-8eea-0f9fb7fdd9fe" data-name="head">
        <path id="fa946479-c187-49d6-99ca-cba17d7c5a06" data-name="head-background" class="f26bb9fd-6a2b-4003-8f9b-0f5d5c36d6b6" d="M577.03009,96.23346c-14.57275-22.28772-44.57544-23.145-44.57544-23.145s-30.00268.85724-44.57538,23.145c0,0-16.71582,15.42993-10.92956,57.648a311.36512,311.36512,0,0,0,15.015,62.51825c1.682,4.63849,2.77234,7.13086,2.77234,7.13086s23.24219,26.16241,35.36035,25.1709H534.812c12.11817.99151,35.36035-25.1709,35.36035-25.1709s1.0904-2.49243,2.77234-7.13086a311.36788,311.36788,0,0,0,15.015-62.51825C593.74591,111.66339,577.03009,96.23346,577.03009,96.23346Z" transform="translate(-246.63924 -72.5883)"/>
        <path id="b7f658cc-a0b4-42d0-a778-1facd2ad9900" data-name="mouth" class="bedf3baa-21dd-48a4-a68c-1898e73a236c" d="M531.85447,235.33235c-9.8699-.83081-12.55774-1.89083-13.286-2.43849a8.17288,8.17288,0,0,0-1.40262-.87741c-25.69931-12.17429-34.646-54.39231-34.646-54.39231l9.721-.80146c.737,1.39173-.13554,10.58466,1.43927,10.58466l.75883,2.34487s-1.18879-4.75518,11.05061-8.41876a39.50646,39.50646,0,0,0,17.41206-11.34459c1.62868-1.754,3.73771-6.29578,6.41563-6.29578h5.07451c2.67792,0,7.70569,2.99435,9.33436,4.74831,4.80542,5.17507,7.738,10.867,14.50356,12.89206,12.2394,3.66358,12.6877,3.91572,12.6877,3.91572l1.84081,3.22142c1.07666,0,.25055-1.3969.7544-2.34838l7.68683-8.49807s-10.20989,43.264-34.67681,54.4277a7.50077,7.50077,0,0,0-1.374.842c-.73126.54767-3.42422,1.60769-13.29414,2.4385" transform="translate(-246.63924 -72.5883)"/>
      </g>
    </g>
    <g id="e4a64e2f-c22c-4441-8505-f2e1e1e7a7e0" data-name="body-details">
      <g id="a212abf5-ddcc-4d92-9235-a35ef9198413" data-name="hand-shadows">
        <path id="f3bed3de-3184-415f-a94a-4e42f05fd666" data-name="right-hand" class="ad881c77-da3b-4651-92aa-4ea0d684ee0c" d="M336.6911,722.56422l4.66893,7.0839s-12.71882-.644-15.13379,5.47392c0,0,10.30386-4.66893,15.13379-2.093l-6.27891,5.79592L346.029,734.961s.88019,7.88889-3.02136,10.46486l15.57918,7.88889L352.95187,740.274s5.31293-5.79592,9.33787-4.82993c0,0-4.66893-4.34694-10.46485-2.415l6.27891-5.47392s-12.87982.161-13.84581,1.449Z" transform="translate(-246.63924 -72.5883)"/>
        <path id="b281e30d-919e-462e-b5fb-9f0b86f1a4b9" data-name="left-hand" class="ad881c77-da3b-4651-92aa-4ea0d684ee0c" d="M728.2229,722.56422l-4.66893,7.0839s12.71882-.644,15.13379,5.47392c0,0-10.30386-4.66893-15.13379-2.093l6.27891,5.79592L718.885,734.961s-.88019,7.88889,3.02136,10.46486l-15.57918,7.88889,5.63492-13.04082s-5.31293-5.79592-9.33787-4.82993c0,0,4.66893-4.34694,10.46485-2.415l-6.27891-5.47392s12.87982.161,13.84581,1.449Z" transform="translate(-246.63924 -72.5883)"/>
      </g>
      <g id="be470638-c95a-46e5-9e1a-a85de9d35fc9" data-name="body-clipping-mask">
        <g class="b232bd57-c23e-4995-9b8f-2b9222c223cd">
          <g id="a7ce6f6a-42ad-4bf8-8fc7-41e4507fbf8f" data-name="detail-lines">
            <g id="a960061b-b042-4b0c-b725-93e69604bb0c" data-name="armpit-shadows">
              <path id="bf9eb524-7a45-4cc7-a169-581c24582972" data-name="right-armpit-shadow" class="ad881c77-da3b-4651-92aa-4ea0d684ee0c" d="M448.3229,441.24684s-.37985-17.636-2.6223-20.00016l-30.79938-61.15s-19.2223,68.10871-18.52247,74.87372,3.70047,37.84295,3.70047,37.84295,13.55254-20.71574,14.9099-23.1944c2.04015-3.72549,6.80981-19.573,6.80981-19.573l4.23634,27.71641S429.756,478.844,448.3229,441.24684Z" transform="translate(-246.63924 -72.5883)"/>
              <path id="afa80e3a-92af-4187-b638-cd762e9d9859" data-name="left-armpit-shadow" class="ad881c77-da3b-4651-92aa-4ea0d684ee0c" d="M616.5911,441.24684s.37985-17.636,2.6223-20.00016l30.79938-61.15s19.2223,68.10871,18.52247,74.87372-3.70047,37.84295-3.70047,37.84295-13.55254-20.71574-14.9099-23.1944c-2.04015-3.72549-6.80981-19.573-6.80981-19.573l-4.23634,27.71641S635.158,478.844,616.5911,441.24684Z" transform="translate(-246.63924 -72.5883)"/>
            </g>
          </g>
          <g id="a712400b-7c76-46c1-988d-dbd8cf42ef61" data-name="eyes">
            <path id="b3b30e01-e0ec-4537-b62d-b1f0f4c3813b" data-name="eye-thing" class="ac4bad04-ae71-41f4-83a4-8f1d192f50e3" d="M569.88226,137.113s6.27326-33.66944,5.8689-43.56275l1.58472-10.17852-4.31562-2.36664s-12.56225,65.0841-35.36908,69.23016a38.35984,38.35984,0,0,0-4.29211.09192,38.5582,38.5582,0,0,0-4.24823-.09412c-22.97314-4.1878-37.01593-70.84057-37.01593-70.84057l-4.31567,2.3667,1.43939,9.4552c-.40442,9.89331,7.61719,45.89862,7.61719,45.89862L478.68,165.08545l4.43488,13.931c9.80627,11.10535,11.91913,12.12805,11.91913,12.12805,1.26092-7.7796,11.05059-8.41876,11.05059-8.41876s13.72156-4.5445,17.41211-11.34454c3.69049-6.8,6.41559-6.29578,6.41559-6.29578h3.25843s.06835-.04767.18835-.13318c.12.08551.18829.13318.18829.13318h3.25837s2.72509-.50427,6.41564,6.29578,17.41205,11.34454,17.41205,11.34454,9.78968.63916,11.0506,8.41876c0,0,2.11286-1.0227,11.91919-12.12805l4.43488-13.931Z" transform="translate(-246.63924 -72.5883)"/>
            <path id="f307487b-b5dd-497e-807d-652c94630c51" data-name="left-eye" class="a4677684-c630-4df6-8a46-aef4e323fa9c" d="M493.58886,151.30116a7.11182,7.11182,0,0,0-5.6647,6.26232c-.53152,5.51816.04156,13.84843,7.9473,15.3478a41.81852,41.81852,0,0,0,14.42625.37614,9.32132,9.32132,0,0,0,7.02176-5.38508c2.20023-4.90319,4.17516-12.75722-3.84035-15.65939C506.05883,149.5563,498.37663,150.32291,493.58886,151.30116Z" transform="translate(-246.63924 -72.5883)"/>
            <path id="bcc53fbe-6a15-40d2-a09c-07c722184ce7" data-name="left-eye" class="a4677684-c630-4df6-8a46-aef4e323fa9c" d="M571.5263,151.30116a7.11181,7.11181,0,0,1,5.66469,6.26232c.53152,5.51816-.04156,13.84843-7.9473,15.3478a41.81852,41.81852,0,0,1-14.42625.37614,9.32134,9.32134,0,0,1-7.02176-5.38508c-2.20023-4.90319-4.17515-12.75722,3.84036-15.65939C559.05632,149.5563,566.73852,150.32291,571.5263,151.30116Z" transform="translate(-246.63924 -72.5883)"/>
          </g>
        </g>
      </g>
    </g>
    <g id="f6a98cc4-e245-482f-83dd-af04d392d37d" data-name="body-yellow">
      <g id="e4ceaab1-bd70-4361-884f-719458b13e94" data-name="boots">
        <g id="a5799c74-2817-41fe-b794-eeaba76e9292" data-name="boots-main">
          <path id="e95047d7-239d-4fd5-9f28-0ecef33db46c" data-name="boot-right" class="af171f9c-fc9b-4292-895d-d3331464b808" d="M455.43176,1070.85406a17.8779,17.8779,0,0,0-7.75543-5.85827l.27777,8.82727-26.75384-.29834-12.97815-.10413-12.98535.65174a16.04931,16.04931,0,0,1-3.5951-.23206,110.76577,110.76577,0,0,0-19.39929-1.23059c-9.56549,1.043-3.19269-21.16339-3.19269-21.16339a51.83122,51.83122,0,0,0-4.70624,15.28064,29.21334,29.21334,0,0,1-1.31707,5.1806l-2.86023,8.12a111.87594,111.87594,0,0,0,0,38.02673c3.63727,20.46484-1.61658,93.79718-1.61658,93.79718s-4.55225-2.9845-10.09479,22.59656c-5.5426,25.58105-15.775,38.79791-15.775,38.79791l-17.90668,17.48041s-11.08514,32.40265,29.84454,34.108c40.92963,1.70538,53.29383-40.92963,53.29383-40.92963l1.46612-6.231a38.6166,38.6166,0,0,0-1.17315-21.297c-1.76685-5.1944-1.3191-14.72431,8.6604-31.73474l5.11621-56.27832,34.96075-81.433a7.49879,7.49879,0,0,0,.87445-.36694c1.7666-.40112,5.49121-2.3703,8.25086-11.56848A4.83482,4.83482,0,0,0,455.43176,1070.85406Z" transform="translate(-246.63924 -72.5883)"/>
          <path id="baa94c4d-f4a5-417a-8b2f-13dd405acd3a" data-name="boot-left" class="af171f9c-fc9b-4292-895d-d3331464b808" d="M750.127,1290.72632l-17.90674-17.48041s-10.23242-13.21686-15.775-38.79791-10.09479-22.59656-10.09479-22.59656-5.25384-73.33234-1.61657-93.79718a112.87749,112.87749,0,0,0,.09955-37.5061l-.77039,2.91668.9079-3.43731-2.86023-8.12a29.21423,29.21423,0,0,1-1.31708-5.1806,51.833,51.833,0,0,0-4.70624-15.28064s6.37281,22.20642-3.19275,21.16339a110.76439,110.76439,0,0,0-19.39923,1.23059,16.04979,16.04979,0,0,1-3.59515.23206l-12.98535-.65174-12.97809.10413-26.75391.29834.27783-8.82727a17.878,17.878,0,0,0-7.75543,5.85827,4.83458,4.83458,0,0,0-.63531,4.14118c2.49139,8.30408,5.76941,10.71558,7.68341,11.40149l-.00043-.00012a8.52577,8.52577,0,0,0,1.20526.534l34.96076,81.433,5.11621,56.27832c9.97943,17.01043,10.42724,26.54034,8.6604,31.73474a38.61651,38.61651,0,0,0-1.17316,21.297l1.46613,6.231s12.36413,42.635,53.29382,40.92963S750.127,1290.72632,750.127,1290.72632ZM618.30182,1086.65564l.00488-.00043Z" transform="translate(-246.63924 -72.5883)"/>
        </g>
      </g>
      <g id="a67902f3-dcd1-4f18-b83a-e436700a1324" data-name="yellow-clipping-mask">
        <g class="bf6ca50d-e2ca-435f-a26b-34d82bdd64b2">
          <polygon id="b68fcf8a-fc70-4482-9d8b-c5caa9351072" data-name="belt" class="af171f9c-fc9b-4292-895d-d3331464b808" points="317.374 551.359 368.015 541.632 360.262 552.719 436.905 515.724 431.561 498.181 377.453 537.386 390.85 515.893 288.86 541.434 181.703 515.561 200.829 537.773 141.024 501.002 135.68 518.546 215.506 554.892 209.705 541.632 260.345 551.359 190.107 575.805 288.86 556.836 387.613 575.805 317.374 551.359"/>
          <g id="b89bbfc8-350c-4adc-8573-5ed369901a38" data-name="wrists">
            <polygon id="b1f6a8c2-bfdd-4f14-b109-816b51e7cd24" data-name="right-wrist" class="af171f9c-fc9b-4292-895d-d3331464b808" points="64.741 574.045 72.143 604.859 74.321 585.759 79.587 624.326 82.769 604.491 90.052 649.976 79.587 633.876 75.423 640.488 72.143 612.011 67.709 626.397 53.751 574.045 53.751 558.578 64.741 574.045"/>
            <polygon id="f9ac0182-6608-4557-a1a6-5097ea27e50d" data-name="left-wrist" class="af171f9c-fc9b-4292-895d-d3331464b808" points="507.423 574.045 500.021 604.859 497.843 585.759 492.577 624.326 489.395 604.491 482.112 649.976 492.577 633.876 496.741 640.488 500.021 612.011 504.454 626.397 518.412 574.045 518.412 558.578 507.423 574.045"/>
          </g>
        </g>
      </g>
    </g>
    <g id="be4b45d8-f765-4149-9e78-de8f873b3e0d" data-name="emblem">
      <circle id="a1c0ee8d-3064-43b9-aa58-efdd0fd845c2" data-name="emblem-background" class="aab54312-f0e7-4de4-8450-f125fa5f6a97" cx="287.80589" cy="291.91363" r="49.7945"/>
      <polygon id="be618e4e-4a4b-49b5-84a8-be4279e67b24" data-name="bolt" class="f65233f0-7fba-43db-bf24-a5239dfd39c7" points="305.453 268.928 358.148 216.722 289.018 272.7 337.6 233.36 269.081 279.974 292.79 279.974 252.916 313.921 273.123 313.921 236.476 349.465 290.096 305.299 212.585 369.143 311.38 299.372 289.018 299.372 324.851 268.928 305.453 268.928"/>
    </g>
  </g>
  <g class="lightning" id="e439fe81-b374-412b-9668-f546e9278dde" data-name="lightning">
  <defs>
      <filter id="glow">
          <fegaussianblur class="blur" result="coloredBlur" stddeviation="4"></fegaussianblur>
          <femerge>
              <femergenode in="coloredBlur"></femergenode>
              <femergenode in="coloredBlur"></femergenode>
              <femergenode in="coloredBlur"></femergenode>
              <femergenode in="SourceGraphic"></femergenode>
          </femerge>
      </filter>
  </defs>
    <path id="fd8b46f7-228a-4ea5-8b3a-5fe3432243fc" data-name="lightning-path" class="lightning-path b4b65dbe-4130-402c-91e9-690aa364e3df" d="M359.49652,428.74587l-3.771-1.676-3.352-5.02806,6.28507-5.447,5.02805-11.73213,3.352-4.60905-.838-4.3699,1.257-7.60837-3.771-5.20091,4.60905-5.86606-4.60905-6.70407v-6.00233l10.05611-6.1488,5.02805-2.514V348.297l3.352-11.0867h5.86606l3.771-6.09248,6.70407-2.89571,4.05242-7.93418M483.94084,253.183l5.02806,8.38009-2.514,6.70407-13.40814,2.933-7.12308,2.514-5.02805,5.86606h-6.70407l-3.352,7.54208-8.38009,1.676-2.933,6.70407-6.70407,5.44706h-8.38009l-3.352,3.771v10.47511l-5.86606,3.352h-3.771l-3.352,3.771-9.2181-3.352-12.15113,1.257-3.771,2.095-3.771-5.02805-2.933-3.352-3.352,5.44706,3.771,5.86606-3.771,2.97036-1.676,8.98819h7.54208l3.352,5.22064.419,5.44706,4.19,4.19-2.514,5.86606-1.257,6.56781,3.352,11.86839-.838,2.514,2.933,6.28506-.85146,10.71426-3.75759,1.49465-3.352,12.93136-1.257,4.19-11.73213,5.44706v3.352l-7.96108,5.44706h-7.12308V445.087l4.19,4.19.419,3.771,2.514,5.44706-1.257,5.44706v9.2181l-3.352,5.44706,3.352,4.60905m30.16832-98.04705,5.03867,7.704v4.50488l-2.51933,8.59871,2.51933,1.74715-2.51933,5.82382-5.634,4.95024v3.78548l2.32952,5.24144,4.65906,6.115,1.16476,5.82382,2.62072,8.73573v6.98858l2.32953,5.82382,2.32953,9.31811-2.03834,3.78549,5.82382,4.07667,4.07667,8.73573,2.32953,6.98858V502.07l2.62072,9.6093,5.53263,7.27977,1.59986,8.15335-5.09415,5.53263-1.74715,5.53263-3.78548,5.82382-2.62072,6.98858-2.91191,6.4062-1.99541,2.62072-1.49888,8.44454V575.159l-3.2031,11.06526-9.6093,4.36786-2.91191,4.65906-7.84826,1.74714-2.34343,3.78549-5.53263,3.49429L361.70669,607.19v6.4062l-4.36787,4.07667v6.69739l-3.78548,2.62072-1.1799,5.53263-8.13821,4.65906-7.571,4.07667,1.74714,6.98858,1.16477,5.24144-2.91191,3.49429-5.53263-1.74714,2.91191,4.95024,2.62072,6.6974,2.91191,4.07667,3.78548,5.53263-.58238,3.78548-1.456,6.4062v5.53263l2.62072,7.571-.29119,7.27978,1.45595,6.69739,2.03834,4.07667,2.91191,2.03834h2.31439l5.25658,1.16476v2.62072c0,.87358,3.78548,7.27978,3.78548,7.27978L360.25073,736.77v8.15334l3.4943-1.74714,8.44453,6.115,3.71184,1.456,7.06223,5.53263.58238,5.24144-.87357,6.115,2.03834,5.53263,5.24143,2.91191,7.27978-1.456,2.62072,1.456,5.82381,9.6093,7.571,7.86216-1.16476,6.98858-3.78549,8.15335-.87357,7.27977-1.74715,7.86216v7.86215l4.95025,3.78548,1.16476,13.39479,3.4943,11.64764,1.456,6.115,3.92939,6.115-1.30867,6.115-2.62072,7.27977,2.03834,3.2031,1.89105,7.86216V901.584l-4.803,4.65906-3.49429,4.07667v6.69739l-1.74715,8.44454-5.24144,3.49429-3.78548,6.40621.87357,8.44453,3.4943,5.24144,1.16476,4.36787,4.36786,6.69739-1.16476,7.86215-3.2031,13.39479-3.78548,3.78548-3.49429,10.48288,6.4062,6.98858.29119,5.53263.58238,12.8124-2.32953,4.36786-4.36786,8.15335,1.74714,8.15335-4.95024,4.659,1.456,5.24144-5.24144,4.36786-.58238,4.95025-5.53263,2.62072-4.659,10.48287,1.16476,12.23,3.78548,10.77406-2.9119,10.77407-2.03834,11.64764,2.32953,11.93882,2.91191,6.40621v4.07667l-2.32953,11.64764.87357,4.07667,3.49429,7.571,2.62072,2.62072,4.07667,3.2031,3.20311,4.659,5.53262,4.07668,1.456,2.9119,1.45595,5.82382,3.49429,1.456-1.16476,4.36786-4.36786,6.98859,1.45595,6.115-1.74714,2.03833-.58239,5.82382,2.03834,1.456-2.32953,4.07667-2.62072,4.36787-2.62071,3.2031-1.74715,2.62072-.58238,4.659-4.36787,1.74715-1.16476,4.07667v4.36786l2.91191,1.456,1.74714,4.659.58239,3.4943-.29119,4.659,6.69739,2.91191.87357,5.53263.29119,7.571,2.91191,1.74715,2.32953,7.571-.58238,2.03833,1.16476,3.49429-2.03834,8.73573v4.07668l2.03834,2.62072m-58.25333-869.809-3.773,5.60749-3.20428,3.20428-2.67023,3.20428v3.4713l1.33512,2.93726-3.20428,4.27237m44.05884-7.47665,2.13619,5.87451,4.80642,4.5394,4.53939,4.00535,3.30029,6.07m-1.00993,1.87559-2.82441-3.67321-10.948-3.20428-5.07344,1.60214m0,5.27535,3.20428,2.0314,8.0107,1.68709,7.63082,1.68709,2.902-3.37418m29.09087,59.82368-4.99332,9.15443v17.06051l-2.91277,2.91278-7.90609,3.32888-3.32889,5.40943v6.24165l-2.91277,3.745-2.49666,6.24166v9.15442l1.66444,2.91277,8.32221,10.81887-1.24833,6.65776-5.40944,8.73831-3.32888,10.81887,4.57721,5.82554-8.19118,9.15443-3.82841,7.90609L401.59,674.5l-2.902,5.44492,1.00993,11.235v9.15443l-1.00993,7.49m0-27.87938,7.85849,5.82554,4.99332,5.82554,3.14463,2.08055,5.98679,6.65777v4.1611h8.34521l4.1611,3.32888m-17.24477,29.95993,2.26481-2.08055-2.26481-8.3222v-7.9061l2.26481-4.99332-6.65777-12.4833-3.32888-2.49666-8.513-3.32889M466.05019,751.932l-3.32888-1.66444-4.99332-2.49666-5.40944-4.16111v-5.82554l-5.40943-2.49666L442.748,729.462l-2.91277-2.08055h-2.49666l-6.65777-1.66444h-4.1611V720.3076l-5.84855-3.32888-2.47365-2.49666m12.4833-20.59745-7.49-3.12083h-4.99332l-3.51314,2.91277m18.4931,45.71375v-3.00008l-2.49666-3.1832v-3.567l-4.1611-3.923M383.729,621.89755l2.46993-3.32166,6.51163-3.36808L395.405,610.717l3.28292-1.34723,1.00993-3.14355,3.566-4.71532,2.86644-2.29139m-15.66516,39.78939,4.4645-10.32879,8.55876-5.61347v-3.14354l2.6419-4.71532,1.66444-7.40979v-5.66571m-160.98,31.20991,5.40778,2.02792,6.08376,3.63879,8.11168-.08993,5.06979-3.88685v-1.68993h11.82953l4.05584,5.66671,5.74577,2.74342h6.08376l2.02791-2.74342,5.74577,2.74342,6.42175,2.74342,4.05584-3.23645,5.74577-2.25039h6.75973l6.70479,2.25039M380.536,845.75444l9.92919,1.68448,8.22278-1.68448v-9.47716l-4.41457-2.57576,4.85659-7.298.56791-3.86364,7.7258-6.566m6.68423,40.62581-5.1602-5.72644h-4.80057v-5.11883h-5.45919M479.52145,882.641h-4.34534l-1.58013-3.55528-5.72794-1.18509-3.35777.98758-4.93788,1.18509-3.55528-.98758-4.34534,1.77764-4.34534-.79006-3.55528.79006-2.17267-2.76521-1.77764-3.35777h-4.74037l-1.77764-1.58012-3.95031,1.58012-5.1354-1.58012-4.93789-4.14782H416.119l-2.01108-3.55528-3.15731-8.09814-1.1521-2.76521,1.1521-4.54286-.95458-2.612.95458-8.23127-3.52692,5.70791v4.74037l-1.02575,5.53043v6.123l-2.32738,2.17267-5.3826,4.34534m45.18286,57.27828V920.692l-4.76611-5.73771v-4.855l-2.2957-5.73772,2.2957-3.97226-5.82661-7.50317V882.641l-4.41363-3.43712-4.64733-6.04362m-5.039,17.84856,5.039,12.02866,4.64733,7.94453H434.044l2.32367,3.08954H446.519l3.97227,4.855h7.50317l5.29636,2.64818,3.08954,6.62045,1.76545,4.41362m-75.51917,4.60862,2.54818-2.77983,3.51317-3.93811,3.20477-3.24314,1.15826-4.86471,4.63306-5.328v-7.4129l1.15827-5.79133,1.38992-2.77983-.92661-4.16976-1.62158-1.62157,4.40141-4.27939h2.02246l2.63388-4.85791m7.47534,59.2829v-2.10959l1.97532-3.16439,2.1096-1.0548-1.47672-6.49624-2.6082-1.0983s.70957-3.37535,0-4.00823a8.29006,8.29006,0,0,1-1.4-2.39664l-2.14592-2.03351-1.493-1.68767-2.43636-2.53152v-2.74247l-4.36786-2.32055m-56.11487,154.1394,3.15446-1.57723,1.57723-3.15446,5.85828-.90127,1.35191,1.80255-1.12659,2.4785,4.73169,2.4785,4.09537,2.25319s4.692-5.40765,4.91737-6.0836.676-2.4785.676-2.4785,4.28105-3.83042,4.957-4.28106,4.957-5.40764,4.957-5.40764l5.82326-6.75234-4.02071,2.246-4.957,5.40765-2.92914,1.57722a7.85,7.85,0,0,0-4.73169,2.47851c-2.02787,2.25318-4.692,4.73169-4.692,4.73169h-2.74346l-3.83042-3.6051-4.50637-2.25318-3.15445,2.4785-2.25319,2.02786m-.22532,59.93472h4.281l2.02787-3.83042v-7.43551l2.25318-1.12659,2.70383-6.30891V1097.446l7.66082-3.6051v-9.68869l2.02787-4.281,2.80976-2.96069m-4.83763,8.36833-4.957,2.02787h-7.66083l-1.80255,2.02787-5.85828,2.4785m28.21461,63.82837,2.13871.981,5.29355,4.43974,3.58595-.683.85379-.683,4.09823,3.586H403.558l2.90291-2.39064,2.21987,2.39064,1.36608,3.58595,4.78126-2.73216,3.41519-2.88111,2.4279,1.85656M347.89037,1225.78h8.19645l2.04912-1.87835h3.07367l2.04911-.8538,4.61051-4.09823v-3.58594l1.87835-2.5614,2.04912-1.02455H372.992l-1.19531-4.952,2.39063-7.1719v-1.87835l4.09823-2.39063,3.07367-7.34266v-2.21987l1.87835-1.7076.8538-1.19531v-3.75671l4.09822-3.07367,1.53684-1.87836,1.70759-1.02455,1.1389-5.45349M698.86928,483.21645l-4.24875-3.69516-.42488-2.70279,4.67363-6.14154L696.32,467.23822l1.6995-8.0107-.42488-4.97753-.42487-2.49912,1.27463-3.87184.42487-2.12655v-6.798h3.399l2.54925-6.37313.84975-2.12438-.42487-5.52338,1.6995-6.798v-5.52339l-2.54926-2.54925-.42487-5.52339.84975-5.94825,2.54925-2.97413,2.54926-4.67364-2.54926-3.82388-5.52338-1.95024-2.12438-3.57314V374.5169a54.56847,54.56847,0,0,0-5.94826-3.54253c-1.27462-.42488-2.12437-5.09851-2.12437-5.09851v-4.24875l-8.92239-3.399h-15.7204v-10.197l-4.24876-2.97413-7.64776-3.82388h-6.798V337.4092l-3.82388-3.399V325.0878l-3.82388-4.79986v-5.39715l-8.07264-5.94826v-7.64776H621.96679l-3.399-2.97413h-9.77214l-1.6995-2.97413-4.24876-3.82388V283.45l-4.24876-4.24876L593.925,274.5276l-7.22288-7.22288m10.0215,85.3403,3.11027-4.66541-.311-4.35438-2.79924-5.28746v-11.197l6.12377-3.4213v-3.43155l4.14013-2.478-2.07007-3.73233v-5.59849l2.07007-3.11027V289.5065l-4.14013-4.04335m0,38.25634-7.67891-1.55513-5.28746,3.4213-9.64184,2.17719m30.91954-1.81516-1.569-3.78333L606.98752,317.81v-1.57384l3.75795-2.06629,1.4464-2.47954-2.8928-4.33921-2.31155-3.30606m35.87156-27.47443h-1.11114l-5.77793,4.889-4.0001,4.00353v3.55223l-2.889,5.33347-1.5556,1.77782v5.1681m9.48392,10.905-1.817,4.48557-2.32121,3.35768,2.06913,1.19918v4.70546l-4.70731,3.68875-2.70748,2.39835,1.50831,2.63818.23983,7.43488m5.91873,1.67884v-3.11785l-2.92491-2.63818v-3.11785l-1.55481-2.878h-3.18715l-2.80872-1.439-4.317,2.878m125.69887,15.57889-7.98361,1.19754h-3.59262a19.18128,19.18128,0,0,1-3.59262-3.99181c-.79836-1.59672-4.59058-2.46933-4.59058-2.46933a20.56179,20.56179,0,0,0-2.79426-.0024c-.59877.12294-3.79221-4.51392-3.9918-5.11269a15.04744,15.04744,0,0,0-1.79631-2.41726s-2.59468-.57659-3.19345-.17741a2.04775,2.04775,0,0,1-1.59672,0l-5.9877-3.19345H696.60011c-.79836,0-2.19549-1.39713-2.19549-1.39713l-2.59468-.893a49.086,49.086,0,0,1-5.38893-1.7017,11.87037,11.87037,0,0,1-2.39508-1.74025s-4.98976-3.84827-6.38689-4.98947a1.654,1.654,0,0,0-2.39508,0H657.68l-2.19549-1.55514-6.1873,1.55514H646.1038l-4.6715-.90866-4.423-2.20161-4.13826.989m66.12418,5.90464-5.18934,1.20614h-2.59468s-2.39508-.45524-2.99385-1.20614-2.99385-.98409-2.99385-.98409l-9.97951-2.79924s-2.19549-2.651-2.39508-3.11027-2.39508-1.33706-2.39508-1.33706h-3.79222l-4.19139-2.72066L657.68,312.1998l-1.79631-.79888-6.58648-.86913-13.37217.86913m41.714,10.76344-1.19754-1.45348-.39918-1.65679,1.39713-1.93583L674.246,314.324v-5.4131h-4.79016l-1.99572-2.17133h-6.78625l-2.79426,1.79631-4.411,2.54636m34.74865-20.50947-2.99385,1.79631-3.393,2.59467-2.1955,3.59263v1.39713s-.59877,3.59262-.79836,4.09153-1.19754,2.69453-1.19754,2.69453l-3.393,2.17133m50.6959,51.718a20.34131,20.34131,0,0,1-2.19549-3.99181c-.99795-2.39508-3.19344-1.79631-4.19139-1.79631s-2.99386-2.19578-2.99386-2.19578l-1.59672-2.39479s-6.78606-2.79427-7.38483-2.79427h-2.99386l-1.59672-1.79631-2.99385-3.5518-8.1832-2.23631-1.32725-1.39713-3.86209-1.28317-2.79426-2.53908-1.59672-2.56464-6.98566-2.41559h-.99795l-6.58648,2.81477-4.98975,2.99386h-2.39508l-1.9959-2.59468-3.81218-.998-4.17143-1.29215-.98816-3.44195-4.7994-3.29053m91.01256,64.90783-2.39508-4.1914v-1.9959l-5.58853-.998v-.998l-2.99385-2.39508h-3.393l-2.59467-5.18934,1.79631-5.78812.79836-2.79426V363.024l-1.59672-8.1832v-4.59057l-1.99591-4.59058-1.39713-1.873-3.19344-1.67884V339.672l-3.393-2.48071-4.98976-4.30536M677.639,381.78547l5.18935-1.39713,1.39741-3.79221-2.99413-1.9959,3.79221-4.79017h1.59672v-4.59057l2.40554-4.59057,1.18708-.998v-2.39508l1.99591-2.99385-.998-2.59467-1.49692-1.39713-.22951-4.59058v-1.873l1.72643-4.71351v-2.79426l-1.72643-2.59468-1.26742-4.1252m48.30082,85.15881-3.59262-1.19754-1.9959-3.19345h-2.1955l-2.79426-1.9959-.99795-2.79426-2.39508-.39918-1.9959-3.79221V397.3535h-4.391l-1.9959.998-1.19754-4.79017-1.39713-4.79016-.79836-.998-1.9959-2.19549v-1.39714l-3.19344-1.527h-5.234l-1.35246,3.92206V390.767s-1.9959,2.59467-2.39508,3.19344,0,5.78812,0,6.38689v1.59672L694.8038,408.331m25.14836,13.173-2.79427-2.59467-6.18729-2.39508,1.19754-1.79631-5.58852-4.65492h-2.187l-2.40362-3.1291-2.99385-1.79631-2.7072-2.08368M596.72362,550.233l-10.0215-2.31355H576.24845l-4.04872,2.89194-4.04873-2.89194-3.47033-2.504-5.78389,3.08237-4.62712,1.15678-8.09745-1.73517L540,545.41544v-3.27991l-4.23879-.57839H524.19343v3.8583h-5.20551l-2.89194,4.23915-4.62712.57838-4.04872-4.81753H495.85235l-3.47033,3.08237-6.36228,2.31355-6.94067-5.39592-6.94067-9.44465-2.31356,2.6944v8.09745l-3.77465,5.78389-5.47958-2.31356-5.78389,4.62712m203.593-151.80625,9.08041,2.58184-4.54021,6.64319,2.63394,5.503,4.39364,8.09745,2.31356,10.65124-2.31356,2.65171-4.62711,2.892v2.89194l-6.94067,6.78473v7.47665l-2.31356,8.0107-2.59749,6.87749v9.10074l-5.15959,6.28566v8.09745h-4.7994l-8.31746,8.09745-7.66687,2.89194-7.12575,2.31356-8.20773,2.31356V529.411l-2.60218,2.31356-2.60217,4.24627-5.132,3.85118-5.13195,5.59347-5.18034,11.7582v4.04873s-.25671,8.67584-7.77577,4.62711,7.77577,10.411,7.77577,10.411l5.18034,12.72456v31.58557l5.13195,1.32693v8.15313h7.73412l2.60218,3.29154,5.12222,5.66671,3.08551,8.97182,6.5752,8.09745,8.21742,5.78389,6.41421,5.2055L639.29287,674.5l-2.31355,8.76249.57839,9.0617,2.89194,7.71159,7.85943,2.89194v11.55434L643.92,716.97872l-1.15678,8.73832-3.47034,12.06719,3.47034,8.52268,5.54587,5.62507v12.88338l3.13,5.20551,1.15678,6.36228-1.15678,7.51906s-.57839,5.78389,0,7.51906,2.89194,8.09745,2.89194,8.09745l-1.15677,7.51906-4.86514,6.36228-4.96748,7.51906v4.62711l-6.36228,9.25423-4.04873,4.40719,1.15678,11.96942,5.78389,5.42264,4.04873,4.32462,4.38909,12.23594v7.33293l-3.23231,5.65772,3.23231,4.85791,5.44352,8.12412-1.73516,7.96616h7.51906l9.83261,6.6908-.57839,11.31572-5.2055,7.50317,4.62711,4.60862,4.04873,10.94732,9.25423,5.2055L678.045,970.72192l7.51906,8.09745v23.13556l-3.47034,10.9894,6.36229,10.411-11.56779,10.9894-5.2055,11.96122,6.94067,5.96884-1.73517,13.88134-4.62711,5.153,4.04872,5.60141,4.62712,8.36833v9.79676l2.89194,8.09745,1.73517,7.51906,2.89195,10.63769,9.25422,9.02754-2.89194,6.94067-5.7839,8.09745,2.89195,10.246,2.31356,11.22654-1.15678,6.86854h-3.47034l-9.25422,6.94067,2.89194,4.04873m12.68007-50.0974,1.77966,9.03176,8.09745,5.7839v6.19726l3.47034,8.84086,6.36228,5.78389,7.51906,5.2055v9.25423l5.78389,4.04872,6.36228,7.98165,10.411,2.42936v12.72456l10.98939,2.89195M716.797,1337.999s7.51906-12.14617,9.52117-13.88134-6.05084-17.77822-6.05084-17.77822l3.47034-11.14124,5.78389-8.09745v-4.04872l-5.78389-5.78389v-25.44913l2.5805-9.25422v-5.7839l4.36017-5.78389,2.31355-8.67584-2.31355-7.51905v-5.20551l4.62711-6.94067v-5.89969m-3.02892-111.47746-6.22531-8.36833L716.797,1073.231l-3.67408-4.7884h-3.48247l-7.83557-7.83557H690.05156l-12.24481-1.79952m53.88483,220.32475,5.37338-3.48247-4.7884-6.09433v-6.09433l3.02892-9.14149-3.02892-5.659-1.74124-4.35309-4.21712-7.5266m-28.608-45.58113-1.77966-4.7884v-4.7884l-6.31779-7.88649M612.11764,963.80138l6.72735-2.98994,4.48489-8.22231V943.2456l5.23238-6.02818V932.6088l4.4849-7.50317V909.60887l2.24245-5.97987v-4.496l7.47483-3.35252,2.31233-1.86871v-7.7608m-2.31233,9.62951v8.22231l2.31233,4.11116-1.15617,3.57027-1.15616,8.7632v2.24245l-1.495,9.919-1.57011,6.89938v9.71728l-4.036,1.86871v6.3536l-1.495,6.35361,2.61619,5.60612,8.29219,6.72734M635.28961,903.629H618.01189l-3.97112,5.11217-8.66425,2.943-4.33212,2.10574m164.285-320.83751.26889,2.68894a3.022,3.022,0,0,0,2.42005,2.95784,16.4159,16.4159,0,0,0-2.68894,4.84011c-.53779,2.15115,0,2.95784,0,4.03341s2.68894,6.72237,2.68894,7.529v3.76453l-3.76452,3.22673h-9.41131l-6.18458,3.49563-2.15115,1.34447-1.88226,4.30232-5.91568,7.26015-3.22674,5.64679-1.88226,3.22673-3.22674,7.26015-3.76452,1.88227h-7.26015l-2.95784,7.529h-1.88227l-5.37789,1.88227s-2.68894,2.15115-3.49563,2.95784-2.42,2.15115-2.42,2.15115L696.49242,674.5l-4.03342.5-2.42,7.49429a14.77248,14.77248,0,0,1,2.42,3.76452,8.79521,8.79521,0,0,1,.26889,3.49563,31.627,31.627,0,0,0-2.95784,4.03342c-.26889.80668-1.327,3.22673-1.327,3.22673l-2.97536,3.49563-.53779,1.88227,3.51315,1.34447s2.13364,3.76452,2.13364,4.57121,1.88226,3.49563,1.88226,4.30231,4.03342,1.88226,4.03342,1.88226,2.68894,2.68895,2.68894,3.49563a6.89172,6.89172,0,0,0,1.07558,2.42l4.8401,3.49563s2.42006,3.49563,2.42006,4.30231-3.04748,6.45347-3.04748,6.45347-3.406,2.95784-3.406,3.76453a18.29956,18.29956,0,0,1-.80669,3.22673l-4.30231,3.49563-4.57121,5.109a13.73792,13.73792,0,0,0-2.68894,4.57121,3.8055,3.8055,0,0,1-1.77511,2.68894s-.10716,2.15116,0,4.30231,6.07742,6.18458,8.22858,9.41131,1.61336,2.42006,2.56223,5.3779a54.49791,54.49791,0,0,0,2.81566,6.45347c.80668,1.88226,0,1.61336,0,5.64678a35.92351,35.92351,0,0,1-1.07558,8.06684s-1.88226,2.68894-3.22674,5.109-.80668,3.22674-.80668,4.57121,1.61337,5.109,2.29334,6.18458-1.75555,5.109-2.02445,7.26015.53779,2.95784.53779,2.95784l1.48666,3.22674s4.429,6.99125,6.04239,8.06683,0,3.49563,0,3.49563l-3.49563,4.57121v6.45347l-2.54676,7.26015-11.97354,4.99305-8.60463,5.49384V882.641l-1.88226,2.062-2.94032,3.76452v8.33574l2.94032,4.8401v3.76452l-2.15116,6.40094-3.72948,1.98109m-31.8114-221.46572-3.38932-4.13071H631.203l-2.60584,4.13071-2.63587,6.93512-7.79433-6.93512-6.04936,3.849h-4.21109l-3.49447,3.0861h-7.68846m11.79677,62.52546,3.59725-3.38,3.16283-3.38H628.5972l5.57119-7.77409v-9.46637l1.12122-3.03978,2.2681-1.53743,2.06487-4.88465,3.32757-4.01748m29.115,82.09642-5.07006-5.07006v-9.46412l-3.042-3.38-4.394-3.042v-5.19289h-7.55841m25.47262,17.023-2.028-6.08408-2.028-1.69-4.04806-4.732v-1.69l-7.33624-1.352-2.47387-1.47484m-39.54648,61.97757,3.38-1.352,5.20464-4.73206,3.24547-1.69,2.32572-5.07006,3.38932-5.74607,2.06487-4.732v-7.43609l3.32757-3.38v-7.7741l5.45472-1.69,4.5994-2.77791m.67694,7.893,3.67055,2.659,2.20724,3.82039v2.09513l4.49718,4.39978s2.844,2.34117,4.45993,2.32291,2.035,1.86735,2.035,1.86735l5.65685,1.46659h1.26527l4.81061,1.67611a20.447,20.447,0,0,0,3.56173,1.46659h3.56172l2.72367,1.46659,3.56172,2.93318,3.1427,3.35221,3.18755-.96667m-50.02232-23.72891,1.68062,7.306,1.36591,6.49491,1.88562,7.752-1.04757,3.14269,1.88562,4.60929,1.78821,3.1427V846.677s2.33618,1.04757,2.47387,2.51416,3.4899,5.86637,3.4899,5.86637h2.99334l2.035,3.14269v2.72367l3.98075,3.56173,2.60017,1.93257m-23.4508-14.29385s2.623-2.09513,2.623-2.72367V847.096l2.09513-3.35221,1.15967-3.77124-3.02434-8.65289-1.48754-1.61325-1.36591-3.56172s-1.35776-.62854-1.68062-.83806a12.74783,12.74783,0,0,1-1.35325-1.6761l-2.93318-2.72367-3.1308-1.86735m5.3434-21.33149v-3.81815s-2.42211-8.18122-2.42211-8.80976v-4.82795c0-.61939-2.92129-8.7904-2.92129-8.7904s-1.99744-3.35221-1.63321-4.60929.80409-6.91393-.04438-7.9615-1.68652-4.39977-1.68652-4.39977-.26017-.77352-1.59667-1.12006-5.38161-.97507-5.45419-1.3941-2.47739-1.26949-2.47739-1.26949m8.00836-11.925-.07678,1.25229V743.806l.07678,6.90152-.07678,2.66359" transform="translate(-246.63924 -72.5883)"/>
  </g>
</svg>
