<svg xmlns="http://www.w3.org/2000/svg" xmlns:xlink="http://www.w3.org/1999/xlink" width="528.67201" height="1266.17464" viewBox="0 0 528.67201 1266.17464">
  <defs>
    <style>
      .a277c738-9e4a-44cc-8cfb-65528f27dfd8, .a27e89d3-aacc-4fef-974c-4a47ce184d01, .ba45ad07-1130-4625-9563-bb0cc7927320, .bc4a7843-8ba5-40e9-91c0-8b526c604a9d, .bd3abd7c-d991-403f-b393-beef8f89a3ca, .ecbed174-9868-4295-a348-d6ecf6a45e07, .eeae4fc5-0628-4f78-8ff5-e2610ef8db39, .f8bcd358-dd91-4c17-9f97-8139ee15739d {
        fill: none;
      }

      .fc86b811-3193-46b8-adb2-5df7fbf328d5 {
        fill: #bf0400;
      }

      .b60bef79-6852-4ab9-865f-d4c52a222baa, .fc86b811-3193-46b8-adb2-5df7fbf328d5 {
        stroke: #bf0400;
      }

      .a0e1907f-fe7b-4b5c-9e31-36fb048dc2bd, .b1d0e196-1d42-49b7-8ffe-5c2b6b639308, .b60bef79-6852-4ab9-865f-d4c52a222baa, .b875ee22-5b0f-446d-8272-edabaeb774e0, .bd3abd7c-d991-403f-b393-beef8f89a3ca, .ecbed174-9868-4295-a348-d6ecf6a45e07, .eeae4fc5-0628-4f78-8ff5-e2610ef8db39, .f8bcd358-dd91-4c17-9f97-8139ee15739d, .fc86b811-3193-46b8-adb2-5df7fbf328d5, .ff18d0dc-95c9-47a5-abf5-40e5d958f590 {
        stroke-linecap: round;
      }

      .a0e1907f-fe7b-4b5c-9e31-36fb048dc2bd, .a277c738-9e4a-44cc-8cfb-65528f27dfd8, .a27e89d3-aacc-4fef-974c-4a47ce184d01, .b1d0e196-1d42-49b7-8ffe-5c2b6b639308, .b431d331-0de1-43a9-bea4-3a0e06ce479a, .b60bef79-6852-4ab9-865f-d4c52a222baa, .b6a1db8b-3539-4fb2-a4b7-f51484111939, .b875ee22-5b0f-446d-8272-edabaeb774e0, .ba45ad07-1130-4625-9563-bb0cc7927320, .bd0f47e9-e11c-4a8b-bcb9-f0c82003f415, .bd3abd7c-d991-403f-b393-beef8f89a3ca, .be302d9b-7d8b-48e6-ac69-56ef95222cb7, .ecbed174-9868-4295-a348-d6ecf6a45e07, .eeae4fc5-0628-4f78-8ff5-e2610ef8db39, .f8bcd358-dd91-4c17-9f97-8139ee15739d, .fc86b811-3193-46b8-adb2-5df7fbf328d5, .ff18d0dc-95c9-47a5-abf5-40e5d958f590 {
        stroke-miterlimit: 10;
      }

      .b1d0e196-1d42-49b7-8ffe-5c2b6b639308 {
        fill: #7d0000;
      }

      .b1d0e196-1d42-49b7-8ffe-5c2b6b639308, .bd3abd7c-d991-403f-b393-beef8f89a3ca {
        stroke: #7d0000;
      }

      .b875ee22-5b0f-446d-8272-edabaeb774e0 {
        fill: #feecc5;
      }

      .b875ee22-5b0f-446d-8272-edabaeb774e0, .ff18d0dc-95c9-47a5-abf5-40e5d958f590 {
        stroke: #feecc5;
      }

      .a0e1907f-fe7b-4b5c-9e31-36fb048dc2bd, .b60bef79-6852-4ab9-865f-d4c52a222baa {
        fill: #5b0000;
      }

      .bd3abd7c-d991-403f-b393-beef8f89a3ca {
        stroke-width: 2px;
      }

      .b6a1db8b-3539-4fb2-a4b7-f51484111939 {
        fill: #352001;
        stroke: #352001;
      }

      .bd0f47e9-e11c-4a8b-bcb9-f0c82003f415 {
        fill: #070707;
        stroke-width: 2.9544px;
      }

      .b431d331-0de1-43a9-bea4-3a0e06ce479a, .bd0f47e9-e11c-4a8b-bcb9-f0c82003f415, .be302d9b-7d8b-48e6-ac69-56ef95222cb7, .ecbed174-9868-4295-a348-d6ecf6a45e07 {
        stroke: #690000;
      }

      .b431d331-0de1-43a9-bea4-3a0e06ce479a, .be302d9b-7d8b-48e6-ac69-56ef95222cb7 {
        fill: #690000;
      }

      .b431d331-0de1-43a9-bea4-3a0e06ce479a {
        stroke-width: 1.27317px;
      }

      .ff18d0dc-95c9-47a5-abf5-40e5d958f590 {
        fill: #f9e0ac;
      }

      .ad3c402a-f807-48a7-99d8-a1df0498a5aa {
        clip-path: url(#abe76b5f-ef6c-4dfc-9d6d-b8567921a347);
      }

      .ecbed174-9868-4295-a348-d6ecf6a45e07 {
        stroke-width: 0.95814px;
      }

      .bae51945-f5df-4817-85b6-a031767b6d2e {
        clip-path: url(#b3a80acb-ef82-4b4a-9067-bc5259ba4883);
      }

      .a27e89d3-aacc-4fef-974c-4a47ce184d01, .ba45ad07-1130-4625-9563-bb0cc7927320, .f8bcd358-dd91-4c17-9f97-8139ee15739d {
        stroke: #f4c037;
      }

      .ba45ad07-1130-4625-9563-bb0cc7927320 {
        stroke-width: 3px;
      }

      .a0e1907f-fe7b-4b5c-9e31-36fb048dc2bd {
        stroke: #5b0000;
        stroke-width: 0.80289px;
      }

      .eeae4fc5-0628-4f78-8ff5-e2610ef8db39 {
        stroke: #a3a3a3;
        stroke-width: 2.88513px;
      }

      .a277c738-9e4a-44cc-8cfb-65528f27dfd8 {
        stroke: #ff0;
      }
    </style>
    <clipPath id="abe76b5f-ef6c-4dfc-9d6d-b8567921a347" transform="translate(-246.63924 -72.08759)">
      <path id="b5bb3c3d-77ee-4e02-bffb-1dd2046ee1de" data-name="details-body-outline" class="bc4a7843-8ba5-40e9-91c0-8b526c604a9d" d="M698.53027,723.82617l-.00488.01074c-.06055.13379-6.01269,13.60254-4.63574,26.90723.40234,3.8916,1.60254,6.19531,3.5664,6.84473,2.98536.99023,6.71583-2.22657,8.17286-3.63672.876,2.959,4.06738,12.71191,8.44726,14.28223a3.72374,3.72374,0,0,0,3.57617-.59278c2.25-1.6084,4.20313-2.23633,5.64649-1.82422a2.99878,2.99878,0,0,1,1.87012,1.60254l.22167.55664,26.28907-16.48047a10.22871,10.22871,0,0,0,4.77929-9.48925l-2.75586-35.42676V651.42041l-3.21679-84.54834-.00195-.05664L711.15723,421.22119c-.78907-13.61426-13.20606-73.85058-13.34474-74.50683-10.67089-33.93409-22.789-42.05079-27.5039-43.96534a50.80057,50.80057,0,0,1-6.54882-3.292c-8.90137-5.19141-25.67188-13.68506-38.01172-12.21045-15.65723,1.87647-48.23438-21.73144-51.06348-23.80762l-1.24708-46.93359a312.09482,312.09482,0,0,0,15.01759-62.55615c5.60058-40.86035-10.03516-57.05029-11.03711-58.03613-14.55859-22.20557-44.64649-23.31592-44.97754-23.32471-.30225.00879-30.38916,1.12256-44.94873,23.32422-.998.98242-16.63818,17.17138-11.03711,58.03662a312.26529,312.26529,0,0,0,15.00781,62.53223L490.21484,263.439c-2.82861,2.07666-35.40088,25.66993-51.064,23.80762C426.813,285.77393,410.04,294.26514,401.14062,299.457a50.86036,50.86036,0,0,1-6.54833,3.292c-4.71485,1.91455-16.833,10.03125-27.51758,44.01416-.12549.60743-12.54395,60.84375-13.33155,74.458l-39.3125,145.53955-.01464.05469-3.21875,84.624.00146,55.10157-2.75879,35.46582a10.231,10.231,0,0,0,4.77979,9.48925L337.668,766.82227a4.2473,4.2473,0,0,0,2.90918.58984,21.984,21.984,0,0,1,6.87793.31543c7.14551,1.2168,10.90576-10.416,11.83252-13.75977,1.46728,1.41993,5.19092,4.6084,8.15576,3.6211,1.96435-.64942,3.165-2.95215,3.56738-6.84473,1.37647-13.30469-4.57568-26.77344-4.64111-26.918l-16.89111-35.43066a10.89111,10.89111,0,0,1-.54493-8.03223l22.79878-90.60591.13477-.42089,1.98784-8.4815,26.832-108.417,13.436-20.14551,7.64257-21.60791,11.65723,83.8418-1.82861,29.30371-8.73682,50.13769c-.04931.72266-5.01562,72.43457-10.46728,86.97266-5.48828,14.63477-18.96729,71.51562-19.10547,72.10059-.13574.64746-13.439,65.31054-2.46094,114.10156,10.91113,48.49512,4.39014,69.0957,4.30957,69.34668L368.666,1054.66992l-6.57764,24.85742-.53394,1.89435-.08252.39844a80.14708,80.14708,0,0,0-1.79809,36.32245c3.41553,19.21875-1.104,86.19922-1.58252,93.10254a2.18607,2.18607,0,0,0-.81934.1709c-2.17187.88964-5.5498,5.58886-9.30615,22.92675-5.45068,25.15723-15.58008,38.46582-15.63525,38.5459l-17.90674,17.48047-.08545.083-.03858.1123c-.04443.12989-4.34228,13.04,2.49952,23.0459,4.93408,7.21582,14.28662,11.16016,27.79736,11.72363.80273.03321,1.58984.04981,2.37109.04883,38.97168-.00293,51.30176-40.918,51.43067-41.36426l1.46582-6.23046a39.131,39.131,0,0,0-1.18653-21.57227c-1.6333-4.80176-1.46435-14.13477,8.61817-31.32129l.05664-.09668,5.11914-56.31055,34.84521-81.16308c1.45313-.57422,1.32086-2.94628.52691-14.85839l-.01562-.22949-.4063-7.74122c-.26465-3.31836-3.10108-43.05567,8.58056-82.30371,12.17432-40.90039,24.55957-97.10743,24.6709-97.624l34.10791-106.16211c.16357-.50781,4.15918-12.44336,17.66895-12.44336,13.69531,0,17.51074,11.92969,17.66894,12.44434l34.0957,106.11523c.124.5625,12.50879,56.76954,24.68164,97.66993,11.68067,39.24023,8.84571,78.98535,8.582,82.30371l-.81578,8.354-.01562.2295c-.79492,11.91211-.51724,13.67141.93589,14.24563l34.84472,81.16308,5.10938,56.19922.06641.208c10.084,17.1875,10.25293,26.51953,8.61816,31.32129a39.14167,39.14167,0,0,0-1.18555,21.57227l1.47168,6.25586c.12207.42089,12.44629,41.34082,51.42481,41.33886.77832,0,1.57031-.01562,2.37011-.04883,13.51075-.56347,22.86329-4.50781,27.79786-11.72363,6.84179-10.00586,2.54394-22.916,2.499-23.0459l-.03809-.1123-17.94531-17.51172c-.10156-.13184-10.23047-13.44043-15.68262-38.59766-3.75683-17.33886-7.13379-22.03808-9.30566-22.92675a1.9368,1.9368,0,0,0-.81836-.1709c-.47949-6.90332-4.999-73.88379-1.583-93.10254,3.61231-20.3252-1.69156-35.6508-1.72867-35.82756l-.082-.39843-.60434-2.38925-6.57226-24.83886L669.75391,936.44043c-.06739-.20215-6.58985-20.80273,4.32226-69.29785,10.97852-48.791-2.32519-113.4541-2.46387-114.11426-.13574-.57227-13.61425-57.45312-19.10253-72.08789-5.45215-14.53809-10.417-86.25-10.47364-87.02441l-8.72364-50.03125-1.83593-29.35743,11.65723-83.84326,7.58789,21.49756L664.21289,472.438l26.832,108.417,2.30956,7.9543,22.61134,91.554a10.89121,10.89121,0,0,1-.54394,8.03223Z"/>
    </clipPath>
    <clipPath id="b3a80acb-ef82-4b4a-9067-bc5259ba4883" transform="translate(-246.63924 -72.08759)">
      <path id="fec0358a-b8c2-4bcd-8db9-0948ac1a8270" data-name="gold-body-outline" class="bc4a7843-8ba5-40e9-91c0-8b526c604a9d" d="M698.53027,723.82617l-.00488.01074c-.06055.13379-6.01269,13.60254-4.63574,26.90723.40234,3.8916,1.60254,6.19531,3.5664,6.84473,2.98536.99023,6.71583-2.22657,8.17286-3.63672.876,2.959,4.06738,12.71191,8.44726,14.28223a3.72374,3.72374,0,0,0,3.57617-.59278c2.25-1.6084,4.20313-2.23633,5.64649-1.82422a2.99878,2.99878,0,0,1,1.87012,1.60254l.22167.55664,26.28907-16.48047a10.22871,10.22871,0,0,0,4.77929-9.48925l-2.75586-35.42676V651.42041l-3.21679-84.54834-.00195-.05664L711.15723,421.22119c-.78907-13.61426-13.20606-73.85058-13.34474-74.50683-10.67089-33.93409-22.789-42.05079-27.5039-43.96534a50.80057,50.80057,0,0,1-6.54882-3.292c-8.90137-5.19141-25.67188-13.68506-38.01172-12.21045-15.65723,1.87647-48.23438-21.73144-51.06348-23.80762l-1.24708-46.93359a312.09482,312.09482,0,0,0,15.01759-62.55615c5.60058-40.86035-10.03516-57.05029-11.03711-58.03613-14.55859-22.20557-44.64649-23.31592-44.97754-23.32471-.30225.00879-30.38916,1.12256-44.94873,23.32422-.998.98242-16.63818,17.17138-11.03711,58.03662a312.26529,312.26529,0,0,0,15.00781,62.53223L490.21484,263.439c-2.82861,2.07666-35.40088,25.66993-51.064,23.80762C426.813,285.77393,410.04,294.26514,401.14062,299.457a50.86036,50.86036,0,0,1-6.54833,3.292c-4.71485,1.91455-16.833,10.03125-27.51758,44.01416-.12549.60743-12.54395,60.84375-13.33155,74.458l-39.3125,145.53955-.01464.05469-3.21875,84.624.00146,55.10157-2.75879,35.46582a10.231,10.231,0,0,0,4.77979,9.48925L337.668,766.82227a4.2473,4.2473,0,0,0,2.90918.58984,21.984,21.984,0,0,1,6.87793.31543c7.14551,1.2168,10.90576-10.416,11.83252-13.75977,1.46728,1.41993,5.19092,4.6084,8.15576,3.6211,1.96435-.64942,3.165-2.95215,3.56738-6.84473,1.37647-13.30469-4.57568-26.77344-4.64111-26.918l-16.89111-35.43066a10.89111,10.89111,0,0,1-.54493-8.03223l21.13421-86.3616,2.53408-10.37766,1.2531-2.769,26.832-108.417,13.436-20.14551,7.64257-21.60791,11.65723,83.8418-1.82861,29.30371-8.73682,50.13769c-.04931.72266-5.01562,72.43457-10.46728,86.97266-5.48828,14.63477-18.96729,71.51562-19.10547,72.10059-.13574.64746-13.439,65.31054-2.46094,114.10156,10.91113,48.49512,4.39014,69.0957,4.30957,69.34668L368.666,1054.66992l-6.57764,24.85742-.53394,1.89435-.08252.39844a80.14708,80.14708,0,0,0-1.79809,36.32245c3.41553,19.21875-1.104,86.19922-1.58252,93.10254a2.18607,2.18607,0,0,0-.81934.1709c-2.17187.88964-5.5498,5.58886-9.30615,22.92675-5.45068,25.15723-15.58008,38.46582-15.63525,38.5459l-17.90674,17.48047-.08545.083-.03858.1123c-.04443.12989-4.34228,13.04,2.49952,23.0459,4.93408,7.21582,14.28662,11.16016,27.79736,11.72363.80273.03321,1.58984.04981,2.37109.04883,38.97168-.00293,51.30176-40.918,51.43067-41.36426l1.46582-6.23046a39.131,39.131,0,0,0-1.18653-21.57227c-1.6333-4.80176-1.46435-14.13477,8.61817-31.32129l.05664-.09668,5.11914-56.31055,34.84521-81.16308c1.45313-.57422,1.32086-2.94628.52691-14.85839l-.01562-.22949-.4063-7.74122c-.26465-3.31836-3.10108-43.05567,8.58056-82.30371,12.17432-40.90039,24.55957-97.10743,24.6709-97.624l34.10791-106.16211c.16357-.50781,4.15918-12.44336,17.66895-12.44336,13.69531,0,17.51074,11.92969,17.66894,12.44434l34.0957,106.11523c.124.5625,12.50879,56.76954,24.68164,97.66993,11.68067,39.24023,8.84571,78.98535,8.582,82.30371l-.81578,8.354-.01562.2295c-.79492,11.91211-.51724,13.67141.93589,14.24563l34.84472,81.16308,5.10938,56.19922.06641.208c10.084,17.1875,10.25293,26.51953,8.61816,31.32129a39.14167,39.14167,0,0,0-1.18555,21.57227l1.47168,6.25586c.12207.42089,12.44629,41.34082,51.42481,41.33886.77832,0,1.57031-.01562,2.37011-.04883,13.51075-.56347,22.86329-4.50781,27.79786-11.72363,6.84179-10.00586,2.54394-22.916,2.499-23.0459l-.03809-.1123-17.94531-17.51172c-.10156-.13184-10.23047-13.44043-15.68262-38.59766-3.75683-17.33886-7.13379-22.03808-9.30566-22.92675a1.9368,1.9368,0,0,0-.81836-.1709c-.47949-6.90332-4.999-73.88379-1.583-93.10254,3.61231-20.3252-1.69156-35.6508-1.72867-35.82756l-.082-.39843-.60434-2.38925-6.57226-24.83886L669.75391,936.44043c-.06739-.20215-6.58985-20.80273,4.32226-69.29785,10.97852-48.791-2.32519-113.4541-2.46387-114.11426-.13574-.57227-13.61425-57.45312-19.10253-72.08789-5.45215-14.53809-10.417-86.25-10.47364-87.02441l-8.72364-50.03125-1.83593-29.35743,11.65723-83.84326,7.58789,21.49756L664.21289,472.438l26.832,108.417,3.81719,13.1467,21.10371,86.3616a10.89121,10.89121,0,0,1-.54394,8.03223Z"/>
    </clipPath>
  </defs>
  <g class="drop-shadow" id="b797ad01-1eb0-464c-ace4-0509a43c740c" data-name="smallville">
    <g id="b2a617b7-c618-49c6-b5d7-530cf549b10c" data-name="body-background">
      <g>
        <polygon class="bc4a7843-8ba5-40e9-91c0-8b526c604a9d" points="459.711 1139.764 459.711 1139.764 459.711 1139.764 459.711 1139.764"/>
        <path class="fc86b811-3193-46b8-adb2-5df7fbf328d5" d="M348.45477,1234.448c-5.5426,25.58105-15.775,38.79791-15.775,38.79791l-17.90668,17.48041s-11.08514,32.40265,29.84454,34.108c40.92963,1.70538,53.29383-40.92963,53.29383-40.92963l1.46612-6.231a38.6166,38.6166,0,0,0-1.17315-21.297c-1.76685-5.1944-1.3191-14.72431,8.6604-31.73474h0l-48.70233-12.893C356.95508,1211.6701,353.04614,1213.257,348.45477,1234.448Z" transform="translate(-246.63924 -72.08759)"/>
        <path class="b1d0e196-1d42-49b7-8ffe-5c2b6b639308" d="M704.73389,1118.05426c3.63726-20.46484-1.72577-35.63751-1.72577-35.63751l-.58124-2.38922-6.67615-25.23011L669.27905,936.59833s-6.77185-20.31543,4.30933-69.56507-2.46246-113.88971-2.46246-113.88971-13.54364-57.25268-19.08423-72.02758-10.49811-87.11426-10.49811-87.11426H423.35645s-4.95752,72.33935-10.49811,87.11426-19.08423,72.02758-19.08423,72.02758-13.54364,64.64008-2.46246,113.88971c11.08111,49.24964,4.30932,69.56507,4.30932,69.56507l-26.47168,118.19909-6.67621,25.23011-.51135,1.89435s-5.43286,15.66754-1.79559,36.13238-1.61658,93.79718-1.61658,93.79718a.8873.8873,0,0,0-.38708-.10248l48.70233,12.893,5.11621-56.27832,34.96075-81.433s1.25574-1.64068.403-14.43121l-.403-7.739s-3.72754-41.356,8.58179-82.712c12.30939-41.356,24.67358-97.63428,24.67358-97.63428l34.108-106.16131S518.399,765.46228,532.45,765.46228c14.24579,0,18.14484,12.79053,18.14484,12.79053l34.108,106.16131s12.3642,56.27826,24.67352,97.63428c12.30939,41.356,8.58185,82.712,8.58185,82.712l-.8125,8.3518c-.85272,12.79047.8125,13.81842.8125,13.81842l34.96076,81.433,5.11621,56.27832,48.31524-12.79053C706.35046,1211.85132,701.09662,1138.5191,704.73389,1118.05426Z" transform="translate(-246.63924 -72.08759)"/>
        <path class="b1d0e196-1d42-49b7-8ffe-5c2b6b639308" d="M706.35046,1211.85144l.387-.10248A.8869.8869,0,0,0,706.35046,1211.85144Z" transform="translate(-246.63924 -72.08759)"/>
        <path class="fc86b811-3193-46b8-adb2-5df7fbf328d5" d="M750.127,1290.72632l-17.90674-17.48041s-10.23242-13.21686-15.775-38.79791c-4.59143-21.19135-8.50043-22.7779-9.70776-22.699l-.387.10248h0L658.03522,1224.642h0c9.97943,17.01043,10.42724,26.54034,8.6604,31.73474a38.61651,38.61651,0,0,0-1.17316,21.297l1.46613,6.231s12.36413,42.635,53.29382,40.92963S750.127,1290.72632,750.127,1290.72632Z" transform="translate(-246.63924 -72.08759)"/>
      </g>
      <g id="b57a81df-84db-471f-925e-df67e6bc6d4a" data-name="torso">
        <g id="a3087dd4-4c92-4a3f-adca-6c732ccdf8a7" data-name="vest">
          <path id="ef568d30-d7b2-431e-9dd0-49dc1dde5b91" data-name="neck" class="b1d0e196-1d42-49b7-8ffe-5c2b6b639308" d="M574.41754,263.86279c-.13342-.0982-.22571-.1665-.22571-.1665l-1.25677-47.29669-2.7627,7.131s-24.256,26.50275-35.36035,25.1709h-4.71466s-8.63061,3.316-35.36035-25.1709l-2.7721-7.131-1.25671,47.29669s-.09241.06842-.22607.16681l41.97259,66.60217Z" transform="translate(-246.63924 -72.08759)"/>
          <path id="e60cdd0f-b626-4a45-af73-f6a5f649e96b" data-name="main-torso" class="fc86b811-3193-46b8-adb2-5df7fbf328d5" d="M602.13617,484.50616c-9.024-1.84808-23.66968,8.61652-30.31738,13.86652a5.72475,5.72475,0,0,1-1.80457.95569,29.48483,29.48483,0,0,0-6.66443,2.68237c-3.13128,1.83472-3.00787-.77844-2.33178-1.85a11.03856,11.03856,0,0,1,1.76037-1.98908c24.78986-24.78986,33.79364-25.07294,45.72724-48.94922,28.70214-57.42639,39.44445-144.95978,40.76428-156.51867-7.64392-3.23359-16.3451-5.80951-23.46192-4.96076-15.95245,1.90259-48.52337-21.76971-51.39044-23.88019l-41.96283,66.60248L490.48212,263.8631c-2.86939,2.11212-35.43824,25.78241-51.39014,23.87988-7.11737-.84888-15.81927,1.72754-23.46362,4.96155.48761,4.27057,2.26361,18.91809,5.75757,38.59643v0c5.95855,33.559,16.9132,81.7226,35.00683,117.92365,11.93353,23.87628,20.93732,24.15942,45.72717,48.94922a11.043,11.043,0,0,1,1.76038,1.98907c.67609,1.0716.79956,3.68476-2.33179,1.85a29.48464,29.48464,0,0,0-6.66443-2.68237,5.72545,5.72545,0,0,1-1.80456-.95569c-6.64771-5.25-21.2934-15.71454-30.31732-13.86652a3.06867,3.06867,0,0,0-2.45789,3.00342V607.92334l14.05695,5.29651,9.93786,2.877L532.45,619.27435l50.68848-3.17749,7.40021-2.877L604.594,607.924V487.50958A3.06867,3.06867,0,0,0,602.13617,484.50616Z" transform="translate(-246.63924 -72.08759)"/>
          <g id="b61b32f6-3461-4255-8c75-2b9db4bab5f4" data-name="side-pieces">
            <path id="e13fcc87-864b-46bd-90a0-588d7b602b3d" data-name="right-side" class="fc86b811-3193-46b8-adb2-5df7fbf328d5" d="M438.3385,498.28351l-16.05774-67.52478,11.64423,83.7489-1.838,29.4082-8.73053,50.08588,19.26641,7.2594-.34051-70.03913A145.42767,145.42767,0,0,0,438.3385,498.28351Z" transform="translate(-246.63924 -72.08759)"/>
            <path id="bae91945-c107-491b-9edc-46ecbc013872" data-name="left-side" class="fc86b811-3193-46b8-adb2-5df7fbf328d5" d="M626.55981,498.28131a145.43,145.43,0,0,0-3.94384,32.93842l-.34052,70.042,19.26813-7.26-8.73053-50.08588-1.838-29.4082,11.64727-83.77087Z" transform="translate(-246.63924 -72.08759)"/>
          </g>
        </g>
        <g id="e2604cc6-d941-4bb5-ae8b-60015eacc263" data-name="arms">
          <g id="e27af92f-03f2-42e9-a47a-12ff45884cb3" data-name="hands">
            <path id="be761d2c-16ed-4d22-aa78-6413d858b8b6" data-name="left-hand" class="b875ee22-5b0f-446d-8272-edabaeb774e0" d="M755.96136,742.046,753.20288,706.58V651.43958L749.98633,566.891l-58.35687,14.24463h0l.70208,2.757,24.11109,96.31854a11.431,11.431,0,0,1-.56989,8.39954l-16.89123,35.43036s-5.97358,13.32562-4.595,26.65118c1.37848,13.32562,11.48755,2.29755,11.48755,2.29755s5.05457,18.8396,11.48761,14.24457,8.27106,0,8.27106,0l25.78174-16.16169A9.76046,9.76046,0,0,0,755.96136,742.046Z" transform="translate(-246.63924 -72.08759)"/>
            <path id="b2c1e0f1-9762-47aa-9299-0f4af294147d" data-name="right-hand" class="b875ee22-5b0f-446d-8272-edabaeb774e0" d="M311.69714,651.43958V706.58L308.93866,742.046a9.76041,9.76041,0,0,0,4.54687,9.02667l24.44812,15.32569a3.73,3.73,0,0,0,2.56653.52,22.45906,22.45906,0,0,1,7.03821.316c7.79474,1.31921,11.48755-14.24457,11.48755-14.24457s10.10907,11.02807,11.48761-2.29755c1.37848-13.32556-4.595-26.65118-4.595-26.65118l-16.89124-35.43036a11.431,11.431,0,0,1-.56994-8.39954l24.14453-96.31854.6687-2.757h0L314.91364,566.891Z" transform="translate(-246.63924 -72.08759)"/>
          </g>
          <g id="f5c382ed-b76d-44ef-876c-489b705a03f5" data-name="arms">
            <path id="b8b2c9da-3c26-4368-a532-1ae42a875aa0" data-name="left-arm" class="b1d0e196-1d42-49b7-8ffe-5c2b6b639308" d="M710.66071,421.30176c-.76581-13.63153-13.3252-74.43756-13.3252-74.43756-10.56451-33.59265-22.41687-41.70295-27.21564-43.652a52.02772,52.02772,0,0,1-6.61255-3.32318,127.96187,127.96187,0,0,0-14.23742-7.1853c-.514,4.50158-2.45777,20.52807-6.33429,41.80987-6.07739,33.36408-16.90589,79.6471-34.43,114.7088-11.9336,23.87628-20.93738,24.15936-45.72724,48.94922a11.03856,11.03856,0,0,0-1.76037,1.98908c-.67609,1.07159-.7995,3.68475,2.33178,1.85a29.48483,29.48483,0,0,1,6.66443-2.68237,5.72475,5.72475,0,0,0,1.80457-.95569c6.6477-5.25,21.29339-15.7146,30.31738-13.86652a3.06867,3.06867,0,0,1,2.45782,3.00342l-3.99621,122.7229,28.97326-8.79272-2.103-75.07208a145.42944,145.42944,0,0,1,3.94385-32.93842l11.21044-62.6925.01307-.09394.28674-2.06231,8.27106,23.43469,13.48407,20.21814,26.95221,108.90228L749.98633,566.891Z" transform="translate(-246.63924 -72.08759)"/>
            <path id="be4aa6f6-0535-4cf0-b105-17eff041284b" data-name="right-arm" class="b1d0e196-1d42-49b7-8ffe-5c2b6b639308" d="M503.88031,500.1629a11.043,11.043,0,0,0-1.76038-1.98907c-24.78985-24.7898-33.79364-25.07294-45.72717-48.94922C438.29913,413.02356,427.34448,364.86,421.38593,331.301c-3.494-19.67834-5.27-34.32586-5.75757-38.59643A127.97153,127.97153,0,0,0,401.3927,299.889a52.0278,52.0278,0,0,1-6.61261,3.32318c-4.79871,1.949-16.65112,10.05933-27.21558,43.652,0,0-12.55944,60.806-13.32525,74.43756L314.91364,566.891h0l58.35693,14.24463,26.95221-108.90228,13.48407-20.21814,8.27106-23.43469.28472,2.04779.01813.13043,12.05768,67.52478a145.42767,145.42767,0,0,1,3.94385,32.93847L436.604,599.05579l28.19568,11.17669-4.49536-122.7207a3.06867,3.06867,0,0,1,2.45789-3.00342c9.02392-1.848,23.66961,8.61652,30.31732,13.86652a5.72545,5.72545,0,0,0,1.80456.95569,29.48464,29.48464,0,0,1,6.66443,2.68237C504.67987,503.84766,504.5564,501.2345,503.88031,500.1629Z" transform="translate(-246.63924 -72.08759)"/>
          </g>
        </g>
      </g>
      <g id="e046ba54-3476-4fea-ac4e-23e9e5eb2957" data-name="head">
        <g id="b6f3d2bf-e883-4612-9e42-4635b6ff218f" data-name="inside-hood">
          <path id="bf233715-b29c-4b06-beaa-f0f32ff91473" data-name="right-inside" class="b60bef79-6852-4ab9-865f-d4c52a222baa" d="M598.38525,167.20337c-3.16046-5.61621-6.5238-11.151-10.03723-16.43158-.0011.00806-.9339,6.916-2.53961,16.43158-2.66424,15.78894-7.18133,38.75732-12.37091,49.302l1.13593,46.93359s4.15819-5.947,23.84277-2.47326C609.06952,262.8457,618.18317,202.38477,598.38525,167.20337Z" transform="translate(-246.63924 -72.08759)"/>
          <path id="f3f259a9-e525-4886-9137-5babe04763c7" data-name="left-inside" class="b60bef79-6852-4ab9-865f-d4c52a222baa" d="M476.54352,150.61823c-3.55054,5.327-6.94922,10.91412-10.1405,16.58514-19.79792,35.1814-9.38012,95.64234,1.2732,93.76234,19.68457-3.47376,22.53862,2.47325,22.53862,2.47325l1.24756-46.95751c-6.37237-17.83124-10.29315-36.41462-12.506-49.27808C477.23315,157.18628,476.54578,150.63953,476.54352,150.61823Z" transform="translate(-246.63924 -72.08759)"/>
          <path id="b1f406ca-ee40-4405-8ea8-ef5de259105f" data-name="inside-lines" class="bd3abd7c-d991-403f-b393-beef8f89a3ca" d="M574.57343,263.439l-1.13593-46.93359m0,0c5.18958-10.54468,9.70667-33.51306,12.37091-49.302m-106.852,0c2.21289,12.86346,6.13367,31.44684,12.506,49.27808M490.21484,263.439l1.24756-46.95751M588.348,150.77179c-.0011.00806-.9339,6.916-2.53961,16.43158m-106.852,0a154.78039,154.78039,0,0,1-2.057-16.58514" transform="translate(-246.63924 -72.08759)"/>
        </g>
        <path id="a19ba451-6e75-4c7a-ba81-928d374db58b" data-name="head-background" class="b875ee22-5b0f-446d-8272-edabaeb774e0" d="M539.369,110.86273H525.41925c-15.91748-.86035-33.75049,17.06409-48.872,39.75.12189,1.07459.25012,2.15723.40247,3.26874a311.36512,311.36512,0,0,0,15.015,62.51825c1.682,4.63849,2.77234,7.13086,2.77234,7.13086s23.24219,26.16241,35.36035,25.1709H534.812c12.11817.99151,35.36035-25.1709,35.36035-25.1709s1.0904-2.49243,2.77234-7.13086a311.36788,311.36788,0,0,0,15.015-62.51825c.14526-1.05975.26623-2.09033.38372-3.11652C573.20007,128.00653,555.32227,110.00037,539.369,110.86273Z" transform="translate(-246.63924 -72.08759)"/>
        <path id="ea3cba45-3bab-4d51-8c82-e9144d284265" data-name="hair" class="b6a1db8b-3539-4fb2-a4b7-f51484111939" d="M485.20938,138.574a272.76343,272.76343,0,0,1,30.91467-7.44189,14.91013,14.91013,0,0,1,7.0995.52849c11.77534,3.67923,35.65665-5.1169,49.73263-.99448,32.82219,9.61261-26.882-47.2485-26.882-47.2485l-62.628,38.38125Z" transform="translate(-246.63924 -72.08759)"/>
        <path id="a49e6d59-5b28-485f-8e9f-cb40b1ea1882" data-name="outside-hood" class="fc86b811-3193-46b8-adb2-5df7fbf328d5" d="M476.54327,150.616h.00177c15.122-22.6875,32.956-40.61365,48.87421-39.75324H539.369c15.95471-.86242,33.83441,17.14716,48.97864,39.90857h.00042l-.00006.00049c3.51343,5.28058,6.87677,10.81537,10.03723,16.43158l7.21223,17.813S601.908,72.93274,532.44043,72.58838s-73.16425,112.428-73.16425,112.428l7.12684-17.813c3.19128-5.671,6.59-11.25812,10.1405-16.58514Z" transform="translate(-246.63924 -72.08759)"/>
        <g id="ab2382bf-9025-41ec-9466-f46cc70f3d3e" data-name="glasses">
          <g id="a7dce713-192e-45de-bbd2-c470b9014ceb" data-name="right-eye">
            <path id="be61f3d4-54da-4f69-ac47-b8867771df4f" data-name="right-eye" class="bd0f47e9-e11c-4a8b-bcb9-f0c82003f415" d="M517.6712,149.87491s10.95084,9.38643,6.25763,18.38177c-3.68082,7.05489-16.022,5.68994-21.17516,4.77277a44.14431,44.14431,0,0,0-4.48183-.56713c-4.95939-.36762-16.47627-2.13542-14.62647-10.63359,2.34661-10.78052,5.45515-11.95382,5.45515-11.95382S508.67587,145.96389,517.6712,149.87491Z" transform="translate(-246.63924 -72.08759)"/>
            <polyline id="a2e7a452-ccc7-4574-8dc9-2f93e8fd0941" data-name="right-ear-piece" class="be302d9b-7d8b-48e6-ac69-56ef95222cb7" points="239.505 81.762 232.317 74.989 229.904 78.531 237.006 89.741"/>
          </g>
          <path id="fbf86c10-1650-4b91-a142-28056cf48362" data-name="middle-piece" class="b431d331-0de1-43a9-bea4-3a0e06ce479a" d="M524.17865,155.65931h16.71377l-.60365,7.4839,1.06581,7.30816-5.51373-2.29919a9.98866,9.98866,0,0,0-8.19127-.00946l-4.29618,2.666,1.319-7.51464Z" transform="translate(-246.63924 -72.08759)"/>
          <g id="e6d1da64-227f-44d1-976a-8815b992edbe" data-name="left-eye">
            <path id="bdb34403-69ad-42e4-bf27-a3737ffd693a" data-name="left-eye" class="bd0f47e9-e11c-4a8b-bcb9-f0c82003f415" d="M547.42687,149.87491s-10.95084,9.38643-6.25763,18.38177c3.75458,7.19626,16.52013,5.63186,21.47617,4.71824a34.80286,34.80286,0,0,1,3.94274-.49566c4.817-.32852,16.74462-2.01331,14.86455-10.65053-2.34661-10.78052-5.45515-11.95382-5.45515-11.95382S556.4222,145.96389,547.42687,149.87491Z" transform="translate(-246.63924 -72.08759)"/>
            <polyline id="e41a9484-d0bc-4d5b-8ace-16f725b0576e" data-name="left-ear-piece" class="be302d9b-7d8b-48e6-ac69-56ef95222cb7" points="332.104 81.762 339.291 74.989 341.704 78.531 334.602 89.741"/>
          </g>
        </g>
      </g>
    </g>
    <g id="b43902cc-f03a-4b9d-bac7-0f39c999e880" data-name="body-details">
      <g id="b8a24e69-c2b6-4c48-be09-2a149420e0c1" data-name="hand-shadows">
        <path id="f1160474-b1aa-443d-b623-ddb1ca02c88b" data-name="right-hand" class="ff18d0dc-95c9-47a5-abf5-40e5d958f590" d="M336.6911,722.56422l4.66893,7.0839s-12.71882-.644-15.13379,5.47392c0,0,10.30386-4.66893,15.13379-2.093l-6.27891,5.79592L346.029,734.961s.88019,7.88889-3.02136,10.46486l15.57918,7.88889L352.95187,740.274s5.31293-5.79592,9.33787-4.82993c0,0-4.66893-4.34694-10.46485-2.415l6.27891-5.47392s-12.87982.161-13.84581,1.449Z" transform="translate(-246.63924 -72.08759)"/>
        <path id="a5fa5d68-8adb-4029-ba29-33baaa0c8c79" data-name="left-hand" class="ff18d0dc-95c9-47a5-abf5-40e5d958f590" d="M728.2229,722.56422l-4.66893,7.0839s12.71882-.644,15.13379,5.47392c0,0-10.30386-4.66893-15.13379-2.093l6.27891,5.79592L718.885,734.961s-.88019,7.88889,3.02136,10.46486l-15.57918,7.88889,5.63492-13.04082s-5.31293-5.79592-9.33787-4.82993c0,0,4.66893-4.34694,10.46485-2.415l-6.27891-5.47392s12.87982.161,13.84581,1.449Z" transform="translate(-246.63924 -72.08759)"/>
      </g>
      <g id="f75456ea-a7c6-4feb-b3f2-e0374a40ea55" data-name="body-clipping-mask">
        <g class="ad3c402a-f807-48a7-99d8-a1df0498a5aa">
          <g id="b5c59070-3ac3-4fd7-967e-11dbf53746c9" data-name="vest-shadow">
            <line id="ec7fbb18-8d8c-4b4d-92d2-f646089e811b" data-name="right-shadow" class="ecbed174-9868-4295-a348-d6ecf6a45e07" x1="175.64152" y1="358.59649" x2="175.64152" y2="264.438"/>
            <line id="bd85bb3b-afdd-4279-8011-2c84607bcd03" data-name="left-shadow" class="ecbed174-9868-4295-a348-d6ecf6a45e07" x1="396.49455" y1="358.59649" x2="396.49455" y2="264.438"/>
          </g>
          <g id="e3075420-d57d-4ba7-a2b1-fe4a771059e9" data-name="wrists">
            <polygon id="aa5f14f5-5ee6-4a59-bc60-e5c08df880c0" data-name="right-wrist" class="fc86b811-3193-46b8-adb2-5df7fbf328d5" points="47.091 567.279 126.631 585.996 121.241 619.831 43.492 602.912 47.091 567.279"/>
            <polygon id="b2d368b9-600f-4bf5-b264-ea2be9f66826" data-name="left-wrist" class="fc86b811-3193-46b8-adb2-5df7fbf328d5" points="524.53 567.279 444.99 585.996 450.38 619.831 528.13 602.912 524.53 567.279"/>
          </g>
        </g>
      </g>
    </g>
    <g id="e8215090-c9e7-48a8-abd8-d33f65fce027" data-name="body-gold">
      <g id="b04a4801-afe3-4f6e-aad7-876f4a1c2dc0" data-name="gold-clipping-mask">
        <g class="bae51945-f5df-4817-85b6-a031767b6d2e">
          <g id="a28905b1-d191-43df-b4f8-095020687590" data-name="gold-trim">
            <path id="fff8f6cc-1ca9-429d-ba2b-388767f115b3" data-name="torso-trim" class="ba45ad07-1130-4625-9563-bb0cc7927320" d="M422.26309,430.68457l12.07535,67.59894a145.4293,145.4293,0,0,1,3.94385,32.93847L436.604,599.05579m28.19568,11.17669-4.49537-122.72069a3.06873,3.06873,0,0,1,2.45787-3.00344c9.024-1.848,23.66964,8.61655,30.31737,13.86655a5.72509,5.72509,0,0,0,1.80456.95568,29.484,29.484,0,0,1,6.66442,2.68236c3.13132,1.83473,3.00788-.77842,2.3318-1.85a11.0413,11.0413,0,0,0-1.76038-1.98906c-24.78984-24.78984-33.79365-25.073-45.72722-48.94922-18.09228-36.19838-29.04913-84.36483-35.008-117.92351-4.17888-23.53433-5.89972-39.88448-5.89972-39.88448M642.63523,430.68236l-11.22338,62.74692a145.42822,145.42822,0,0,0-3.94385,32.93841l2.103,75.07207m19.84229-310.02533s-10.12752,96.22409-40.90772,157.808c-11.93356,23.87625-20.93737,24.15938-45.72721,48.94922a11.04086,11.04086,0,0,0-1.76038,1.989c-.67608,1.07162-.79952,3.68476,2.3318,1.85a29.4845,29.4845,0,0,1,6.66442-2.68236,5.72491,5.72491,0,0,0,1.80455-.95567c6.64774-5.25,21.29341-15.71459,30.31738-13.86655a3.06874,3.06874,0,0,1,2.45787,3.00344L600.5978,610.23246M421.38474,331.30112l86.39708-39.82m135.352,39.82L556.973,291.7174" transform="translate(-246.63924 -72.08759)"/>
            <polyline id="e3377f6c-11f4-46ab-83bb-565c8a76bd89" data-name="neck-trim" class="f8bcd358-dd91-4c17-9f97-8139ee15739d" points="243.843 191.776 285.815 258.378 327.778 191.775"/>
            <line id="efb2bc6d-877a-482f-a9b0-33e7decc67b1" data-name="zipper" class="f8bcd358-dd91-4c17-9f97-8139ee15739d" x1="285.81547" y1="547.18676" x2="285.81547" y2="258.37768"/>
            <path class="a27e89d3-aacc-4fef-974c-4a47ce184d01" d="M506.38832,116.62107s-9.25055-46.85262-17.75767-41.74835" transform="translate(-246.63924 -72.08759)"/>
            <path class="a27e89d3-aacc-4fef-974c-4a47ce184d01" d="M558.34812,116.62107s9.25054-46.85262,17.75766-41.74835" transform="translate(-246.63924 -72.08759)"/>
          </g>
        </g>
      </g>
    </g>
    <g id="a18c6b55-ac34-49d7-8874-64d97d23ae75" data-name="belt">
      <rect id="b463256c-23e1-4743-b270-b0ee7a2a9004" data-name="belt-main" class="a0e1907f-fe7b-4b5c-9e31-36fb048dc2bd" x="174.97337" y="528.169" width="221.67427" height="19.95178"/>
      <path id="b33468b3-f671-4188-abb3-83ac7e9e1872" data-name="buckle" class="eeae4fc5-0628-4f78-8ff5-e2610ef8db39" d="M552.80561,618.53763v1.67074H535.02944V600.25659h17.77617v1.781m-19.93152,8.19494H537.542" transform="translate(-246.63924 -72.08759)"/>
    </g>
  </g>
  <g class="lightning" id="af98610a-2e2c-4a3d-8cea-275de3807665" data-name="lightning">
    <defs>
        <filter id="glow">
            <fegaussianblur class="blur" result="coloredBlur" stddeviation="4"></fegaussianblur>
            <femerge>
                <femergenode in="coloredBlur"></femergenode>
                <femergenode in="coloredBlur"></femergenode>
                <femergenode in="coloredBlur"></femergenode>
                <femergenode in="SourceGraphic"></femergenode>
            </femerge>
        </filter>
    </defs>
    <path id="f19aafa4-8a49-45db-8fe8-265de1db4411" data-name="lightning-path" class="lightning-path a277c738-9e4a-44cc-8cfb-65528f27dfd8" d="M359.49652,428.74587l-3.771-1.676-3.352-5.02806,6.28507-5.447,5.02805-11.73213,3.352-4.60905-.838-4.3699,1.257-7.60837-3.771-5.20091,4.60905-5.86606-4.60905-6.70407v-6.00233l10.05611-6.1488,5.02805-2.514V348.297l3.352-11.0867h5.86606l3.771-6.09248,6.70407-2.89571,4.05242-7.93418M483.94084,253.183l5.02806,8.38009-2.514,6.70407-13.40814,2.933-7.12308,2.514-5.02805,5.86606h-6.70407l-3.352,7.54208-8.38009,1.676-2.933,6.70407-6.70407,5.44706h-8.38009l-3.352,3.771v10.47511l-5.86606,3.352h-3.771l-3.352,3.771-9.2181-3.352-12.15113,1.257-3.771,2.095-3.771-5.02805-2.933-3.352-3.352,5.44706,3.771,5.86606-3.771,2.97036-1.676,8.98819h7.54208l3.352,5.22064.419,5.44706,4.19,4.19-2.514,5.86606-1.257,6.56781,3.352,11.86839-.838,2.514,2.933,6.28506-.85146,10.71426-3.75759,1.49465-3.352,12.93136-1.257,4.19-11.73213,5.44706v3.352l-7.96108,5.44706h-7.12308V445.087l4.19,4.19.419,3.771,2.514,5.44706-1.257,5.44706v9.2181l-3.352,5.44706,3.352,4.60905m30.16832-98.04705,5.03867,7.704v4.50488l-2.51933,8.59871,2.51933,1.74715-2.51933,5.82382-5.634,4.95024v3.78548l2.32952,5.24144,4.65906,6.115,1.16476,5.82382,2.62072,8.73573v6.98858l2.32953,5.82382,2.32953,9.31811-2.03834,3.78549,5.82382,4.07667,4.07667,8.73573,2.32953,6.98858V502.07l2.62072,9.6093,5.53263,7.27977,1.59986,8.15335-5.09415,5.53263-1.74715,5.53263-3.78548,5.82382-2.62072,6.98858-2.91191,6.4062-1.99541,2.62072-1.49888,8.44454V575.159l-3.2031,11.06526-9.6093,4.36786-2.91191,4.65906-7.84826,1.74714-2.34343,3.78549-5.53263,3.49429L361.70669,607.19v6.4062l-4.36787,4.07667v6.69739l-3.78548,2.62072-1.1799,5.53263-8.13821,4.65906-7.571,4.07667,1.74714,6.98858,1.16477,5.24144-2.91191,3.49429-5.53263-1.74714,2.91191,4.95024,2.62072,6.6974,2.91191,4.07667,3.78548,5.53263-.58238,3.78548-1.456,6.4062v5.53263l2.62072,7.571-.29119,7.27978,1.45595,6.69739,2.03834,4.07667,2.91191,2.03834h2.31439l5.25658,1.16476v2.62072c0,.87358,3.78548,7.27978,3.78548,7.27978L360.25073,736.77v8.15334l3.4943-1.74714,8.44453,6.115,3.71184,1.456,7.06223,5.53263.58238,5.24144-.87357,6.115,2.03834,5.53263,5.24143,2.91191,7.27978-1.456,2.62072,1.456,5.82381,9.6093,7.571,7.86216-1.16476,6.98858-3.78549,8.15335-.87357,7.27977-1.74715,7.86216v7.86215l4.95025,3.78548,1.16476,13.39479,3.4943,11.64764,1.456,6.115,3.92939,6.115-1.30867,6.115-2.62072,7.27977,2.03834,3.2031,1.89105,7.86216V901.584l-4.803,4.65906-3.49429,4.07667v6.69739l-1.74715,8.44454-5.24144,3.49429-3.78548,6.40621.87357,8.44453,3.4943,5.24144,1.16476,4.36787,4.36786,6.69739-1.16476,7.86215-3.2031,13.39479-3.78548,3.78548-3.49429,10.48288,6.4062,6.98858.29119,5.53263.58238,12.8124-2.32953,4.36786-4.36786,8.15335,1.74714,8.15335-4.95024,4.659,1.456,5.24144-5.24144,4.36786-.58238,4.95025-5.53263,2.62072-4.659,10.48287,1.16476,12.23,3.78548,10.77406-2.9119,10.77407-2.03834,11.64764,2.32953,11.93882,2.91191,6.40621v4.07667l-2.32953,11.64764.87357,4.07667,3.49429,7.571,2.62072,2.62072,4.07667,3.2031,3.20311,4.659,5.53262,4.07668,1.456,2.9119,1.45595,5.82382,3.49429,1.456-1.16476,4.36786-4.36786,6.98859,1.45595,6.115-1.74714,2.03833-.58239,5.82382,2.03834,1.456-2.32953,4.07667-2.62072,4.36787-2.62071,3.2031-1.74715,2.62072-.58238,4.659-4.36787,1.74715-1.16476,4.07667v4.36786l2.91191,1.456,1.74714,4.659.58239,3.4943-.29119,4.659,6.69739,2.91191.87357,5.53263.29119,7.571,2.91191,1.74715,2.32953,7.571-.58238,2.03833,1.16476,3.49429-2.03834,8.73573v4.07668l2.03834,2.62072m-58.25333-869.809-3.773,5.60749-3.20428,3.20428-2.67023,3.20428v3.4713l1.33512,2.93726-3.20428,4.27237m44.05884-7.47665,2.13619,5.87451,4.80642,4.5394,4.53939,4.00535,3.30029,6.07m-1.00993,1.87559-2.82441-3.67321-10.948-3.20428-5.07344,1.60214m0,5.27535,3.20428,2.0314,8.0107,1.68709,7.63082,1.68709,2.902-3.37418m29.09087,59.82368-4.99332,9.15443v17.06051l-2.91277,2.91278-7.90609,3.32888-3.32889,5.40943v6.24165l-2.91277,3.745-2.49666,6.24166v9.15442l1.66444,2.91277,8.32221,10.81887-1.24833,6.65776-5.40944,8.73831-3.32888,10.81887,4.57721,5.82554-8.19118,9.15443-3.82841,7.90609L401.59,674.5l-2.902,5.44492,1.00993,11.235v9.15443l-1.00993,7.49m0-27.87938,7.85849,5.82554,4.99332,5.82554,3.14463,2.08055,5.98679,6.65777v4.1611h8.34521l4.1611,3.32888m-17.24477,29.95993,2.26481-2.08055-2.26481-8.3222v-7.9061l2.26481-4.99332-6.65777-12.4833-3.32888-2.49666-8.513-3.32889M466.05019,751.932l-3.32888-1.66444-4.99332-2.49666-5.40944-4.16111v-5.82554l-5.40943-2.49666L442.748,729.462l-2.91277-2.08055h-2.49666l-6.65777-1.66444h-4.1611V720.3076l-5.84855-3.32888-2.47365-2.49666m12.4833-20.59745-7.49-3.12083h-4.99332l-3.51314,2.91277m18.4931,45.71375v-3.00008l-2.49666-3.1832v-3.567l-4.1611-3.923M383.729,621.89755l2.46993-3.32166,6.51163-3.36808L395.405,610.717l3.28292-1.34723,1.00993-3.14355,3.566-4.71532,2.86644-2.29139m-15.66516,39.78939,4.4645-10.32879,8.55876-5.61347v-3.14354l2.6419-4.71532,1.66444-7.40979v-5.66571m-160.98,31.20991,5.40778,2.02792,6.08376,3.63879,8.11168-.08993,5.06979-3.88685v-1.68993h11.82953l4.05584,5.66671,5.74577,2.74342h6.08376l2.02791-2.74342,5.74577,2.74342,6.42175,2.74342,4.05584-3.23645,5.74577-2.25039h6.75973l6.70479,2.25039M380.536,845.75444l9.92919,1.68448,8.22278-1.68448v-9.47716l-4.41457-2.57576,4.85659-7.298.56791-3.86364,7.7258-6.566m6.68423,40.62581-5.1602-5.72644h-4.80057v-5.11883h-5.45919M479.52145,882.641h-4.34534l-1.58013-3.55528-5.72794-1.18509-3.35777.98758-4.93788,1.18509-3.55528-.98758-4.34534,1.77764-4.34534-.79006-3.55528.79006-2.17267-2.76521-1.77764-3.35777h-4.74037l-1.77764-1.58012-3.95031,1.58012-5.1354-1.58012-4.93789-4.14782H416.119l-2.01108-3.55528-3.15731-8.09814-1.1521-2.76521,1.1521-4.54286-.95458-2.612.95458-8.23127-3.52692,5.70791v4.74037l-1.02575,5.53043v6.123l-2.32738,2.17267-5.3826,4.34534m45.18286,57.27828V920.692l-4.76611-5.73771v-4.855l-2.2957-5.73772,2.2957-3.97226-5.82661-7.50317V882.641l-4.41363-3.43712-4.64733-6.04362m-5.039,17.84856,5.039,12.02866,4.64733,7.94453H434.044l2.32367,3.08954H446.519l3.97227,4.855h7.50317l5.29636,2.64818,3.08954,6.62045,1.76545,4.41362m-75.51917,4.60862,2.54818-2.77983,3.51317-3.93811,3.20477-3.24314,1.15826-4.86471,4.63306-5.328v-7.4129l1.15827-5.79133,1.38992-2.77983-.92661-4.16976-1.62158-1.62157,4.40141-4.27939h2.02246l2.63388-4.85791m7.47534,59.2829v-2.10959l1.97532-3.16439,2.1096-1.0548-1.47672-6.49624-2.6082-1.0983s.70957-3.37535,0-4.00823a8.29006,8.29006,0,0,1-1.4-2.39664l-2.14592-2.03351-1.493-1.68767-2.43636-2.53152v-2.74247l-4.36786-2.32055m-56.11487,154.1394,3.15446-1.57723,1.57723-3.15446,5.85828-.90127,1.35191,1.80255-1.12659,2.4785,4.73169,2.4785,4.09537,2.25319s4.692-5.40765,4.91737-6.0836.676-2.4785.676-2.4785,4.28105-3.83042,4.957-4.28106,4.957-5.40764,4.957-5.40764l5.82326-6.75234-4.02071,2.246-4.957,5.40765-2.92914,1.57722a7.85,7.85,0,0,0-4.73169,2.47851c-2.02787,2.25318-4.692,4.73169-4.692,4.73169h-2.74346l-3.83042-3.6051-4.50637-2.25318-3.15445,2.4785-2.25319,2.02786m-.22532,59.93472h4.281l2.02787-3.83042v-7.43551l2.25318-1.12659,2.70383-6.30891V1097.446l7.66082-3.6051v-9.68869l2.02787-4.281,2.80976-2.96069m-4.83763,8.36833-4.957,2.02787h-7.66083l-1.80255,2.02787-5.85828,2.4785m28.21461,63.82837,2.13871.981,5.29355,4.43974,3.58595-.683.85379-.683,4.09823,3.586H403.558l2.90291-2.39064,2.21987,2.39064,1.36608,3.58595,4.78126-2.73216,3.41519-2.88111,2.4279,1.85656M347.89037,1225.78h8.19645l2.04912-1.87835h3.07367l2.04911-.8538,4.61051-4.09823v-3.58594l1.87835-2.5614,2.04912-1.02455H372.992l-1.19531-4.952,2.39063-7.1719v-1.87835l4.09823-2.39063,3.07367-7.34266v-2.21987l1.87835-1.7076.8538-1.19531v-3.75671l4.09822-3.07367,1.53684-1.87836,1.70759-1.02455,1.1389-5.45349M698.86928,483.21645l-4.24875-3.69516-.42488-2.70279,4.67363-6.14154L696.32,467.23822l1.6995-8.0107-.42488-4.97753-.42487-2.49912,1.27463-3.87184.42487-2.12655v-6.798h3.399l2.54925-6.37313.84975-2.12438-.42487-5.52338,1.6995-6.798v-5.52339l-2.54926-2.54925-.42487-5.52339.84975-5.94825,2.54925-2.97413,2.54926-4.67364-2.54926-3.82388-5.52338-1.95024-2.12438-3.57314V374.5169a54.56847,54.56847,0,0,0-5.94826-3.54253c-1.27462-.42488-2.12437-5.09851-2.12437-5.09851v-4.24875l-8.92239-3.399h-15.7204v-10.197l-4.24876-2.97413-7.64776-3.82388h-6.798V337.4092l-3.82388-3.399V325.0878l-3.82388-4.79986v-5.39715l-8.07264-5.94826v-7.64776H621.96679l-3.399-2.97413h-9.77214l-1.6995-2.97413-4.24876-3.82388V283.45l-4.24876-4.24876L593.925,274.5276l-7.22288-7.22288m10.0215,85.3403,3.11027-4.66541-.311-4.35438-2.79924-5.28746v-11.197l6.12377-3.4213v-3.43155l4.14013-2.478-2.07007-3.73233v-5.59849l2.07007-3.11027V289.5065l-4.14013-4.04335m0,38.25634-7.67891-1.55513-5.28746,3.4213-9.64184,2.17719m30.91954-1.81516-1.569-3.78333L606.98752,317.81v-1.57384l3.75795-2.06629,1.4464-2.47954-2.8928-4.33921-2.31155-3.30606m35.87156-27.47443h-1.11114l-5.77793,4.889-4.0001,4.00353v3.55223l-2.889,5.33347-1.5556,1.77782v5.1681m9.48392,10.905-1.817,4.48557-2.32121,3.35768,2.06913,1.19918v4.70546l-4.70731,3.68875-2.70748,2.39835,1.50831,2.63818.23983,7.43488m5.91873,1.67884v-3.11785l-2.92491-2.63818v-3.11785l-1.55481-2.878h-3.18715l-2.80872-1.439-4.317,2.878m125.69887,15.57889-7.98361,1.19754h-3.59262a19.18128,19.18128,0,0,1-3.59262-3.99181c-.79836-1.59672-4.59058-2.46933-4.59058-2.46933a20.56179,20.56179,0,0,0-2.79426-.0024c-.59877.12294-3.79221-4.51392-3.9918-5.11269a15.04744,15.04744,0,0,0-1.79631-2.41726s-2.59468-.57659-3.19345-.17741a2.04775,2.04775,0,0,1-1.59672,0l-5.9877-3.19345H696.60011c-.79836,0-2.19549-1.39713-2.19549-1.39713l-2.59468-.893a49.086,49.086,0,0,1-5.38893-1.7017,11.87037,11.87037,0,0,1-2.39508-1.74025s-4.98976-3.84827-6.38689-4.98947a1.654,1.654,0,0,0-2.39508,0H657.68l-2.19549-1.55514-6.1873,1.55514H646.1038l-4.6715-.90866-4.423-2.20161-4.13826.989m66.12418,5.90464-5.18934,1.20614h-2.59468s-2.39508-.45524-2.99385-1.20614-2.99385-.98409-2.99385-.98409l-9.97951-2.79924s-2.19549-2.651-2.39508-3.11027-2.39508-1.33706-2.39508-1.33706h-3.79222l-4.19139-2.72066L657.68,312.1998l-1.79631-.79888-6.58648-.86913-13.37217.86913m41.714,10.76344-1.19754-1.45348-.39918-1.65679,1.39713-1.93583L674.246,314.324v-5.4131h-4.79016l-1.99572-2.17133h-6.78625l-2.79426,1.79631-4.411,2.54636m34.74865-20.50947-2.99385,1.79631-3.393,2.59467-2.1955,3.59263v1.39713s-.59877,3.59262-.79836,4.09153-1.19754,2.69453-1.19754,2.69453l-3.393,2.17133m50.6959,51.718a20.34131,20.34131,0,0,1-2.19549-3.99181c-.99795-2.39508-3.19344-1.79631-4.19139-1.79631s-2.99386-2.19578-2.99386-2.19578l-1.59672-2.39479s-6.78606-2.79427-7.38483-2.79427h-2.99386l-1.59672-1.79631-2.99385-3.5518-8.1832-2.23631-1.32725-1.39713-3.86209-1.28317-2.79426-2.53908-1.59672-2.56464-6.98566-2.41559h-.99795l-6.58648,2.81477-4.98975,2.99386h-2.39508l-1.9959-2.59468-3.81218-.998-4.17143-1.29215-.98816-3.44195-4.7994-3.29053m91.01256,64.90783-2.39508-4.1914v-1.9959l-5.58853-.998v-.998l-2.99385-2.39508h-3.393l-2.59467-5.18934,1.79631-5.78812.79836-2.79426V363.024l-1.59672-8.1832v-4.59057l-1.99591-4.59058-1.39713-1.873-3.19344-1.67884V339.672l-3.393-2.48071-4.98976-4.30536M677.639,381.78547l5.18935-1.39713,1.39741-3.79221-2.99413-1.9959,3.79221-4.79017h1.59672v-4.59057l2.40554-4.59057,1.18708-.998v-2.39508l1.99591-2.99385-.998-2.59467-1.49692-1.39713-.22951-4.59058v-1.873l1.72643-4.71351v-2.79426l-1.72643-2.59468-1.26742-4.1252m48.30082,85.15881-3.59262-1.19754-1.9959-3.19345h-2.1955l-2.79426-1.9959-.99795-2.79426-2.39508-.39918-1.9959-3.79221V397.3535h-4.391l-1.9959.998-1.19754-4.79017-1.39713-4.79016-.79836-.998-1.9959-2.19549v-1.39714l-3.19344-1.527h-5.234l-1.35246,3.92206V390.767s-1.9959,2.59467-2.39508,3.19344,0,5.78812,0,6.38689v1.59672L694.8038,408.331m25.14836,13.173-2.79427-2.59467-6.18729-2.39508,1.19754-1.79631-5.58852-4.65492h-2.187l-2.40362-3.1291-2.99385-1.79631-2.7072-2.08368M596.72362,550.233l-10.0215-2.31355H576.24845l-4.04872,2.89194-4.04873-2.89194-3.47033-2.504-5.78389,3.08237-4.62712,1.15678-8.09745-1.73517L540,545.41544v-3.27991l-4.23879-.57839H524.19343v3.8583h-5.20551l-2.89194,4.23915-4.62712.57838-4.04872-4.81753H495.85235l-3.47033,3.08237-6.36228,2.31355-6.94067-5.39592-6.94067-9.44465-2.31356,2.6944v8.09745l-3.77465,5.78389-5.47958-2.31356-5.78389,4.62712m203.593-151.80625,9.08041,2.58184-4.54021,6.64319,2.63394,5.503,4.39364,8.09745,2.31356,10.65124-2.31356,2.65171-4.62711,2.892v2.89194l-6.94067,6.78473v7.47665l-2.31356,8.0107-2.59749,6.87749v9.10074l-5.15959,6.28566v8.09745h-4.7994l-8.31746,8.09745-7.66687,2.89194-7.12575,2.31356-8.20773,2.31356V529.411l-2.60218,2.31356-2.60217,4.24627-5.132,3.85118-5.13195,5.59347-5.18034,11.7582v4.04873s-.25671,8.67584-7.77577,4.62711,7.77577,10.411,7.77577,10.411l5.18034,12.72456v31.58557l5.13195,1.32693v8.15313h7.73412l2.60218,3.29154,5.12222,5.66671,3.08551,8.97182,6.5752,8.09745,8.21742,5.78389,6.41421,5.2055L639.29287,674.5l-2.31355,8.76249.57839,9.0617,2.89194,7.71159,7.85943,2.89194v11.55434L643.92,716.97872l-1.15678,8.73832-3.47034,12.06719,3.47034,8.52268,5.54587,5.62507v12.88338l3.13,5.20551,1.15678,6.36228-1.15678,7.51906s-.57839,5.78389,0,7.51906,2.89194,8.09745,2.89194,8.09745l-1.15677,7.51906-4.86514,6.36228-4.96748,7.51906v4.62711l-6.36228,9.25423-4.04873,4.40719,1.15678,11.96942,5.78389,5.42264,4.04873,4.32462,4.38909,12.23594v7.33293l-3.23231,5.65772,3.23231,4.85791,5.44352,8.12412-1.73516,7.96616h7.51906l9.83261,6.6908-.57839,11.31572-5.2055,7.50317,4.62711,4.60862,4.04873,10.94732,9.25423,5.2055L678.045,970.72192l7.51906,8.09745v23.13556l-3.47034,10.9894,6.36229,10.411-11.56779,10.9894-5.2055,11.96122,6.94067,5.96884-1.73517,13.88134-4.62711,5.153,4.04872,5.60141,4.62712,8.36833v9.79676l2.89194,8.09745,1.73517,7.51906,2.89195,10.63769,9.25422,9.02754-2.89194,6.94067-5.7839,8.09745,2.89195,10.246,2.31356,11.22654-1.15678,6.86854h-3.47034l-9.25422,6.94067,2.89194,4.04873m12.68007-50.0974,1.77966,9.03176,8.09745,5.7839v6.19726l3.47034,8.84086,6.36228,5.78389,7.51906,5.2055v9.25423l5.78389,4.04872,6.36228,7.98165,10.411,2.42936v12.72456l10.98939,2.89195M716.797,1337.999s7.51906-12.14617,9.52117-13.88134-6.05084-17.77822-6.05084-17.77822l3.47034-11.14124,5.78389-8.09745v-4.04872l-5.78389-5.78389v-25.44913l2.5805-9.25422v-5.7839l4.36017-5.78389,2.31355-8.67584-2.31355-7.51905v-5.20551l4.62711-6.94067v-5.89969m-3.02892-111.47746-6.22531-8.36833L716.797,1073.231l-3.67408-4.7884h-3.48247l-7.83557-7.83557H690.05156l-12.24481-1.79952m53.88483,220.32475,5.37338-3.48247-4.7884-6.09433v-6.09433l3.02892-9.14149-3.02892-5.659-1.74124-4.35309-4.21712-7.5266m-28.608-45.58113-1.77966-4.7884v-4.7884l-6.31779-7.88649M612.11764,963.80138l6.72735-2.98994,4.48489-8.22231V943.2456l5.23238-6.02818V932.6088l4.4849-7.50317V909.60887l2.24245-5.97987v-4.496l7.47483-3.35252,2.31233-1.86871v-7.7608m-2.31233,9.62951v8.22231l2.31233,4.11116-1.15617,3.57027-1.15616,8.7632v2.24245l-1.495,9.919-1.57011,6.89938v9.71728l-4.036,1.86871v6.3536l-1.495,6.35361,2.61619,5.60612,8.29219,6.72734M635.28961,903.629H618.01189l-3.97112,5.11217-8.66425,2.943-4.33212,2.10574m164.285-320.83751.26889,2.68894a3.022,3.022,0,0,0,2.42005,2.95784,16.4159,16.4159,0,0,0-2.68894,4.84011c-.53779,2.15115,0,2.95784,0,4.03341s2.68894,6.72237,2.68894,7.529v3.76453l-3.76452,3.22673h-9.41131l-6.18458,3.49563-2.15115,1.34447-1.88226,4.30232-5.91568,7.26015-3.22674,5.64679-1.88226,3.22673-3.22674,7.26015-3.76452,1.88227h-7.26015l-2.95784,7.529h-1.88227l-5.37789,1.88227s-2.68894,2.15115-3.49563,2.95784-2.42,2.15115-2.42,2.15115L696.49242,674.5l-4.03342.5-2.42,7.49429a14.77248,14.77248,0,0,1,2.42,3.76452,8.79521,8.79521,0,0,1,.26889,3.49563,31.627,31.627,0,0,0-2.95784,4.03342c-.26889.80668-1.327,3.22673-1.327,3.22673l-2.97536,3.49563-.53779,1.88227,3.51315,1.34447s2.13364,3.76452,2.13364,4.57121,1.88226,3.49563,1.88226,4.30231,4.03342,1.88226,4.03342,1.88226,2.68894,2.68895,2.68894,3.49563a6.89172,6.89172,0,0,0,1.07558,2.42l4.8401,3.49563s2.42006,3.49563,2.42006,4.30231-3.04748,6.45347-3.04748,6.45347-3.406,2.95784-3.406,3.76453a18.29956,18.29956,0,0,1-.80669,3.22673l-4.30231,3.49563-4.57121,5.109a13.73792,13.73792,0,0,0-2.68894,4.57121,3.8055,3.8055,0,0,1-1.77511,2.68894s-.10716,2.15116,0,4.30231,6.07742,6.18458,8.22858,9.41131,1.61336,2.42006,2.56223,5.3779a54.49791,54.49791,0,0,0,2.81566,6.45347c.80668,1.88226,0,1.61336,0,5.64678a35.92351,35.92351,0,0,1-1.07558,8.06684s-1.88226,2.68894-3.22674,5.109-.80668,3.22674-.80668,4.57121,1.61337,5.109,2.29334,6.18458-1.75555,5.109-2.02445,7.26015.53779,2.95784.53779,2.95784l1.48666,3.22674s4.429,6.99125,6.04239,8.06683,0,3.49563,0,3.49563l-3.49563,4.57121v6.45347l-2.54676,7.26015-11.97354,4.99305-8.60463,5.49384V882.641l-1.88226,2.062-2.94032,3.76452v8.33574l2.94032,4.8401v3.76452l-2.15116,6.40094-3.72948,1.98109m-31.8114-221.46572-3.38932-4.13071H631.203l-2.60584,4.13071-2.63587,6.93512-7.79433-6.93512-6.04936,3.849h-4.21109l-3.49447,3.0861h-7.68846m11.79677,62.52546,3.59725-3.38,3.16283-3.38H628.5972l5.57119-7.77409v-9.46637l1.12122-3.03978,2.2681-1.53743,2.06487-4.88465,3.32757-4.01748m29.115,82.09642-5.07006-5.07006v-9.46412l-3.042-3.38-4.394-3.042v-5.19289h-7.55841m25.47262,17.023-2.028-6.08408-2.028-1.69-4.04806-4.732v-1.69l-7.33624-1.352-2.47387-1.47484m-39.54648,61.97757,3.38-1.352,5.20464-4.73206,3.24547-1.69,2.32572-5.07006,3.38932-5.74607,2.06487-4.732v-7.43609l3.32757-3.38v-7.7741l5.45472-1.69,4.5994-2.77791m.67694,7.893,3.67055,2.659,2.20724,3.82039v2.09513l4.49718,4.39978s2.844,2.34117,4.45993,2.32291,2.035,1.86735,2.035,1.86735l5.65685,1.46659h1.26527l4.81061,1.67611a20.447,20.447,0,0,0,3.56173,1.46659h3.56172l2.72367,1.46659,3.56172,2.93318,3.1427,3.35221,3.18755-.96667m-50.02232-23.72891,1.68062,7.306,1.36591,6.49491,1.88562,7.752-1.04757,3.14269,1.88562,4.60929,1.78821,3.1427V846.677s2.33618,1.04757,2.47387,2.51416,3.4899,5.86637,3.4899,5.86637h2.99334l2.035,3.14269v2.72367l3.98075,3.56173,2.60017,1.93257m-23.4508-14.29385s2.623-2.09513,2.623-2.72367V847.096l2.09513-3.35221,1.15967-3.77124-3.02434-8.65289-1.48754-1.61325-1.36591-3.56172s-1.35776-.62854-1.68062-.83806a12.74783,12.74783,0,0,1-1.35325-1.6761l-2.93318-2.72367-3.1308-1.86735m5.3434-21.33149v-3.81815s-2.42211-8.18122-2.42211-8.80976v-4.82795c0-.61939-2.92129-8.7904-2.92129-8.7904s-1.99744-3.35221-1.63321-4.60929.80409-6.91393-.04438-7.9615-1.68652-4.39977-1.68652-4.39977-.26017-.77352-1.59667-1.12006-5.38161-.97507-5.45419-1.3941-2.47739-1.26949-2.47739-1.26949m8.00836-11.925-.07678,1.25229V743.806l.07678,6.90152-.07678,2.66359" transform="translate(-246.63924 -72.08759)"/>
  </g>
</svg>
