<svg xmlns="http://www.w3.org/2000/svg" viewBox="0 0 110 110"><defs><style>.cls-1{fill:#fff;}</style></defs><title>behance-black</title><g id="link-boxes"><path class="cls-1" d="M51.73,44.17a13,13,0,0,0-13-11.73H19.55V77.56H38.69a13,13,0,0,0,13-11.73A12.8,12.8,0,0,0,47.32,55,12.8,12.8,0,0,0,51.73,44.17ZM38.89,71.11H26V58.22H38.76a6.52,6.52,0,0,1,6.55,6A6.45,6.45,0,0,1,38.89,71.11Zm0-19.33H26V38.89H38.76a6.45,6.45,0,1,1,.13,12.89Z"/><path class="cls-1" d="M73.46,45.36A16.11,16.11,0,1,0,88.29,69.51l-5.58-3.23a9.67,9.67,0,0,1-17.49-1.61H90.45V61.45A16.13,16.13,0,0,0,73.46,45.36ZM65.28,58.22a9.68,9.68,0,0,1,18.24,0Z"/><rect class="cls-1" x="61.45" y="32.44" width="25.78" height="6.45"/><path d="M38.76,38.89H26V51.78H38.89a6.45,6.45,0,1,0-.13-12.89Z"/><path d="M38.76,58.22H26V71.11H38.89a6.45,6.45,0,0,0,6.42-6.94A6.52,6.52,0,0,0,38.76,58.22Z"/><path d="M74.4,51.78a9.69,9.69,0,0,0-9.12,6.44H83.52A9.69,9.69,0,0,0,74.4,51.78Z"/><path d="M93.89,0H16.11A16.11,16.11,0,0,0,0,16.11V93.89A16.11,16.11,0,0,0,16.11,110H93.67A16.38,16.38,0,0,0,110,93.67V16.11A16.11,16.11,0,0,0,93.89,0ZM61.45,32.44H87.23v6.45H61.45ZM51.73,65.83a13,13,0,0,1-13,11.73H19.55V32.44H38.69a13,13,0,0,1,13,11.73A12.8,12.8,0,0,1,47.32,55,12.8,12.8,0,0,1,51.73,65.83Zm38.72-1.16H65.22a9.67,9.67,0,0,0,17.49,1.61l5.58,3.23a16.11,16.11,0,1,1,2.16-8.06Z"/></g></svg>