<svg xmlns="http://www.w3.org/2000/svg" xmlns:xlink="http://www.w3.org/1999/xlink" viewBox="0 0 110 110"><defs><style>.cls-1{fill:none;}.cls-2{clip-path:url(#clip-path);}.cls-3{fill:#1877f2;}.cls-4{fill:#fff;}</style><clipPath id="clip-path"><rect class="cls-1" width="110" height="110"/></clipPath></defs><title>facebook</title><g id="link-boxes"><g class="cls-2"><path class="cls-3" d="M110,55a55,55,0,1,0-63.59,54.33V70.9h-14V55h14V42.88c0-13.78,8.21-21.4,20.77-21.4a84.06,84.06,0,0,1,12.31,1.08V36.09H72.56c-6.84,0-9,4.24-9,8.59V55H78.85L76.41,70.9H63.59v38.43A55,55,0,0,0,110,55Z"/></g><path class="cls-4" d="M76.41,70.9,78.85,55H63.59V44.68c0-4.35,2.13-8.59,9-8.59h6.93V22.56a84.06,84.06,0,0,0-12.31-1.08c-12.56,0-20.77,7.62-20.77,21.4V55h-14V70.9h14v38.43a55.4,55.4,0,0,0,17.18,0V70.9Z"/></g></svg>