<svg xmlns="http://www.w3.org/2000/svg" viewBox="0 0 467 112.9"><defs><style>.cls-1{fill:#fffa10;}</style></defs><title>header-name</title><g id="header-name"><path class="cls-1" d="M84.3,14C76.48,30,73.18,37.86,73.18,37.86,71.9,19.61,71.84,9.92,71.9,6.27a84.23,84.23,0,0,0-11.19,8.1c.07,14.71,2.61,45.5,2.61,45.5C54.48,83,50.48,94.19,49.08,98.19,53.72,98,59.7,95.45,61,94.88,80.23,45.16,95.62,15.62,100,7.41A53.12,53.12,0,0,0,84.3,14Z"/><path class="cls-1" d="M134.21,92.6l5.15-17.68a71.35,71.35,0,0,1-12.47,1.94C130.26,64.54,132,60.1,132,60.1c5.21-1.71,8.58-2.63,9.6-3l4.9-16.19C138.85,41.62,135,44,135,44c3.37-13.34,5.53-18.48,5.53-18.48A20,20,0,0,1,150,23L154.55,6.5a177.71,177.71,0,0,0-21.23,4.9c-8.9,25.32-20.73,76.64-22.89,86.22C121.49,97.84,132.36,93.4,134.21,92.6Z"/><path class="cls-1" d="M302.55,11.06c-12,31.82-19.84,74.13-21.43,83,5.22-1.25,10.75-5.25,12-6.16,7.75-37.74,19.45-73.78,22.31-82.45C309.61,6.73,303.63,10.38,302.55,11.06Z"/><path class="cls-1" d="M344.19,10.15c-.57,2.74-3.56,16.19-10.93,40.14,0,0,.5-20.07,1.33-45.27-2.16.91-8,3.42-13.35,5.59C319.9,15.17,309,52.8,301.09,92.83A95.48,95.48,0,0,0,313.67,88a264.84,264.84,0,0,1,8.78-35.36L321.24,100l11.25-5c1.53-5.7,15.2-58.61,25.82-88.38C356.53,6.39,352,6.27,344.19,10.15Z"/><path class="cls-1" d="M96.76,70.13c4.58-22,15.51-56.56,18.18-64.88a32.06,32.06,0,0,0-12.58,4.44c-9.8,26.8-21.11,78.57-22.7,86,6.36,6.38,23.52-4.91,25.62-6.28a238.41,238.41,0,0,0,6.36-23.94C102.55,70.7,97.65,70.25,96.76,70.13Z"/><path class="cls-1" d="M265.61,70.13c4.58-22,15.52-56.56,18.19-64.88a32.06,32.06,0,0,0-12.59,4.44c-9.79,26.8-21.11,78.57-22.7,86,6.36,6.38,23.52-4.91,25.62-6.28a235.56,235.56,0,0,0,6.36-23.94C271.4,70.7,266.5,70.25,265.61,70.13Z"/><path class="cls-1" d="M199.43,50.4c13.48-12.65,19.14-22.58,18.44-34.09-.63-10.61-16.08-11.63-31.53.68C173,63.18,168.22,90.43,167.14,96.93c14.56-1.82,29.31-12.43,36.3-21.32C210.24,66.94,208.46,53.71,199.43,50.4Zm-5.34,14.94c-1.21,6.16-7.88,10.38-12.78,12.55,0,0,2.17-12,3.95-17.34,3.37-1.71,5.59-1.59,7.05-.57A5.41,5.41,0,0,1,194.09,65.34Zm-5.53-19.61s2.35-8.1,5.72-19.62c3.88-1.82,6.23-2.05,7.38-1,1.21,1.25,1.14,3.76-.19,6.73A33.9,33.9,0,0,1,188.56,45.73Z"/><path class="cls-1" d="M244.38,5.7c-11.25,1.37-23.78,18.48-29.82,52.91-5.91,33.53,5.6,39.12,14.24,34.9s21-26.11,25.82-49.95S253.41,4.56,244.38,5.7Zm-1.72,41.74c-2.67,10.49-7.31,22.24-11,25.66-7.56,7.18-9-8.56-6.42-19.27,2-8.1,8.2-26.69,16-27.49C245.84,25.89,245.59,36.15,242.66,47.44Z"/><path class="cls-1" d="M97,19.39c.18-.6.37-1.19.55-1.78l-1,2Z"/><path class="cls-1" d="M454.81,6.27c-7.19,1.6-16.47,8.55-22.89,16.08-7.69,26.46-15.13,63.29-17,72.53a45.79,45.79,0,0,1,10.3-4.45l5.34-22.69,7.18,29.19a19.5,19.5,0,0,0,9.35-7.75L441,65c20.66-18.47,23.71-44.13,23.71-44.13C466.51,8.21,462.12,4.56,454.81,6.27ZM450.55,30.9c-.06.35-2.1,9.24-16.09,21.67L440.76,30c2-1.82,4.64-4.1,6.74-4.9S451.82,25.09,450.55,30.9Z"/><path class="cls-1" d="M32.3,36c5.27-19,7.75-26.92,8.83-30.22A40.9,40.9,0,0,0,29,10.61C18.69,42.31,9.22,88.72,7.31,98.3c3.82-1.26,9.41-4.79,10.75-5.59,1.78-8.89,4.32-21.44,7.56-30.33C27,86.21,28.55,95.9,29.05,99,36.18,93.4,39.1,88.72,39.93,87.35c-3.63-20.87-3.69-34.67-3.69-35.46C45,42.3,50.58,36.46,53.9,33.08c-.11-3-.18-5.69-.18-8,0,0,1.24-1.15,3.79-3.1-.2-4.29-.58-8.79-1-12.41C42.53,25.32,32.3,36,32.3,36Z"/><path class="cls-1" d="M399.75,76.86c3.37-12.32,5.09-16.76,5.09-16.76,5.21-1.71,8.58-2.63,9.6-3l4.89-16.19c-7.62.68-11.44,3.08-11.44,3.08,3.37-13.34,5.53-18.48,5.53-18.48a19.93,19.93,0,0,1,9.41-2.5L427.41,6.5a178.79,178.79,0,0,0-21.24,4.9c-8.9,25.32-20.72,76.64-22.88,86.22,11.06.22,21.93-4.22,23.77-5l5.15-17.68A71.17,71.17,0,0,1,399.75,76.86Z"/><path class="cls-1" d="M372.23,46.41a166.56,166.56,0,0,0-5.53,16l8.32-3c-1.2,9.35-7.24,21.78-14,16.77-5.41-4.11-.19-27.14,5.27-36.72,5.15-8.9,11.26-16.77,18.25-14.94a187.43,187.43,0,0,1,6.93-21.1c-11.06.69-26.77,9-36.3,38.77-10.11,31.48-7.06,52.92,4.89,53.6,12.21.57,24.67-28.39,30.39-54.51C386.21,42,377.82,43.79,372.23,46.41Z"/><path d="M36.24,51.89c0,.79.06,14.59,3.69,35.46C39.1,88.72,36.18,93.4,29.05,99c-.5-3.08-2-12.77-3.43-36.6-3.24,8.89-5.78,21.44-7.56,30.33-1.34.8-6.93,4.33-10.75,5.59,1.91-9.58,11.38-56,21.68-87.69A40.9,40.9,0,0,1,41.13,5.82C40.05,9.12,37.57,17,32.3,36c0,0,10.23-10.72,24.16-26.46.47,3.62.85,8.12,1,12.41.45-.35,1-.72,1.49-1.12-.1-2.36-.16-4.59-.18-6.63-.31-3.36-.72-6.77-1.22-10.13C47.43,15.74,40.75,23,36.94,27.14c4.89-17.1,7.88-25.2,7.88-25.2a42.85,42.85,0,0,0-17.1,5.81q-1.91,5.82-3.81,12.32c-.58.34-1.15.57-1.72.91C10.62,56.56,0,111.07,0,111.07c4.39-.91,12.21-6.16,12.21-6.16.38-1.82.76-3.87,1.2-6,3.5-1.83,6.11-3.54,6.11-3.54L20,93.05c1.21,13.8,2.36,18.93,2.36,18.93,9.28-7.07,12-11.86,12-11.86l-.13-1.82C39.8,92.94,41.58,89.06,42,88a249.33,249.33,0,0,1-3.75-32.5C48.38,44.59,51.88,41.4,51.88,41.4c.06-.69.06-1.49.06-2.4.77-.81,1.47-1.53,2.11-2.19,0-1.27-.11-2.52-.15-3.73C50.58,36.46,45,42.3,36.24,51.89Z"/><path d="M96.48,19.64l1-2c1.22-3.88,2.43-7.5,3.65-10.77.16-.08,1.11-.7,2.76-1.5.81-1.49,1.24-2.26,1.24-2.26-13.41,2.28-21.61,7.87-22,8.1-4.39,9-7.06,14.71-8.65,18.13-1-16.88-.57-27.83-.57-27.83-10.49,6.27-15.13,11-15.13,11,0,.58,0,1.19,0,1.81a153.73,153.73,0,0,1,.69,17.23s-1.64,1.43-5.46,5.34c.71,15.23,2.28,34.12,2.28,34.12-11.38,29.76-14.75,39.8-14.75,39.8C46.92,111,55,107.31,55,107.31c1-2.62,2-5.25,3-7.87,2.48-.8,4.07-1.48,4.07-1.48,12.47-32.22,24-57.31,32-73.58.5-1.46,1-2.86,1.49-4.2A8.23,8.23,0,0,1,96.48,19.64ZM61,94.88c-1.27.57-7.25,3.08-11.89,3.31,1.4-4,5.4-15.17,14.24-38.32,0,0-2.54-30.79-2.61-45.5A84.23,84.23,0,0,1,71.9,6.27c-.06,3.65,0,13.34,1.28,31.59,0,0,3.3-7.87,11.12-23.83A53.12,53.12,0,0,1,100,7.41C95.62,15.62,80.23,45.16,61,94.88Z"/><path d="M53.9,33.08c2-2.09,3.23-3.25,3.76-3.77,0-2.2,0-4.72-.15-7.32-2.55,2-3.79,3.1-3.79,3.1C53.72,27.39,53.79,30.12,53.9,33.08Z"/><path d="M58.82,14.24c0,2,.08,4.27.18,6.63-.54.4-1,.77-1.49,1.12.12,2.6.18,5.12.15,7.32-.53.52-1.72,1.68-3.76,3.77,0,1.21.1,2.46.15,3.73,3.82-3.91,5.46-5.34,5.46-5.34A153.73,153.73,0,0,0,58.82,14.24Z"/><path d="M114.56,60.1c-8.52,5.13-12.78,6.27-15.07,6.61C104.9,42.88,117.17,5.25,118.38,1.6a40.59,40.59,0,0,0-14.47,3.74c-1.28,2.35-3.48,6.48-6.41,12.27-.18.59-.37,1.18-.55,1.78l-.47.25c-.74,1.48-1.53,3.07-2.35,4.74-10.26,30-21.59,83.16-21.59,83.16,6.61,8.21,26.83-5.82,26.83-5.82.76-2.28,1.4-4.45,2-6.5a45.86,45.86,0,0,0,5.28-3.08A262.51,262.51,0,0,0,114.56,60.1ZM79.66,95.68c1.59-7.42,12.9-59.19,22.7-86a32.06,32.06,0,0,1,12.58-4.44c-2.67,8.32-13.6,42.87-18.18,64.88.89.12,5.79.57,14.88-4.67a238.41,238.41,0,0,1-6.36,23.94C103.18,90.77,86,102.06,79.66,95.68Z"/><path d="M97.5,17.61c2.93-5.79,5.13-9.92,6.41-12.27-1.65.8-2.6,1.42-2.76,1.5C99.93,10.11,98.72,13.73,97.5,17.61Z"/><path d="M95.62,20.18c-.5,1.34-1,2.74-1.49,4.2.82-1.67,1.61-3.26,2.35-4.74A8.23,8.23,0,0,0,95.62,20.18Z"/><path d="M127.91,21.44l-1.33.34c-9.92,27.83-23.46,88.27-23.46,88.27,12.59.68,25.17-5,25.17-5l2.17-7.53a41.7,41.7,0,0,0,5-1.94l7.31-25.2A70.91,70.91,0,0,1,130,73.21l.64-2.17c3.17-.91,4.95-1.36,4.95-1.36l2.42-8c2.93-.91,4.77-1.36,4.77-1.36l7-23c-6.55.46-9.47,1-11.31,1.6.25-1,.57-1.94.76-2.74a15.19,15.19,0,0,1,4.77-.46l2.41-8.78a16.24,16.24,0,0,1,4.71-.34l6.67-24.06c-18,3.19-25.62,5.81-25.62,5.81C130.77,12.2,129.37,16.54,127.91,21.44ZM154.55,6.5,150,23a20,20,0,0,0-9.41,2.5S138.4,30.68,135,44c0,0,3.82-2.4,11.45-3.08l-4.9,16.19c-1,.34-4.39,1.26-9.6,3,0,0-1.72,4.44-5.09,16.76a71.35,71.35,0,0,0,12.47-1.94L134.21,92.6c-1.85.8-12.72,5.24-23.78,5,2.16-9.58,14-60.9,22.89-86.22A177.71,177.71,0,0,1,154.55,6.5Z"/><path d="M192.31,60c-1.46-1-3.68-1.14-7.05.57-1.78,5.36-3.95,17.34-3.95,17.34,4.9-2.17,11.57-6.39,12.78-12.55A5.41,5.41,0,0,0,192.31,60Zm-8,12.89.19-.91c.32.11.64.23.89.34A6.35,6.35,0,0,1,184.3,72.87Z"/><path d="M209.44,60.46c-.44-4.19-1.93-8-4.35-10.4,1-1.37,1.72-2.62,2.48-3.88,8.27-9.12,12.91-18.7,12.21-30.33-.76-13-18.5-14.71-34.78-1.6-1.14,4-2.29,7.87-3.3,11.52-.7.57-1.47,1.14-2.17,1.71C164,81.19,160,109.59,160,109.59c14.94-1.48,30.26-12.43,37.51-21.67a20.2,20.2,0,0,0,2.74-4.79,41.61,41.61,0,0,0,4.32-4.79,22.74,22.74,0,0,0,2.25-3.51c.22-1.65.48-3.36.8-5.15C208.14,66.45,208.77,63.38,209.44,60.46Zm-6,15.15c-7,8.89-21.74,19.5-36.3,21.32,1.08-6.5,5.85-33.75,19.2-79.94,15.45-12.31,30.9-11.29,31.53-.68.7,11.51-5,21.44-18.44,34.09C208.46,53.71,210.24,66.94,203.44,75.61Z"/><path d="M201.66,25.09c-1.15-1-3.5-.8-7.38,1-3.37,11.52-5.72,19.62-5.72,19.62a33.9,33.9,0,0,0,12.91-13.91C202.8,28.85,202.87,26.34,201.66,25.09Zm-9,14.25.64-2.28a2.28,2.28,0,0,1,1.33.23C194,38,193.27,38.66,192.63,39.34Z"/><path d="M241.26,26.34c-7.82.8-14,19.39-16,27.49-2.6,10.71-1.14,26.45,6.42,19.27,3.69-3.42,8.33-15.17,11-25.66C245.59,36.15,245.84,25.89,241.26,26.34Zm-7.88,40A12.18,12.18,0,0,1,230.77,70c-5.53,5.24-5.72-7.07-3.81-14.83a88.39,88.39,0,0,1,5.4-15.39,5.71,5.71,0,0,1,2.55-.91C240.25,38.32,237.7,53.48,233.38,66.37Z"/><path d="M256.46,44.7c5-25-1.14-43.79-12.21-42.42s-20.21,15.51-26,32.5c-3.43,6.68-6.42,15.24-8.81,25.68a26,26,0,0,1-2.67,14.37c-4.05,30.11,7.31,35.33,15.87,31.22,3.68-1.82,8-6.72,12.14-13.45C242,85,249.7,70.14,254.34,53.48l.6-2.22Q255.78,48,256.46,44.7ZM228.8,93.51c-8.64,4.22-20.15-1.37-14.24-34.9,6-34.43,18.57-51.54,29.82-52.91,9-1.14,15,14,10.24,37.86S237.58,89.29,228.8,93.51Z"/><path d="M209.44,60.46c-.67,2.92-1.3,6-1.87,9.22-.32,1.79-.58,3.5-.8,5.15A26,26,0,0,0,209.44,60.46Z"/><path d="M268.35,66.71C273.75,42.88,286,5.25,287.23,1.6A38,38,0,0,0,270,6.84c-1.4,3.77-2.8,8-4.2,12.55a9.07,9.07,0,0,0-1.33.79c-3.14,8.53-6.44,19.65-9.53,31.08q-.28,1.11-.6,2.22c-7.1,26.58-13,54.06-13,54.06,6.61,8.21,26.83-5.82,26.83-5.82.76-2.28,1.4-4.45,2-6.5a45.86,45.86,0,0,0,5.28-3.08q.9-2.9,1.7-5.65c1.59-7.58,3.64-16.69,6.09-26.3C274.85,65.24,270.62,66.37,268.35,66.71Zm5.78,22.69c-2.1,1.37-19.26,12.66-25.62,6.28,1.59-7.42,12.91-59.19,22.7-86A32.06,32.06,0,0,1,283.8,5.25c-2.67,8.32-13.61,42.87-18.19,64.88.89.12,5.79.57,14.88-4.67A235.56,235.56,0,0,1,274.13,89.4Z"/><path d="M254.34,53.48q.32-1.11.6-2.22Z"/><path d="M319,1.48a50.28,50.28,0,0,0-17.74,6.73c-1.46,3.88-2.86,8-4.26,12.09-1.21.68-1.91,1.14-1.91,1.14a376.36,376.36,0,0,0-11.85,38.75l.15-.09a255.73,255.73,0,0,1-6.24,26.39c-2.55,12.16-3.93,20.36-3.93,20.36,6.23-1.14,13.35-6.73,13.35-6.73.38-1.82.76-3.53,1.15-5.36a41.31,41.31,0,0,0,6.86-4.33C303.63,46.41,319,1.48,319,1.48Zm-37.9,92.6c1.59-8.89,9.41-51.2,21.43-83,1.08-.68,7.06-4.33,12.84-5.59-2.86,8.67-14.56,44.71-22.31,82.45C291.87,88.83,286.34,92.83,281.12,94.08Z"/><path d="M283.26,60.19c-2.45,9.61-4.5,18.72-6.09,26.3a255.73,255.73,0,0,0,6.24-26.39Z"/><path d="M342.73,7.3s-.89,4.45-2.8,12.09c-.83.34-1.65.68-2.54,1.14,0,0-.51,2.39-1.59,6.84.19-7,.51-16,.83-26.8L320,7.64s-1.4,4.68-3.56,12.54l-2,.92s-12.21,41.16-20.67,84.61a111.09,111.09,0,0,0,14.05-5.36c.45-2.28.9-4.56,1.34-6.95,1.84-.69,3.75-1.49,5.59-2.28l-.5,21.78,12.39-5.48s.64-2.62,1.78-7.07L333.89,98c.26-1,15.32-60.1,27.53-93.63C359.45,3.42,354.55,1.37,342.73,7.3ZM332.49,95l-11.25,5,1.21-47.33A264.84,264.84,0,0,0,313.67,88a95.48,95.48,0,0,1-12.58,4.79c7.88-40,18.81-77.66,20.15-82.22,5.34-2.17,11.19-4.68,13.35-5.59-.83,25.2-1.33,45.27-1.33,45.27,7.37-23.95,10.36-37.4,10.93-40.14,7.82-3.88,12.34-3.76,14.12-3.54C347.69,36.38,334,89.29,332.49,95Z"/><path d="M371.15,43.45a114.29,114.29,0,0,0-4.71,13c-.32.11-.64.23-.89.34a128.66,128.66,0,0,0-5.09,14.14c-1.9-6.27,3.06-21.78,7.19-29a11.62,11.62,0,0,1,.76-1.26c3.18-3.08,6.55-4.67,10.17-3.53.83-3.2,1.72-6.28,2.61-9.13a8.72,8.72,0,0,1,4.51.23A228.08,228.08,0,0,1,395.31,0c-13.74.11-30.71,7.75-41.14,38.43A96.88,96.88,0,0,0,348.26,53c-10.05,31.36-7.5,54.62,5.47,55.3,5.91.23,11.82-6,17-15.5,8.14-8.67,16.59-26.57,22.57-55.31C387.48,38.2,377.76,40.25,371.15,43.45ZM360.08,95.79c-11.95-.68-15-22.12-4.89-53.6,9.53-29.76,25.24-38.08,36.3-38.77a187.43,187.43,0,0,0-6.93,21.1c-7-1.83-13.1,6-18.25,14.94C360.85,49,355.63,72.07,361,76.18c6.74,5,12.78-7.42,14-16.77l-8.32,3a166.56,166.56,0,0,1,5.53-16c5.59-2.62,14-4.44,18.24-5.13C384.75,67.4,372.29,96.36,360.08,95.79Z"/><path d="M402.87,73.21,403.5,71c3.18-.91,5-1.36,5-1.36l2.42-8c2.92-.91,4.77-1.36,4.77-1.36l7-23c-6.55.46-9.47,1-11.32,1.6.26-1,.58-1.94.77-2.74a15.19,15.19,0,0,1,4.77-.46l2.41-8.78a16.24,16.24,0,0,1,4.71-.34l6.67-24.06C412.66,5.7,405,8.32,405,8.32c-1.4,3.88-2.8,8.22-4.26,13.12l-1.33.34C389.52,49.61,376,110.05,376,110.05c12.59.68,25.18-5,25.18-5l2.16-7.53a41.51,41.51,0,0,0,5-1.94L415.4,71.2c.07-.27.13-.55.19-.82A71.27,71.27,0,0,1,402.87,73.21Zm4.19,19.39c-1.84.8-12.71,5.24-23.77,5,2.16-9.58,14-60.9,22.88-86.22a178.79,178.79,0,0,1,21.24-4.9L422.83,23a19.93,19.93,0,0,0-9.41,2.5s-2.16,5.14-5.53,18.48c0,0,3.82-2.4,11.44-3.08l-4.89,16.19c-1,.34-4.39,1.26-9.6,3,0,0-1.72,4.44-5.09,16.76a71.17,71.17,0,0,0,12.46-1.94Z"/><path d="M454.55,2.85c-7.56,1.71-17.22,9-24.09,17.11-.95,3.19-1.84,6.61-2.8,10.15-.89.91-1.78,1.93-2.61,2.85-3.33,11.52-6.63,25-9.46,37.42l.06,0-.25.84c-4.56,20.07-7.83,36.91-7.83,36.91,7.82-4.56,11.76-5.14,11.76-5.14l1.72-7.41a24.7,24.7,0,0,1,5.47-1.82l.32-1.26L431,109.7a20.62,20.62,0,0,0,10.55-8.89l-.57-2a21.8,21.8,0,0,0,8.39-8.9L443.81,68c1.53-2.06,2.86-4,4.13-5.93,15.39-17.45,18.31-38.66,18.57-40.37C468.92,5,462.06,1.14,454.55,2.85Zm10.11,18S461.61,46.53,441,65l6.17,24.18a19.5,19.5,0,0,1-9.35,7.75l-7.18-29.19-5.34,22.69A45.79,45.79,0,0,0,415,94.88c1.84-9.24,9.28-46.07,17-72.53,6.42-7.53,15.7-14.48,22.89-16.08S466.51,8.21,464.66,20.87Z"/><path d="M447.5,25.09c-2.1.8-4.77,3.08-6.74,4.9l-6.3,22.58c14-12.43,16-21.32,16.09-21.67C451.82,25.09,449.6,24.18,447.5,25.09ZM438.79,44.7l1.91-7c1.65-.69,2.92-.8,3.17,1A69.2,69.2,0,0,1,438.79,44.7Z"/><path d="M415.59,70.38c-.06.27-.12.55-.19.82l.25-.84Z"/></g></svg>