<svg id="Layer_1" data-name="Layer 1" xmlns="http://www.w3.org/2000/svg" xmlns:xlink="http://www.w3.org/1999/xlink" width="32" height="32" viewBox="0 0 32 32">
  <defs>
    <style>
      .cls-1 {
        fill: url(#linear-gradient);
      }

      .cls-2 {
        fill: #070707;
      }
    </style>
    <linearGradient id="linear-gradient" x1="0.35" y1="11.43" x2="31.08" y2="20.4" gradientUnits="userSpaceOnUse">
      <stop offset="0.5" stop-color="#1aa8e7"/>
      <stop offset="0.5" stop-color="#0992c9"/>
    </linearGradient>
  </defs>
  <g>
    <path class="cls-1" d="M16,0A16,16,0,1,0,32,16,16,16,0,0,0,16,0ZM10.63,23a.51.51,0,0,1-.39.16A.51.51,0,0,1,9.86,23L3.29,16.38a.53.53,0,0,1,0-.77L9.86,9a.55.55,0,0,1,.38-.16.55.55,0,0,1,.39.16l1.42,1.43a.55.55,0,0,1,.16.38.55.55,0,0,1-.16.39L7.29,16l4.76,4.76a.55.55,0,0,1,0,.77Zm3.79,2.45a.54.54,0,0,1-.52.39.44.44,0,0,1-.16,0l-1.15-.34a.54.54,0,0,1-.33-.26.56.56,0,0,1,0-.42L17.58,6.6a.55.55,0,0,1,.68-.37l1.15.34a.54.54,0,0,1,.33.26.56.56,0,0,1,0,.42ZM22.14,23a.55.55,0,0,1-.38.16.57.57,0,0,1-.39-.16L20,21.53a.55.55,0,0,1,0-.77L24.71,16,20,11.24a.55.55,0,0,1,0-.77L21.37,9a.57.57,0,0,1,.77,0l6.57,6.57a.53.53,0,0,1,0,.77Z"/>
    <path class="cls-2" d="M28.71,15.61,22.14,9a.57.57,0,0,0-.77,0L20,10.47a.55.55,0,0,0,0,.77L24.71,16,20,20.76a.55.55,0,0,0,0,.77L21.37,23a.57.57,0,0,0,.39.16.55.55,0,0,0,.38-.16l6.57-6.58A.53.53,0,0,0,28.71,15.61Z"/>
    <path class="cls-2" d="M12.05,20.76,7.29,16l4.76-4.76a.55.55,0,0,0,.16-.39.55.55,0,0,0-.16-.38L10.63,9a.55.55,0,0,0-.39-.16A.55.55,0,0,0,9.86,9L3.29,15.61a.53.53,0,0,0,0,.77L9.86,23a.51.51,0,0,0,.38.16.51.51,0,0,0,.39-.16l1.42-1.42A.55.55,0,0,0,12.05,20.76Z"/>
    <path class="cls-2" d="M19.74,6.83a.54.54,0,0,0-.33-.26l-1.15-.34a.55.55,0,0,0-.68.37L12.22,24.75a.56.56,0,0,0,0,.42.54.54,0,0,0,.33.26l1.15.34a.44.44,0,0,0,.16,0,.54.54,0,0,0,.52-.39L19.78,7.25A.56.56,0,0,0,19.74,6.83Z"/>
  </g>
</svg>
