<?xml version="1.0" encoding="utf-8"?>
<!-- Generator: Adobe Illustrator 24.1.2, SVG Export Plug-In . SVG Version: 6.00 Build 0)  -->
<svg version="1.1" id="Layer_1" xmlns="http://www.w3.org/2000/svg" xmlns:xlink="http://www.w3.org/1999/xlink" x="0px" y="0px"
	 viewBox="0 0 100 100" style="enable-background:new 0 0 100 100;" xml:space="preserve">
<style type="text/css">
	.st0{fill:#FFFFFF;}
</style>
<g>
	<path d="M100,55.1c0,15,0,29.9,0,44.9c-33.3,0-66.7,0-100,0C0,66.7,0,33.3,0,0c33.3,0,66.7,0,100,0c0,17.6,0,35.3,0,52.9
		c-0.5-5.1-2.3-9.8-5.2-14c-0.3-0.4-0.1-1.4,0.1-2c1-2.2,2.1-4.3,3.3-6.8c-5.1,0-10,0-14.9,0c-0.9,0-2-0.3-2.6-0.8
		c-3.5-3.5-7.9-5.4-12.7-6.5c-11-2.7-22.2-2.7-33.3-0.8c-5.1,0.9-10.3,2-14.2,5.7c-2.3,2.2-4.6,2.7-7.5,2.6c-4-0.1-7.9,0-12,0
		c1.2,2.4,2.3,4.6,3.4,6.8C5.1,38.3,5,39.6,4.1,41c-2.4,3.7-3.6,7.9-3.8,12.4c-0.9,17.4,16.8,31.4,34.5,24.2
		c3.6-1.5,6.8-4.1,10.3-6.3c1.5,2.1,3.3,4.5,5.3,7.3c1.7-2.8,3.3-5.4,4.9-8.1c0.7,0.6,1.2,1.1,1.7,1.6c11.9,11.8,32.3,9.2,40-6.3
		C98.6,62.6,99,58.7,100,55.1z"/>
	<path class="st0" d="M100,55.1c-1,3.6-1.4,7.5-3.1,10.8c-7.8,15.5-28.1,18.1-40,6.3c-0.5-0.5-1.1-1-1.7-1.6
		c-1.6,2.7-3.2,5.3-4.9,8.1c-2-2.8-3.8-5.2-5.3-7.3c-3.5,2.2-6.7,4.8-10.3,6.3C17.1,84.8-0.6,70.8,0.3,53.4
		c0.2-4.5,1.4-8.6,3.8-12.4c0.9-1.4,1.1-2.7,0.3-4.1c-1.1-2.1-2.2-4.3-3.4-6.8c4.1,0,8.1-0.1,12,0c2.9,0.1,5.2-0.4,7.5-2.6
		c3.9-3.6,9.1-4.8,14.2-5.7c11.1-1.8,22.3-1.8,33.3,0.8c4.7,1.1,9.1,3,12.7,6.5c0.6,0.6,1.7,0.8,2.6,0.8c4.9,0.1,9.7,0,14.9,0
		c-1.2,2.5-2.3,4.6-3.3,6.8c-0.3,0.6-0.5,1.6-0.1,2c3,4.2,4.7,8.8,5.2,14C100,53.6,100,54.4,100,55.1z M5.3,54.3
		c0,11.2,8.8,20.2,20,20.3c11,0.1,20.1-9.1,20.2-20.2c0.1-11.1-8.9-20-20.2-20.1C14.2,34.2,5.4,43.1,5.3,54.3z M94.7,54.3
		c0-11.6-8.9-20.1-21-20.1c-10.2,0-19.1,9.3-19.2,20c0,11,9.1,20.3,20.1,20.3C86.9,74.5,95.5,63.7,94.7,54.3z"/>
	<path d="M5.3,54.3c0-11.2,8.9-20,20-20c11.3,0,20.3,8.9,20.2,20.1c-0.1,11.1-9.2,20.3-20.2,20.2C14.2,74.5,5.3,65.5,5.3,54.3z
		 M25.4,66.4c6.7,0,12.1-5.4,12.1-12.2c0-6.8-5.5-12-12.5-11.9c-6.3,0-11.6,5.5-11.6,11.9C13.4,61.1,18.6,66.4,25.4,66.4z"/>
	<path d="M94.7,54.3c0.7,9.4-7.9,20.2-20,20.3c-11,0-20.2-9.2-20.1-20.3c0-10.7,9-20,19.2-20C85.9,34.2,94.7,42.7,94.7,54.3z
		 M86.7,54.4c0-6.9-5.2-12.1-12-12.2c-6.7,0-12.2,5.4-12.1,12.1c0.1,6.7,5.5,12.1,12.2,12.1C81.3,66.4,86.7,61,86.7,54.4z"/>
	<path class="st0" d="M25.4,66.4c-6.7,0-12-5.3-12-12.2c0-6.4,5.3-11.9,11.6-11.9c7,0,12.5,5.2,12.5,11.9
		C37.5,61,32.1,66.4,25.4,66.4z M33.6,54.3c0-4.6-3.6-8.2-8.3-8.2c-4.4,0-8.2,3.7-8.2,8.2c0,4.7,3.5,8.3,8.2,8.3
		C30.1,62.6,33.5,59.1,33.6,54.3z"/>
	<path class="st0" d="M86.7,54.4c0,6.6-5.4,12-11.9,12c-6.7,0-12.1-5.4-12.2-12.1c-0.1-6.7,5.4-12.1,12.1-12.1
		C81.5,42.3,86.7,47.6,86.7,54.4z M74.8,46.1c-4.7,0-8.3,3.6-8.3,8.3c0,4.6,3.6,8.2,8.1,8.2c4.6,0,8.4-3.7,8.5-8.2
		C83.1,49.9,79.3,46.1,74.8,46.1z"/>
	<path d="M33.6,54.3c0,4.8-3.5,8.3-8.2,8.3c-4.7,0-8.3-3.6-8.2-8.3c0-4.5,3.7-8.2,8.2-8.2C30,46.1,33.6,49.7,33.6,54.3z M25.4,58.5
		c2.1,0,4-1.8,4-3.9c0-2.3-1.7-4.1-4-4.2c-2.2-0.1-4,1.6-4.1,3.8C21.2,56.5,23,58.4,25.4,58.5z"/>
	<path d="M74.8,46.1c4.6,0,8.4,3.8,8.3,8.3c-0.1,4.5-3.9,8.2-8.5,8.2c-4.5,0-8.1-3.7-8.1-8.2C66.5,49.7,70.1,46.1,74.8,46.1z
		 M78.7,54.4c0-2.4-1.5-4-3.9-4c-2.2,0-4.1,1.8-4.1,4c0,2.2,1.9,4.1,4.1,4.2C76.9,58.5,78.7,56.7,78.7,54.4z"/>
	<path class="st0" d="M25.4,58.5c-2.3-0.1-4.2-2-4.1-4.4c0.1-2.1,1.9-3.8,4.1-3.8c2.3,0.1,4,1.9,4,4.2
		C29.4,56.6,27.5,58.5,25.4,58.5z"/>
	<path class="st0" d="M78.7,54.4c0,2.3-1.8,4.2-3.9,4.2c-2.2,0-4.1-2-4.1-4.2c0-2.2,1.9-4.1,4.1-4C77.2,50.4,78.7,51.9,78.7,54.4z"
		/>
</g>
</svg>
