<?xml version="1.0" encoding="utf-8"?>
<!-- Generator: Adobe Illustrator 24.1.2, SVG Export Plug-In . SVG Version: 6.00 Build 0)  -->
<svg version="1.1" id="Layer_1" xmlns="http://www.w3.org/2000/svg" xmlns:xlink="http://www.w3.org/1999/xlink" x="0px" y="0px"
	 viewBox="0 0 100 100" style="enable-background:new 0 0 100 100;" xml:space="preserve">
<style type="text/css">
	.st0{fill:#FFFFFF;}
</style>
<g>
	<path d="M49.9,100c-10.4,0-20.9,0-31.3,0C8.4,100,0,91.6,0,81.5c0-21,0-42,0-62.9C0,8.4,8.4,0,18.5,0c21,0,42,0,62.9,0
		C91.6,0,100,8.4,100,18.5c0,21,0,42,0,62.9c0,10.1-8.4,18.5-18.5,18.5C70.9,100,60.4,100,49.9,100z M23.5,44.1
		c0.4,6.1,3.7,10,9.5,11.9c0,0.1-0.1,0.2-0.1,0.3c-1.6,0-3.3,0-5,0c0.9,2.6,2.3,4.5,4.3,6c2,1.5,4.3,2.3,7.1,2.5
		c-5.4,4.1-11.2,5.7-17.9,5.2c0.6,0.4,0.9,0.6,1.2,0.8c7.6,4.3,15.6,5.5,24.1,4c17.8-3.2,28.1-19.3,28.1-34.4c0-1.2,0.3-1.9,1.2-2.6
		c1.8-1.4,3.3-3,4.6-5c-2.2,0.6-4.2,1.1-6.3,1.7c-0.1-0.1-0.1-0.2-0.2-0.3c2.3-1.6,4-3.5,4.9-6.1c-2.2,0.8-4.3,1.5-6.4,2.3
		c-0.7,0.3-1.3,0.1-2-0.5c-3.6-3.1-7.8-4.1-12.3-2.4c-4.5,1.6-7.2,4.9-8,9.6c-0.2,1.5,0,3.1,0,4.7c-10.2-0.7-18.6-5-25.2-12.7
		c-3.2,4.3-2,10.3,3.3,16.3C26.9,45,25.3,44.6,23.5,44.1z"/>
	<path class="st0" d="M23.5,44.1c1.8,0.5,3.5,0.9,5.1,1.3c-5.2-6-6.5-12-3.3-16.3c6.6,7.7,15,11.9,25.2,12.7c0-1.6-0.2-3.2,0-4.7
		c0.7-4.7,3.5-8,8-9.6c4.5-1.6,8.7-0.7,12.3,2.4c0.7,0.6,1.2,0.7,2,0.5c2.1-0.7,4.2-1.5,6.4-2.3c-0.9,2.6-2.6,4.6-4.9,6.1
		c0.1,0.1,0.1,0.2,0.2,0.3c2-0.5,4.1-1.1,6.3-1.7c-1.3,1.9-2.8,3.6-4.6,5c-0.9,0.7-1.2,1.4-1.2,2.6c0,15.1-10.3,31.2-28.1,34.4
		c-8.5,1.5-16.6,0.3-24.1-4c-0.3-0.2-0.7-0.4-1.2-0.8c6.7,0.5,12.5-1.1,17.9-5.2c-2.8-0.3-5.1-1-7.1-2.5c-2-1.5-3.4-3.4-4.3-6
		c1.7,0,3.4,0,5,0c0-0.1,0.1-0.2,0.1-0.3C27.2,54.1,23.9,50.3,23.5,44.1z"/>
</g>
</svg>
