<?xml version="1.0" encoding="utf-8"?>
<!-- Generator: Adobe Illustrator 24.1.2, SVG Export Plug-In . SVG Version: 6.00 Build 0)  -->
<svg version="1.1" id="Layer_1" xmlns="http://www.w3.org/2000/svg" xmlns:xlink="http://www.w3.org/1999/xlink" x="0px" y="0px"
	 viewBox="0 0 100 100" style="enable-background:new 0 0 100 100;" xml:space="preserve">
<style type="text/css">
	.st0{fill:#FFFFFF;}
</style>
<g>
	<path d="M44.9,100c-14.9,0-29.9,0-44.9,0C0,66.7,0,33.3,0,0c14.1,0,28.1,0,42.2,0c-0.6,0.2-1.3,0.3-1.9,0.5
		c-5.6,1.7-11.3,3-16.7,5.1C19.8,7.1,19,9,21.4,12.8C28,22.8,34.3,33,40.8,43c0.8,1.2,1.6,2.3,2.6,3.3c1.3,1.4,3,2.1,4.6,1.1
		c1.2-0.7,2-2.2,2.6-3.5c0.4-0.9,0.2-2.2,0.1-3.3c-0.7-11.6-1.5-23.2-2.2-34.7C48.2,1.6,48,1.3,44,0c18.7,0,37.3,0,56,0
		c0,33.3,0,66.7,0,100c-17.5,0-35,0-52.5,0c1.3-0.8,2.7-1.5,2.7-3.4c0-7.7,0.1-15.4,0.1-23.1c0-1.9-0.9-3.1-2.5-3.8
		c-1.7-0.7-3.5-0.7-4.9,0.9c-5,5.8-10.1,11.6-15,17.5c-1.5,1.8-1.2,3.8,0.7,5.2c1.5,1.1,3.2,2.2,4.9,2.9
		C37.3,97.7,41.1,98.8,44.9,100z M61.5,56.7c8.4-2.2,16.5-4.1,24.5-6.3c1.6-0.4,2.4-2.2,1.8-3.9c-2-6.4-5.6-11.9-10.9-16.1
		c-1.8-1.4-3.5-1-5.1,0.8c-1.1,1.3-2.1,2.7-3.1,4c-3.5,4.7-6.9,9.4-10.4,14.1c-1.1,1.5-1.2,3.2-0.2,4.6C59,55,60.4,55.8,61.5,56.7z
		 M88.6,75.5c-0.1-2.1-1.3-3-3-3.5c-6.9-2.3-13.9-4.5-20.8-6.8c-2.1-0.7-3.9-0.5-5.3,1.5c-1.3,1.9-1.1,3.7,0.1,5.6
		c3.6,5.7,7.2,11.5,10.8,17.3c2.3,3.6,4.3,3.9,7.6,1.2c4-3.4,7.1-7.5,9.6-12.1C88,77.7,88.2,76.6,88.6,75.5z M11.7,59.3
		c0.2,2.7,0.3,4.8,0.6,6.8c0.7,4,2.5,5.1,6.2,4c6.9-2.1,13.8-4.4,20.7-6.6c2-0.6,2.8-2.1,2.8-4c0.1-1.9-0.8-3.5-2.6-4.2
		c-6.8-2.8-13.5-5.5-20.3-8.2c-3.4-1.3-5.3-0.3-6.1,3.2C12.3,53.4,12.1,56.7,11.7,59.3z"/>
	<path class="st0" d="M44,0c4,1.3,4.2,1.6,4.4,5.9c0.7,11.6,1.5,23.2,2.2,34.7c0.1,1.1,0.3,2.4-0.1,3.3c-0.6,1.3-1.4,2.8-2.6,3.5
		c-1.6,1-3.3,0.3-4.6-1.1c-0.9-1-1.8-2.2-2.6-3.3C34.3,33,28,22.8,21.4,12.8C19,9,19.8,7.1,23.7,5.6C29,3.4,34.7,2.1,40.3,0.5
		c0.6-0.2,1.3-0.3,1.9-0.5C42.8,0,43.4,0,44,0z"/>
	<path class="st0" d="M44.9,100c-3.8-1.2-7.6-2.3-11.3-3.8c-1.8-0.7-3.4-1.8-4.9-2.9c-1.9-1.4-2.2-3.4-0.7-5.2
		c4.9-5.9,10-11.7,15-17.5c1.4-1.6,3.1-1.5,4.9-0.9c1.7,0.6,2.5,1.9,2.5,3.8c-0.1,7.7-0.1,15.4-0.1,23.1c0,1.9-1.4,2.6-2.7,3.4
		C46.7,100,45.8,100,44.9,100z"/>
	<path class="st0" d="M61.5,56.7c-1.1-0.9-2.5-1.7-3.3-2.8c-1.1-1.4-0.9-3.1,0.2-4.6c3.5-4.7,6.9-9.4,10.4-14.1c1-1.4,2-2.7,3.1-4
		c1.5-1.8,3.3-2.2,5.1-0.8c5.3,4.2,8.8,9.7,10.9,16.1c0.5,1.6-0.2,3.4-1.8,3.9C78,52.6,69.9,54.6,61.5,56.7z"/>
	<path class="st0" d="M88.6,75.5c-0.3,1-0.6,2.1-1.1,3.1c-2.4,4.6-5.6,8.7-9.6,12.1c-3.2,2.7-5.3,2.4-7.6-1.2
		c-3.6-5.7-7.2-11.5-10.8-17.3c-1.2-1.9-1.4-3.7-0.1-5.6c1.4-1.9,3.2-2.1,5.3-1.5c6.9,2.3,13.9,4.5,20.8,6.8
		C87.2,72.5,88.5,73.4,88.6,75.5z"/>
	<path class="st0" d="M11.7,59.3c0.4-2.6,0.6-5.9,1.3-9c0.8-3.6,2.7-4.5,6.1-3.2c6.8,2.6,13.6,5.4,20.3,8.2c1.9,0.8,2.7,2.3,2.6,4.2
		c-0.1,1.9-0.8,3.4-2.8,4c-6.9,2.2-13.7,4.5-20.7,6.6c-3.8,1.1-5.5,0-6.2-4C12,64.1,11.9,62,11.7,59.3z"/>
</g>
</svg>
