<svg xmlns="http://www.w3.org/2000/svg" viewBox="0 0 110 110"><defs><style>.cls-1{fill:#fff;}</style></defs><title>instagram-black</title><g id="link-boxes"><path class="cls-1" d="M86.43,2.21h0l.37.36Z"/><path class="cls-1" d="M74.25,6.75,73.92,7h0Z"/><path class="cls-1" d="M.44,24.24h0l8.73-3.18Z"/><path class="cls-1" d="M6.61,94.15a10.38,10.38,0,0,0,2.22-1.46l.73-1.1-.73,1.1A10.38,10.38,0,0,1,6.61,94.15Z"/><path class="cls-1" d="M95.62,44.69v.93h0Z"/><path class="cls-1" d="M72.08,95.64h0Z"/><path class="cls-1" d="M80.54,109.61A5,5,0,0,0,79.8,108,5,5,0,0,1,80.54,109.61Z"/><path class="cls-1" d="M50,96H53a1.57,1.57,0,0,0,.09.46A1.57,1.57,0,0,1,53,96Z"/><path class="cls-1" d="M85.69,95.64c.16.36.3.73.43,1.11-.13-.38-.27-.75-.43-1.11Z"/><path class="cls-1" d="M14,65.2a1.45,1.45,0,0,0,.35-.84h0A1.45,1.45,0,0,1,14,65.2Z"/><path class="cls-1" d="M55.9.74c-.39.14-.78.3-1.16.47.38-.17.77-.33,1.16-.47Z"/><path class="cls-1" d="M80.54.37H75v0Z"/><path class="cls-1" d="M.42,25l-.1,0,.1,0,9.88-2.91Z"/><path class="cls-1" d="M.42,25c0,.25,0,.51-.08.76h0C.37,25.49.39,25.23.42,25Z"/><path class="cls-1" d="M106.57,26.42c1,.5,2,1.09,3,1.53l.3.36-.3-.36C108.56,27.51,107.58,26.92,106.57,26.42Z"/><path class="cls-1" d="M.34,25.74c0,.24,0,.49,0,.74h0C.35,26.23.35,26,.34,25.74Z"/><path class="cls-1" d="M3.45,83.7A12,12,0,0,1,.38,85l0,.37,0-.37A12,12,0,0,0,3.45,83.7Z"/><path class="cls-1" d="M.32,24.29l.08,0-.08,0Z"/><path class="cls-1" d="M.2,86a.84.84,0,0,0,.15-.61h0A.84.84,0,0,1,.2,86Z"/><path class="cls-1" d="M.37,62.53v1.84h0Z"/><path class="cls-1" d="M.37,35.68v1.1h0Z"/><path class="cls-1" d="M75.78,51.88l-.06,1.18.06-1.18Z"/><path class="cls-1" d="M74.64,62.49a6,6,0,0,1,.69-3h0a7,7,0,0,1,.39-2.53V53.06q-.72-3-1.46-5.91l-1.77-3.39-3-3.63-.75-.7-3.66-2.64L60.32,34.9l-3.45-.65a26.76,26.76,0,0,0-9.44,1.38c-2,.29-3.19,2.18-5.1,2.64a12.28,12.28,0,0,1-2.6,2.59l-1.56,1.81-2.12,3.69c-.24.61-.48,1.22-.73,1.83-.24.86-.49,1.72-.74,2.57,0,.42.12.85-.34,1.12,0,.61,0,1.22,0,1.83l0,.73c0,.37,0,.74,0,1.11s0,.92.07,1.38a1.93,1.93,0,0,0,0,.27,1.93,1.93,0,0,1,0-.27,5.12,5.12,0,0,1,.34,2.23A2.48,2.48,0,0,1,35,60.64a1.22,1.22,0,0,1-.09.32,1.22,1.22,0,0,0,.09-.32,1.4,1.4,0,0,1,.32,1.16c.15.34.29.68.43,1a3.24,3.24,0,0,1,.7,1.54l1.07,1.86,1.83,2.56,1.93,1.81c.89,1.13,2.47,1.38,3.3,2.58A12.14,12.14,0,0,1,48,74.6c1.58.9,3.43.55,5.08,1.14h3.87a7.18,7.18,0,0,1,2.52-.39h0l2.67-.8h0l1.51-.6a2.94,2.94,0,0,1,1.47-.74l1.41-.9h0l.84-.56,1-.83,1.12-1,.74-.75.71-.8,1.35,1.29L71,68.33l.79-1,.28-.39.48-.72.67-1.13c.13-.23.26-.47.38-.71C74,63.8,73.77,62.82,74.64,62.49Zm-6.92-3.55-.42,1a1.26,1.26,0,0,1-.41,1.09,1.88,1.88,0,0,1-.66,1.13l-.26.4-.49,0,.49,0L64.8,64a3,3,0,0,1-1.56,1.35c-.43.19-.52.8-1.05.84a2.29,2.29,0,0,1-1.42.76,2.84,2.84,0,0,1-1.86.73,1.34,1.34,0,0,1-1.17.32l-.14.07-.16,0c-4.45,1-8.24-.28-11.54-3.31-.65-.48-1.31-.94-1.42-1.83a.9.9,0,0,1-.74-.77,1.81,1.81,0,0,1-.66-1.12,3.63,3.63,0,0,1-.76-1.83.23.23,0,0,1-.06-.27,2,2,0,0,1-.36-1.51,3.62,3.62,0,0,1-.27-2.27,4.38,4.38,0,0,1,.27-2.6,1.77,1.77,0,0,1,.35-1.45A1.44,1.44,0,0,1,42.63,50a1.52,1.52,0,0,1,.45-1,1.9,1.9,0,0,1,.66-1.12,5.35,5.35,0,0,1,1.79-2.23,12.92,12.92,0,0,1,17.72-1A8.59,8.59,0,0,1,66.5,48.2a5.8,5.8,0,0,1,1.14,2.57L68,52.23A10.3,10.3,0,0,1,67.72,58.94Z"/><path class="cls-1" d="M76.74,68.12q-1.69-1.59-3.57-3Q75,66.54,76.74,68.12Z"/><path class="cls-1" d="M27.21,48.08a2.76,2.76,0,0,1,.74.11h0A2.76,2.76,0,0,0,27.21,48.08Z"/><path class="cls-1" d="M65.09,87.54h0Z"/><path class="cls-1" d="M77.89,28.72l2.65-.4-2.65.4a.28.28,0,0,1-.3-.06l-1.81,0-1.49.43-1.44,1.12c-.37.64-.73,1.28-1.09,1.92l-.41-.46.41.46-.06,2.48.39,1.11,1.85,2.16,1.46.44,3.28-.08C79,37.33,80,37,80.51,36.35l.4-.67.39-1.1a9.49,9.49,0,0,0-.39-3.31A7.2,7.2,0,0,0,77.89,28.72Z"/><path class="cls-1" d="M95.34,62.89l-.15-24.15h0a11.3,11.3,0,0,1-.28-3.43c-.18-.6-.56-1.16-.34-1.83l0-.74a3,3,0,0,1-.34-2.22,3.54,3.54,0,0,1-.81-1.74l-1.41-3-2-2.9L88.2,21l-2.58-2.1-3.61-2-4.52-1.43a4.42,4.42,0,0,1-2.18-.37l-.65-.06a10.5,10.5,0,0,1-3.48-.31l-23.74-.12H45.6l-6.24.12-.12.05-.12-.06a10.75,10.75,0,0,1-3.44.29l-3.22.46a15.11,15.11,0,0,1-4.12,1.09L23.16,19.8h0L21.66,21l-1.43.36L21.66,21l-2.49,3-.9,1.45L16.92,28c-.13.37-.27.73-.4,1.1,0,.82-.84,1.35-.71,2.21l-.69,3.39c0,.21,0,.43-.07.64l-.16-.15.16.15,0,.75a6.53,6.53,0,0,1-.26,2.74,3.52,3.52,0,0,0-.1-.41,3.52,3.52,0,0,1,.1.41l0,2a3.48,3.48,0,0,1-.34.56,3.48,3.48,0,0,0,.34-.56l-.06,2.57h0v.74c0,2.44,0,4.89,0,7.33v5.94h0c0,.62,0,1.23,0,1.85a1.27,1.27,0,0,0-.28.88,1.27,1.27,0,0,1,.28-.88l.05,7.31c0,.37,0,.74,0,1.12s0,.49,0,.73l0,1.1,0,1.45a.13.13,0,0,1,0,.22A4.92,4.92,0,0,1,15,73.57l.07,1.11.07.64h0a4.7,4.7,0,0,1,.38,2.19h0a2.33,2.33,0,0,1,.29,1.94l.42.68,1.05,2.63L18,84.24c.23.36.46.73.68,1.1a2,2,0,0,1,.72,1.1h0l.87,1,.71.78.74.73a5.24,5.24,0,0,1,1.74,1.67c.79.07,1.26.7,1.87,1.08a5.1,5.1,0,0,1-1.14.58,5.1,5.1,0,0,0,1.14-.58l1.56.89h0l2.14.87,2.61,1c1,.28,2.05-.25,3,.38l.65.06h.39a7.5,7.5,0,0,1,3,.29l3.94.08,20.2,0,.74,0,3.31,0,1.49,0,2.83-.08a11.57,11.57,0,0,1,3.42-.3c1-.24,2,.3,2.88-.44h0l2.27-.64,1.39-.46a.94.94,0,0,1,.82-.32l1.46-.69.77-.4a2.75,2.75,0,0,1,1.32-.81,1.54,1.54,0,0,1,1.2-.71,1.08,1.08,0,0,1,.72-.8l1.11-1.07,1-1.08c.3-.35.61-.69.92-1a1.83,1.83,0,0,1,.71-1.11L93.05,82a5.22,5.22,0,0,1,.77-2.2c.34-1.5.69-3,1-4.5l.06-.65c.12-2.09.25-4.17.37-6.26l0-1.12a3.93,3.93,0,0,0,.2-.54,3.93,3.93,0,0,1-.2.54C95.31,65.83,95.33,64.36,95.34,62.89ZM87.56,73a5.46,5.46,0,0,1-.41,2.82,4.33,4.33,0,0,1-.5,2.17,5.29,5.29,0,0,1-1,2.21A1.84,1.84,0,0,1,85,81.32l-.25.39a1.65,1.65,0,0,1-.93-.33,1.65,1.65,0,0,0,.93.33l-1.32,1.41a1.4,1.4,0,0,1-1.05,1,.65.65,0,0,1-.33.11,1.52,1.52,0,0,1-1.15,1,3.59,3.59,0,0,1-1.8.88l-.73.28a1.33,1.33,0,0,1-1.11.37,2.74,2.74,0,0,1-1.79.4,3,3,0,0,1-1.92.32l-1.8.18-1.87.09-2.21.06-1.48,0-5.51,0H50.75l-5.88,0c-4.12.09-8.23.11-12.25-1a4.65,4.65,0,0,1-1.83-.74,3.44,3.44,0,0,1-1.73-.87L28,84.51a2.25,2.25,0,0,1-1.13-1l-.72-.74L25,81.31a1.82,1.82,0,0,1-.67-1.13l-.43-1A3.82,3.82,0,0,1,23.1,77a1,1,0,0,1-.25-.9c0-.2-.06-.41-.1-.62l0-.36,0,.36a5.94,5.94,0,0,1-.36-2.89,10.63,10.63,0,0,1-.25-3.81c0-.25,0-.51,0-.76,0-.49,0-1,0-1.46,0-.25,0-.5,0-.74,0-1,0-2,0-2.94V48.55l0-4.77V43l0-2.58a7.56,7.56,0,0,1,.25-3.1L22.45,39a13.2,13.2,0,0,0,2-.68,13.2,13.2,0,0,1-2,.68l-.06-1.63.06-.94a3.13,3.13,0,0,1,.31-2,2.8,2.8,0,0,1,.39-1.74,5.54,5.54,0,0,1,1-2.6,14,14,0,0,0,3.63-.87,14,14,0,0,1-3.63.87,7.67,7.67,0,0,1,2-2.92c2.7-3.17,6.26-4.51,10.31-4.76a36.28,36.28,0,0,1,7.72-.35l8.09,0h9.93l4.41,0,1.12,0a16.92,16.92,0,0,1,4.92.28l1.31.08a13.81,13.81,0,0,1,6.26,1.83A11.07,11.07,0,0,1,85,28.64a6.35,6.35,0,0,1,1.47,3,4.13,4.13,0,0,1,.66,2.24,3.22,3.22,0,0,1,0,1.82A4.8,4.8,0,0,1,87.76,39l.09,3.3c0,.5,0,1,0,1.49,0,1.59,0,3.18,0,4.77v8.1c.15,3.3.12,6.61,0,9.92A27.27,27.27,0,0,1,87.56,73Z"/><path class="cls-1" d="M87.53,40.83c0-.61,0-1.23,0-1.84h0C87.54,39.6,87.53,40.22,87.53,40.83Z"/><path class="cls-1" d="M87.53,58.12V56.65h0Z"/><path class="cls-1" d="M22.43,49.66V51.5h0Z"/><path class="cls-1" d="M95.25,34.94l-.34.37.34-.37Z"/><path class="cls-1" d="M22.43,62.53v.37h0Z"/><path class="cls-1" d="M22.43,48.18v.37h0Z"/><path class="cls-1" d="M25.31,37.92c1.05-.51,2.07-1.09,3.08-1.67C27.38,36.83,26.36,37.41,25.31,37.92Z"/><path d="M.34,25.74H0v.73H.35C.35,26.23.35,26,.34,25.74Z"/><path d="M109.9,72.08V28.31l-.3-.36c-1-.44-2-1-3-1.53a11.15,11.15,0,0,0-1.55-.67,11.15,11.15,0,0,1,1.55.67c1,.5,2,1.09,3,1.53l.3.36a26.13,26.13,0,0,0-.62-7.48c0-.32-.06-.64-.1-1a5.64,5.64,0,0,0-.66-2.63,3.92,3.92,0,0,0-.73-2.17,7.45,7.45,0,0,0-1.45-3,.27.27,0,0,0-.12-.26,10.65,10.65,0,0,0-2.46-3.37l0,0,0,0a12.09,12.09,0,0,0-3.38-3.19,6.65,6.65,0,0,0-2.45-1.59,7.44,7.44,0,0,0-3-1.45,4,4,0,0,0-2.19-.74A5.84,5.84,0,0,0,90.09.79C89.28.39,88.24.72,87.53,0H75V.37h0V0H22.07c-.4.71-1.17.52-1.76.64a15,15,0,0,0-4.15,1.14,10.5,10.5,0,0,0-4.11,1.86,3.86,3.86,0,0,0-1.79,1.13A4.74,4.74,0,0,0,8.4,6.23,4.23,4.23,0,0,0,6.89,7.69,3.93,3.93,0,0,0,5.55,9.21a2,2,0,0,0-.8,1.08,5.72,5.72,0,0,0-1.39,2.22l-.54,1.06h0a5.24,5.24,0,0,0-.94,2.24,5.68,5.68,0,0,0-.7,2.2A7.54,7.54,0,0,0,.66,21c-.39.28,0,1-.66,1.12v3.68H.34c0-.25,0-.51.08-.76l-.1,0,.1,0,9.88-2.91L.42,25c0,.25,0,.51-.08.76s0,.49,0,.74H0v10.3H.37v0H0V64.37H.37v0H0v21H.35l0-.37A12,12,0,0,0,3.45,83.7,12,12,0,0,1,.38,85l0,.37A.84.84,0,0,1,.2,86a.84.84,0,0,0,.15-.61H0v2.2c.7.3.2,1.11.66,1.51h0c.09.86-.15,1.77.46,2.53a2.33,2.33,0,0,0,.39,1.48,4.23,4.23,0,0,0,.77,2.19c.11.25.22.49.34.74h0l.73,1.47A2,2,0,0,0,4,98.61l4.11-1.87L4,98.61c.26.36.52.72.77,1.09s.29.87.75,1.09c.23.26.47.51.7.76h0a2.91,2.91,0,0,0,1.11,1.17l1.1,1,.4.35a1.74,1.74,0,0,0,1.07.82l1.15,1a.66.66,0,0,0,.34.06h0a2.56,2.56,0,0,0,1.4.79l.73.37a2.7,2.7,0,0,0,1.54.68,1.26,1.26,0,0,0,1.07.39,4.57,4.57,0,0,0,2.59.72c.55.49,1.22.33,1.86.36h0c.56.49,1.23.31,1.88.32l1.42,0a1.86,1.86,0,0,0,1.39.32l15.92,0H78.69a33.69,33.69,0,0,0,7.44-.25l.15,0,.14-.07a5.56,5.56,0,0,0,2.71-.33l.12,0,.11-.07a2.9,2.9,0,0,0,1.87-.34,2,2,0,0,0,1.46-.38l.35-.08h0a3.35,3.35,0,0,0,1.88-.67,1.54,1.54,0,0,0,1.07-.44l1.14-.55c.64,0,.94-.63,1.42-.93.35.09.54-.14.74-.36a6.28,6.28,0,0,0,2.23-1.73,15.5,15.5,0,0,0,4.41-5.18,18.91,18.91,0,0,0,3.34-9.45,6.29,6.29,0,0,0,.35-3C110.28,81.47,109.87,76.77,109.9,72.08ZM5.83,13.52c-.5.06-1,.11-1.5.13C4.83,13.63,5.33,13.58,5.83,13.52ZM.4,24.25l-.08,0h0l.08,0h0l8.73-3.18L.44,24.24ZM8.83,92.69a10.38,10.38,0,0,1-2.22,1.46l-.79.38.79-.38a10.38,10.38,0,0,0,2.22-1.46l.73-1.1Zm86.79-48v.93h0ZM86.43,2.21l.36.36-.37-.36ZM73.92,7l.33-.24a2.91,2.91,0,0,1,.35-.18,2.91,2.91,0,0,0-.35.18L73.92,7h0Zm-9.15,7.43-.17,0ZM55.9.74h0c-.39.14-.78.3-1.16.47C55.12,1,55.51.88,55.9.74ZM47.44,14.35h0Zm-33.11,50a.63.63,0,0,1-.3-.41A.63.63,0,0,0,14.33,64.35ZM11.69,11.06a2.46,2.46,0,0,0-.29.34h0a2.41,2.41,0,0,1,1.72-1A2.44,2.44,0,0,0,11.69,11.06ZM14,65.2a1.41,1.41,0,0,1-.64.39A1.41,1.41,0,0,0,14,65.2a1.45,1.45,0,0,0,.35-.84h0A1.45,1.45,0,0,1,14,65.2Zm1.08,10.35c0,.09,0,.19,0,.28C15.1,75.74,15.07,75.64,15.07,75.55Zm38,20.92A1.57,1.57,0,0,1,53,96h0a1.57,1.57,0,0,0,.09.46,1,1,0,0,0,.21.34A1,1,0,0,1,53.05,96.47Zm5.43-.83V96h0v-.36a10.1,10.1,0,0,1,1.65,0A10.1,10.1,0,0,0,58.48,95.64Zm4.38,12.45a12.74,12.74,0,0,0,1.3,1.35A12.74,12.74,0,0,1,62.86,108.09Zm9.22-12.45Zm6.13-.93a1.12,1.12,0,0,1,.34.31A1.12,1.12,0,0,0,78.21,94.71ZM79.8,108a5,5,0,0,1,.74,1.66A5,5,0,0,0,79.8,108Zm6.32-11.2c-.13-.38-.27-.75-.43-1.11h0c.16.36.3.73.43,1.11A22.64,22.64,0,0,1,86.75,99,22.64,22.64,0,0,0,86.12,96.75ZM95.24,76.5h0Zm.06-9.2,0,1.12c-.12,2.09-.25,4.17-.37,6.26l-.06.65c-.34,1.5-.69,3-1,4.5a5.22,5.22,0,0,0-.77,2.2l-1.78,3.32a1.83,1.83,0,0,0-.71,1.11c-.31.35-.62.69-.92,1l-1,1.08-1.11,1.07a1.08,1.08,0,0,0-.72.8,1.54,1.54,0,0,0-1.2.71,2.75,2.75,0,0,0-1.32.81l-.77.4L82,93.06a.94.94,0,0,0-.82.32l-1.39.46-2.27.64h0l0,0,0,0c-.87.74-1.93.2-2.88.44a11.57,11.57,0,0,0-3.42.3l-2.83.08-1.49,0-3.31,0-.74,0-20.2,0-3.94-.08a7.5,7.5,0,0,0-3-.29h-.39l-.65-.06c-.94-.63-2-.1-3-.38l-2.61-1-2.14-.87h0l-1.56-.89a5.1,5.1,0,0,1-1.14.58,8.9,8.9,0,0,1-1.22.35,8.9,8.9,0,0,0,1.22-.35,5.1,5.1,0,0,0,1.14-.58c-.61-.38-1.08-1-1.87-1.08A5.24,5.24,0,0,0,21.73,89L21,88.22l-.71-.78-.87-1h0a2,2,0,0,0-.72-1.1c-.22-.37-.45-.74-.68-1.1l-.75-1.48-1.05-2.63-.42-.68a2.33,2.33,0,0,0-.29-1.94h0a4.7,4.7,0,0,0-.38-2.19h0a.27.27,0,0,0,0,.22.27.27,0,0,1,0-.22h0l-.07-.64L15,73.57a4.92,4.92,0,0,0-.23-2.38.13.13,0,0,0,0-.22l0-1.45,0-1.1c0-.24,0-.49,0-.73s0-.75,0-1.12l-.05-7.31a1.27,1.27,0,0,0-.28.88,1.27,1.27,0,0,1,.28-.88c0-.62,0-1.23,0-1.85h0V51.47c0-2.44,0-4.89,0-7.33V43.4h0l.06-2.57a3.48,3.48,0,0,1-.34.56,3.48,3.48,0,0,0,.34-.56l0-2a3.52,3.52,0,0,0-.1-.41,3.52,3.52,0,0,1,.1.41A6.53,6.53,0,0,0,15,36.05l0-.75-.16-.15-.1-.17.1.17.16.15c0-.21,0-.43.07-.64l.69-3.39c-.13-.86.74-1.39.71-2.21.13-.37.27-.73.4-1.1l1.35-2.58.9-1.45,2.49-3-1.43.36L21.66,21l1.5-1.17h0l5.18-3.21a15.11,15.11,0,0,0,4.12-1.09L35.68,15a10.75,10.75,0,0,0,3.44-.29l.12.06.12-.05,6.24-.12h1.84l23.74.12a10.5,10.5,0,0,0,3.48.31l.65.06a4.42,4.42,0,0,0,2.18.37L82,16.92l3.61,2L88.2,21l1.72,1.85,2,2.9,1.41,3a3.54,3.54,0,0,0,.81,1.74,3,3,0,0,0,.34,2.22l0,.74c-.22.67.16,1.23.34,1.83l.34-.37h0l-.34.37a11.3,11.3,0,0,0,.28,3.43h0l.15,24.15h0c0,1.47,0,2.94,0,4.41a3.93,3.93,0,0,0,.2-.54A3.93,3.93,0,0,1,95.3,67.3ZM14.39,57.75a.7.7,0,0,1,.19-.32A.7.7,0,0,0,14.39,57.75ZM95.58,76.58a1.69,1.69,0,0,1,.27.11A1.69,1.69,0,0,0,95.58,76.58Zm.36-30.5a1.42,1.42,0,0,1,.06.42A1.42,1.42,0,0,0,95.94,46.08Zm6.88-36.6a.77.77,0,0,0,.42,0A.77.77,0,0,1,102.82,9.48Z"/><path d="M14.58,57.43a.7.7,0,0,0-.19.32A.7.7,0,0,1,14.58,57.43Z"/><path d="M77.54,94.48h0l0,0Z"/><path d="M.4,24.25h0Z"/><path d="M15.12,75.33a.27.27,0,0,0,0,.22A.27.27,0,0,1,15.12,75.33Z"/><path d="M87.9,56.65h-.37v0h.37v-8.1h-.36v0h.36c0-1.59,0-3.18,0-4.77,0-.5,0-1,0-1.49L87.76,39h-.22c0,.61,0,1.23,0,1.84,0-.61,0-1.23,0-1.84h.22a4.8,4.8,0,0,0-.65-3.31,3.22,3.22,0,0,0,0-1.82,4.13,4.13,0,0,0-.66-2.24,6.35,6.35,0,0,0-1.47-3,11.07,11.07,0,0,0-4.81-4.33,13.81,13.81,0,0,0-6.26-1.83L72.6,22.4a16.92,16.92,0,0,0-4.92-.28l-1.12,0-4.41,0H52.22l-8.09,0a36.28,36.28,0,0,0-7.72.35c-4,.25-7.61,1.59-10.31,4.76a7.67,7.67,0,0,0-2,2.92,14,14,0,0,0,3.63-.87,14,14,0,0,1-3.63.87,5.54,5.54,0,0,0-1,2.6,2.8,2.8,0,0,0-.39,1.74,3.13,3.13,0,0,0-.31,2l-.06.94L22.45,39a13.2,13.2,0,0,0,2-.68,13.2,13.2,0,0,1-2,.68l-.06-1.63a7.56,7.56,0,0,0-.25,3.1l0,2.58v.74l0,4.77h.36v0h-.36v3h.36v0h-.36V62.9h.35v0h-.35c0,1,0,2,0,2.94.12-.12.23-.25.34-.37v0c-.11.12-.22.25-.34.37s0,.49,0,.74c0,.48,0,1,0,1.46,0,.25,0,.51,0,.76a10.63,10.63,0,0,0,.25,3.81,5.94,5.94,0,0,0,.36,2.89l0-.36,0,.36c0,.21.07.42.1.62a1,1,0,0,0,.25.9,3.82,3.82,0,0,0,.76,2.2l.43,1A1.82,1.82,0,0,0,25,81.31l1.14,1.46.72.74a2.25,2.25,0,0,0,1.13,1l1.11.76a3.44,3.44,0,0,0,1.73.87,4.65,4.65,0,0,0,1.83.74c4,1.12,8.13,1.1,12.25,1l5.88,0h9.93l5.51,0,1.48,0,2.21-.06,1.87-.09,1.8-.18a3,3,0,0,0,1.92-.32,2.74,2.74,0,0,0,1.79-.4,1.33,1.33,0,0,0,1.11-.37l.73-.28a3.59,3.59,0,0,0,1.8-.88,1.52,1.52,0,0,0,1.15-1,.65.65,0,0,0,.33-.11,1.4,1.4,0,0,0,1.05-1l1.32-1.41a1.65,1.65,0,0,1-.93-.33,1.65,1.65,0,0,0,.93.33l.25-.39a1.84,1.84,0,0,0,.68-1.17,5.29,5.29,0,0,0,1-2.21,4.33,4.33,0,0,0,.5-2.17A5.46,5.46,0,0,0,87.56,73a27.27,27.27,0,0,0,.31-6.38C88,63.26,88.05,60,87.9,56.65ZM25.31,37.92c1.05-.51,2.07-1.09,3.08-1.67C27.38,36.83,26.36,37.41,25.31,37.92ZM28,48.19a2.76,2.76,0,0,0-.74-.11,2.76,2.76,0,0,1,.74.11h0ZM57.33,75.77h0Zm3,11.77h0Zm5.52,0h0Zm7.34-22.46-.67,1.13-.48.72-.28.39c.13.16.25.35.38.52-.13-.17-.25-.36-.38-.52l-.79,1,1.35,1.29L71,68.33l-.71.8-.74.75-1.12,1-1,.83-.84.56h0l-1.41.9a2.94,2.94,0,0,0-1.47.74l-1.51.6h0l-2.67.8h0a7.18,7.18,0,0,0-2.52.39h0a.9.9,0,0,0,.16,0,.9.9,0,0,1-.16,0H53.05c-1.65-.59-3.5-.24-5.08-1.14a12.14,12.14,0,0,0-3.43-1.42c-.83-1.2-2.41-1.45-3.3-2.58l-1.93-1.81-1.83-2.56-1.07-1.86a3.24,3.24,0,0,0-.7-1.54c-.14-.35-.28-.69-.43-1A1.4,1.4,0,0,0,35,60.64a1.22,1.22,0,0,1-.09.32.67.67,0,0,1-.13.22.64.64,0,0,1-.38.22.64.64,0,0,0,.38-.22.67.67,0,0,0,.13-.22,1.22,1.22,0,0,0,.09-.32,2.48,2.48,0,0,0-.37-1.48,5.12,5.12,0,0,0-.34-2.23,1.93,1.93,0,0,0,0,.27,1.93,1.93,0,0,1,0-.27c0-.46,0-.92-.07-1.38s0-.74,0-1.11l0-.73c0-.61,0-1.22,0-1.83.46-.27.38-.7.34-1.12.25-.85.5-1.71.74-2.57.25-.61.49-1.22.73-1.83l2.12-3.69,1.56-1.81a12.28,12.28,0,0,0,2.6-2.59c1.91-.46,3.09-2.35,5.1-2.64a26.76,26.76,0,0,1,9.44-1.38l3.45.65,4.76,1.89,3.66,2.64.75.7,3,3.63,1.77,3.39q.73,3,1.46,5.91l.06-1.18h0l-.06,1.18v3.87a7,7,0,0,0-.39,2.53h0a6,6,0,0,0-.69,3c-.87.33-.62,1.31-1.09,1.88-.12.24-.25.48-.38.71q1.88,1.45,3.57,3Q75,66.53,73.17,65.08ZM75.71,60l-.15-.2Zm.43-7.22a2.29,2.29,0,0,1,0,.37A2.29,2.29,0,0,0,76.14,52.76ZM76.9,61c.41.27.83.51,1.26.76C77.73,61.5,77.31,61.26,76.9,61Zm4.4-26.41-.39,1.1-.4.67c-.56.67-1.48,1-1.83,1.85l-3.28.08-1.46-.44-1.85-2.16-.39-1.11.06-2.48-.41-.46.41.46c.36-.64.72-1.28,1.09-1.92l1.44-1.12,1.49-.43,1.81,0a.28.28,0,0,0,.3.06l2.65-.4-2.65.4a7.2,7.2,0,0,1,3,2.55A9.49,9.49,0,0,1,81.3,34.58Z"/><path d="M65.83,87.54Z"/><path d="M56.92,75.73h0a.9.9,0,0,0,.16,0A.9.9,0,0,1,56.92,75.73Z"/><path d="M67.64,50.77A5.8,5.8,0,0,0,66.5,48.2a8.59,8.59,0,0,0-3.25-3.61,12.92,12.92,0,0,0-17.72,1,5.35,5.35,0,0,0-1.79,2.23,1.9,1.9,0,0,0-.66,1.12,1.52,1.52,0,0,0-.45,1,1.44,1.44,0,0,0-.38,1.15,1.77,1.77,0,0,0-.35,1.45,4.38,4.38,0,0,0-.27,2.6,3.62,3.62,0,0,0,.27,2.27A2,2,0,0,0,42.26,59a.23.23,0,0,0,.06.27,3.63,3.63,0,0,0,.76,1.83,1.81,1.81,0,0,0,.66,1.12.9.9,0,0,0,.74.77c.11.89.77,1.35,1.42,1.83,3.3,3,7.09,4.32,11.54,3.31l.16,0,.14-.07a1.34,1.34,0,0,0,1.17-.32A2.84,2.84,0,0,0,60.77,67a2.29,2.29,0,0,0,1.42-.76c.53,0,.62-.65,1.05-.84A3,3,0,0,0,64.8,64L66,62.58l-.49,0,.49,0,.26-.4a1.88,1.88,0,0,0,.66-1.13A1.26,1.26,0,0,0,67.3,60l.42-1A10.3,10.3,0,0,0,68,52.23Zm-3.3,11.44a5.31,5.31,0,0,0,.8.25A5.31,5.31,0,0,1,64.34,62.21Z"/></g></svg>