<svg id="Layer_1" data-name="Layer 1" xmlns="http://www.w3.org/2000/svg" viewBox="0 0 50 50"><defs><style>.cls-1,.cls-2{fill:#fff;}.cls-1{fill-rule:evenodd;}</style></defs><title>github-logo</title><rect width="50" height="50"/><path class="cls-1" d="M25,4a21.5,21.5,0,0,0-6.8,41.9c1.08.2,1.47-.46,1.47-1s0-2.21,0-4c-6,1.31-7.24-2.53-7.24-2.53A5.7,5.7,0,0,0,10,35.21c-1.95-1.33.15-1.3.15-1.3a4.52,4.52,0,0,1,3.3,2.21c1.91,3.29,5,2.34,6.25,1.79A4.56,4.56,0,0,1,21.08,35c-4.78-.54-9.8-2.38-9.8-10.62a8.29,8.29,0,0,1,2.22-5.77A7.71,7.71,0,0,1,13.7,13s1.81-.58,5.92,2.2a20.5,20.5,0,0,1,10.77,0c4.1-2.78,5.9-2.2,5.9-2.2a7.68,7.68,0,0,1,.21,5.69,8.29,8.29,0,0,1,2.22,5.77c0,8.26-5,10.07-9.82,10.61a5.12,5.12,0,0,1,1.46,4c0,2.87,0,5.19,0,5.9s.39,1.24,1.48,1A21.5,21.5,0,0,0,25,4Z"/><path class="cls-2" d="M11.64,34.9c0,.11-.21.14-.37.07s-.24-.22-.19-.33a.27.27,0,0,1,.37-.06c.16.07.25.21.19.32Zm-.26-.2"/><path class="cls-2" d="M12.51,35.87c-.1.1-.3.05-.43-.1s-.17-.35-.07-.44.3-.06.44.09.17.36.06.45Zm-.2-.22"/><path class="cls-2" d="M13.36,37.11c-.13.09-.35,0-.48-.19s-.13-.42,0-.51a.38.38,0,0,1,.48.18c.14.2.14.43,0,.52Zm0,0"/><path class="cls-2" d="M14.52,38.31c-.11.13-.37.09-.55-.09a.41.41,0,0,1-.12-.55c.12-.13.37-.09.56.09s.24.42.11.55Zm0,0"/><path class="cls-2" d="M16.13,39a.42.42,0,0,1-.54.17c-.25-.07-.4-.27-.36-.44a.42.42,0,0,1,.54-.17c.25.07.41.27.36.44Zm0,0"/><path class="cls-2" d="M17.88,39.13c0,.18-.2.32-.45.33s-.47-.14-.47-.32.2-.32.46-.32.46.13.46.31Zm0,0"/><path class="cls-2" d="M19.52,38.85c0,.17-.14.35-.4.4s-.48-.06-.51-.23.15-.36.4-.4.48.05.51.23Zm0,0"/></svg>