<svg xmlns="http://www.w3.org/2000/svg" viewBox="0 0 119.25 100"><defs><style>.cls-1{fill:#30c4ed;}</style></defs><g id="controller"><path class="cls-1" d="M61.82,48C52.07,53.48,43,55.76,41.54,53.13s5.18-9.22,14.93-14.67,18.79-7.81,20.28-5.18S71.48,42.5,61.82,48M79.3,32.58C77.19,28.8,66.56,30.74,55.59,37S37.5,51.2,39.6,55s12.74,1.85,23.71-4.39,18.1-14.22,16-18"/><path class="cls-1" d="M39.78,78.59c0,.88.09,1.85.18,2.82A27.29,27.29,0,0,0,41.1,87c0,.08,0,.08.09.17s.08.26.08.44a.31.31,0,0,0,.09.18c0,.17.09.26.18.43s.08.09.08.18.09.26.18.44.09.09.09.18.09.26.17.43,0,.09.09.18.09.26.18.44.08.09.08.17.09.27.18.44,0,.09.09.18.09.26.17.44a.09.09,0,0,0,.09.09c.09.17.18.26.18.44a.08.08,0,0,0,.09.08c.08.18.17.27.26.44v.09c.09.18.17.26.26.44V93c.09.17.18.26.27.44a1.52,1.52,0,0,0,.26.43,20.67,20.67,0,0,0,3.86,4.57C50,91.5,42.77,90.8,39.78,78.59Z"/><path class="cls-1" d="M98.44,61.56c4,11.94-1.67,16.42,3.6,21C103.53,78.16,103.18,71,99.76,64A16.4,16.4,0,0,0,98.44,61.56Z"/><path class="cls-1" d="M41,81c0,.17-.09.26-.09.35A.51.51,0,0,0,41,81Z"/><path class="cls-1" d="M45.93,72.8c0,.09,0,.09.09.09l.08.08h.27l2.72-1,.79,2.9c0,.08,0,.08.09.17l.08.09h.36l2.45-.88c.09,0,.09,0,.18-.09l.09-.08v-.35l-1-2.9,2.9-1.06c.09,0,.09-.08.18-.08l.08-.09v-.35l-.87-2.2a.09.09,0,0,0-.09-.09l-.09-.08h-.35l-2.81,1-.79-2.46a.09.09,0,0,0-.09-.09l-.09-.09H50l-2.2.88a.09.09,0,0,0-.09.09l-.08.09v.17L48.3,69l-2.64,1c-.08,0-.08,0-.08.09l-.09.08v.18l.44,2.46Zm8.16-4.3-.43,1-.53-1.49ZM52,72.89l-.62,1-1-.44ZM50.58,69.2c.09,0,.18.09.27.17s.17.18.17.27.09.26,0,.35-.09.26-.09.35-.08.18-.26.26a.46.46,0,0,1-.35.18c-.09,0-.27.09-.35.09s-.27,0-.35-.09-.18-.09-.27-.18a.41.41,0,0,1-.17-.26V70c0-.09.08-.26.08-.35s.09-.18.18-.27a.49.49,0,0,1,.35-.17.51.51,0,0,1,.35-.09C50.41,69.11,50.49,69.11,50.58,69.2Zm-1.49-2.81,1,.35-1.58.61Zm-2.2,4,.44,1.49-.88-.52Z"/><path class="cls-1" d="M91.42,58.13a2.87,2.87,0,0,0-.53-.44c-.18-.08-.44-.17-.7-.26h-.71a5.57,5.57,0,0,0-.61.26,1.1,1.1,0,0,0-.44.44,3.74,3.74,0,0,0-.26.62,2.1,2.1,0,0,0,.08.7,1.47,1.47,0,0,0,.36.62,1.5,1.5,0,0,0,.61.43,6.49,6.49,0,0,0,.7.27h.79c.27-.09.44-.18.71-.27a2.54,2.54,0,0,0,.44-.52,1.8,1.8,0,0,0,.17-.62,1.88,1.88,0,0,0-.09-.7A2.92,2.92,0,0,1,91.42,58.13Z"/><path class="cls-1" d="M88.34,63.4a3.66,3.66,0,0,0-.61-.52c-.27-.09-.44-.18-.7-.27a2.39,2.39,0,0,0-.8,0,1.92,1.92,0,0,0-.7.35l-.52.53a1.14,1.14,0,0,0-.27.7V65a3.24,3.24,0,0,0,.35.79,1.17,1.17,0,0,0,.62.53,1.35,1.35,0,0,0,.79.26h.88a1.65,1.65,0,0,0,.7-.35,4.22,4.22,0,0,0,.53-.61c.08-.27.17-.44.26-.7a2.34,2.34,0,0,0-.09-.79A7.9,7.9,0,0,0,88.34,63.4Z"/><path class="cls-1" d="M30.47,58.05a7.86,7.86,0,0,1,3.08,3.42,3.21,3.21,0,0,0-1.06-.7c-1.4-.53-5.18-1.06-7.46-3.43a7.48,7.48,0,0,1-1.76-5.53c.53-6.23.62-6.41-3.6-9.66a10.35,10.35,0,0,1,2,2.9,5.48,5.48,0,0,0-2.55-2A23.21,23.21,0,0,1,10.45,35a20.51,20.51,0,0,0,.7,3A89.11,89.11,0,0,1,3.07,28.8a21.67,21.67,0,0,0,3.87,9.66,35.71,35.71,0,0,1-5.53-7.72,29.12,29.12,0,0,0,5,8.6,57.64,57.64,0,0,1-4.65-3.86,18.27,18.27,0,0,0,5.44,9A40.53,40.53,0,0,1,0,39.34a30.15,30.15,0,0,0,6.23,5.71c-2.54-1.41-4.47-2.46-4.47-2.46A14.31,14.31,0,0,0,7.9,49.7,35.52,35.52,0,0,1,.09,46a30,30,0,0,0,7.64,4.56,35.6,35.6,0,0,1-5.18-.79,10.73,10.73,0,0,0,6.85,5,38.73,38.73,0,0,1-8-1.23,30.27,30.27,0,0,0,7.81,2.11,46.05,46.05,0,0,1-5,.79,8.76,8.76,0,0,0,6.32,2.81,41,41,0,0,1-6.41.87,29.21,29.21,0,0,0,7.64-.26c-2.9,1.49-5.18,2.37-5.18,2.37a8.33,8.33,0,0,0,6.14,1.06,39.42,39.42,0,0,1-6.23,2,33.44,33.44,0,0,0,7.64-1.66c-2.46,1.93-4.39,3.16-4.39,3.16a9.11,9.11,0,0,0,7-.79,32.92,32.92,0,0,1-6.41,3.69A28.12,28.12,0,0,0,16.77,67c-1.84,1.94-3.25,3.16-3.25,3.16a10.14,10.14,0,0,0,6.41-1.66,29.44,29.44,0,0,1-5,4.3,26.43,26.43,0,0,0,5.79-4,29.88,29.88,0,0,1-3,3.69,10.33,10.33,0,0,0,6.41-2.72,25.92,25.92,0,0,1-4.66,4.56,19.62,19.62,0,0,0,5.19-4.13,22.4,22.4,0,0,1-2.11,3.69,8.93,8.93,0,0,0,5.62-3,24.24,24.24,0,0,1-2.81,4A21.1,21.1,0,0,0,29,70.6a20.92,20.92,0,0,1-1.32,4.13c2.72-.61,4.3-1.93,5-3.6a23,23,0,0,1-1.5,4.3,18.67,18.67,0,0,0,2-4.39A15.83,15.83,0,0,1,33,75.17c2.72-.79,3.77-2.28,3.86-4.13a29.06,29.06,0,0,1,.27,5,20.45,20.45,0,0,0,.35-4.57,18.2,18.2,0,0,1,1,4,3.58,3.58,0,0,0,1.31-1.3l.25-6.9A18.86,18.86,0,0,0,30.47,58.05Z"/><path class="cls-1" d="M99.23,73.24A37.67,37.67,0,0,0,97.91,60.5a24.48,24.48,0,0,0-1.66-2.45h0l-4.9-4.83a.21.21,0,0,0,0,.07c-4.39-3.51-9.49-4.47-14.67-1-.35.26-.61.44-.88.61.53,6,.35,11.16-.61,15A13.4,13.4,0,0,1,73,73.15c2.46-3.42,3.25-10.71,2.38-19.85C74.2,54,72.45,54.62,65,56.73s-9.22,2.63-10.62,2.63C58.49,67.53,63.05,73.24,67,74.91a14,14,0,0,1-4.74-3.16,49.65,49.65,0,0,1-8.52-12.39H52.69c-6.41-.08-10.19,3.69-11.94,9.22,0-.08-.09-.17-.09-.26l.26-.79c1.49-4,4-6.67,7.38-7.82a.71.71,0,0,0-.44-.08c-.35.08-.62.17-1,.26-3.25,1-5.62,3.51-6.76,7.38l0,0-.25,6.9h0c0,.4,0,.83-.06,1.25v0c0,.69,0,1.38,0,2.08A27.13,27.13,0,0,0,41,81a42.82,42.82,0,0,0,4.48,8c2.11,3.16,3.69,5.44,2.72,9.39a6.32,6.32,0,0,0,4.92,1.58c1.58-.35,2.55-2.54,3.16-5.18a27.64,27.64,0,0,1-.18-5.27,31.64,31.64,0,0,1,.53-5.09,6,6,0,0,1-1.14-2.11,5.7,5.7,0,0,1,3.78-7.11,5.6,5.6,0,0,1,5.53,1.49,5.31,5.31,0,0,0-5.1-1.14,5.55,5.55,0,0,0-3.77,6.76,7.16,7.16,0,0,0,1.05,2,33.91,33.91,0,0,0-.61,9.84c.44-1.76.79-3.69,1.14-5.27.09-.18.09-.44.17-.62v-.08c0-.09,0-.09.09-.18V87.9c0-.08,0-.08.09-.17v-.09c0-.09.09-.18.09-.26v-.44a.09.09,0,0,1,.09-.09s0-.09.08-.09a.09.09,0,0,1,.09-.09c0-.08.09-.08.09-.17v-.09a.09.09,0,0,1,.09-.09v-.09a.08.08,0,0,1,.09-.08v-.09l.08-.09.18-.17a5.33,5.33,0,0,0,3.86.26,5.44,5.44,0,0,0,4-4.57c.88-.35,1.85-.79,2.73-1,.17-.09.44-.18.61-.26a1.26,1.26,0,0,1,.62-.18h.08c.18-.09.35-.09.53-.18h.09c.17-.08.35-.08.53-.17s.35-.09.52-.18h.09c.18-.08.35-.08.61-.17h.09c1.32-.35,2.72-.62,4.22-.88a5.31,5.31,0,0,0,5.79,1.76,5.48,5.48,0,0,0,3.08-2.29c.08,0,.17.09.26.09a.28.28,0,0,1,.18.09.08.08,0,0,1,.08.09h.09s.09,0,.09.08h.09a.09.09,0,0,1,.09.09,1.78,1.78,0,0,0,.43.27h.09l.09.08c.18.18.44.35.61.53l.18.18c.18.17.35.26.53.43,1.23,1.15,2.46,2.55,3.77,3.78,0-.44-3.77-6.41-5.7-8a5.31,5.31,0,0,0-.18-2.28,5.43,5.43,0,0,0-10.27-.62A5.36,5.36,0,0,1,80.26,69a5.66,5.66,0,0,1,6.94,4,6.06,6.06,0,0,1,.18,2.46,27.18,27.18,0,0,1,3.16,4A21.1,21.1,0,0,1,93.17,84C95.1,85.8,97,87.2,98.62,86.59c1.4-.53,2.54-1.94,3.33-4C99.06,79.82,99.14,77,99.23,73.24ZM65.33,66a15,15,0,0,0-2.19,1,.59.59,0,0,1-.7-.27c-.09-.09-.09-.26-.18-.35a.55.55,0,0,1,.26-.7l2.38-1.06a.56.56,0,0,1,.7.27c.09.09.09.26.17.35A.82.82,0,0,1,65.33,66Zm-18.61.18A6,6,0,0,1,48.65,65a6.58,6.58,0,0,1,2.2-.44,5.73,5.73,0,0,1,2.1.36A4.91,4.91,0,0,1,54.8,66a7,7,0,0,1,1.31,1.84,7.34,7.34,0,0,1,.44,2.37,6,6,0,0,1-.61,2.37,6.7,6.7,0,0,1-1.49,2A15.42,15.42,0,0,1,52,75.78a5.92,5.92,0,0,1-2.46.27,6,6,0,0,1-2.2-.7,6.69,6.69,0,0,1-1.67-1.41,5.4,5.4,0,0,1-1-2,6,6,0,0,1-.09-2.19,5.52,5.52,0,0,1,.7-2A7.48,7.48,0,0,1,46.72,66.13Zm11.68,4.3a6.47,6.47,0,0,1-.79,3.07,7.35,7.35,0,0,1-2,2.64,9.31,9.31,0,0,1-3,1.75c-.09,0-.17.09-.26.09a8.68,8.68,0,0,1-3,.26,6.69,6.69,0,0,1-2.9-1,6.41,6.41,0,0,1-2.1-1.93,6.93,6.93,0,0,1-1.14-2.64,7.37,7.37,0,0,1,0-2.81,6.78,6.78,0,0,1,1-2.55,3.05,3.05,0,0,1,.62-.87,2.7,2.7,0,0,0-.44.7,8,8,0,0,0-.88,2.46,6.92,6.92,0,0,0,0,2.72,6.54,6.54,0,0,0,1.14,2.55,5.82,5.82,0,0,0,2,1.84,7.14,7.14,0,0,0,2.72.88,7.77,7.77,0,0,0,3.16-.35,9.57,9.57,0,0,0,2.9-1.67,7.8,7.8,0,0,0,1.93-2.55,7.05,7.05,0,0,0,.71-3,9,9,0,0,0-.53-3,7.28,7.28,0,0,0-1.67-2.28,6.55,6.55,0,0,0-2.28-1.32c-.27-.09-.62-.17-1-.26l1.23.26A6.39,6.39,0,0,1,56.2,64.9,7.92,7.92,0,0,1,58,67.27,10.16,10.16,0,0,1,58.4,70.43Zm11.41-7.29a21.79,21.79,0,0,1,2.55-.35.64.64,0,0,1,.61.44v.44a.48.48,0,0,1-.43.52c-.79.09-1.59.18-2.38.35-.26.09-.52-.08-.61-.43,0-.18-.09-.27-.09-.36A.5.5,0,0,1,69.81,63.14ZM60.15,77.37a2.89,2.89,0,0,1,3.25,1.14,3.65,3.65,0,0,0-3.07-.27A4,4,0,0,0,58,80.09,3,3,0,0,1,60.15,77.37Zm2.11,7.37A4,4,0,0,1,57.34,82a4.79,4.79,0,0,1-.17-1c0,.17.09.44.09.61a3.83,3.83,0,1,0,7.37-2.11c-.09-.17-.17-.44-.26-.61a3.39,3.39,0,0,1,.44,1A3.75,3.75,0,0,1,62.26,84.74ZM71,76.58A48.29,48.29,0,0,0,66,78.42a1.87,1.87,0,0,0-.27-.44,41.78,41.78,0,0,1,5-1.93A37.94,37.94,0,0,1,76.05,75a1.12,1.12,0,0,1,.09.53A37.93,37.93,0,0,0,71,76.58Zm9.66-5.19a2.91,2.91,0,0,1,3.25,1.15,4.45,4.45,0,0,0-3.07-.36A4,4,0,0,0,78.42,74,3.25,3.25,0,0,1,80.61,71.39ZM77.89,75.7a3.84,3.84,0,0,0,7.38-2.11c-.09-.26-.18-.53-.26-.7A2.76,2.76,0,0,1,85.53,74a4,4,0,1,1-7.64,2.19,4.91,4.91,0,0,1-.09-1C77.8,75.35,77.89,75.52,77.89,75.7Zm5.36-14.05h0a4,4,0,0,1-.35.87,5.82,5.82,0,0,1-.7.71,2,2,0,0,1-.88.35,1.77,1.77,0,0,1-1,0,2.89,2.89,0,0,1-.88-.35,2.44,2.44,0,0,1-.7-.62,2.5,2.5,0,0,1-.35-.88,1.38,1.38,0,0,1,.09-.87,2.62,2.62,0,0,1,.35-.79,2.32,2.32,0,0,1,.7-.62,2.79,2.79,0,0,1,.88-.35,1.74,1.74,0,0,1,1,0c.27.09.62.18.88.26a3.79,3.79,0,0,1,.62.53,1.62,1.62,0,0,1,.35.79A1.75,1.75,0,0,1,83.25,61.65ZM83.42,58a1.94,1.94,0,0,1-.79-.62,1.84,1.84,0,0,1-.35-.7,1.33,1.33,0,0,1,0-.79,2.86,2.86,0,0,1,.35-.7,4.26,4.26,0,0,1,.62-.53,2.7,2.7,0,0,1,1.67-.26,2.81,2.81,0,0,1,.79.26,1.15,1.15,0,0,1,.61.53,1.05,1.05,0,0,1,.35.7,2.37,2.37,0,0,1,.09.79,1.62,1.62,0,0,1-.26.7c-.18.18-.35.44-.62.53a2.9,2.9,0,0,1-.79.35,1.43,1.43,0,0,1-.87,0C84,58.13,83.6,58.05,83.42,58ZM89,66.13a2.41,2.41,0,0,1-.61.7,2.9,2.9,0,0,1-.88.44,2.33,2.33,0,0,1-1,0,4.72,4.72,0,0,1-1-.35,2.78,2.78,0,0,1-.7-.71,3.81,3.81,0,0,1-.44-.88,1.73,1.73,0,0,1,0-1,2.79,2.79,0,0,1,.35-.88,2.32,2.32,0,0,1,.62-.7,1.5,1.5,0,0,1,.87-.35,1.78,1.78,0,0,1,1,0,2.39,2.39,0,0,1,.88.35,2.29,2.29,0,0,1,.7.61,2.8,2.8,0,0,1,.44.88,3.55,3.55,0,0,1,.09,1A2.6,2.6,0,0,1,89,66.13Zm3.08-5.63c-.09.27-.35.44-.53.62a3,3,0,0,1-.79.35,1.74,1.74,0,0,1-1,0c-.27-.09-.62-.17-.88-.26a2.36,2.36,0,0,1-.71-.62,3.23,3.23,0,0,1-.43-.79,2.9,2.9,0,0,1-.09-.88,1,1,0,0,1,.26-.7c.18-.17.35-.44.53-.53a3.24,3.24,0,0,1,.79-.35,1.64,1.64,0,0,1,.88,0l.79.27a5.31,5.31,0,0,1,.7.52,1.9,1.9,0,0,1,.44.71,1.25,1.25,0,0,1,.26.87A1.43,1.43,0,0,1,92.12,60.5Z"/><path class="cls-1" d="M111,38.81a8.79,8.79,0,0,0,6.32-3.16s-2.28,0-5.44-.26a31,31,0,0,0,7.37-2.63,50.67,50.67,0,0,1-6.49,1.58h0a8.62,8.62,0,0,0,4.65-4.22,41.7,41.7,0,0,1-5.62.79,34,34,0,0,0,6.67-3.86,34,34,0,0,1-5.88,2.72,8.85,8.85,0,0,0,3.78-5.8,44.89,44.89,0,0,1-4.66,2,30.58,30.58,0,0,0,5.53-6,37.68,37.68,0,0,1-6.14,5.27,11,11,0,0,0,3.07-7.9,33.54,33.54,0,0,1-4,3.42,31,31,0,0,0,4-8,35.19,35.19,0,0,1-4.65,7.29,14.08,14.08,0,0,0,1.31-9.31s-1,1.93-2.81,4.57a29.16,29.16,0,0,0,2.2-8.17,38.27,38.27,0,0,1-3.34,8.26,18.37,18.37,0,0,0-.26-10.63s-.62,2.46-1.85,5.8A30.31,30.31,0,0,0,104.32.7a37.45,37.45,0,0,1-.52,9.49A21,21,0,0,0,101.87,0a92.46,92.46,0,0,1-1.94,12,20.83,20.83,0,0,0-1-3,23,23,0,0,1-3.08,11.51,5.52,5.52,0,0,0-1,3.07A9.8,9.8,0,0,1,95,20.11c-1.85,5-1.67,5,2.1,10a7.32,7.32,0,0,1,1.5,5.62C98,39,95.1,41.36,94.14,42.59a3.25,3.25,0,0,0-.53,1.14,9.22,9.22,0,0,1,.79-4.56,19.13,19.13,0,0,0-3.25,12.64c-3-2.46-6.23-3.25-9.39-2.37a3.84,3.84,0,0,0-.88.35c-.18.09-.27.18-.27.26,3.43-.79,7,.09,10.37,2.64a1.05,1.05,0,0,0,.35.26.67.67,0,0,0,.06.28l4.9,4.83a4.24,4.24,0,0,0,1.27.16,20.15,20.15,0,0,1-1.23-3.95A18.39,18.39,0,0,0,99.06,58a22.1,22.1,0,0,1-2.46-4.3c1.05,1.49,2.81,2.19,5.44,1.4a15.82,15.82,0,0,1-2.37-3.42,22.49,22.49,0,0,0,4,2.63,26.35,26.35,0,0,1-3.51-2.81c1.49,1,3.42,1.23,6.14.35A15.73,15.73,0,0,1,103,49.09a22.11,22.11,0,0,0,5.35,1.76,34.08,34.08,0,0,1-4.56-1.94,8.82,8.82,0,0,0,6.41-.52,23.12,23.12,0,0,1-3.78-1.94,18,18,0,0,0,6.59.71,27.07,27.07,0,0,1-6.32-1.32,10.44,10.44,0,0,0,6.85-1.14,42.06,42.06,0,0,1-4.48-1.58,23.67,23.67,0,0,0,7.11.35,31,31,0,0,1-6.5-1,10.49,10.49,0,0,0,6.32-2s-1.84-.26-4.47-.88a31.88,31.88,0,0,0,6.85-1.05A36.07,36.07,0,0,1,111,38.81Z"/><path class="cls-1" d="M85.62,57.43a1,1,0,0,0,.44-.44,4.12,4.12,0,0,0,.26-.61v-.62c-.09-.17-.17-.44-.35-.52s-.35-.27-.53-.44-.43-.18-.61-.27h-.7a2.3,2.3,0,0,0-.71.27,1,1,0,0,0-.43.44c-.09.17-.27.35-.27.52a.75.75,0,0,0,0,.62A4,4,0,0,0,83,57a2.25,2.25,0,0,0,.52.44,4.7,4.7,0,0,0,.71.26h.7C85.18,57.61,85.36,57.52,85.62,57.43Z"/><path class="cls-1" d="M45.75,73.85a4.81,4.81,0,0,0,1.58,1.41,4.55,4.55,0,0,0,2.11.61,6.08,6.08,0,0,0,2.46-.26,5.51,5.51,0,0,0,2.19-1.32,6.21,6.21,0,0,0,1.5-1.93,6.82,6.82,0,0,0,.61-2.28,6.7,6.7,0,0,0-.35-2.29A5.18,5.18,0,0,0,54.62,66a4,4,0,0,0-1.76-1,5,5,0,0,0-2-.36,6.08,6.08,0,0,0-2.11.44,6.8,6.8,0,0,0-1.85,1.15,6.13,6.13,0,0,0-1.31,1.66,5.87,5.87,0,0,0-.71,1.94,4.76,4.76,0,0,0,0,2.19A6.58,6.58,0,0,0,45.75,73.85Zm-.44-4a4.23,4.23,0,0,1,.62-1.75,6,6,0,0,1,1.14-1.5,5.45,5.45,0,0,1,1.67-1,4.77,4.77,0,0,1,1.93-.35,4.62,4.62,0,0,1,1.84.35,4.27,4.27,0,0,1,2.64,2.63,5.24,5.24,0,0,1,.35,2,5.13,5.13,0,0,1-.53,2,6.18,6.18,0,0,1-1.31,1.67A5.27,5.27,0,0,1,51.72,75a4.25,4.25,0,0,1-2.1.27,7.22,7.22,0,0,1-1.94-.53,3.73,3.73,0,0,1-1.4-1.23,4.06,4.06,0,0,1-.79-1.75A3.8,3.8,0,0,1,45.31,69.81Z"/><path class="cls-1" d="M82.55,60a2.29,2.29,0,0,0-.53-.44,5,5,0,0,0-.7-.26h-.79a4.7,4.7,0,0,0-.71.26,2.87,2.87,0,0,0-.52.53,1.81,1.81,0,0,0-.35.61,1.19,1.19,0,0,0,0,.79,1.62,1.62,0,0,0,.26.7l.53.53a1,1,0,0,0,.7.26h.79a2.74,2.74,0,0,0,.79-.35,1.54,1.54,0,0,0,.53-.52,1,1,0,0,0,.26-.71.93.93,0,0,0,0-.7C82.72,60.42,82.63,60.24,82.55,60Z"/></g></svg>