<svg xmlns="http://www.w3.org/2000/svg" viewBox="0 0 87.7 100"><defs><style>.cls-1{fill:#fff;}</style></defs><g id="discord"><path class="cls-1" d="M34.83,42a5.58,5.58,0,0,0,0,11.12,5.33,5.33,0,0,0,5.11-5.56A5.3,5.3,0,0,0,34.83,42Zm18.29,0a5.58,5.58,0,1,0,5.11,5.56A5.34,5.34,0,0,0,53.12,42Z"/><path class="cls-1" d="M77.43,0H10.27A10.29,10.29,0,0,0,0,10.3V77.9A10.29,10.29,0,0,0,10.27,88.2H67.1L64.45,79l6.41,6,6.06,5.6L87.7,100V10.3A10.29,10.29,0,0,0,77.43,0ZM58.13,65.43s-1.8-2.15-3.3-4.06c6.56-1.85,9.07-6,9.07-6a28.72,28.72,0,0,1-5.77,3,32.5,32.5,0,0,1-7.26,2.16,35.19,35.19,0,0,1-13-.05,41.33,41.33,0,0,1-7.37-2.16,30.08,30.08,0,0,1-3.66-1.7c-.15-.1-.3-.15-.45-.25a.69.69,0,0,1-.2-.15c-.9-.5-1.4-.85-1.4-.85s2.4,4,8.77,5.91c-1.51,1.91-3.36,4.16-3.36,4.16-11.07-.35-15.28-7.62-15.28-7.62A67.15,67.15,0,0,1,22.15,28.6c7.22-5.42,14.08-5.27,14.08-5.27l.5.61c-9,2.6-13.17,6.56-13.17,6.56s1.1-.6,3-1.45a37.47,37.47,0,0,1,11.38-3.16,4.93,4.93,0,0,1,.85-.1,42.47,42.47,0,0,1,10.12-.1A40.84,40.84,0,0,1,64,30.5s-4-3.76-12.48-6.36l.7-.81S59,23.18,66.25,28.6a67.08,67.08,0,0,1,7.22,29.21S69.21,65.08,58.13,65.43Z"/></g></svg>