<svg xmlns="http://www.w3.org/2000/svg" viewBox="0 0 125.26 100"><defs><style>.cls-1{fill:#fff;}</style></defs><g id="extra-life-white"><path class="cls-1" d="M91.92,6.35a11.6,11.6,0,0,0-8.35,3.41,11.25,11.25,0,0,0-3.35,8.29v12.3a3.76,3.76,0,0,0,1,2.64,3.57,3.57,0,0,0,2.64,1,3.79,3.79,0,0,0,2.65-1,3.38,3.38,0,0,0,1-2.64V18a3.9,3.9,0,0,1,1.23-3,5.08,5.08,0,0,1,3.06-1.36c2.47-.23,3.71-1.41,3.71-3.7a3.69,3.69,0,0,0-1-2.59A3.44,3.44,0,0,0,91.92,6.35Z"/><path class="cls-1" d="M71.51,13.82c2.41,0,3.65-1.23,3.65-3.65a3.76,3.76,0,0,0-1-2.64,3.59,3.59,0,0,0-2.65-1H63.69V3.65a3.79,3.79,0,0,0-1-2.65A3.53,3.53,0,0,0,60,0,3.4,3.4,0,0,0,57.4,1.06h0a3.77,3.77,0,0,0-1,2.65V22.29a11.18,11.18,0,0,0,3.35,8.29,11.29,11.29,0,0,0,8.35,3.35h3.41c2.41,0,3.65-1.23,3.65-3.7a3.79,3.79,0,0,0-1-2.65,3.63,3.63,0,0,0-2.65-1H68.1A4.11,4.11,0,0,1,65,25.29a4.31,4.31,0,0,1-1.29-3.12V13.82Z"/><path class="cls-1" d="M111.44,6.23a13.57,13.57,0,0,0-9.82,4,13.43,13.43,0,0,0-4,9.82,13.63,13.63,0,0,0,4,9.88,13.39,13.39,0,0,0,9.82,4h10.18a7.14,7.14,0,0,0,2.65-1,3.38,3.38,0,0,0,1-2.64V20.11A13.65,13.65,0,0,0,111.44,6.23ZM118,26.64h-6.53a6.31,6.31,0,0,1-4.64-1.94,6.46,6.46,0,0,1-1.88-4.65,6.22,6.22,0,0,1,1.88-4.58,6,6,0,0,1,4.59-1.88A6.45,6.45,0,0,1,116,15.47,6.27,6.27,0,0,1,118,20.11Z"/><path class="cls-1" d="M13.88,6.29A13.56,13.56,0,0,0,0,20.05a13.59,13.59,0,0,0,4,9.88,13.39,13.39,0,0,0,9.82,4h4.82a3.79,3.79,0,0,0,2.65-1,3.75,3.75,0,0,0,1-2.64,3.79,3.79,0,0,0-1-2.65,3.59,3.59,0,0,0-2.65-1H13.82a6.29,6.29,0,0,1-1.53-.18L23.35,16a3.53,3.53,0,0,0,.53-5.47A13.32,13.32,0,0,0,13.88,6.29ZM7.35,21.17c0-.41-.06-.76-.06-1.12a6.25,6.25,0,0,1,1.88-4.58,6,6,0,0,1,4.59-1.88,5.67,5.67,0,0,1,1.41.17Z"/><path class="cls-1" d="M45.58,19.41,51.16,13c.53-.71,1-1.3,1.24-1.77a4.33,4.33,0,0,0,.41-1.7,2.66,2.66,0,0,0-1.12-2.18,4.55,4.55,0,0,0-2.7-1,4,4,0,0,0-2.3.88,11.41,11.41,0,0,0-2,2.24L40.4,15.23,36.05,9.41a12.36,12.36,0,0,0-2-2.18,3.89,3.89,0,0,0-2.41-1A4.18,4.18,0,0,0,29,7.35a2.8,2.8,0,0,0-1.06,2.18A5.7,5.7,0,0,0,29.52,13l5.59,6.41-6.35,7.94a6.39,6.39,0,0,0-1.59,3.35,2.73,2.73,0,0,0,1.12,2.17A4.52,4.52,0,0,0,31,33.93a3.88,3.88,0,0,0,2.3-.94,11.38,11.38,0,0,0,2.05-2.23l5-6.12,4.88,6.12A13.34,13.34,0,0,0,47.28,33a3.83,3.83,0,0,0,2.41.94,5.12,5.12,0,0,0,2.77-1,2.6,2.6,0,0,0,1.12-2.17,6.42,6.42,0,0,0-1.65-3.41Z"/><path class="cls-1" d="M29.83,53.64a3.71,3.71,0,0,0-2.64,1.06,3.58,3.58,0,0,0-1,2.64V77.63a3.77,3.77,0,0,0,1,2.65,3.57,3.57,0,0,0,2.64,1,3.79,3.79,0,0,0,2.65-1,3.4,3.4,0,0,0,1-2.65V57.29C33.48,54.87,32.24,53.64,29.83,53.64Z"/><path class="cls-1" d="M29.83,42.17a4.44,4.44,0,0,0-4.47,4.47,4.54,4.54,0,0,0,1.3,3.18,4.55,4.55,0,0,0,6.35,0,4.41,4.41,0,0,0,0-6.35A4.28,4.28,0,0,0,29.83,42.17Z"/><path class="cls-1" d="M16.84,42.7a4.11,4.11,0,0,0-2.65,1.06,3.54,3.54,0,0,0-1,2.59V77.69a3.63,3.63,0,0,0,1,2.59,3.59,3.59,0,0,0,2.65,1,3.76,3.76,0,0,0,2.64-1,3.37,3.37,0,0,0,1-2.65V46.35C20.48,43.94,19.25,42.7,16.84,42.7Z"/><path class="cls-1" d="M47.83,51.17A4.31,4.31,0,0,1,51,49.88h1.88a3.39,3.39,0,0,0,3.64-3.65,3.41,3.41,0,0,0-3.64-3.71H50.89a11.17,11.17,0,0,0-8.3,3.36,11.39,11.39,0,0,0-3.35,8.35V77.52a3.65,3.65,0,0,0,1,2.64,3.41,3.41,0,0,0,2.65,1.06,3.55,3.55,0,0,0,2.64-1.06,3.5,3.5,0,0,0,1-2.64V69.28h5.53a3.79,3.79,0,0,0,2.65-1,3.57,3.57,0,0,0,1-2.64c0-2.47-1.24-3.71-3.65-3.71H46.53V54.29A4.09,4.09,0,0,1,47.83,51.17Z"/><path class="cls-1" d="M81.47,77.58a3.82,3.82,0,0,0-1-2.65,3.59,3.59,0,0,0-2.65-1H73a6.29,6.29,0,0,1-1.53-.18L82.53,63.28a3.54,3.54,0,0,0,.53-5.46,14.13,14.13,0,0,0-19.88-.3h0a14.13,14.13,0,0,0,0,19.7,13.37,13.37,0,0,0,9.82,4h4.82a3.44,3.44,0,0,0,3.65-3.64ZM66.53,67.34a6.25,6.25,0,0,1,1.88-4.58A6,6,0,0,1,73,60.87a5.68,5.68,0,0,1,1.41.18l-7.82,7.41A7.33,7.33,0,0,1,66.53,67.34Z"/><polygon class="cls-1" points="86.17 57.11 86.7 57.11 86.7 53.76 88 53.76 88 53.29 84.88 53.29 84.88 53.76 86.17 53.76 86.17 57.11"/><polygon class="cls-1" points="88.88 53.88 90 57.11 90.52 57.11 91.64 53.88 91.64 57.11 92.11 57.11 92.11 53.29 91.41 53.29 90.35 56.52 89.23 53.29 88.47 53.29 88.41 53.29 88.41 57.05 88.88 57.05 88.88 53.88"/><path class="cls-1" d="M107.28,85.69l-11-12.64a1.89,1.89,0,0,0-2.71-.18L80.88,84a1.89,1.89,0,0,0-.18,2.7L91.76,99.34a1.88,1.88,0,0,0,2.7.17l12.65-11.05A2.08,2.08,0,0,0,107.28,85.69Zm-19.76.94a1.71,1.71,0,1,1,.18-2.41A1.74,1.74,0,0,1,87.52,86.63Zm3.71,4.24a1.71,1.71,0,1,1,.18-2.41A1.75,1.75,0,0,1,91.23,90.87Zm3.7,4.23a1.71,1.71,0,1,1,.18-2.41A1.74,1.74,0,0,1,94.93,95.1Zm.59-15.17a1.71,1.71,0,1,1,.18-2.41A1.74,1.74,0,0,1,95.52,79.93Zm3.71,4.17a1.71,1.71,0,1,1,.17-2.41A1.74,1.74,0,0,1,99.23,84.1Zm3.7,4.24a1.71,1.71,0,1,1,.18-2.41A1.74,1.74,0,0,1,102.93,88.34Z"/><path class="cls-1" d="M112.05,75.16l-2.94-16.58a1.86,1.86,0,0,0-2.24-1.53L90.29,60a1.86,1.86,0,0,0-1.53,2.24l2.12,11.82,2.41-2.12a2.3,2.3,0,0,1,3.17.23l5.88,6.71,8.24-1.47A2,2,0,0,0,112.05,75.16Zm-18-9.11a1.73,1.73,0,1,1,1.41-2A1.77,1.77,0,0,1,94.05,66.05Zm6.65,4.53a1.74,1.74,0,0,1-2-1.41,1.73,1.73,0,1,1,2,1.41Zm6.7,4.53a1.74,1.74,0,0,1-.59-3.42,1.73,1.73,0,0,1,2,1.42A1.77,1.77,0,0,1,107.4,75.11Z"/></g></svg>