<svg xmlns="http://www.w3.org/2000/svg" viewBox="0 0 474.62 89.64"><defs><style>.cls-1{fill:aqua;}</style></defs><g id="extra-life-nav"><path class="cls-1" d="M344.51,20.21A5.5,5.5,0,0,0,343,24.26v31.1a5.82,5.82,0,0,0,1.53,4.06A5.52,5.52,0,0,0,348.57,61a5.8,5.8,0,0,0,4.05-1.53,5.16,5.16,0,0,0,1.54-4.06V24.17c0-3.69-1.9-5.59-5.59-5.59a5.74,5.74,0,0,0-4.06,1.63M343.7,3a6.61,6.61,0,0,0-2,4.87,7,7,0,0,0,2,4.87,7,7,0,0,0,9.74,0,6.76,6.76,0,0,0,0-9.74,7,7,0,0,0-9.74,0m-110,20.82a17.28,17.28,0,0,0-5.13,12.71V55.36a5.82,5.82,0,0,0,1.53,4.06A5.5,5.5,0,0,0,234.18,61a5.81,5.81,0,0,0,4.06-1.53,5.19,5.19,0,0,0,1.53-4.06V36.43a6,6,0,0,1,1.9-4.6,7.74,7.74,0,0,1,4.68-2.07c3.79-.36,5.68-2.16,5.68-5.68a5.58,5.58,0,0,0-1.53-4,5.24,5.24,0,0,0-4-1.54,17.8,17.8,0,0,0-12.8,5.23M193.62,10.47a5.82,5.82,0,0,0-1.53,4.06V43a17.09,17.09,0,0,0,5.14,12.71A17.3,17.3,0,0,0,210,60.86h5.23c3.69,0,5.58-1.89,5.58-5.68a5.84,5.84,0,0,0-1.53-4.06,5.5,5.5,0,0,0-4.05-1.53H210a6.27,6.27,0,0,1-4.78-2,6.61,6.61,0,0,1-2-4.78V30h12c3.69,0,5.58-1.89,5.58-5.59a5.8,5.8,0,0,0-1.53-4.05,5.5,5.5,0,0,0-4.05-1.53h-12V14.44a5.82,5.82,0,0,0-1.53-4.06,5.46,5.46,0,0,0-4.06-1.53,5.24,5.24,0,0,0-4.06,1.62m75.72,36.24a10,10,0,0,1-2.89-7.12,9.59,9.59,0,0,1,2.89-7,9.22,9.22,0,0,1,7-2.89,9.92,9.92,0,0,1,7.12,2.89,9.66,9.66,0,0,1,3,7.12v10h-10a9.66,9.66,0,0,1-7.12-3m-7.93-22.18a20.54,20.54,0,0,0-6.13,15.06,20.87,20.87,0,0,0,6.13,15.14,20.5,20.5,0,0,0,15,6.13h15.59s3-.54,4.06-1.53a5.19,5.19,0,0,0,1.53-4.06V39.68a21.28,21.28,0,0,0-36.23-15.15M324.59,3.44a5.45,5.45,0,0,0-1.53,4v48a5.6,5.6,0,0,0,1.53,4A5.52,5.52,0,0,0,328.65,61a5.8,5.8,0,0,0,4.05-1.53,5.16,5.16,0,0,0,1.54-4.06V7.41c0-3.7-1.9-5.59-5.59-5.59a6.34,6.34,0,0,0-4.06,1.62m56.25-1.89a17.09,17.09,0,0,0-12.71,5.14A17.44,17.44,0,0,0,363,19.49V55.18a5.69,5.69,0,0,0,1.53,4.06,5.24,5.24,0,0,0,4.06,1.62,5.49,5.49,0,0,0,4.05-1.62,5.43,5.43,0,0,0,1.54-4.06V42.56h8.47A5.84,5.84,0,0,0,386.7,41,5.51,5.51,0,0,0,388.23,37c0-3.78-1.89-5.68-5.59-5.68h-8.47V19.58a6.26,6.26,0,0,1,2-4.78,6.6,6.6,0,0,1,4.78-2h2.88a5.21,5.21,0,0,0,5.59-5.59c0-3.25-1.89-5.68-5.59-5.68Zm24,38a9.59,9.59,0,0,1,2.89-7,9.22,9.22,0,0,1,7-2.89,8.88,8.88,0,0,1,2.16.27l-12,11.36a11.48,11.48,0,0,1-.09-1.71m-5.13-15.06a20.54,20.54,0,0,0-6.13,15.06,20.94,20.94,0,0,0,21.18,21.27h7.39a5.75,5.75,0,0,0,4.06-9.65,5.54,5.54,0,0,0-4.06-1.53h-7.39a9.81,9.81,0,0,1-2.34-.27l16.94-16a5.42,5.42,0,0,0,.81-8.39,21.65,21.65,0,0,0-30.46-.45M116.83,39.59a9.58,9.58,0,0,1,2.88-7,9.23,9.23,0,0,1,7-2.89,9,9,0,0,1,2.17.27l-12,11.36c0-.63-.09-1.17-.09-1.71m-5-15.06a20.54,20.54,0,0,0-6.13,15.06,20.87,20.87,0,0,0,6.13,15.14,20.52,20.52,0,0,0,15,6.13h7.39a5.75,5.75,0,0,0,4.06-9.65,5.51,5.51,0,0,0-4.06-1.53h-7.39a9.81,9.81,0,0,1-2.34-.27l16.94-16a5.42,5.42,0,0,0,.82-8.39,21.66,21.66,0,0,0-30.47-.45m70,36.33a5.87,5.87,0,0,1-3.7-1.44A20.87,20.87,0,0,1,175,56l-7.48-9.37L159.82,56a17.51,17.51,0,0,1-3.15,3.43,5.91,5.91,0,0,1-3.52,1.44A7,7,0,0,1,149,59.24a4.23,4.23,0,0,1-1.72-3.34q0-1.89,2.44-5.14l9.73-12.16-8.56-9.83c-1.62-2-2.44-3.7-2.44-5.32a4.27,4.27,0,0,1,1.63-3.33,6.4,6.4,0,0,1,4-1.72,6,6,0,0,1,3.7,1.54,19.26,19.26,0,0,1,3.06,3.33l6.67,8.93,6.49-8.84a17.58,17.58,0,0,1,3.16-3.42,6,6,0,0,1,3.51-1.36,7,7,0,0,1,4.15,1.54,4.1,4.1,0,0,1,1.71,3.33,6.63,6.63,0,0,1-.63,2.62q-.68,1.08-1.89,2.7l-8.56,9.83,9.73,12.16c1.71,2.26,2.52,4,2.52,5.23a4,4,0,0,1-1.71,3.34A7.79,7.79,0,0,1,181.82,60.86ZM437.71,18v.72h-2V23.9h-.81V18.76h-2V18Zm.72,0h1.18l1.71,5,1.62-5H444V23.9h-.72V19l-1.71,4.95h-.81L439.07,19v4.86h-.73V18Zm28.85,49.67L450.33,48.33a2.89,2.89,0,0,0-4.14-.27l-19.38,17a2.89,2.89,0,0,0-.27,4.14l16.94,19.38a2.9,2.9,0,0,0,4.15.27L467,72A3.18,3.18,0,0,0,467.28,67.71ZM437,69.15a2.62,2.62,0,1,1,.27-3.69A2.67,2.67,0,0,1,437,69.15Zm5.68,6.49a2.62,2.62,0,1,1,.27-3.69A2.67,2.67,0,0,1,442.67,75.64Zm5.68,6.49a2.62,2.62,0,1,1,.27-3.69A2.67,2.67,0,0,1,448.35,82.13Zm.9-23.25a2.62,2.62,0,1,1,.27-3.7A2.69,2.69,0,0,1,449.25,58.88Zm5.68,6.4a2.62,2.62,0,1,1,.27-3.7A2.68,2.68,0,0,1,454.93,65.28Zm5.68,6.49a2.62,2.62,0,1,1,.27-3.7A2.68,2.68,0,0,1,460.61,71.77Z"/><path class="cls-1" d="M474.58,51.57l-4.51-25.41a2.84,2.84,0,0,0-3.42-2.35l-25.42,4.51a2.83,2.83,0,0,0-2.34,3.42l3.24,18.12,3.7-3.24a3.52,3.52,0,0,1,4.86.36l9,10.27L472.33,55A3,3,0,0,0,474.58,51.57ZM447,37.6a2.65,2.65,0,1,1,2.16-3.06A2.71,2.71,0,0,1,447,37.6Zm10.18,6.94a2.65,2.65,0,1,1,2.17-3.06A2.65,2.65,0,0,1,457.18,44.54Zm10.28,6.94a2.65,2.65,0,1,1,2.16-3.06A2.71,2.71,0,0,1,467.46,51.48Z"/><path class="cls-1" d="M46.06,35.72c-7.27,4.12-14,5.82-15.12,3.86s3.86-6.87,11.13-10.93,14-5.82,15.11-3.86-3.93,6.87-11.12,10.93m13-11.45c-1.57-2.81-9.48-1.37-17.66,3.27S27.93,38.14,29.5,41,39,42.33,47.17,37.68s13.47-10.6,11.9-13.41"/><path class="cls-1" d="M29.64,58.55c0,.66.06,1.37.13,2.09a20.06,20.06,0,0,0,.85,4.19c0,.07,0,.07.06.13s.07.2.07.33a.26.26,0,0,0,.06.13c0,.13.07.2.13.33s.07.06.07.13.06.19.13.33.07.06.07.13.06.19.13.32,0,.07.06.13.07.2.13.33.07.07.07.13.06.2.13.33,0,.06.06.13.07.2.14.33a.06.06,0,0,0,.06.06.65.65,0,0,1,.13.33.06.06,0,0,0,.07.06c.06.14.13.2.19.33v.07c.07.13.13.19.2.32v.07c.06.13.13.2.2.33a1.28,1.28,0,0,0,.19.32,15.58,15.58,0,0,0,2.88,3.41C37.22,68.17,31.86,67.64,29.64,58.55Z"/><path class="cls-1" d="M73.34,45.86c3,8.9-1.25,12.23,2.68,15.63,1.11-3.27.85-8.57-1.7-13.8A12.55,12.55,0,0,0,73.34,45.86Z"/><path class="cls-1" d="M30.55,60.32c0,.13-.06.19-.06.26A.42.42,0,0,0,30.55,60.32Z"/><path class="cls-1" d="M34.21,54.23c0,.07,0,.07.07.07l.07.06h.19l2-.72.59,2.16c0,.07,0,.07.06.13l.07.07h.26l1.83-.65c.07,0,.07,0,.13-.07l.07-.07V55l-.72-2.16L41,52c.06,0,.06-.07.13-.07l.06-.06v-.26L40.56,50a.06.06,0,0,0-.06-.06l-.07-.07h-.26l-2.1.79-.58-1.84a.06.06,0,0,0-.07-.06l-.07-.07h-.13l-1.63.66s-.07,0-.07.06l-.06.07v.13L36,51.42l-2,.72c-.07,0-.07,0-.07.07l-.06.06v.13l.32,1.83ZM40.3,51l-.33.78-.39-1.11ZM38.73,54.3l-.46.78-.78-.32Zm-1-2.75c.07,0,.13.07.2.13s.13.13.13.2.06.19,0,.26-.07.2-.07.26-.06.13-.19.2a.36.36,0,0,1-.26.13c-.07,0-.2.06-.27.06a.43.43,0,0,1-.26-.06c-.06-.07-.13-.07-.19-.13s-.13-.13-.13-.2v-.26c0-.07.06-.2.06-.26s.07-.13.13-.2a.36.36,0,0,1,.26-.13.43.43,0,0,1,.26-.06C37.55,51.49,37.62,51.49,37.68,51.55Zm-1.11-2.09.72.26-1.18.46ZM34.93,52.4l.33,1.11-.65-.39Z"/><path class="cls-1" d="M68.1,43.31a1.9,1.9,0,0,0-.39-.33l-.52-.2h-.53c-.19.07-.32.14-.45.2a.75.75,0,0,0-.33.33,3,3,0,0,0-.2.46,1.36,1.36,0,0,0,.07.52,1,1,0,0,0,.26.46,1.09,1.09,0,0,0,.46.32,3,3,0,0,0,.52.2h.59c.2-.06.33-.13.52-.2a1.9,1.9,0,0,0,.33-.39,1.33,1.33,0,0,0,.13-.46,1.36,1.36,0,0,0-.07-.52C68.36,43.64,68.23,43.44,68.1,43.31Z"/><path class="cls-1" d="M65.81,47.23a2.67,2.67,0,0,0-.46-.39c-.19-.06-.32-.13-.52-.2a1.94,1.94,0,0,0-.59,0,1.43,1.43,0,0,0-.52.27l-.39.39a.9.9,0,0,0-.2.52v.59a2.53,2.53,0,0,0,.26.59.82.82,0,0,0,.46.39,1.07,1.07,0,0,0,.59.2h.65a1.38,1.38,0,0,0,.53-.26,2.67,2.67,0,0,0,.39-.46c.06-.2.13-.33.2-.52a1.68,1.68,0,0,0-.07-.59C66.07,47.63,65.94,47.43,65.81,47.23Z"/><path class="cls-1" d="M22.7,43.24A5.88,5.88,0,0,1,25,45.79a2.53,2.53,0,0,0-.78-.52c-1.05-.39-3.86-.78-5.57-2.55a5.61,5.61,0,0,1-1.3-4.12c.39-4.65.45-4.78-2.69-7.2a7.86,7.86,0,0,1,1.51,2.16,4,4,0,0,0-1.9-1.5,17.45,17.45,0,0,1-6.48-6,15.57,15.57,0,0,0,.53,2.22,66.93,66.93,0,0,1-6-6.8,16.06,16.06,0,0,0,2.88,7.19A26.56,26.56,0,0,1,1.05,22.9a21.55,21.55,0,0,0,3.73,6.41,41.31,41.31,0,0,1-3.47-2.88,13.64,13.64,0,0,0,4.05,6.74A30.73,30.73,0,0,1,0,29.31a22.44,22.44,0,0,0,4.64,4.25c-1.89-1.05-3.33-1.83-3.33-1.83A10.7,10.7,0,0,0,5.89,37,26.8,26.8,0,0,1,.07,34.28a22.53,22.53,0,0,0,5.69,3.4,25.94,25.94,0,0,1-3.86-.59A8,8,0,0,0,7,40.82a28.22,28.22,0,0,1-5.95-.91,22.76,22.76,0,0,0,5.82,1.57,35.94,35.94,0,0,1-3.73.59,6.55,6.55,0,0,0,4.71,2.09,29.57,29.57,0,0,1-4.78.65,21.8,21.8,0,0,0,5.7-.19c-2.16,1.11-3.86,1.76-3.86,1.76a6.16,6.16,0,0,0,4.58.79,30,30,0,0,1-4.65,1.5,24.59,24.59,0,0,0,5.69-1.24c-1.83,1.44-3.27,2.35-3.27,2.35a6.82,6.82,0,0,0,5.24-.58,24.65,24.65,0,0,1-4.78,2.74,21.51,21.51,0,0,0,4.78-2c-1.38,1.43-2.43,2.35-2.43,2.35A7.6,7.6,0,0,0,14.85,51a21.62,21.62,0,0,1-3.73,3.2,19.73,19.73,0,0,0,4.32-3A22,22,0,0,1,13.21,54a7.59,7.59,0,0,0,4.78-2,19,19,0,0,1-3.47,3.41,14.76,14.76,0,0,0,3.86-3.08A16.31,16.31,0,0,1,16.81,55,6.62,6.62,0,0,0,21,52.79a17.74,17.74,0,0,1-2.09,3,15.59,15.59,0,0,0,2.68-3.2,15.25,15.25,0,0,1-1,3.07A4.88,4.88,0,0,0,24.34,53a17,17,0,0,1-1.12,3.21,14.05,14.05,0,0,0,1.51-3.28A12,12,0,0,1,24.6,56c2-.59,2.81-1.7,2.88-3.08a21.09,21.09,0,0,1,.19,3.73,15,15,0,0,0,.26-3.4,13.66,13.66,0,0,1,.79,3,2.74,2.74,0,0,0,1-1l.19-5.14A14,14,0,0,0,22.7,43.24Z"/><path class="cls-1" d="M73.92,54.56a27.89,27.89,0,0,0-1-9.49,17.8,17.8,0,0,0-1.24-1.83h0l-3.65-3.59,0,.05c-3.27-2.62-7.06-3.34-10.92-.79-.26.2-.46.33-.66.46a35.52,35.52,0,0,1-.45,11.19,10.14,10.14,0,0,1-1.71,3.93c1.84-2.56,2.42-8,1.77-14.79-.85.52-2.16,1-7.72,2.55s-6.87,2-7.91,2C43.57,50.31,47,54.56,49.92,55.8a10.28,10.28,0,0,1-3.54-2.35A37.16,37.16,0,0,1,40,44.22h-.79c-4.77-.06-7.59,2.75-8.9,6.87,0-.06-.06-.13-.06-.19l.2-.59A9.19,9.19,0,0,1,36,44.49c-.06-.07-.2-.07-.33-.07l-.72.2a7.54,7.54,0,0,0-5,5.49l0,0-.19,5.14v0c0,.31,0,.62,0,.94v0c0,.51,0,1,0,1.55a20,20,0,0,0,.91,2.62,32.16,32.16,0,0,0,3.34,5.95c1.57,2.36,2.75,4.06,2,7a4.76,4.76,0,0,0,3.66,1.18c1.18-.26,1.9-1.9,2.35-3.86a21.09,21.09,0,0,1-.13-3.93,22.81,22.81,0,0,1,.4-3.79,4.36,4.36,0,0,1-.85-1.57A4.23,4.23,0,0,1,44.16,56a4.17,4.17,0,0,1,4.12,1.11,4,4,0,0,0-3.79-.85,4.14,4.14,0,0,0-2.82,5,5.34,5.34,0,0,0,.79,1.5A25.29,25.29,0,0,0,42,70.13c.33-1.31.59-2.75.85-3.92.07-.14.07-.33.13-.46v-.07c0-.06,0-.06.07-.13v-.06c0-.07,0-.07.06-.14v-.06c0-.07.07-.13.07-.2v-.32s0-.07.06-.07a.06.06,0,0,1,.07-.06s0-.07.06-.07.07-.07.07-.13v-.07a.06.06,0,0,1,.06-.06v-.07a.06.06,0,0,1,.07-.06v-.07l.07-.06.13-.13a3.93,3.93,0,0,0,2.87.19,4.06,4.06,0,0,0,3-3.4c.65-.26,1.37-.59,2-.79l.45-.19a1,1,0,0,1,.46-.13h.07c.13-.07.26-.07.39-.13h.07c.13-.07.26-.07.39-.13s.26-.07.39-.13h.07a4.12,4.12,0,0,1,.45-.14h.07c1-.26,2-.45,3.14-.65a4,4,0,0,0,4.32,1.31A4.08,4.08,0,0,0,64.18,58c.06,0,.13.06.19.06a.19.19,0,0,1,.13.07s.07,0,.07.06h.07a.06.06,0,0,1,.06.07h.07a.06.06,0,0,1,.06.06,1.25,1.25,0,0,0,.33.2h.06l.07.07c.13.13.33.26.46.39l.13.13c.13.13.26.2.39.33.92.85,1.83,1.89,2.81,2.81a25.57,25.57,0,0,0-4.25-6,3.7,3.7,0,0,0-.13-1.7,4,4,0,0,0-7.65-.46,4,4,0,0,1,2.74-2.75A4.21,4.21,0,0,1,65,54.36a4.26,4.26,0,0,1,.13,1.84,20,20,0,0,1,2.36,2.94,15.71,15.71,0,0,1,2,3.4c1.44,1.38,2.88,2.42,4.06,2A4.77,4.77,0,0,0,76,61.56C73.79,59.47,73.86,57.37,73.92,54.56ZM48.67,49.13a12.74,12.74,0,0,0-1.63.72.44.44,0,0,1-.53-.2c-.06-.06-.06-.19-.13-.26a.41.41,0,0,1,.2-.52l1.77-.79a.42.42,0,0,1,.52.2c.06.07.06.2.13.26A.61.61,0,0,1,48.67,49.13Zm-13.87.13a4.5,4.5,0,0,1,1.44-.85,4.79,4.79,0,0,1,1.64-.33,4.33,4.33,0,0,1,1.57.27,3.55,3.55,0,0,1,1.37.85,5.25,5.25,0,0,1,1,1.37,5.53,5.53,0,0,1,.33,1.77,4.47,4.47,0,0,1-.46,1.76,5,5,0,0,1-1.11,1.51,12.49,12.49,0,0,1-1.83.85,4.53,4.53,0,0,1-1.83.19,4.33,4.33,0,0,1-1.64-.52A4.65,4.65,0,0,1,34,55.08a3.87,3.87,0,0,1-.72-1.5,4.76,4.76,0,0,1-.07-1.64,4.27,4.27,0,0,1,.53-1.5A6,6,0,0,1,34.8,49.26Zm8.7,3.21a4.81,4.81,0,0,1-.58,2.29,5.39,5.39,0,0,1-1.51,2A6.86,6.86,0,0,1,39.19,58c-.07,0-.13.06-.2.06a6.44,6.44,0,0,1-2.22.2,5,5,0,0,1-2.16-.72A4.65,4.65,0,0,1,33,56.13a5.14,5.14,0,0,1-.85-2,5.7,5.7,0,0,1,0-2.1,5,5,0,0,1,.72-1.89,2.57,2.57,0,0,1,.45-.66,2.14,2.14,0,0,0-.32.53,6,6,0,0,0-.66,1.83,5.33,5.33,0,0,0,0,2,5,5,0,0,0,.85,1.89,4.42,4.42,0,0,0,1.51,1.38,5.32,5.32,0,0,0,2,.65,5.74,5.74,0,0,0,2.35-.26,7.06,7.06,0,0,0,2.16-1.24,5.94,5.94,0,0,0,1.44-1.9,5.24,5.24,0,0,0,.52-2.22A6.72,6.72,0,0,0,42.85,50a5.61,5.61,0,0,0-1.24-1.7,5.07,5.07,0,0,0-1.7-1c-.2-.07-.46-.13-.72-.2l.91.2a4.84,4.84,0,0,1,1.77,1.05,6,6,0,0,1,1.31,1.76A7.62,7.62,0,0,1,43.5,52.47ZM52,47a15.55,15.55,0,0,1,1.9-.26.48.48,0,0,1,.45.32v.33a.36.36,0,0,1-.32.39c-.59.07-1.18.13-1.77.26-.2.07-.39-.06-.46-.32s-.06-.2-.06-.26A.36.36,0,0,1,52,47Zm-7.2,10.6a2.15,2.15,0,0,1,2.42.85,2.71,2.71,0,0,0-2.29-.2,2.93,2.93,0,0,0-1.76,1.37A2.23,2.23,0,0,1,44.81,57.64Zm1.57,5.49a3,3,0,0,1-3.66-2,3,3,0,0,1-.13-.78c0,.13.06.32.06.46a2.86,2.86,0,0,0,5.5-1.57c-.07-.14-.13-.33-.2-.46a2.51,2.51,0,0,1,.33.72A2.79,2.79,0,0,1,46.38,63.13Zm6.48-6.08a35.9,35.9,0,0,0-3.66,1.37,1.59,1.59,0,0,0-.2-.33,31.2,31.2,0,0,1,3.73-1.44,29.18,29.18,0,0,1,3.92-.78.77.77,0,0,1,.07.39A28.81,28.81,0,0,0,52.86,57.05Zm7.2-3.86a2.16,2.16,0,0,1,2.42.85,3.28,3.28,0,0,0-2.29-.26,3,3,0,0,0-1.77,1.37A2.4,2.4,0,0,1,60.06,53.19Zm-2,3.2a2.86,2.86,0,1,0,5.49-1.57,4.94,4.94,0,0,0-.19-.52,2.13,2.13,0,0,1,.39.85A3,3,0,1,1,58,56.78,3.43,3.43,0,0,1,58,56C58,56.13,58,56.26,58,56.39Zm4-10.46h0a3,3,0,0,1-.26.66,3.28,3.28,0,0,1-.53.52,1.33,1.33,0,0,1-.65.26,1.26,1.26,0,0,1-.72,0,1.81,1.81,0,0,1-.65-.26,1.68,1.68,0,0,1-.53-.46,2,2,0,0,1-.26-.65,1,1,0,0,1,.07-.65,2,2,0,0,1,.26-.59,1.64,1.64,0,0,1,.52-.46,1.89,1.89,0,0,1,.65-.26,1.26,1.26,0,0,1,.72,0l.66.19a3.14,3.14,0,0,1,.46.4,1.15,1.15,0,0,1,.26.59A1.44,1.44,0,0,1,62,45.93Zm.13-2.75a1.4,1.4,0,0,1-.59-.46,1.28,1.28,0,0,1-.26-.52.85.85,0,0,1,0-.59,1.86,1.86,0,0,1,.26-.53,2.67,2.67,0,0,1,.46-.39,2,2,0,0,1,1.24-.19,2.25,2.25,0,0,1,.59.19.91.91,0,0,1,.46.39.81.81,0,0,1,.26.53,1.68,1.68,0,0,1,.07.59,1.35,1.35,0,0,1-.2.52c-.13.13-.26.33-.46.39a2.17,2.17,0,0,1-.59.26,1,1,0,0,1-.65,0A5.93,5.93,0,0,1,62.15,43.18Zm4.19,6.08a1.88,1.88,0,0,1-1.12.85,1.47,1.47,0,0,1-.78,0,3,3,0,0,1-.72-.26,2,2,0,0,1-.52-.52,2.91,2.91,0,0,1-.33-.66,1.26,1.26,0,0,1,0-.72,1.89,1.89,0,0,1,.26-.65,1.64,1.64,0,0,1,.46-.52,1.09,1.09,0,0,1,.65-.27,1.46,1.46,0,0,1,.72,0,2,2,0,0,1,.66.27,1.88,1.88,0,0,1,.52.45,2.27,2.27,0,0,1,.33.66,2.92,2.92,0,0,1,.06.72A2,2,0,0,1,66.34,49.26Zm2.29-4.19c-.07.2-.27.33-.4.46a2,2,0,0,1-.59.26,1.26,1.26,0,0,1-.72,0l-.65-.19a1.64,1.64,0,0,1-.52-.46,2.92,2.92,0,0,1-.33-.59,2.09,2.09,0,0,1-.07-.65.76.76,0,0,1,.2-.53,2.39,2.39,0,0,1,.39-.39,2.32,2.32,0,0,1,.59-.26,1.06,1.06,0,0,1,.66,0l.59.2a3.91,3.91,0,0,1,.52.39,1.54,1.54,0,0,1,.33.52,1,1,0,0,1,.19.66A1,1,0,0,1,68.63,45.07Z"/><path class="cls-1" d="M82.69,28.92a6.63,6.63,0,0,0,4.71-2.36s-1.7,0-4.05-.2a22.76,22.76,0,0,0,5.49-2A36.12,36.12,0,0,1,84,25.58h0a6.43,6.43,0,0,0,3.47-3.14,32.24,32.24,0,0,1-4.19.59,25.41,25.41,0,0,0,5-2.88,25.17,25.17,0,0,1-4.38,2,6.59,6.59,0,0,0,2.81-4.32,32.65,32.65,0,0,1-3.47,1.5,22.84,22.84,0,0,0,4.13-4.44,28.38,28.38,0,0,1-4.58,3.92A8.21,8.21,0,0,0,85.05,13a25.58,25.58,0,0,1-3,2.55,23,23,0,0,0,3-5.95A26.51,26.51,0,0,1,81.58,15a10.47,10.47,0,0,0,1-6.93s-.78,1.44-2.09,3.4A21.82,21.82,0,0,0,82.1,5.36a28.13,28.13,0,0,1-2.48,6.15,13.68,13.68,0,0,0-.2-7.91S79,5.43,78.05,7.92a22.85,22.85,0,0,0-.33-7.4,28.3,28.3,0,0,1-.39,7.07A15.54,15.54,0,0,0,75.89,0a69.76,69.76,0,0,1-1.44,9,16.37,16.37,0,0,0-.72-2.22,17.18,17.18,0,0,1-2.29,8.57,4.16,4.16,0,0,0-.79,2.29A7.36,7.36,0,0,1,70.78,15c-1.37,3.73-1.24,3.73,1.57,7.46a5.46,5.46,0,0,1,1.12,4.19c-.46,2.42-2.62,4.18-3.34,5.1a2.31,2.31,0,0,0-.39.85,6.83,6.83,0,0,1,.59-3.4,14.2,14.2,0,0,0-2.42,9.42,7.58,7.58,0,0,0-7-1.77,3,3,0,0,0-.66.26c-.13.07-.19.13-.19.2a9.18,9.18,0,0,1,7.72,2,.84.84,0,0,0,.26.2.68.68,0,0,0,0,.21l3.65,3.59a3.15,3.15,0,0,0,1,.12,14.62,14.62,0,0,1-.91-2.94,13.67,13.67,0,0,0,2,2.75A16.71,16.71,0,0,1,72,40c.79,1.11,2.1,1.64,4.06,1.05a11.86,11.86,0,0,1-1.77-2.55,16.76,16.76,0,0,0,3,2,19.78,19.78,0,0,1-2.62-2.09,5.13,5.13,0,0,0,4.58.26,12,12,0,0,1-2.48-2,16.67,16.67,0,0,0,4,1.31,24.64,24.64,0,0,1-3.4-1.44,6.58,6.58,0,0,0,4.77-.39,17.24,17.24,0,0,1-2.81-1.44,13.5,13.5,0,0,0,4.91.52,20.36,20.36,0,0,1-4.71-1,7.8,7.8,0,0,0,5.1-.85,30.32,30.32,0,0,1-3.34-1.18,17.59,17.59,0,0,0,5.3.26,22.46,22.46,0,0,1-4.84-.72,7.88,7.88,0,0,0,4.71-1.5s-1.37-.2-3.34-.66a24.15,24.15,0,0,0,5.11-.78A27.3,27.3,0,0,1,82.69,28.92Z"/><path class="cls-1" d="M63.78,42.78a.68.68,0,0,0,.33-.32,3,3,0,0,0,.2-.46v-.46c-.07-.13-.13-.33-.26-.39s-.27-.2-.4-.33l-.45-.19h-.53a1.65,1.65,0,0,0-.52.19.87.87,0,0,0-.33.33c-.06.13-.19.26-.19.39a.53.53,0,0,0,0,.46,3.07,3.07,0,0,0,.19.46,1.57,1.57,0,0,0,.39.32,3.49,3.49,0,0,0,.53.2h.52C63.46,42.92,63.59,42.85,63.78,42.78Z"/><path class="cls-1" d="M34.08,55a3.68,3.68,0,0,0,1.18,1,3.39,3.39,0,0,0,1.57.45,4.51,4.51,0,0,0,1.83-.19,4.38,4.38,0,0,0,1.64-1,4.8,4.8,0,0,0,1.11-1.44,5.3,5.3,0,0,0,.46-1.7,5.1,5.1,0,0,0-.26-1.71,4,4,0,0,0-.92-1.37,3,3,0,0,0-1.31-.78,3.74,3.74,0,0,0-1.5-.27,4.37,4.37,0,0,0-1.57.33,4.93,4.93,0,0,0-1.38.85,4.75,4.75,0,0,0-1,1.24,4.48,4.48,0,0,0-.52,1.44,3.49,3.49,0,0,0,0,1.64A4.87,4.87,0,0,0,34.08,55Zm-.32-3a3.06,3.06,0,0,1,.45-1.31,4.74,4.74,0,0,1,.86-1.11,3.93,3.93,0,0,1,1.24-.79,3.62,3.62,0,0,1,1.44-.26,3.51,3.51,0,0,1,1.37.26,3.77,3.77,0,0,1,1.18.72,3.26,3.26,0,0,1,.78,1.25,3.74,3.74,0,0,1,.27,1.5,3.94,3.94,0,0,1-.4,1.51A4.75,4.75,0,0,1,40,55a4,4,0,0,1-1.44.85,3.27,3.27,0,0,1-1.57.2,5.29,5.29,0,0,1-1.44-.4,2.74,2.74,0,0,1-1-.91,2.9,2.9,0,0,1-.59-1.31A2.64,2.64,0,0,1,33.76,52Z"/><path class="cls-1" d="M61.49,44.68a1.9,1.9,0,0,0-.39-.33,4.22,4.22,0,0,0-.52-.19H60a4.22,4.22,0,0,0-.52.19c-.13.14-.33.27-.4.4a1.64,1.64,0,0,0-.26.46,1,1,0,0,0,0,.58,1.2,1.2,0,0,0,.2.53l.39.39a.75.75,0,0,0,.52.2h.59a2.08,2.08,0,0,0,.59-.27,1,1,0,0,0,.39-.39.69.69,0,0,0,.2-.52.66.66,0,0,0,0-.52C61.63,45,61.56,44.88,61.49,44.68Z"/></g></svg>