<svg xmlns="http://www.w3.org/2000/svg" viewBox="0 0 1200 286.93"><defs><style>.cls-1{fill:#f9cf00;}.cls-2{fill:#fff;}</style></defs><g id="extra-life-main"><path class="cls-1" d="M154.51,119.84c-24.36,13.82-47,19.53-50.7,12.95s13-23,37.32-36.66c24.36-13.82,47-19.53,50.7-12.95,3.51,6.59-13.17,23-37.32,36.66m43.68-38.41c-5.27-9.44-31.82-4.61-59.26,11C111.5,107.76,93.72,128,99,137.39s31.82,4.61,59.26-11c27.43-15.36,45.21-35.56,39.94-45"/><path d="M99.42,196.43c0,2.2.22,4.61.44,7a68.85,68.85,0,0,0,2.86,14c0,.22,0,.22.22.44,0,.44.22.66.22,1.1a.77.77,0,0,0,.22.44c0,.44.21.66.43,1.1,0,.22.22.22.22.44.22.44.22.66.44,1.09,0,.22.22.22.22.44.22.44.22.66.44,1.1,0,.22,0,.22.22.44.22.44.22.66.44,1.1,0,.22.22.22.22.44.22.43.22.65.44,1.09,0,.22,0,.22.22.44.22.44.22.66.44,1.1a.22.22,0,0,0,.22.22c.22.44.43.66.43,1.1a.22.22,0,0,0,.22.22c.22.43.44.65.66,1.09v.22c.22.44.44.66.66,1.1v.22c.22.44.44.66.66,1.1a4.71,4.71,0,0,0,.66,1.09A51.54,51.54,0,0,0,120.28,246C124.88,228.7,106.89,226.94,99.42,196.43Z"/><path d="M246,153.86c10.09,29.85-4.17,41,9,52.45,3.73-11,2.85-28.75-5.71-46.31A42.73,42.73,0,0,0,246,153.86Z"/><path class="cls-2" d="M102.5,202.36c0,.44-.22.66-.22.88A1.29,1.29,0,0,0,102.5,202.36Z"/><path class="cls-2" d="M114.79,182c0,.22,0,.22.22.22l.22.22h.66l6.8-2.42,2,7.25c0,.22,0,.22.22.44l.22.22H126l6.15-2.2c.22,0,.22,0,.44-.22l.22-.22v-.88l-2.42-7.24,7.24-2.63c.22,0,.22-.22.44-.22l.22-.22v-.88l-2.19-5.49a.22.22,0,0,0-.22-.22l-.22-.22h-.88l-7,2.64-2-6.15a.22.22,0,0,0-.22-.22l-.22-.22h-.44l-5.48,2.2a.22.22,0,0,0-.22.22l-.22.22v.44l1.75,6.14-6.58,2.42c-.22,0-.22,0-.22.22l-.22.21v.44l1.1,6.15Zm20.41-10.76-1.1,2.64-1.31-3.73Zm-5.27,11-1.53,2.63-2.64-1.09ZM126.42,173c.22,0,.44.22.66.44s.44.44.44.66.22.66,0,.88c0,.22-.22.65-.22.87-.22.22-.22.44-.66.66a1.14,1.14,0,0,1-.88.44c-.22,0-.66.22-.88.22a1.3,1.3,0,0,1-.87-.22c-.22-.22-.44-.22-.66-.44s-.44-.44-.44-.66v-.87c0-.22.22-.66.22-.88.22-.22.22-.44.44-.66a1.14,1.14,0,0,1,.88-.44,1.28,1.28,0,0,1,.87-.22C126,172.73,126.2,172.73,126.42,173Zm-3.73-7,2.41.88-3.95,1.53Zm-5.49,9.87,1.1,3.73-2.2-1.31Z"/><path class="cls-2" d="M228.48,145.3a5.83,5.83,0,0,0-1.32-1.1,15.65,15.65,0,0,0-1.75-.66h-1.76a10.73,10.73,0,0,0-1.54.66,2.63,2.63,0,0,0-1.09,1.1,10.08,10.08,0,0,0-.66,1.53,4.84,4.84,0,0,0,.22,1.76,3.45,3.45,0,0,0,.88,1.53,3.84,3.84,0,0,0,1.53,1.1,15.16,15.16,0,0,0,1.76.66h2c.66-.22,1.1-.44,1.76-.66a6,6,0,0,0,1.1-1.31,4.08,4.08,0,0,0,.44-1.54,4.84,4.84,0,0,0-.22-1.76C229.36,146.39,228.92,145.73,228.48,145.3Z"/><path class="cls-2" d="M220.8,158.46a10.08,10.08,0,0,0-1.54-1.31c-.66-.22-1.1-.44-1.76-.66a5.92,5.92,0,0,0-2,0,4.42,4.42,0,0,0-1.76.88l-1.31,1.31a2.93,2.93,0,0,0-.66,1.76v2a7.91,7.91,0,0,0,.88,2,2.94,2.94,0,0,0,1.53,1.32,3.55,3.55,0,0,0,2,.66h2.19a4.42,4.42,0,0,0,1.76-.88,9.57,9.57,0,0,0,1.32-1.54c.21-.66.43-1.1.65-1.75a6.09,6.09,0,0,0-.22-2A19.84,19.84,0,0,0,220.8,158.46Z"/><path class="cls-2" d="M76.16,145.08a19.57,19.57,0,0,1,7.68,8.56,7.86,7.86,0,0,0-2.63-1.76c-3.51-1.32-12.95-2.63-18.66-8.56a18.73,18.73,0,0,1-4.39-13.83c1.32-15.58,1.54-16-9-24.14,0,0,4.39,4.61,5.05,7.24a13.68,13.68,0,0,0-6.36-5c-4.61-2.2-14.71-9-21.73-20.2a49.6,49.6,0,0,0,1.75,7.47A221.77,221.77,0,0,1,7.68,72a54.34,54.34,0,0,0,9.66,24.14A90,90,0,0,1,3.51,76.82,72.75,72.75,0,0,0,16,98.33,143.3,143.3,0,0,1,4.39,88.67C7.24,99,12.29,106.23,18,111.28a102.28,102.28,0,0,1-18-13,75,75,0,0,0,15.58,14.26c-6.36-3.51-11.19-6.14-11.19-6.14,4,9,9.44,14.48,15.36,17.78A89.12,89.12,0,0,1,.22,115a75.4,75.4,0,0,0,19.09,11.41,91.88,91.88,0,0,1-12.95-2c5.05,7.68,11,11.19,17.12,12.51a96.4,96.4,0,0,1-20-3.08,75.64,75.64,0,0,0,19.54,5.27,111.49,111.49,0,0,1-12.52,2c5.05,5,10.54,7,15.81,7a99.77,99.77,0,0,1-16,2.19,72.94,72.94,0,0,0,19.09-.65c-7.24,3.73-12.95,5.92-12.95,5.92a20.82,20.82,0,0,0,15.36,2.64,99.58,99.58,0,0,1-15.58,5,83.69,83.69,0,0,0,19.1-4.17c-6.15,4.83-11,7.9-11,7.9a22.75,22.75,0,0,0,17.56-2,81.73,81.73,0,0,1-16,9.22,71.23,71.23,0,0,0,16-6.81c-4.61,4.83-8.12,7.9-8.12,7.9a25.39,25.39,0,0,0,16-4.17A72.06,72.06,0,0,1,37.31,182a66.44,66.44,0,0,0,14.49-10.1,72.37,72.37,0,0,1-7.47,9.22c7-.66,12.08-3.07,16-6.8a64,64,0,0,1-11.64,11.41,48.9,48.9,0,0,0,13-10.32,55.56,55.56,0,0,1-5.26,9.22c6.58-1.09,11.19-4,14-7.46a60.43,60.43,0,0,1-7,10.1,52.56,52.56,0,0,0,9-10.76,52.2,52.2,0,0,1-3.29,10.32c6.8-1.54,10.75-4.83,12.51-9a58,58,0,0,1-3.73,10.75,46.94,46.94,0,0,0,5-11,39.67,39.67,0,0,1-.44,10.32c6.81-2,9.44-5.71,9.66-10.32a71.51,71.51,0,0,1,.66,12.51,51.22,51.22,0,0,0,.88-11.41,46.42,46.42,0,0,1,2.63,9.87,9.14,9.14,0,0,0,3.26-3.24l.65-17.25A47.2,47.2,0,0,0,76.16,145.08Z"/><path class="cls-2" d="M101.84,171.41c0-.22-.22-.43-.22-.65l.66-2c3.73-9.88,10.09-16.68,18.43-19.53a1.62,1.62,0,0,0-1.09-.22c-.88.22-1.54.44-2.42.66-8.12,2.41-14,8.77-16.9,18.43,0,0,0-.05,0-.08l-.64,17.13,2.31-14Z"/><path d="M248,183.05c.22-8.12.66-18.22-3.29-31.83a60.14,60.14,0,0,0-4.17-6.14l.11,0-12.24-12a.7.7,0,0,0,.06.17c-11-8.77-23.7-11.19-36.65-2.63-.88.66-1.54,1.1-2.2,1.54,1.32,14.92.88,27.87-1.54,37.53-1.31,5.7-3.29,10.09-5.7,13.17,6.14-8.56,8.12-26.78,5.92-49.61-2.85,1.76-7.24,3.3-25.89,8.56-18.66,5.49-23,6.59-26.56,6.59,10.31,20.41,21.73,34.68,31.6,38.85q-5.6-2-11.85-7.9c-7-7-14.48-17.56-21.29-30.95h-2.63c-15.92-.22-25.33,9.1-29.76,22.78l-2.31,14v.12l0,0c-.08,1-.11,2.08-.14,3.14,0,1.71-.08,3.44-.08,5.2a67.68,67.68,0,0,0,3.08,8.78c3.51,8.56,7.68,14.71,11.19,20,5.27,7.9,9.22,13.61,6.8,23.49,4.17,3.29,8.56,4.61,12.3,4,4-.88,6.36-6.37,7.9-13-.44-1.32-.66-7.68-.44-13.17.22-3.73.44-9.44,1.31-12.73a15.46,15.46,0,0,1-2.85-5.27,14.24,14.24,0,0,1,9.44-17.77A13.93,13.93,0,0,1,162,191.61a13.27,13.27,0,0,0-12.73-2.86,13.85,13.85,0,0,0-9.44,16.9,18.58,18.58,0,0,0,2.63,5c-2,5.93-2.19,23.49-1.53,24.58,1.09-4.39,2-9.22,2.85-13.17.22-.43.22-1.09.44-1.53v-.22c0-.22,0-.22.22-.44v-.22c0-.22,0-.22.22-.44V219c0-.22.22-.44.22-.66v-1.09a.22.22,0,0,1,.22-.22.22.22,0,0,1,.22-.22.22.22,0,0,1,.22-.22c0-.22.21-.22.21-.44V216a.22.22,0,0,1,.22-.22v-.22a.22.22,0,0,1,.22-.22v-.22l.22-.22.44-.44a13.24,13.24,0,0,0,9.66.66,13.6,13.6,0,0,0,9.88-11.41c2.19-.88,4.61-2,6.8-2.64.44-.22,1.1-.43,1.54-.65a3.14,3.14,0,0,1,1.53-.44h.22c.44-.22.88-.22,1.32-.44H178c.44-.22.88-.22,1.32-.44s.87-.22,1.31-.44h.22a14,14,0,0,1,1.54-.44h.22c3.29-.88,6.8-1.54,10.53-2.19a13.3,13.3,0,0,0,14.49,4.39,13.61,13.61,0,0,0,7.68-5.71c.22,0,.44.22.66.22a.68.68,0,0,1,.44.22.22.22,0,0,1,.22.22h.22a.22.22,0,0,1,.22.22h.22a.21.21,0,0,1,.21.22,4.81,4.81,0,0,0,1.1.66h.22l.22.21c.44.44,1.1.88,1.54,1.32l.44.44c.44.44.87.66,1.31,1.1,3.08,2.85,6.15,6.36,9.44,9.44,0-1.1-9.44-16-14.27-20a12.94,12.94,0,0,0-.43-5.7,13.59,13.59,0,0,0-25.68-1.54,13.43,13.43,0,0,1,9.21-9.22c7.47-2.19,15.15,2.42,17.34,9.88a14.55,14.55,0,0,1,.44,6.14c2.64,2.42,5.93,7,7.9,9.88,3.08,4.39,6.37,9.88,6.59,11.41,4.83,4.61,9.66,8.12,13.61,6.59,3.51-1.32,6.36-4.83,8.34-9.88C247.57,199.51,247.79,192.48,248,183.05Zm-84.72-18.22a42.59,42.59,0,0,0-5.48,2.41,1.48,1.48,0,0,1-1.76-.65c-.22-.22-.22-.66-.44-.88a1.39,1.39,0,0,1,.66-1.76l5.93-2.63A1.38,1.38,0,0,1,164,162c.22.22.22.65.44.87A2.06,2.06,0,0,1,163.29,164.83Zm-46.53.44a14.71,14.71,0,0,1,4.83-2.85,16.26,16.26,0,0,1,5.49-1.1,14.77,14.77,0,0,1,5.27.88,12.45,12.45,0,0,1,4.61,2.85,17.77,17.77,0,0,1,3.29,4.61,18.74,18.74,0,0,1,1.1,5.92,14.84,14.84,0,0,1-1.54,5.93,16.9,16.9,0,0,1-3.73,5.05,38.42,38.42,0,0,1-6.15,2.85,15.07,15.07,0,0,1-6.14.66,14.66,14.66,0,0,1-5.49-1.76,15.9,15.9,0,0,1-4.17-3.51,13.22,13.22,0,0,1-2.41-5.05,15.33,15.33,0,0,1-.22-5.48,13.82,13.82,0,0,1,1.75-5.05A20,20,0,0,1,116.76,165.27ZM146,176a16,16,0,0,1-2,7.69,18.32,18.32,0,0,1-5,6.58,23.23,23.23,0,0,1-7.46,4.39c-.22,0-.44.22-.66.22a21.49,21.49,0,0,1-7.46.66,16.6,16.6,0,0,1-7.24-2.42,15.75,15.75,0,0,1-5.27-4.83,17.65,17.65,0,0,1-2.86-6.58,19.25,19.25,0,0,1,0-7,17.35,17.35,0,0,1,2.42-6.37,8,8,0,0,1,1.53-2.19,8,8,0,0,0-1.09,1.75,20.58,20.58,0,0,0-2.2,6.15,17.68,17.68,0,0,0,0,6.8,16.72,16.72,0,0,0,2.86,6.37,14.5,14.5,0,0,0,5,4.61,17.89,17.89,0,0,0,6.81,2.19,19.47,19.47,0,0,0,7.9-.88,23.87,23.87,0,0,0,7.24-4.17,19.53,19.53,0,0,0,4.83-6.36,17.71,17.71,0,0,0,1.76-7.46,22.29,22.29,0,0,0-1.32-7.47,18.19,18.19,0,0,0-4.17-5.7,16.78,16.78,0,0,0-5.71-3.3c-.66-.22-1.53-.43-2.41-.65,1.1.22,2,.43,3.07.65a16.34,16.34,0,0,1,5.93,3.52,20,20,0,0,1,4.39,5.92C145.52,171,146.17,173.39,146,176Zm28.54-18.21a55.41,55.41,0,0,1,6.36-.88,1.65,1.65,0,0,1,1.54,1.1v1.09a1.23,1.23,0,0,1-1.1,1.32,55.46,55.46,0,0,0-5.93.88c-.65.22-1.31-.22-1.53-1.1,0-.44-.22-.66-.22-.88A1.24,1.24,0,0,1,174.49,157.81Zm-24.15,35.55a7.27,7.27,0,0,1,8.12,2.86,9.12,9.12,0,0,0-7.68-.66,9.91,9.91,0,0,0-5.92,4.61A7.51,7.51,0,0,1,150.34,193.36Zm5.27,18.44A9.94,9.94,0,0,1,143.32,205a10.88,10.88,0,0,1-.44-2.63c0,.44.22,1.1.22,1.54a9.59,9.59,0,0,0,18.44-5.27c-.22-.44-.44-1.1-.66-1.54a8.13,8.13,0,0,1,1.1,2.42A9.37,9.37,0,0,1,155.61,211.8Zm21.73-20.41A121.4,121.4,0,0,0,165.05,196a4.81,4.81,0,0,0-.66-1.1,102.61,102.61,0,0,1,12.51-4.83,91.4,91.4,0,0,1,13.17-2.63,2.75,2.75,0,0,1,.22,1.31A95.86,95.86,0,0,0,177.34,191.39Zm24.14-12.95a7.28,7.28,0,0,1,8.12,2.85,11.08,11.08,0,0,0-7.68-.88A10,10,0,0,0,196,185,8,8,0,0,1,201.48,178.44Zm-6.8,10.75a9.59,9.59,0,1,0,18.44-5.27,15.65,15.65,0,0,0-.66-1.75,6.76,6.76,0,0,1,1.31,2.85,9.93,9.93,0,1,1-19.09,5.49,12.59,12.59,0,0,1-.22-2.63C194.46,188.31,194.68,188.75,194.68,189.19Zm13.39-35.11h0a9.19,9.19,0,0,1-.88,2.2,13.27,13.27,0,0,1-1.76,1.76,4.7,4.7,0,0,1-2.19.87,4.5,4.5,0,0,1-2.42,0,6.83,6.83,0,0,1-2.19-.87,5.93,5.93,0,0,1-1.76-1.54,6.58,6.58,0,0,1-.87-2.2,3.6,3.6,0,0,1,.22-2.19,7.44,7.44,0,0,1,.87-2,6,6,0,0,1,1.76-1.53,6.62,6.62,0,0,1,2.19-.88,4.52,4.52,0,0,1,2.42,0c.66.22,1.53.44,2.19.66a9.57,9.57,0,0,1,1.54,1.32,3.89,3.89,0,0,1,.88,2A4.44,4.44,0,0,1,208.07,154.08Zm.44-9.22a4.79,4.79,0,0,1-2-1.54,4.42,4.42,0,0,1-.88-1.76,3,3,0,0,1,0-2,6.59,6.59,0,0,1,.88-1.76,9.55,9.55,0,0,1,1.54-1.31,3.52,3.52,0,0,1,2-.66,3.75,3.75,0,0,1,2.2,0,6.93,6.93,0,0,1,2,.66,2.94,2.94,0,0,1,1.54,1.31,2.72,2.72,0,0,1,.88,1.76,6.06,6.06,0,0,1,.22,2,4.2,4.2,0,0,1-.66,1.76c-.44.44-.88,1.1-1.54,1.32a7.91,7.91,0,0,1-2,.88,3.9,3.9,0,0,1-2.2,0A20.48,20.48,0,0,1,208.51,144.86Zm14,20.41A5.88,5.88,0,0,1,221,167a6.88,6.88,0,0,1-2.2,1.1,5.32,5.32,0,0,1-2.63,0,10.72,10.72,0,0,1-2.42-.88,6.62,6.62,0,0,1-1.75-1.75,10.28,10.28,0,0,1-1.1-2.2,4.46,4.46,0,0,1,0-2.41,6.59,6.59,0,0,1,.88-2.2,6.13,6.13,0,0,1,1.53-1.75,3.91,3.91,0,0,1,2.2-.88,4.48,4.48,0,0,1,2.41,0,6.59,6.59,0,0,1,2.2.88,5.88,5.88,0,0,1,1.75,1.53,6.88,6.88,0,0,1,1.1,2.2,9,9,0,0,1,.22,2.41A6.46,6.46,0,0,1,222.55,165.27Zm7.68-14.05c-.21.66-.87,1.1-1.31,1.54a7.81,7.81,0,0,1-2,.88,4.48,4.48,0,0,1-2.41,0c-.66-.22-1.54-.44-2.2-.66a5.89,5.89,0,0,1-1.75-1.54,9.09,9.09,0,0,1-1.1-2,7.48,7.48,0,0,1-.22-2.2,2.46,2.46,0,0,1,.66-1.75c.44-.44.88-1.1,1.32-1.32a7.6,7.6,0,0,1,2-.88,3.75,3.75,0,0,1,2.2,0l2,.66a12.2,12.2,0,0,1,1.76,1.32,4.53,4.53,0,0,1,1.09,1.75,3.15,3.15,0,0,1,.66,2.2A3.52,3.52,0,0,1,230.23,151.22Z"/><path class="cls-2" d="M277.42,97a22.09,22.09,0,0,0,15.81-7.9s-5.71,0-13.61-.66a76.7,76.7,0,0,0,18.43-6.58,123.79,123.79,0,0,1-16.24,3.95h0a21.54,21.54,0,0,0,11.64-10.54,106,106,0,0,1-14.05,2,84.18,84.18,0,0,0,16.68-9.66,84.92,84.92,0,0,1-14.71,6.8c4.39-2.85,7.9-7.46,9.44-14.48a115.11,115.11,0,0,1-11.63,5A77.25,77.25,0,0,0,293,50a94.88,94.88,0,0,1-15.37,13.17c4.39-4.39,7.46-10.53,7.68-19.75A85.11,85.11,0,0,1,275.45,52a77.46,77.46,0,0,0,9.87-20,87.24,87.24,0,0,1-11.63,18.22C277,44.33,278.52,36.87,277,27c0,0-2.63,4.82-7,11.41A73.17,73.17,0,0,0,275.45,18a95.57,95.57,0,0,1-8.34,20.63c2.19-7.46,2.41-16.24-.66-26.56,0,0-1.54,6.15-4.61,14.49a76.14,76.14,0,0,0-1.1-24.8,94.56,94.56,0,0,1-1.31,23.7A52.09,52.09,0,0,0,254.6,0a232.71,232.71,0,0,1-4.83,30.07,54.19,54.19,0,0,0-2.42-7.46c0,13.17-4.82,24.36-7.68,28.75S237,59,237,59c-.88-2.63.44-8.78.44-8.78-4.61,12.51-4.17,12.51,5.27,25a18.36,18.36,0,0,1,3.73,14c-1.54,8.12-8.78,14-11.2,17.12A8.26,8.26,0,0,0,234,109.3a23.21,23.21,0,0,1,2-11.41,47.78,47.78,0,0,0-8.12,31.6c-7.46-6.14-15.58-8.12-23.48-5.92a9.19,9.19,0,0,0-2.2.88c-.44.21-.66.43-.66.65,8.56-2,17.56.22,25.9,6.59a3,3,0,0,0,.88.66,1.73,1.73,0,0,0,.16.7l12.24,12a10.42,10.42,0,0,0,3.18.42,50.65,50.65,0,0,1-3.07-9.88,46.47,46.47,0,0,0,6.8,9.22,56.68,56.68,0,0,1-6.14-10.76c2.63,3.73,7,5.49,13.61,3.51a39.17,39.17,0,0,1-5.93-8.56,55.51,55.51,0,0,0,10.1,6.59,64.43,64.43,0,0,1-8.78-7c3.73,2.41,8.56,3.07,15.36.87a39.18,39.18,0,0,1-8.34-6.8,55.51,55.51,0,0,0,13.39,4.39,84.73,84.73,0,0,1-11.41-4.83c4.38,1.54,9.65,1.32,16-1.32a56.86,56.86,0,0,1-9.44-4.82,45,45,0,0,0,16.46,1.75,67.29,67.29,0,0,1-15.8-3.29,26.13,26.13,0,0,0,17.12-2.85,104.46,104.46,0,0,1-11.2-4,59.13,59.13,0,0,0,17.78.88,77.16,77.16,0,0,1-16.24-2.41,26.39,26.39,0,0,0,15.8-5s-4.61-.66-11.19-2.19a80,80,0,0,0,17.12-2.64A90.51,90.51,0,0,1,277.42,97Z"/><path class="cls-2" d="M214,143.54a2.65,2.65,0,0,0,1.1-1.1,11.06,11.06,0,0,0,.66-1.53v-1.54c-.22-.44-.44-1.1-.88-1.32-.44-.44-.88-.66-1.32-1.09-.43-.22-1.09-.44-1.53-.66h-1.76a5.6,5.6,0,0,0-1.75.66,2.57,2.57,0,0,0-1.1,1.09c-.22.44-.66.88-.66,1.32a1.88,1.88,0,0,0,0,1.54,11.06,11.06,0,0,0,.66,1.53,5.83,5.83,0,0,0,1.32,1.1,14.28,14.28,0,0,0,1.75.66h1.76C212.9,144,213.33,143.76,214,143.54Z"/><path class="cls-2" d="M114.35,184.58a11.88,11.88,0,0,0,4,3.51,11.26,11.26,0,0,0,5.27,1.54,15.07,15.07,0,0,0,6.14-.66,14.1,14.1,0,0,0,5.49-3.29,15.84,15.84,0,0,0,3.73-4.83,16.86,16.86,0,0,0,1.54-5.7,16.31,16.31,0,0,0-.88-5.71,13.18,13.18,0,0,0-3.07-4.61,10.17,10.17,0,0,0-4.39-2.63,12.89,12.89,0,0,0-5-.88,15.07,15.07,0,0,0-5.27,1.1,16.19,16.19,0,0,0-4.61,2.85,15.53,15.53,0,0,0-3.29,4.17,14.31,14.31,0,0,0-1.76,4.83,11.79,11.79,0,0,0,0,5.48A16.09,16.09,0,0,0,114.35,184.58Zm-1.1-10.09a10.45,10.45,0,0,1,1.54-4.39,15.1,15.1,0,0,1,2.85-3.73,13.6,13.6,0,0,1,4.17-2.64,11.79,11.79,0,0,1,4.83-.88,11.44,11.44,0,0,1,4.61.88,11.93,11.93,0,0,1,3.95,2.42,11.09,11.09,0,0,1,2.63,4.17,12.81,12.81,0,0,1,.88,5,13.16,13.16,0,0,1-1.32,5,15,15,0,0,1-3.29,4.17,13.32,13.32,0,0,1-4.83,2.86,11,11,0,0,1-5.26.65,17,17,0,0,1-4.83-1.31,9.37,9.37,0,0,1-3.51-3.07,10.07,10.07,0,0,1-2-4.39A9.12,9.12,0,0,1,113.25,174.49Z"/><path class="cls-2" d="M206.31,149.91a5.83,5.83,0,0,0-1.32-1.1,14.28,14.28,0,0,0-1.75-.66h-2a14.93,14.93,0,0,0-1.75.66,7.79,7.79,0,0,0-1.32,1.31,5.51,5.51,0,0,0-.88,1.54,3.05,3.05,0,0,0,0,2,4.21,4.21,0,0,0,.66,1.75l1.32,1.32a2.49,2.49,0,0,0,1.75.66h2a7.6,7.6,0,0,0,2-.88,3.74,3.74,0,0,0,1.32-1.32,2.47,2.47,0,0,0,.66-1.75,2.41,2.41,0,0,0,0-1.76C206.75,151,206.53,150.56,206.31,149.91Z"/><path d="M883.19,117.86a13.4,13.4,0,0,0-3.73,9.88v75.72a14.09,14.09,0,0,0,3.73,9.87,13.39,13.39,0,0,0,9.88,3.74,14.1,14.1,0,0,0,9.87-3.74c2.64-2.41,3.73-5.7,3.73-9.87V127.52c0-9-4.61-13.61-13.6-13.61-4.17.22-7.25,1.32-9.88,4m-2-41.92a16.06,16.06,0,0,0-4.83,11.85,17,17,0,0,0,4.83,11.85,17,17,0,0,0,23.71,0,16.43,16.43,0,0,0,0-23.7,17,17,0,0,0-23.71,0m-267.76,50.7q-12.51,12.51-12.51,31v45.87a14.09,14.09,0,0,0,3.73,9.87,13.37,13.37,0,0,0,9.87,3.74,14.11,14.11,0,0,0,9.88-3.74c2.64-2.41,3.73-5.7,3.73-9.87V157.37a14.6,14.6,0,0,1,4.61-11.2,18.83,18.83,0,0,1,11.41-5c9.22-.88,13.83-5.27,13.83-13.83a13.6,13.6,0,0,0-3.73-9.66,12.75,12.75,0,0,0-9.66-3.73c-12.51.22-22.82,4.39-31.16,12.73M515.78,94.16a14.09,14.09,0,0,0-3.73,9.87v69.36c0,12.29,4.17,22.83,12.51,31,8.34,8.34,18.65,12.51,31.16,12.51h12.73c9,0,13.61-4.61,13.61-13.83a14.18,14.18,0,0,0-3.73-9.88,13.43,13.43,0,0,0-9.88-3.73H555.72a15.21,15.21,0,0,1-11.63-4.83A16.07,16.07,0,0,1,539.26,173V141.78h29.19c9,0,13.61-4.6,13.61-13.6a14.16,14.16,0,0,0-3.73-9.88,13.43,13.43,0,0,0-9.88-3.73H539.26V103.81a14.09,14.09,0,0,0-3.73-9.87c-2.63-2.64-5.92-3.73-9.87-3.73q-6.25,0-9.88,4m184.36,88.23a24.21,24.21,0,0,1-7-17.34,23.35,23.35,0,0,1,7-17.12c4.61-4.83,10.32-7,17.12-7a24.2,24.2,0,0,1,17.34,7,23.53,23.53,0,0,1,7.24,17.34v24.36H717.48a23.54,23.54,0,0,1-17.34-7.24m-19.31-54c-9.88,9.87-14.93,22.16-14.93,36.65a50.84,50.84,0,0,0,14.93,36.87c9.87,9.88,22.17,14.93,36.65,14.93h38s7.24-1.32,9.88-3.73,3.73-5.71,3.73-9.88v-38c0-14.71-5-27-14.93-36.87S732,113.47,717.48,113.47c-14.7.22-26.78,5-36.65,14.93M834.68,77A13.23,13.23,0,0,0,831,86.69v117a13.6,13.6,0,0,0,3.73,9.65,13.41,13.41,0,0,0,9.88,3.74,14.14,14.14,0,0,0,9.88-3.74c2.63-2.41,3.73-5.7,3.73-9.87V86.69c0-9-4.61-13.6-13.61-13.6a15.38,15.38,0,0,0-9.88,4m137-4.61c-12.29,0-22.83,4.17-30.95,12.51-8.34,8.34-12.51,18.87-12.51,31.17V203a13.8,13.8,0,0,0,3.73,9.88q3.63,3.94,9.88,3.95a13.43,13.43,0,0,0,9.88-3.95A13.26,13.26,0,0,0,955.4,203V172.29H976a14.14,14.14,0,0,0,9.88-3.73,13.43,13.43,0,0,0,3.73-9.88c0-9.21-4.61-13.82-13.61-13.82H955.4V116.32a15.23,15.23,0,0,1,4.83-11.63,16.07,16.07,0,0,1,11.63-4.83h7c8.78,0,13.61-5.7,13.61-13.6s-4.61-13.83-13.61-13.83ZM1030,165.05a23.39,23.39,0,0,1,7-17.12c4.61-4.83,10.32-7,17.12-7a22,22,0,0,1,5.27.65l-29.19,27.66a27.92,27.92,0,0,1-.22-4.17m-12.51-36.65c-9.88,9.87-14.92,22.16-14.92,36.65s4.82,26.78,14.92,36.87c9.88,9.88,22.17,14.93,36.65,14.93h18a14,14,0,0,0,9.88-23.49,13.44,13.44,0,0,0-9.88-3.73h-18a23.81,23.81,0,0,1-5.7-.66l41.26-39.06c4-3.08,5.93-6.59,5.93-11.2a13.39,13.39,0,0,0-4-9.22c-10.09-10.53-22.6-15.8-37.31-15.8s-27,4.83-36.87,14.71M328.78,165.05a23.39,23.39,0,0,1,7-17.12c4.61-4.83,10.32-7,17.12-7a22,22,0,0,1,5.27.65L329,169.22c0-1.54-.22-2.85-.22-4.17M316.49,128.4c-9.88,9.87-14.92,22.16-14.92,36.65a50.83,50.83,0,0,0,14.92,36.87c9.88,9.88,22.17,14.93,36.65,14.93h18A14,14,0,0,0,381,193.36a13.44,13.44,0,0,0-9.88-3.73h-18a23.81,23.81,0,0,1-5.7-.66l41.26-39.06c3.95-3.08,5.93-6.59,5.93-11.2a13.39,13.39,0,0,0-4-9.22c-10.09-10.53-22.6-15.8-37.31-15.8-14.92,0-27,4.83-36.87,14.71M487,216.85a14.26,14.26,0,0,1-9-3.52,48.64,48.64,0,0,1-7.68-8.34l-18.22-22.82L433.47,205c-3.07,4-5.48,6.81-7.68,8.34-2.41,1.76-5.05,3.52-8.56,3.52-3.73,0-7.24-1.76-10.09-3.95-2.86-2.42-4.17-5.05-4.17-8.12s2-7.25,5.92-12.52l23.71-29.63-20.86-23.92c-3.95-4.83-5.92-9-5.92-13a10.41,10.41,0,0,1,3.95-8.12c2.63-2.19,5.93-4.17,9.88-4.17,3.51,0,6.58,1.76,9,3.73a47.22,47.22,0,0,1,7.47,8.12l16.24,21.73,15.8-21.51a42.33,42.33,0,0,1,7.68-8.34c2.42-1.75,5.27-3.29,8.56-3.29a17.17,17.17,0,0,1,10.1,3.73,10,10,0,0,1,4.17,8.12,16,16,0,0,1-1.54,6.37c-1.09,1.75-2.63,4-4.61,6.58l-20.85,23.92,23.71,29.63c4.17,5.49,6.14,9.66,6.14,12.73a9.7,9.7,0,0,1-4.17,8.13C494.27,215.09,491,216.85,487,216.85Zm623.1-104.26v1.76h-4.83v12.51h-2V114.35h-4.83v-1.76Zm1.76,0h2.85l4.17,12.07,3.95-12.07h2.63v14.27h-1.75V114.79l-4.17,12.07h-2l-4.17-12.07v11.85h-1.75v-14Zm70.23,120.94-41.26-47.19a7.06,7.06,0,0,0-10.1-.66l-47.19,41.48a7,7,0,0,0-.65,10.1l41.26,47.19a7,7,0,0,0,10.09.65l47.19-41.26A7.71,7.71,0,0,0,1182.12,233.53ZM1108.38,237a6.38,6.38,0,1,1,.65-9A6.52,6.52,0,0,1,1108.38,237Zm13.82,15.8a6.38,6.38,0,1,1,.66-9A6.51,6.51,0,0,1,1122.2,252.84Zm13.83,15.8a6.38,6.38,0,1,1,.66-9A6.52,6.52,0,0,1,1136,268.64Zm2.19-56.62a6.38,6.38,0,1,1,.66-9A6.51,6.51,0,0,1,1138.22,212Zm13.83,15.58a6.38,6.38,0,1,1,.66-9A6.5,6.5,0,0,1,1152.05,227.6Zm13.83,15.8a6.38,6.38,0,1,1,.66-9A6.52,6.52,0,0,1,1165.88,243.4Z"/><path class="cls-2" d="M1199.9,194.24l-11-61.89a6.91,6.91,0,0,0-8.34-5.71l-61.89,11A6.93,6.93,0,0,0,1113,146l7.91,44.12,9-7.9c3.3-2.85,9-2.64,11.86.88l21.94,25,30.73-5.49A7.27,7.27,0,0,0,1199.9,194.24Zm-67.16-34a6.46,6.46,0,1,1,5.27-7.46A6.63,6.63,0,0,1,1132.74,160.22Zm24.8,16.9a6.46,6.46,0,1,1,5.27-7.46A6.45,6.45,0,0,1,1157.54,177.12Zm25,16.9a6.46,6.46,0,1,1,5.27-7.46A6.62,6.62,0,0,1,1182.56,194Z"/></g></svg>