<svg xmlns="http://www.w3.org/2000/svg" viewBox="0 0 94.5 64.65"><defs><style>.cls-1{fill:#ffcb05;}</style></defs><g id="hospital"><path class="cls-1" d="M89.22,57.76a3.36,3.36,0,0,0,.17-1.06V17.85a3.33,3.33,0,0,0-3.33-3.34H67.49V55.87a5.65,5.65,0,0,1-.33,1.89H65a3.36,3.36,0,0,0,.17-1.06V3.34A3.33,3.33,0,0,0,61.82,0H32.69a3.34,3.34,0,0,0-3.34,3.34V56.7a3.37,3.37,0,0,0,.18,1.06H27.35A5.65,5.65,0,0,1,27,55.87V14.51H8.9a3.33,3.33,0,0,0-3.34,3.34V56.7a3.36,3.36,0,0,0,.17,1.06H0v6.89H94.5V57.76ZM15.56,44.14H10.78V39.36h4.78Zm0-8.39H10.78V31h4.78Zm0-8.12H10.78V22.85h4.78ZM23,44.14H18.23V39.36H23Zm0-8.39H18.23V31H23Zm0-8.12H18.23V22.85H23ZM54.67,57.54h-14V40h14ZM47.25,25A11.76,11.76,0,1,1,59,13.26,11.77,11.77,0,0,1,47.25,25ZM77.61,44.14H72.83V39.36h4.78Zm0-8.39H72.83V31h4.78Zm0-8.12H72.83V22.85h4.78Zm7.44,16.51H80.27V39.36h4.78Zm0-8.39H80.27V31h4.78Zm0-8.12H80.27V22.85h4.78ZM50.17,10.34h4.5v5.84h-4.5v4.5H44.33v-4.5h-4.5V10.34h4.5V5.84h5.84Z"/></g></svg>