<svg xmlns="http://www.w3.org/2000/svg" viewBox="0 0 99.98 100"><defs><style>.cls-1{fill:#fff;}</style></defs><g id="instagram"><path class="cls-1" d="M50.13,37.74c-16.24,0-16.22,24.54,0,24.54S66.35,37.74,50.13,37.74Z"/><path class="cls-1" d="M46.83,19.83h0C22.29,19.85,20,20.31,20,50c0,29.34.84,30.18,30.17,30.18,16.08,0,29.17,1.89,29.95-15.3C82.3,16.28,78.29,19.78,46.83,19.83Zm3.3,49.08a18.9,18.9,0,0,1,0-37.8h0a18.9,18.9,0,0,1,0,37.8ZM69.78,34.77a4.42,4.42,0,1,1,4.42-4.42A4.42,4.42,0,0,1,69.78,34.77Z"/><path class="cls-1" d="M99.88,21.76C98.9,9.27,91.21,2.07,81.08.62,78.76.28,78.29.18,66.38.16,24.12.18,14.86-1.7,6.52,6.94h0C-1.31,15.08.29,23.72.29,50c0,21.81-3.8,43.67,16.11,48.82,6.22,1.6,61.32,1.6,67.53,0,8.29-2.14,15-8.86,16-20.59C100,76.57,100,23.43,99.88,21.76ZM85,74.12c-5.54,14.21-20.43,12.7-34.87,12.7-15,0-29.41,1.35-34.87-12.7C13,68.37,13.32,59.47,13.32,50c0-10.78-.33-18.31,1.93-24.11,5.47-14,19.79-12.7,34.87-12.7,14,0,23.56-.88,30.62,6.18S86.92,35.63,86.92,50C86.92,60.84,87.26,68.26,85,74.12Z"/></g></svg>