<svg xmlns="http://www.w3.org/2000/svg" viewBox="0 0 141.61 100"><defs><style>.cls-1{fill:none;}.cls-2{fill:#a8e83a;}.cls-3{fill:#73cc00;}</style></defs><g id="money"><path class="cls-1" d="M62.73,12.77A21.23,21.23,0,0,1,83.87,32h35.68V17.11h0a1.79,1.79,0,0,0-1-1.63A16.33,16.33,0,0,1,110.09,7,1.78,1.78,0,0,0,109,6a1.75,1.75,0,0,0-.51-.08H17A1.78,1.78,0,0,0,15.37,7,16.33,16.33,0,0,1,7,15.47,1.79,1.79,0,0,0,5.9,17.11v33.8A1.79,1.79,0,0,0,7,52.55a16.32,16.32,0,0,1,7.56,6.8q.23.39.42.78a.43.43,0,0,0,0,.07c.13.27.26.54.38.81v0a1.75,1.75,0,0,0,.78.85V37.21A5.23,5.23,0,0,1,21.38,32H41.59A21.23,21.23,0,0,1,62.73,12.77Z"/><path class="cls-1" d="M134.65,47.45a13.43,13.43,0,0,1-1.37-.68c-.45-.25-.88-.52-1.3-.81s-.83-.6-1.22-.92A16.52,16.52,0,0,1,126.24,39a1.77,1.77,0,0,0-1.64-1.07H33.16A1.77,1.77,0,0,0,31.52,39a16.3,16.3,0,0,1-8.41,8.49,1.79,1.79,0,0,0-1.05,1.64V82.9a1.79,1.79,0,0,0,1.05,1.63,16.31,16.31,0,0,1,7.69,7l.14.25.2.39.1.21c.1.2.19.41.28.61a1.79,1.79,0,0,0,1.38,1.06l.26,0H124.6A1.78,1.78,0,0,0,126.24,93a16.37,16.37,0,0,1,8.41-8.49,1.78,1.78,0,0,0,1.06-1.63V49.09A1.79,1.79,0,0,0,134.65,47.45ZM78.88,87.23A21.24,21.24,0,1,1,100.12,66,21.24,21.24,0,0,1,78.88,87.23Z"/><path class="cls-2" d="M58.77,27.24c0,2.12,1.6,2.9,3.57,3.64V24.11C60.25,24.37,58.77,25.3,58.77,27.24Z"/><path class="cls-3" d="M64.31,24c2.6.18,3.57,1.37,4.46,1.37,1.12,0,1.64-1.41,1.64-2.12,0-1.82-3.57-2.6-6.1-2.68v-1c0-.45-.56-.86-1.12-.86a1,1,0,0,0-1.08.86v1.08c-3.53.37-7.06,2.23-7.06,6.92A6,6,0,0,0,56.66,32h8.67q-.51-.21-1-.39Zm-2,6.84c-2-.74-3.57-1.52-3.57-3.64,0-1.94,1.48-2.87,3.57-3.13Z"/><path class="cls-2" d="M138.42,32.39a5.34,5.34,0,0,0-2-.41H125.46V5.23A5.23,5.23,0,0,0,120.23,0H5.23A5.23,5.23,0,0,0,0,5.23V62.79A5.23,5.23,0,0,0,5.23,68H16.15V94.77a5.28,5.28,0,0,0,.37,1.91h0a3.09,3.09,0,0,0,.14.32l0,.07.16.31,0,0a5.29,5.29,0,0,0,.62.85l.09.1c.07.07.13.14.2.2l.12.11.27.23a2.27,2.27,0,0,0,.25.18l.17.12.22.13.17.09.26.13.15.07.42.15.1,0,.36.09.15,0,.34,0,.14,0,.48,0h115l.49,0,.15,0,.33,0,.17,0,.3-.08.16,0,.38-.14.17-.08.28-.13.19-.11.19-.12.21-.13.15-.12.21-.17,0,0a3.94,3.94,0,0,0,.5-.5s0,0,0,0l.21-.27,0-.06c.07-.1.14-.19.2-.29l0,0a5.14,5.14,0,0,0,.73-2,.68.68,0,0,1,0-.14c0-.07,0-.14,0-.2s0-.28,0-.42V37.21A5.25,5.25,0,0,0,138.42,32.39ZM16.15,37.21V61.89a1.75,1.75,0,0,1-.78-.85v0c-.12-.27-.25-.54-.38-.81a.43.43,0,0,1,0-.07q-.19-.39-.42-.78A16.32,16.32,0,0,0,7,52.55,1.79,1.79,0,0,1,5.9,50.91V17.11A1.79,1.79,0,0,1,7,15.47,16.33,16.33,0,0,0,15.37,7,1.78,1.78,0,0,1,17,5.9h91.44A1.75,1.75,0,0,1,109,6a1.78,1.78,0,0,1,1.13,1,16.33,16.33,0,0,0,8.41,8.49,1.79,1.79,0,0,1,1,1.63h0V32H83.87a21.24,21.24,0,0,0-42.28,0H21.38A5.23,5.23,0,0,0,16.15,37.21ZM56.66,32a6,6,0,0,1-1.61-4.37c0-4.69,3.53-6.55,7.06-6.92V19.61a1,1,0,0,1,1.08-.86c.56,0,1.12.41,1.12.86v1c2.53.08,6.1.86,6.1,2.68,0,.71-.52,2.12-1.64,2.12-.89,0-1.86-1.19-4.46-1.37v7.55q.51.18,1,.39ZM135.71,82.9a1.78,1.78,0,0,1-1.06,1.63A16.37,16.37,0,0,0,126.24,93a1.78,1.78,0,0,1-1.64,1.08H33.16l-.26,0A1.79,1.79,0,0,1,31.52,93c-.09-.2-.18-.41-.28-.61l-.1-.21-.2-.39-.14-.25a16.31,16.31,0,0,0-7.69-7,1.79,1.79,0,0,1-1.05-1.63V49.09a1.79,1.79,0,0,1,1.05-1.64A16.3,16.3,0,0,0,31.52,39a1.77,1.77,0,0,1,1.64-1.07H124.6A1.77,1.77,0,0,1,126.24,39,16.52,16.52,0,0,0,130.76,45c.39.32.8.63,1.22.92s.85.56,1.3.81a13.43,13.43,0,0,0,1.37.68,1.79,1.79,0,0,1,1.06,1.64Z"/><path class="cls-2" d="M79.73,67.7v7.85c2-.37,3.27-1.56,3.27-3.68C83,69.53,81.55,68.48,79.73,67.7Z"/><path class="cls-2" d="M74.41,59.22c0,2.12,1.6,2.9,3.57,3.65V56.1C75.9,56.36,74.41,57.29,74.41,59.22Z"/><path class="cls-2" d="M78.88,44.75A21.24,21.24,0,1,0,100.12,66,21.24,21.24,0,0,0,78.88,44.75ZM80,79.12v1.27c0,.45-.55.86-1.11.86a1,1,0,0,1-1.08-.86V79.24C73.15,79.16,70,76.67,70,74.85c0-.9.78-2.12,1.71-2.12,1.23,0,2.23,2.6,6,2.9V66.88c-3.35-1.19-7.07-2.53-7.07-7.29s3.53-6.55,7.07-6.92V51.59a1,1,0,0,1,1.08-.85c.56,0,1.11.41,1.11.85v1c2.53.07,6.11.85,6.11,2.68,0,.7-.52,2.12-1.64,2.12-.89,0-1.86-1.19-4.47-1.38v7.55c3.24,1.19,6.78,2.83,6.78,7.89C86.73,76,84,78.57,80,79.12Z"/><path class="cls-3" d="M80,63.57V56c2.61.19,3.58,1.38,4.47,1.38,1.12,0,1.64-1.42,1.64-2.12,0-1.83-3.58-2.61-6.11-2.68v-1c0-.44-.55-.85-1.11-.85a1,1,0,0,0-1.08.85v1.08c-3.54.37-7.07,2.23-7.07,6.92s3.72,6.1,7.07,7.29v8.75c-3.8-.3-4.8-2.9-6-2.9C70.8,72.73,70,74,70,74.85c0,1.82,3.13,4.31,7.74,4.39v1.15a1,1,0,0,0,1.08.86c.56,0,1.11-.41,1.11-.86V79.12c4-.55,6.78-3.08,6.78-7.66C86.73,66.4,83.19,64.76,80,63.57Zm-2-.7c-2-.75-3.57-1.53-3.57-3.65,0-1.93,1.49-2.86,3.57-3.12Zm1.75,12.68V67.7c1.82.78,3.28,1.83,3.27,4.17C83,74,81.74,75.18,79.73,75.55Z"/></g></svg>