<svg xmlns="http://www.w3.org/2000/svg" viewBox="0 0 130.72 100"><defs><style>.cls-1{fill:#fff;}</style></defs><g id="play-games"><path class="cls-1" d="M48,40.64a4.65,4.65,0,0,0-6-2.82L3.12,52a4.65,4.65,0,0,0-2.81,6L14.38,96.88a4.65,4.65,0,0,0,6,2.81L59.23,85.62a5.09,5.09,0,0,0,2.86-6.18ZM10.63,61.46a4.2,4.2,0,1,1,7.91-2.82A4.3,4.3,0,0,1,16,64,4.15,4.15,0,0,1,10.63,61.46Zm4.71,13a4.2,4.2,0,0,1,7.92-2.81A4.3,4.3,0,0,1,20.71,77,4.17,4.17,0,0,1,15.34,74.45ZM25.43,90A4.2,4.2,0,1,1,28,84.64,4.29,4.29,0,0,1,25.43,90Zm9.49-36.78a4.2,4.2,0,1,1,7.91-2.82,4.29,4.29,0,0,1-2.55,5.37A4.15,4.15,0,0,1,34.92,53.22Zm4.77,12.86a4.2,4.2,0,1,1,7.91-2.81,4.28,4.28,0,0,1-2.55,5.36A4.14,4.14,0,0,1,39.69,66.08ZM49.77,81.63a4.2,4.2,0,1,1,2.55-5.36A4.28,4.28,0,0,1,49.77,81.63Z"/><path class="cls-1" d="M117.87,51.81s-7.76-5.62-13.84,1c0,0-4.87,8.63-12.94,3.21,0,0-6.42-4.32-12.51,3.43,0,0-6.64,12.72-3.87,25.44,0,0,10.1,25.5,21.92,1.13,0,0,8.5-6.11,14-2.79,0,0,20.18,15.4,20-5.58C130.72,77.67,123.42,53.56,117.87,51.81ZM94.7,72.13l-4.48.43.49,5.14a.74.74,0,0,1-.61.86l-1.72.17a.76.76,0,0,1-.77-.73l-.49-5.14-4.49.43a.74.74,0,0,1-.76-.72l-.19-2a.76.76,0,0,1,.61-.86l4.48-.43-.49-5.14a.74.74,0,0,1,.61-.85l1.73-.17a.74.74,0,0,1,.76.73l.5,5.13,4.48-.43a.77.77,0,0,1,.77.73l.19,2A.76.76,0,0,1,94.7,72.13Zm14.31.61A2.77,2.77,0,1,1,111.77,70,2.77,2.77,0,0,1,109,72.74Zm4.42-8.3a2.77,2.77,0,1,1,2.77-2.76A2.75,2.75,0,0,1,113.43,64.44Z"/><path class="cls-1" d="M77.48,45.91A23,23,0,1,0,54.52,23,23,23,0,0,0,77.48,45.91Zm0-43.14A20.19,20.19,0,1,1,57.28,23,20.21,20.21,0,0,1,77.48,2.77Z"/><path class="cls-1" d="M70.85,15.21h.07a4.56,4.56,0,0,1,3.35,2.15l2.64-2c-1.71-2.24-3.7-3.41-5.92-3.46-3.77-.09-6.62,3.26-6.73,3.4l2.55,2.13S68.71,15.21,70.85,15.21Z"/><path class="cls-1" d="M84.68,15.21h.07a4.56,4.56,0,0,1,3.35,2.15l2.64-2C89,13.11,87,11.94,84.82,11.89h-.14c-3.72,0-6.48,3.26-6.59,3.4l2.54,2.13S82.54,15.21,84.68,15.21Z"/><path class="cls-1" d="M88.5,26H66.14S77.12,46.47,88.5,26Z"/></g></svg>