<svg xmlns="http://www.w3.org/2000/svg" viewBox="0 0 151.53 100"><defs><style>.cls-1{fill:#fff;}</style></defs><g id="recruit"><path class="cls-1" d="M111.29,4A39.82,39.82,0,0,0,84.62,14.11,49.86,49.86,0,1,0,66.32,97c11.92,2.24,18.83,3,23,3,5.17,0,5.92-1.24,6.61-2.4L97.44,95,95,93.26c-1.83-1.31-6.49-5.16-8.86-9.07,4.27-.51,9.06-1.35,12.09-1.91A40.24,40.24,0,1,0,111.29,4ZM66.66,90.39l-.89-.17-.86.32A43.35,43.35,0,1,1,80.09,18.82a3.92,3.92,0,0,0-.25.32l-.46.59c-.23.29-.44.58-.66.88l-.44.61-.61.9-.41.63-.57.94-.37.62c-.2.35-.38.7-.57,1.05l-.3.55c-.24.47-.47,1-.7,1.44l-.09.19c-.25.54-.48,1.1-.71,1.65l-.21.56c-.14.38-.29.76-.42,1.14-.08.22-.15.45-.23.68s-.23.69-.33,1-.14.49-.21.73-.19.68-.28,1l-.18.75c-.08.34-.15.68-.22,1l-.15.76L71.54,38c0,.25-.08.5-.11.76s-.09.73-.13,1.1-.06.48-.08.72c0,.41-.06.81-.09,1.22,0,.21,0,.41,0,.61,0,.62,0,1.23,0,1.85A39.84,39.84,0,0,0,81.72,71.5a29.56,29.56,0,0,1-6.59,6.57l-2.46,1.75,1.55,2.6a4.38,4.38,0,0,0,.39.54l.15.15a3.14,3.14,0,0,0,.32.31l.2.15.34.22.25.13a3.34,3.34,0,0,0,.38.17l.28.11a4.38,4.38,0,0,0,.43.13l.31.07a4,4,0,0,0,.5.09l.32.05c.2,0,.41,0,.62.06l.3,0h0l0,.09A27.3,27.3,0,0,0,85,93.2C80.79,92.79,74.65,91.9,66.66,90.39Zm44.63-12.47A33.43,33.43,0,0,1,99.6,75.83l-.85-.31-.89.17c-2.86.54-8.13,1.49-12.68,2l.66-.8.39-.49a18.17,18.17,0,0,0,2.53-4.32l.8-2L88,68.54a33.7,33.7,0,0,1,23.31-58,33.7,33.7,0,1,1,0,67.4Z"/><path class="cls-1" d="M50.16,18.7A18.9,18.9,0,0,0,47,18.44,21.07,21.07,0,0,0,26,39.39v.16A28.17,28.17,0,0,0,29.08,51.6a55.65,55.65,0,0,0,9.63,13.51c2.15,2.29,4,4,5,4.82l0,0a2.94,2.94,0,0,0,.45.33,5,5,0,0,0,5.23.16s.23-.13.61-.44c0,0,0,0,.08,0s0,0,0,0a69,69,0,0,0,8.31-8.56,50.36,50.36,0,0,0,6.34-9.74,28.12,28.12,0,0,0,3.06-12.08v-.1A21,21,0,0,0,50.16,18.7ZM60,39.49a20.32,20.32,0,0,1-2.27,8.72,48.36,48.36,0,0,1-8.29,11.52c-.91,1-1.75,1.84-2.49,2.52a68.49,68.49,0,0,1-5.81-6.32,40.55,40.55,0,0,1-5.1-8,20.35,20.35,0,0,1-2.14-8.46v-.1A13,13,0,0,1,45,26.52a13.21,13.21,0,0,1,4,0A13.09,13.09,0,0,1,60,39.39Z"/><path class="cls-1" d="M41.93,78.79a4,4,0,0,0,4,4.06h1.94a4,4,0,0,0,4-4.06V75h-10Z"/><path class="cls-1" d="M110,47.33a9.71,9.71,0,0,0-3.07-1,8,8,0,0,0,3.94-7,7.48,7.48,0,1,0-14.94,0,8,8,0,0,0,4,7,9.83,9.83,0,0,0-3.19,1.11,9.66,9.66,0,0,0-4.92,8.41v3H115v-3A9.65,9.65,0,0,0,110,47.33Z"/><path class="cls-1" d="M123.17,43.77A8.28,8.28,0,0,0,124,43a7,7,0,0,0,1.82-4.81,6.68,6.68,0,0,0-6.49-6.78h0a6.67,6.67,0,0,0-6.42,6.89,6.94,6.94,0,0,0,2.64,5.45,9.35,9.35,0,0,0-3,1.3,13.2,13.2,0,0,1,2,1.65,12.79,12.79,0,0,1,3.76,9.08v1.4h12.35V53.13A9.62,9.62,0,0,0,123.17,43.77Z"/></g></svg>