<svg xmlns="http://www.w3.org/2000/svg" viewBox="0 0 118.64 100"><defs><style>.cls-1{fill:#fff;}</style></defs><g id="sign-up"><path class="cls-1" d="M116,20.35a33.32,33.32,0,0,0-60.41-2.11h-49A6.56,6.56,0,0,0,0,24.8V93.44A6.56,6.56,0,0,0,6.56,100H83a6.57,6.57,0,0,0,6.56-6.56V66.36a33.33,33.33,0,0,0,26.44-46ZM84.87,93.44A1.85,1.85,0,0,1,83,95.29H6.56a1.85,1.85,0,0,1-1.85-1.85V24.8A1.85,1.85,0,0,1,6.56,23H53.65v0c-.06.17-.11.34-.17.51l0,.13c0,.19-.11.37-.16.56l0,0c0,.18-.09.35-.14.52a1,1,0,0,1,0,.14c0,.19-.09.37-.14.56v.05L52.8,26l0,.15-.12.56v.05c0,.18-.07.35-.1.53l0,.15-.09.56v0c0,.18,0,.36-.08.53s0,.1,0,.15-.05.39-.07.58v0l-.06.54v.15c0,.2,0,.39,0,.59v0c0,.19,0,.38,0,.56v.15L52,32v0c0,.19,0,.38,0,.57v.15c0,.2,0,.4,0,.6a34.16,34.16,0,0,0,.22,3.8h-20a1.91,1.91,0,0,0,0,3.81H52.88a34.2,34.2,0,0,0,1.74,5.36,33.45,33.45,0,0,0,5,8.2c.68.82,1.41,1.62,2.17,2.39l.4.38H32.21a1.91,1.91,0,0,0,0,3.81H66.88A32.69,32.69,0,0,0,72.35,64l.2.08.56.23.32.12.45.17.34.13.43.15L75,65l.42.14.37.11.42.12.36.1.42.12.38.09.42.1.37.08.42.09L79,66l.43.08.37.06.43.07.38.06.43.06.38,0,.44,0,.38,0,.43,0,.39,0,.43,0,.39,0,.44,0h.59Zm2.21-31.57c-.61,0-1.19.05-1.76.05A28.6,28.6,0,0,1,69.61,9.41,28.61,28.61,0,1,1,87.08,61.87Z"/><path class="cls-1" d="M71.09,77.4H32.21a1.91,1.91,0,0,0,0,3.81H71.09a1.91,1.91,0,1,0,0-3.81Z"/><rect class="cls-1" x="75.24" y="29.12" width="18.64" height="7.88" rx="1.56" transform="matrix(0.53, -0.85, 0.85, 0.53, 11.44, 86.89)"/><path class="cls-1" d="M81.31,44.4l-5.6-3.53a.59.59,0,0,0-.91.47L74.54,48a.59.59,0,0,0,.87.55l5.86-3.08A.6.6,0,0,0,81.31,44.4Z"/><path class="cls-1" d="M93.6,18.75c-1.92-1.22-4.8-.09-6.44,2.5l0,.05,7,4.38,0,0C95.75,23.05,95.52,20,93.6,18.75Z"/><path class="cls-1" d="M16.11,44.87l-2.78-6a2.2,2.2,0,0,0-2-1h-.09c-1.46,0-2.47,1-2,1.9l3.86,6.84a2.24,2.24,0,0,0,2,.91h.59a4.28,4.28,0,0,0,3.76-1.75l8.86-17.41-2.9,1.35Z"/><path class="cls-1" d="M16.11,64l-2.78-6a2.2,2.2,0,0,0-2-1h-.09c-1.46,0-2.47,1-2,1.9l3.86,6.84a2.24,2.24,0,0,0,2,.91h.59A4.28,4.28,0,0,0,19.45,65l8.86-17.41-2.9,1.34Z"/><path class="cls-1" d="M16.11,84.24l-2.78-6a2.2,2.2,0,0,0-2-1h-.09c-1.46,0-2.47,1-2,1.9L13.14,86a2.24,2.24,0,0,0,2,.91h.59a4.28,4.28,0,0,0,3.76-1.75l8.86-17.41-2.9,1.34Z"/></g></svg>