<svg xmlns="http://www.w3.org/2000/svg" viewBox="0 0 100 100"><defs><style>.cls-1{fill:#fff;}</style></defs><g id="twitter"><path class="cls-1" d="M87.5,100h-75A12.5,12.5,0,0,1,0,87.5v-75A12.5,12.5,0,0,1,12.5,0h75A12.5,12.5,0,0,1,100,12.5v75A12.5,12.5,0,0,1,87.5,100ZM38.38,75.33c23.57,0,36.47-19.55,36.47-36.47,0-.55,0-1.1,0-1.65a26.11,26.11,0,0,0,6.4-6.65,25.94,25.94,0,0,1-7.37,2,12.86,12.86,0,0,0,5.65-7.1,25.18,25.18,0,0,1-8.15,3.1,12.83,12.83,0,0,0-22.18,8.78,14.12,14.12,0,0,0,.33,2.92,36.37,36.37,0,0,1-26.42-13.4,12.87,12.87,0,0,0,4,17.13,13,13,0,0,1-5.8-1.6v.17A12.85,12.85,0,0,0,31.52,55.16a12.76,12.76,0,0,1-5.77.22,12.82,12.82,0,0,0,12,8.9,26,26,0,0,1-19,5.33,36.47,36.47,0,0,0,19.63,5.72"/></g></svg>